<?xml version="1.0" encoding="UTF-8" standalone="no"?>
<!DOCTYPE svg PUBLIC "-//W3C//DTD SVG 1.1//EN"
 "http://www.w3.org/Graphics/SVG/1.1/DTD/svg11.dtd">
<!-- Generated by graphviz version 2.40.1 (20161225.0304)
 -->
<!-- Title: %3 Pages: 1 -->
<svg width="462pt" height="116pt"
 viewBox="0.00 0.00 462.00 116.00" xmlns="http://www.w3.org/2000/svg" xmlns:xlink="http://www.w3.org/1999/xlink">
<g id="graph0" class="graph" transform="scale(1 1) rotate(0) translate(4 112)">
<title>%3</title>
<polygon fill="transparent" stroke="transparent" points="-4,4 -4,-112 458,-112 458,4 -4,4"/>
<!-- 1 -->
<g id="node1" class="node">
<title>1</title>
<polygon fill="#d3d3d3" stroke="#000000" points="348,-36 97,-36 97,0 348,0 348,-36"/>
<text text-anchor="middle" x="222.5" y="-15.5" font-family="Fira Mono" font-size="10.00" fill="#000000">CL&#45;DATA&#45;STRUCTURES:INITIALIZATION&#45;ERROR</text>
</g>
<!-- 3 -->
<g id="node2" class="node">
<title>3</title>
<polygon fill="#d3d3d3" stroke="#000000" points="209,-108 0,-108 0,-72 209,-72 209,-108"/>
<text text-anchor="middle" x="104.5" y="-87.5" font-family="Fira Mono" font-size="10.00" fill="#000000">CL&#45;DATA&#45;STRUCTURES:TEXTUAL&#45;ERROR</text>
</g>
<!-- 1&#45;&gt;3 -->
<g id="edge1" class="edge">
<title>1&#45;&gt;3</title>
<path fill="none" stroke="#000000" d="M192.7236,-36.1686C177.6307,-45.3779 159.1243,-56.6699 142.9657,-66.5294"/>
<polygon fill="none" stroke="#000000" points="140.9802,-63.6407 134.2669,-71.8372 144.6263,-69.6162 140.9802,-63.6407"/>
</g>
<!-- 2 -->
<g id="node3" class="node">
<title>2</title>
<polygon fill="#d3d3d3" stroke="#000000" points="454,-108 227,-108 227,-72 454,-72 454,-108"/>
<text text-anchor="middle" x="340.5" y="-87.5" font-family="Fira Mono" font-size="10.00" fill="#000000">MORE&#45;CONDITIONS:REFERENCE&#45;CONDITION</text>
</g>
<!-- 1&#45;&gt;2 -->
<g id="edge2" class="edge">
<title>1&#45;&gt;2</title>
<path fill="none" stroke="#000000" d="M252.2764,-36.1686C267.3693,-45.3779 285.8757,-56.6699 302.0343,-66.5294"/>
<polygon fill="none" stroke="#000000" points="300.3737,-69.6162 310.7331,-71.8372 304.0198,-63.6407 300.3737,-69.6162"/>
</g>
</g>
</svg>
