<?xml version="1.0" encoding="UTF-8" standalone="no"?>
<!DOCTYPE svg PUBLIC "-//W3C//DTD SVG 1.1//EN"
 "http://www.w3.org/Graphics/SVG/1.1/DTD/svg11.dtd">
<!-- Generated by graphviz version 2.40.1 (20161225.0304)
 -->
<!-- Title: %3 Pages: 1 -->
<svg width="731pt" height="260pt"
 viewBox="0.00 0.00 731.00 260.00" xmlns="http://www.w3.org/2000/svg" xmlns:xlink="http://www.w3.org/1999/xlink">
<g id="graph0" class="graph" transform="scale(1 1) rotate(0) translate(4 256)">
<title>%3</title>
<polygon fill="transparent" stroke="transparent" points="-4,4 -4,-256 727,-256 727,4 -4,4"/>
<!-- 1 -->
<g id="node1" class="node">
<title>1</title>
<polygon fill="#d3d3d3" stroke="#000000" points="570,-36 271,-36 271,0 570,0 570,-36"/>
<text text-anchor="middle" x="420.5" y="-15.5" font-family="Fira Mono" font-size="10.00" fill="#000000">CL&#45;DATA&#45;STRUCTURES:INITIALIZATION&#45;OUT&#45;OF&#45;BOUNDS</text>
</g>
<!-- 5 -->
<g id="node2" class="node">
<title>5</title>
<polygon fill="#d3d3d3" stroke="#000000" points="472,-108 209,-108 209,-72 472,-72 472,-108"/>
<text text-anchor="middle" x="340.5" y="-87.5" font-family="Fira Mono" font-size="10.00" fill="#000000">CL&#45;DATA&#45;STRUCTURES:ARGUMENT&#45;OUT&#45;OF&#45;BOUNDS</text>
</g>
<!-- 1&#45;&gt;5 -->
<g id="edge1" class="edge">
<title>1&#45;&gt;5</title>
<path fill="none" stroke="#000000" d="M400.3126,-36.1686C390.6486,-44.8663 378.9204,-55.4217 368.4184,-64.8735"/>
<polygon fill="none" stroke="#000000" points="365.7725,-62.546 360.6809,-71.8372 370.4553,-67.749 365.7725,-62.546"/>
</g>
<!-- 2 -->
<g id="node5" class="node">
<title>2</title>
<polygon fill="#d3d3d3" stroke="#000000" points="723,-180 472,-180 472,-144 723,-144 723,-180"/>
<text text-anchor="middle" x="597.5" y="-159.5" font-family="Fira Mono" font-size="10.00" fill="#000000">CL&#45;DATA&#45;STRUCTURES:INITIALIZATION&#45;ERROR</text>
</g>
<!-- 1&#45;&gt;2 -->
<g id="edge2" class="edge">
<title>1&#45;&gt;2</title>
<path fill="none" stroke="#000000" d="M442.9172,-36.2377C474.437,-61.881 531.9397,-108.6628 567.2303,-137.3738"/>
<polygon fill="none" stroke="#000000" points="565.2989,-140.3145 575.2648,-143.9104 569.7165,-134.8845 565.2989,-140.3145"/>
</g>
<!-- 7 -->
<g id="node3" class="node">
<title>7</title>
<polygon fill="#d3d3d3" stroke="#000000" points="209,-180 0,-180 0,-144 209,-144 209,-180"/>
<text text-anchor="middle" x="104.5" y="-159.5" font-family="Fira Mono" font-size="10.00" fill="#000000">CL&#45;DATA&#45;STRUCTURES:OUT&#45;OF&#45;BOUNDS</text>
</g>
<!-- 5&#45;&gt;7 -->
<g id="edge3" class="edge">
<title>5&#45;&gt;7</title>
<path fill="none" stroke="#000000" d="M281.2519,-108.0757C248.5685,-118.0469 207.8117,-130.4812 173.6742,-140.896"/>
<polygon fill="none" stroke="#000000" points="172.316,-137.6511 163.7725,-143.9169 174.3586,-144.3464 172.316,-137.6511"/>
</g>
<!-- 6 -->
<g id="node4" class="node">
<title>6</title>
<polygon fill="#d3d3d3" stroke="#000000" points="454,-180 227,-180 227,-144 454,-144 454,-180"/>
<text text-anchor="middle" x="340.5" y="-159.5" font-family="Fira Mono" font-size="10.00" fill="#000000">CL&#45;DATA&#45;STRUCTURES:INVALID&#45;ARGUMENT</text>
</g>
<!-- 5&#45;&gt;6 -->
<g id="edge4" class="edge">
<title>5&#45;&gt;6</title>
<path fill="none" stroke="#000000" d="M340.5,-108.1686C340.5,-115.869 340.5,-125.0257 340.5,-133.5834"/>
<polygon fill="none" stroke="#000000" points="337.0001,-133.5867 340.5,-143.5867 344.0001,-133.5868 337.0001,-133.5867"/>
</g>
<!-- 4 -->
<g id="node6" class="node">
<title>4</title>
<polygon fill="#d3d3d3" stroke="#000000" points="445,-252 236,-252 236,-216 445,-216 445,-252"/>
<text text-anchor="middle" x="340.5" y="-231.5" font-family="Fira Mono" font-size="10.00" fill="#000000">CL&#45;DATA&#45;STRUCTURES:TEXTUAL&#45;ERROR</text>
</g>
<!-- 7&#45;&gt;4 -->
<g id="edge5" class="edge">
<title>7&#45;&gt;4</title>
<path fill="none" stroke="#000000" d="M163.7481,-180.0757C196.4315,-190.0469 237.1883,-202.4812 271.3258,-212.896"/>
<polygon fill="none" stroke="#000000" points="270.6414,-216.3464 281.2275,-215.9169 272.684,-209.6511 270.6414,-216.3464"/>
</g>
<!-- 6&#45;&gt;4 -->
<g id="edge6" class="edge">
<title>6&#45;&gt;4</title>
<path fill="none" stroke="#000000" d="M340.5,-180.1686C340.5,-187.869 340.5,-197.0257 340.5,-205.5834"/>
<polygon fill="none" stroke="#000000" points="337.0001,-205.5867 340.5,-215.5867 344.0001,-205.5868 337.0001,-205.5867"/>
</g>
<!-- 3 -->
<g id="node7" class="node">
<title>3</title>
<polygon fill="#d3d3d3" stroke="#000000" points="700,-252 473,-252 473,-216 700,-216 700,-252"/>
<text text-anchor="middle" x="586.5" y="-231.5" font-family="Fira Mono" font-size="10.00" fill="#000000">MORE&#45;CONDITIONS:REFERENCE&#45;CONDITION</text>
</g>
<!-- 6&#45;&gt;3 -->
<g id="edge7" class="edge">
<title>6&#45;&gt;3</title>
<path fill="none" stroke="#000000" d="M402.2587,-180.0757C436.4732,-190.0897 479.1756,-202.588 514.8524,-213.03"/>
<polygon fill="none" stroke="#000000" points="514.1354,-216.4669 524.7159,-215.9169 516.1017,-209.7487 514.1354,-216.4669"/>
</g>
<!-- 2&#45;&gt;4 -->
<g id="edge8" class="edge">
<title>2&#45;&gt;4</title>
<path fill="none" stroke="#000000" d="M532.9798,-180.0757C497.0826,-190.1325 452.242,-202.6948 414.8739,-213.1637"/>
<polygon fill="none" stroke="#000000" points="413.7318,-209.8489 405.0468,-215.9169 415.6202,-216.5893 413.7318,-209.8489"/>
</g>
<!-- 2&#45;&gt;3 -->
<g id="edge9" class="edge">
<title>2&#45;&gt;3</title>
<path fill="none" stroke="#000000" d="M594.7242,-180.1686C593.5478,-187.869 592.1489,-197.0257 590.8414,-205.5834"/>
<polygon fill="none" stroke="#000000" points="587.3636,-205.1728 589.3131,-215.5867 594.2833,-206.2301 587.3636,-205.1728"/>
</g>
</g>
</svg>
