<?xml version="1.0" standalone="no"?>
<!DOCTYPE svg PUBLIC "-//W3C//DTD SVG 1.1//EN" 
  "http://www.w3.org/Graphics/SVG/1.1/DTD/svg11.dtd">
<svg width="804.00" height="135" version="1.1" id="toplevel"
    xmlns="http://www.w3.org/2000/svg"
    xmlns:xlink="http://www.w3.org/1999/xlink">
  <text x="40.00" y="30.00" style="font-family:'Iosevka'font-size:15.0px">
    User
  </text>
  <g fill-opacity="1.00">
    <rect x="18.60" y="10.00" fill="none" stroke="black" stroke-opacity="0.20"
          width="74.80" height="28"/>
    <rect x="56.00" y="40.00" width="3" height="15" fill-opacity="0.20"
          fill="black"/>
    <rect x="56.00" y="60.00" width="3" height="15" fill-opacity="0.20"
          fill="black"/>
    <rect x="56.00" y="80.00" width="3" height="15" fill-opacity="0.20"
          fill="black"/>
    <rect x="56.00" y="100.00" width="3" height="15" fill-opacity="0.20"
          fill="black"/>
    <rect x="56.00" y="120.00" width="3" height="15" fill-opacity="0.20"
          fill="black"/>
    <rect x="56.00" y="140.00" width="3" height="15" fill-opacity="0.20"
          fill="black"/>
    <rect x="56.00" y="160.00" width="3" height="15" fill-opacity="0.20"
          fill="black"/>
  </g>
  <text x="224.00" y="30.00" style="font-family:'Iosevka'font-size:15.0px">
    API function
  </text>
  <g fill-opacity="1.00">
    <rect x="189.80" y="10.00" fill="none" stroke="black" stroke-opacity="0.20"
          width="164.40" height="28"/>
    <rect x="272.00" y="40.00" width="3" height="15" fill-opacity="0.20"
          fill="black"/>
    <rect x="272.00" y="60.00" width="3" height="15" fill-opacity="0.20"
          fill="black"/>
    <rect x="272.00" y="80.00" width="3" height="15" fill-opacity="0.20"
          fill="black"/>
    <rect x="272.00" y="100.00" width="3" height="15" fill-opacity="0.20"
          fill="black"/>
    <rect x="272.00" y="120.00" width="3" height="15" fill-opacity="0.20"
          fill="black"/>
    <rect x="272.00" y="140.00" width="3" height="15" fill-opacity="0.20"
          fill="black"/>
    <rect x="272.00" y="160.00" width="3" height="15" fill-opacity="0.20"
          fill="black"/>
  </g>
  <text x="516.00" y="30.00" style="font-family:'Iosevka'font-size:15.0px">
    POSITION-MODIFICATION
  </text>
  <g fill-opacity="1.00">
    <rect x="467.40" y="10.00" fill="none" stroke="black" stroke-opacity="0.20"
          width="265.20" height="28"/>
    <rect x="600.00" y="40.00" width="3" height="15" fill-opacity="0.20"
          fill="black"/>
    <rect x="600.00" y="60.00" width="3" height="15" fill-opacity="0.20"
          fill="black"/>
    <rect x="600.00" y="80.00" width="3" height="15" fill-opacity="0.20"
          fill="black"/>
    <rect x="600.00" y="100.00" width="3" height="15" fill-opacity="0.20"
          fill="black"/>
    <rect x="600.00" y="120.00" width="3" height="15" fill-opacity="0.20"
          fill="black"/>
    <rect x="600.00" y="140.00" width="3" height="15" fill-opacity="0.20"
          fill="black"/>
    <rect x="600.00" y="160.00" width="3" height="15" fill-opacity="0.20"
          fill="black"/>
  </g>
  <g fill-opacity="1.00">
    <rect x="50.00" y="55" height="65" width="16" fill="white" stroke="black"/>
  </g>
  <g fill-opacity="0.50">
    <rect x="91.00" y="120" width="10" height="3"/>
    <rect x="111.00" y="120" width="10" height="3"/>
    <rect x="131.00" y="120" width="10" height="3"/>
    <rect x="151.00" y="120" width="10" height="3"/>
    <rect x="171.00" y="120" width="10" height="3"/>
    <rect x="191.00" y="120" width="10" height="3"/>
    <rect x="211.00" y="120" width="10" height="3"/>
    <rect x="231.00" y="120" width="10" height="3"/>
    <rect x="251.00" y="120" width="10" height="3"/>
    <path d="M81.00 125.50L71.00 121.50L81.00 117.50L87.00 117.50L77.00 121.50L87.00 125.50
"
          fill="black"/>
  </g>
  <g fill-opacity="1.00">
    <rect x="71.00" y="60" width="181.00" height="3" fill="black"/>
    <path d="M262.00 61.50L252.00 66.50L252.00 56.50L262.00 61.50
"
          fill="black"/>
  </g>
  <text x="76.00" y="54" style="font-family:'Iosevka';font-size:15.0px"
       fill="teal">
    User modifies instance
  </text>
  <g fill-opacity="1.00">
    <rect x="266.00" y="55" height="65" width="16" fill="white" stroke="black"/>
  </g>
  <g fill-opacity="0.50">
    <rect x="307.00" y="105" width="10" height="3"/>
    <rect x="327.00" y="105" width="10" height="3"/>
    <rect x="347.00" y="105" width="10" height="3"/>
    <rect x="367.00" y="105" width="10" height="3"/>
    <rect x="387.00" y="105" width="10" height="3"/>
    <rect x="407.00" y="105" width="10" height="3"/>
    <rect x="427.00" y="105" width="10" height="3"/>
    <rect x="447.00" y="105" width="10" height="3"/>
    <rect x="467.00" y="105" width="10" height="3"/>
    <rect x="487.00" y="105" width="10" height="3"/>
    <rect x="507.00" y="105" width="10" height="3"/>
    <rect x="527.00" y="105" width="10" height="3"/>
    <rect x="547.00" y="105" width="10" height="3"/>
    <rect x="567.00" y="105" width="10" height="3"/>
    <rect x="587.00" y="105" width="10" height="3"/>
    <path d="M297.00 110.50L287.00 106.50L297.00 102.50L303.00 102.50L293.00 106.50L303.00 110.50
"
          fill="black"/>
  </g>
  <g fill-opacity="1.00">
    <rect x="287.00" y="60" width="293.00" height="3" fill="black"/>
    <path d="M590.00 61.50L580.00 66.50L580.00 56.50L590.00 61.50
"
          fill="black"/>
  </g>
  <text x="292.00" y="54" style="font-family:'Iosevka';font-size:15.0px"
       fill="teal">
    Implementation of CL-DATA-STRUCTURES
  </text>
  <g fill-opacity="1.00">
    <rect x="594.00" y="55" height="50" width="16" fill="white" stroke="black"/>
  </g>
</svg>
