<?xml version="1.0" encoding="UTF-8" standalone="no"?>
<!DOCTYPE svg PUBLIC "-//W3C//DTD SVG 1.1//EN"
 "http://www.w3.org/Graphics/SVG/1.1/DTD/svg11.dtd">
<!-- Generated by graphviz version 2.40.1 (20161225.0304)
 -->
<!-- Title: %3 Pages: 1 -->
<svg width="788pt" height="188pt"
 viewBox="0.00 0.00 788.00 188.00" xmlns="http://www.w3.org/2000/svg" xmlns:xlink="http://www.w3.org/1999/xlink">
<g id="graph0" class="graph" transform="scale(1 1) rotate(0) translate(4 184)">
<title>%3</title>
<polygon fill="transparent" stroke="transparent" points="-4,4 -4,-184 784,-184 784,4 -4,4"/>
<!-- 1 -->
<g id="node1" class="node">
<title>1</title>
<polygon fill="#d3d3d3" stroke="#000000" points="541,-36 242,-36 242,0 541,0 541,-36"/>
<text text-anchor="middle" x="391.5" y="-15.5" font-family="Fira Mono" font-size="10.00" fill="#000000">CL&#45;DATA&#45;STRUCTURES.META:FUNCTIONAL&#45;ADD&#45;FUNCTION</text>
</g>
<!-- 4 -->
<g id="node2" class="node">
<title>4</title>
<polygon fill="#d3d3d3" stroke="#000000" points="236,-108 3,-108 3,-72 236,-72 236,-108"/>
<text text-anchor="middle" x="119.5" y="-87.5" font-family="Fira Mono" font-size="10.00" fill="#000000">CL&#45;DATA&#45;STRUCTURES.META:ADD&#45;FUNCTION</text>
</g>
<!-- 1&#45;&gt;4 -->
<g id="edge1" class="edge">
<title>1&#45;&gt;4</title>
<path fill="none" stroke="#000000" d="M323.214,-36.0757C285.06,-46.1753 237.3599,-58.8018 197.7103,-69.2973"/>
<polygon fill="none" stroke="#000000" points="196.5855,-65.9744 187.8141,-71.9169 198.3768,-72.7413 196.5855,-65.9744"/>
</g>
<!-- 3 -->
<g id="node4" class="node">
<title>3</title>
<polygon fill="#d3d3d3" stroke="#000000" points="529,-108 254,-108 254,-72 529,-72 529,-108"/>
<text text-anchor="middle" x="391.5" y="-87.5" font-family="Fira Mono" font-size="10.00" fill="#000000">CL&#45;DATA&#45;STRUCTURES.META:FUNCTIONAL&#45;FUNCTION</text>
</g>
<!-- 1&#45;&gt;3 -->
<g id="edge2" class="edge">
<title>1&#45;&gt;3</title>
<path fill="none" stroke="#000000" d="M391.5,-36.1686C391.5,-43.869 391.5,-53.0257 391.5,-61.5834"/>
<polygon fill="none" stroke="#000000" points="388.0001,-61.5867 391.5,-71.5867 395.0001,-61.5868 388.0001,-61.5867"/>
</g>
<!-- 2 -->
<g id="node5" class="node">
<title>2</title>
<polygon fill="#d3d3d3" stroke="#000000" points="780,-108 547,-108 547,-72 780,-72 780,-108"/>
<text text-anchor="middle" x="663.5" y="-87.5" font-family="Fira Mono" font-size="10.00" fill="#000000">CLOSER&#45;MOP:STANDARD&#45;GENERIC&#45;FUNCTION</text>
</g>
<!-- 1&#45;&gt;2 -->
<g id="edge3" class="edge">
<title>1&#45;&gt;2</title>
<path fill="none" stroke="#000000" d="M459.786,-36.0757C497.94,-46.1753 545.6401,-58.8018 585.2897,-69.2973"/>
<polygon fill="none" stroke="#000000" points="584.6232,-72.7413 595.1859,-71.9169 586.4145,-65.9744 584.6232,-72.7413"/>
</g>
<!-- 5 -->
<g id="node3" class="node">
<title>5</title>
<polygon fill="#d3d3d3" stroke="#000000" points="239,-180 0,-180 0,-144 239,-144 239,-180"/>
<text text-anchor="middle" x="119.5" y="-159.5" font-family="Fira Mono" font-size="10.00" fill="#000000">CL&#45;DATA&#45;STRUCTURES.META:GROW&#45;FUNCTION</text>
</g>
<!-- 4&#45;&gt;5 -->
<g id="edge4" class="edge">
<title>4&#45;&gt;5</title>
<path fill="none" stroke="#000000" d="M119.5,-108.1686C119.5,-115.869 119.5,-125.0257 119.5,-133.5834"/>
<polygon fill="none" stroke="#000000" points="116.0001,-133.5867 119.5,-143.5867 123.0001,-133.5868 116.0001,-133.5867"/>
</g>
</g>
</svg>
