<?xml version="1.0" encoding="UTF-8" standalone="no"?>
<!DOCTYPE svg PUBLIC "-//W3C//DTD SVG 1.1//EN"
 "http://www.w3.org/Graphics/SVG/1.1/DTD/svg11.dtd">
<!-- Generated by graphviz version 2.46.1 (0)
 -->
<!-- Pages: 1 -->
<svg width="577pt" height="260pt"
 viewBox="0.00 0.00 577.00 260.00" xmlns="http://www.w3.org/2000/svg" xmlns:xlink="http://www.w3.org/1999/xlink">
<g id="graph0" class="graph" transform="scale(1 1) rotate(0) translate(4 256)">
<polygon fill="transparent" stroke="transparent" points="-4,4 -4,-256 573,-256 573,4 -4,4"/>
<!-- 1 -->
<g id="node1" class="node">
<title>1</title>
<polygon fill="lightgrey" stroke="black" points="463,-36 212,-36 212,0 463,0 463,-36"/>
<text text-anchor="middle" x="337.5" y="-15.5" font-family="Fira Mono" font-size="10.00">CL&#45;DATA&#45;STRUCTURES:INITIALIZATION&#45;ERROR</text>
</g>
<!-- 3 -->
<g id="node2" class="node">
<title>3</title>
<polygon fill="lightgrey" stroke="black" points="324,-108 115,-108 115,-72 324,-72 324,-108"/>
<text text-anchor="middle" x="219.5" y="-87.5" font-family="Fira Mono" font-size="10.00">CL&#45;DATA&#45;STRUCTURES:TEXTUAL&#45;ERROR</text>
</g>
<!-- 1&#45;&gt;3 -->
<g id="edge1" class="edge">
<title>1&#45;&gt;3</title>
<path fill="none" stroke="black" d="M308.63,-36.12C293.21,-45.28 274.02,-56.66 257.4,-66.52"/>
<polygon fill="none" stroke="black" points="255.29,-63.7 248.48,-71.81 258.86,-69.72 255.29,-63.7"/>
</g>
<!-- 2 -->
<g id="node6" class="node">
<title>2</title>
<polygon fill="lightgrey" stroke="black" points="569,-108 342,-108 342,-72 569,-72 569,-108"/>
<text text-anchor="middle" x="455.5" y="-87.5" font-family="Fira Mono" font-size="10.00">MORE&#45;CONDITIONS:REFERENCE&#45;CONDITION</text>
</g>
<!-- 1&#45;&gt;2 -->
<g id="edge2" class="edge">
<title>1&#45;&gt;2</title>
<path fill="none" stroke="black" d="M366.37,-36.12C381.79,-45.28 400.98,-56.66 417.6,-66.52"/>
<polygon fill="none" stroke="black" points="416.14,-69.72 426.52,-71.81 419.71,-63.7 416.14,-69.72"/>
</g>
<!-- 6 -->
<g id="node3" class="node">
<title>6</title>
<polygon fill="lightgrey" stroke="black" points="227,-180 0,-180 0,-144 227,-144 227,-180"/>
<text text-anchor="middle" x="113.5" y="-159.5" font-family="Fira Mono" font-size="10.00">MORE&#45;CONDITIONS:CHAINABLE&#45;CONDITION</text>
</g>
<!-- 3&#45;&gt;6 -->
<g id="edge3" class="edge">
<title>3&#45;&gt;6</title>
<path fill="none" stroke="black" d="M193.57,-108.12C179.84,-117.19 162.79,-128.45 147.96,-138.24"/>
<polygon fill="none" stroke="black" points="145.95,-135.38 139.53,-143.81 149.8,-141.22 145.95,-135.38"/>
</g>
<!-- 4 -->
<g id="node4" class="node">
<title>4</title>
<polygon fill="lightgrey" stroke="black" points="406,-180 245,-180 245,-144 406,-144 406,-180"/>
<text text-anchor="middle" x="325.5" y="-159.5" font-family="Fira Mono" font-size="10.00">COMMON&#45;LISP:SIMPLE&#45;ERROR</text>
</g>
<!-- 3&#45;&gt;4 -->
<g id="edge4" class="edge">
<title>3&#45;&gt;4</title>
<path fill="none" stroke="black" d="M245.43,-108.12C259.16,-117.19 276.21,-128.45 291.04,-138.24"/>
<polygon fill="none" stroke="black" points="289.2,-141.22 299.47,-143.81 293.05,-135.38 289.2,-141.22"/>
</g>
<!-- 5 -->
<g id="node5" class="node">
<title>5</title>
<polygon fill="lightgrey" stroke="black" points="418,-252 233,-252 233,-216 418,-216 418,-252"/>
<text text-anchor="middle" x="325.5" y="-231.5" font-family="Fira Mono" font-size="10.00">COMMON&#45;LISP:SIMPLE&#45;CONDITION</text>
</g>
<!-- 4&#45;&gt;5 -->
<g id="edge5" class="edge">
<title>4&#45;&gt;5</title>
<path fill="none" stroke="black" d="M325.5,-180.3C325.5,-188.02 325.5,-197.29 325.5,-205.89"/>
<polygon fill="none" stroke="black" points="322,-205.9 325.5,-215.9 329,-205.9 322,-205.9"/>
</g>
</g>
</svg>
