<?xml version="1.0" encoding="UTF-8" standalone="no"?>
<!DOCTYPE svg PUBLIC "-//W3C//DTD SVG 1.1//EN"
 "http://www.w3.org/Graphics/SVG/1.1/DTD/svg11.dtd">
<!-- Generated by graphviz version 2.50.0 (0)
 -->
<!-- Pages: 1 -->
<svg width="247pt" height="332pt"
 viewBox="0.00 0.00 247.00 332.00" xmlns="http://www.w3.org/2000/svg" xmlns:xlink="http://www.w3.org/1999/xlink">
<g id="graph0" class="graph" transform="scale(1 1) rotate(0) translate(4 328)">
<polygon fill="transparent" stroke="transparent" points="-4,4 -4,-328 243,-328 243,4 -4,4"/>
<!-- 1 -->
<g id="node1" class="node">
<title>1</title>
<polygon fill="lightgrey" stroke="black" points="236,-36 3,-36 3,0 236,0 236,-36"/>
<text text-anchor="middle" x="119.5" y="-15.5" font-family="Fira Mono" font-size="10.00">CL&#45;DATA&#45;STRUCTURES.META:ADD&#45;FUNCTION</text>
</g>
<!-- 2 -->
<g id="node2" class="node">
<title>2</title>
<polygon fill="lightgrey" stroke="black" points="239,-108 0,-108 0,-72 239,-72 239,-108"/>
<text text-anchor="middle" x="119.5" y="-87.5" font-family="Fira Mono" font-size="10.00">CL&#45;DATA&#45;STRUCTURES.META:GROW&#45;FUNCTION</text>
</g>
<!-- 1&#45;&gt;2 -->
<g id="edge1" class="edge">
<title>1&#45;&gt;2</title>
<path fill="none" stroke="black" d="M119.5,-36.3C119.5,-44.02 119.5,-53.29 119.5,-61.89"/>
<polygon fill="none" stroke="black" points="116,-61.9 119.5,-71.9 123,-61.9 116,-61.9"/>
</g>
<!-- 3 -->
<g id="node3" class="node">
<title>3</title>
<polygon fill="lightgrey" stroke="black" points="230,-180 9,-180 9,-144 230,-144 230,-180"/>
<text text-anchor="middle" x="119.5" y="-159.5" font-family="Fira Mono" font-size="10.00">SB&#45;MOP:FUNCALLABLE&#45;STANDARD&#45;OBJECT</text>
</g>
<!-- 2&#45;&gt;3 -->
<g id="edge2" class="edge">
<title>2&#45;&gt;3</title>
<path fill="none" stroke="black" d="M119.5,-108.3C119.5,-116.02 119.5,-125.29 119.5,-133.89"/>
<polygon fill="none" stroke="black" points="116,-133.9 119.5,-143.9 123,-133.9 116,-133.9"/>
</g>
<!-- 4 -->
<g id="node4" class="node">
<title>4</title>
<polygon fill="lightgrey" stroke="black" points="188,-252 51,-252 51,-216 188,-216 188,-252"/>
<text text-anchor="middle" x="119.5" y="-231.5" font-family="Fira Mono" font-size="10.00">COMMON&#45;LISP:FUNCTION</text>
</g>
<!-- 3&#45;&gt;4 -->
<g id="edge3" class="edge">
<title>3&#45;&gt;4</title>
<path fill="none" stroke="black" d="M119.5,-180.3C119.5,-188.02 119.5,-197.29 119.5,-205.89"/>
<polygon fill="none" stroke="black" points="116,-205.9 119.5,-215.9 123,-205.9 116,-205.9"/>
</g>
<!-- 5 -->
<g id="node5" class="node">
<title>5</title>
<polygon fill="lightgrey" stroke="black" points="167,-324 72,-324 72,-288 167,-288 167,-324"/>
<text text-anchor="middle" x="119.5" y="-303.5" font-family="Fira Mono" font-size="10.00">COMMON&#45;LISP:T</text>
</g>
<!-- 4&#45;&gt;5 -->
<g id="edge4" class="edge">
<title>4&#45;&gt;5</title>
<path fill="none" stroke="black" d="M119.5,-252.3C119.5,-260.02 119.5,-269.29 119.5,-277.89"/>
<polygon fill="none" stroke="black" points="116,-277.9 119.5,-287.9 123,-277.9 116,-277.9"/>
</g>
</g>
</svg>
