<?xml version="1.0" encoding="UTF-8" standalone="no"?>
<!DOCTYPE svg PUBLIC "-//W3C//DTD SVG 1.1//EN"
 "http://www.w3.org/Graphics/SVG/1.1/DTD/svg11.dtd">
<!-- Generated by graphviz version 2.40.1 (20161225.0304)
 -->
<!-- Title: %3 Pages: 1 -->
<svg width="827pt" height="188pt"
 viewBox="0.00 0.00 827.00 188.00" xmlns="http://www.w3.org/2000/svg" xmlns:xlink="http://www.w3.org/1999/xlink">
<g id="graph0" class="graph" transform="scale(1 1) rotate(0) translate(4 184)">
<title>%3</title>
<polygon fill="transparent" stroke="transparent" points="-4,4 -4,-184 823,-184 823,4 -4,4"/>
<!-- 1 -->
<g id="node1" class="node">
<title>1</title>
<polygon fill="#d3d3d3" stroke="#000000" points="565,-36 290,-36 290,0 565,0 565,-36"/>
<text text-anchor="middle" x="427.5" y="-15.5" font-family="Fira Mono" font-size="10.00" fill="#000000">CL&#45;DATA&#45;STRUCTURES.META:UPDATE&#45;IF!&#45;FUNCTION</text>
</g>
<!-- 4 -->
<g id="node2" class="node">
<title>4</title>
<polygon fill="#d3d3d3" stroke="#000000" points="269,-108 0,-108 0,-72 269,-72 269,-108"/>
<text text-anchor="middle" x="134.5" y="-87.5" font-family="Fira Mono" font-size="10.00" fill="#000000">CL&#45;DATA&#45;STRUCTURES.META:UPDATE&#45;IF&#45;FUNCTION</text>
</g>
<!-- 1&#45;&gt;4 -->
<g id="edge1" class="edge">
<title>1&#45;&gt;4</title>
<path fill="none" stroke="#000000" d="M353.9419,-36.0757C312.5023,-46.2588 260.6089,-59.0108 217.6909,-69.5572"/>
<polygon fill="none" stroke="#000000" points="216.71,-66.194 207.8342,-71.9793 218.3805,-72.9918 216.71,-66.194"/>
</g>
<!-- 3 -->
<g id="node4" class="node">
<title>3</title>
<polygon fill="#d3d3d3" stroke="#000000" points="568,-108 287,-108 287,-72 568,-72 568,-108"/>
<text text-anchor="middle" x="427.5" y="-87.5" font-family="Fira Mono" font-size="10.00" fill="#000000">CL&#45;DATA&#45;STRUCTURES.META:DESTRUCTIVE&#45;FUNCTION</text>
</g>
<!-- 1&#45;&gt;3 -->
<g id="edge2" class="edge">
<title>1&#45;&gt;3</title>
<path fill="none" stroke="#000000" d="M427.5,-36.1686C427.5,-43.869 427.5,-53.0257 427.5,-61.5834"/>
<polygon fill="none" stroke="#000000" points="424.0001,-61.5867 427.5,-71.5867 431.0001,-61.5868 424.0001,-61.5867"/>
</g>
<!-- 2 -->
<g id="node5" class="node">
<title>2</title>
<polygon fill="#d3d3d3" stroke="#000000" points="819,-108 586,-108 586,-72 819,-72 819,-108"/>
<text text-anchor="middle" x="702.5" y="-87.5" font-family="Fira Mono" font-size="10.00" fill="#000000">CLOSER&#45;MOP:STANDARD&#45;GENERIC&#45;FUNCTION</text>
</g>
<!-- 1&#45;&gt;2 -->
<g id="edge3" class="edge">
<title>1&#45;&gt;2</title>
<path fill="none" stroke="#000000" d="M496.5392,-36.0757C535.1957,-46.1967 583.5446,-58.8553 623.6817,-69.3639"/>
<polygon fill="none" stroke="#000000" points="622.872,-72.7698 633.4324,-71.9169 624.645,-65.9981 622.872,-72.7698"/>
</g>
<!-- 5 -->
<g id="node3" class="node">
<title>5</title>
<polygon fill="#d3d3d3" stroke="#000000" points="254,-180 15,-180 15,-144 254,-144 254,-180"/>
<text text-anchor="middle" x="134.5" y="-159.5" font-family="Fira Mono" font-size="10.00" fill="#000000">CL&#45;DATA&#45;STRUCTURES.META:GROW&#45;FUNCTION</text>
</g>
<!-- 4&#45;&gt;5 -->
<g id="edge4" class="edge">
<title>4&#45;&gt;5</title>
<path fill="none" stroke="#000000" d="M134.5,-108.1686C134.5,-115.869 134.5,-125.0257 134.5,-133.5834"/>
<polygon fill="none" stroke="#000000" points="131.0001,-133.5867 134.5,-143.5867 138.0001,-133.5868 131.0001,-133.5867"/>
</g>
</g>
</svg>
