<?xml version="1.0" encoding="UTF-8" standalone="no"?>
<!DOCTYPE svg PUBLIC "-//W3C//DTD SVG 1.1//EN"
 "http://www.w3.org/Graphics/SVG/1.1/DTD/svg11.dtd">
<!-- Generated by graphviz version 2.40.1 (20161225.0304)
 -->
<!-- Title: %3 Pages: 1 -->
<svg width="510pt" height="332pt"
 viewBox="0.00 0.00 510.00 332.00" xmlns="http://www.w3.org/2000/svg" xmlns:xlink="http://www.w3.org/1999/xlink">
<g id="graph0" class="graph" transform="scale(1 1) rotate(0) translate(4 328)">
<title>%3</title>
<polygon fill="transparent" stroke="transparent" points="-4,4 -4,-328 506,-328 506,4 -4,4"/>
<!-- 1 -->
<g id="node1" class="node">
<title>1</title>
<polygon fill="#d3d3d3" stroke="#000000" points="390,-36 79,-36 79,0 390,0 390,-36"/>
<text text-anchor="middle" x="234.5" y="-15.5" font-family="Fira Mono" font-size="10.00" fill="#000000">CL&#45;DATA&#45;STRUCTURES.DICTS:TRANSACTIONAL&#45;DICTIONARY</text>
</g>
<!-- 7 -->
<g id="node2" class="node">
<title>7</title>
<polygon fill="#d3d3d3" stroke="#000000" points="209,-108 0,-108 0,-72 209,-72 209,-108"/>
<text text-anchor="middle" x="104.5" y="-87.5" font-family="Fira Mono" font-size="10.00" fill="#000000">CL&#45;DATA&#45;STRUCTURES:TRANSACTIONAL</text>
</g>
<!-- 1&#45;&gt;7 -->
<g id="edge1" class="edge">
<title>1&#45;&gt;7</title>
<path fill="none" stroke="#000000" d="M201.6955,-36.1686C184.9138,-45.4632 164.3015,-56.8792 146.3837,-66.8029"/>
<polygon fill="none" stroke="#000000" points="144.3462,-63.9304 137.294,-71.8372 147.7377,-70.0539 144.3462,-63.9304"/>
</g>
<!-- 2 -->
<g id="node3" class="node">
<title>2</title>
<polygon fill="#d3d3d3" stroke="#000000" points="502,-108 227,-108 227,-72 502,-72 502,-108"/>
<text text-anchor="middle" x="364.5" y="-87.5" font-family="Fira Mono" font-size="10.00" fill="#000000">CL&#45;DATA&#45;STRUCTURES.DICTS:MUTABLE&#45;DICTIONARY</text>
</g>
<!-- 1&#45;&gt;2 -->
<g id="edge2" class="edge">
<title>1&#45;&gt;2</title>
<path fill="none" stroke="#000000" d="M267.3045,-36.1686C284.0862,-45.4632 304.6985,-56.8792 322.6163,-66.8029"/>
<polygon fill="none" stroke="#000000" points="321.2623,-70.0539 331.706,-71.8372 324.6538,-63.9304 321.2623,-70.0539"/>
</g>
<!-- 6 -->
<g id="node4" class="node">
<title>6</title>
<polygon fill="#d3d3d3" stroke="#000000" points="233,-180 60,-180 60,-144 233,-144 233,-180"/>
<text text-anchor="middle" x="146.5" y="-159.5" font-family="Fira Mono" font-size="10.00" fill="#000000">CL&#45;DATA&#45;STRUCTURES:MUTABLE</text>
</g>
<!-- 7&#45;&gt;6 -->
<g id="edge3" class="edge">
<title>7&#45;&gt;6</title>
<path fill="none" stroke="#000000" d="M115.0984,-108.1686C119.7877,-116.2075 125.4028,-125.8334 130.5798,-134.7082"/>
<polygon fill="none" stroke="#000000" points="127.6969,-136.7125 135.7589,-143.5867 133.7434,-133.1854 127.6969,-136.7125"/>
</g>
<!-- 2&#45;&gt;6 -->
<g id="edge4" class="edge">
<title>2&#45;&gt;6</title>
<path fill="none" stroke="#000000" d="M309.7708,-108.0757C279.7098,-118.0041 242.255,-130.3745 210.8046,-140.7618"/>
<polygon fill="none" stroke="#000000" points="209.6496,-137.4572 201.2517,-143.9169 211.8449,-144.1041 209.6496,-137.4572"/>
</g>
<!-- 3 -->
<g id="node5" class="node">
<title>3</title>
<polygon fill="#d3d3d3" stroke="#000000" points="478,-180 251,-180 251,-144 478,-144 478,-180"/>
<text text-anchor="middle" x="364.5" y="-159.5" font-family="Fira Mono" font-size="10.00" fill="#000000">CL&#45;DATA&#45;STRUCTURES.DICTS:DICTIONARY</text>
</g>
<!-- 2&#45;&gt;3 -->
<g id="edge5" class="edge">
<title>2&#45;&gt;3</title>
<path fill="none" stroke="#000000" d="M364.5,-108.1686C364.5,-115.869 364.5,-125.0257 364.5,-133.5834"/>
<polygon fill="none" stroke="#000000" points="361.0001,-133.5867 364.5,-143.5867 368.0001,-133.5868 361.0001,-133.5867"/>
</g>
<!-- 4 -->
<g id="node6" class="node">
<title>4</title>
<polygon fill="#d3d3d3" stroke="#000000" points="384,-252 127,-252 127,-216 384,-216 384,-252"/>
<text text-anchor="middle" x="255.5" y="-231.5" font-family="Fira Mono" font-size="10.00" fill="#000000">CL&#45;DATA&#45;STRUCTURES:FUNDAMENTAL&#45;CONTAINER</text>
</g>
<!-- 6&#45;&gt;4 -->
<g id="edge6" class="edge">
<title>6&#45;&gt;4</title>
<path fill="none" stroke="#000000" d="M174.0053,-180.1686C187.818,-189.2926 204.7256,-200.461 219.5529,-210.2551"/>
<polygon fill="none" stroke="#000000" points="217.7304,-213.2459 228.0035,-215.8372 221.5886,-207.4051 217.7304,-213.2459"/>
</g>
<!-- 3&#45;&gt;4 -->
<g id="edge7" class="edge">
<title>3&#45;&gt;4</title>
<path fill="none" stroke="#000000" d="M336.9947,-180.1686C323.182,-189.2926 306.2744,-200.461 291.4471,-210.2551"/>
<polygon fill="none" stroke="#000000" points="289.4114,-207.4051 282.9965,-215.8372 293.2696,-213.2459 289.4114,-207.4051"/>
</g>
<!-- 5 -->
<g id="node7" class="node">
<title>5</title>
<polygon fill="#d3d3d3" stroke="#000000" points="354,-324 157,-324 157,-288 354,-288 354,-324"/>
<text text-anchor="middle" x="255.5" y="-303.5" font-family="Fira Mono" font-size="10.00" fill="#000000">CL&#45;DATA&#45;STRUCTURES:TRAVERSABLE</text>
</g>
<!-- 4&#45;&gt;5 -->
<g id="edge8" class="edge">
<title>4&#45;&gt;5</title>
<path fill="none" stroke="#000000" d="M255.5,-252.1686C255.5,-259.869 255.5,-269.0257 255.5,-277.5834"/>
<polygon fill="none" stroke="#000000" points="252.0001,-277.5867 255.5,-287.5867 259.0001,-277.5868 252.0001,-277.5867"/>
</g>
</g>
</svg>
