<?xml version="1.0" encoding="UTF-8" standalone="no"?>
<!DOCTYPE svg PUBLIC "-//W3C//DTD SVG 1.1//EN"
 "http://www.w3.org/Graphics/SVG/1.1/DTD/svg11.dtd">
<!-- Generated by graphviz version 3.0.0 (0)
 -->
<!-- Pages: 1 -->
<svg width="580pt" height="404pt"
 viewBox="0.00 0.00 580.00 404.00" xmlns="http://www.w3.org/2000/svg" xmlns:xlink="http://www.w3.org/1999/xlink">
<g id="graph0" class="graph" transform="scale(1 1) rotate(0) translate(4 400)">
<polygon fill="transparent" stroke="transparent" points="-4,4 -4,-400 576,-400 576,4 -4,4"/>
<!-- 1 -->
<g id="node1" class="node">
<title>1</title>
<polygon fill="lightgrey" stroke="black" points="461,-36 216,-36 216,0 461,0 461,-36"/>
<text text-anchor="middle" x="338.5" y="-15.5" font-family="Fira Mono" font-size="10.00">CL&#45;DATA&#45;STRUCTURES:UNEXPECTED&#45;ARGUMENT</text>
</g>
<!-- 2 -->
<g id="node2" class="node">
<title>2</title>
<polygon fill="lightgrey" stroke="black" points="452,-108 225,-108 225,-72 452,-72 452,-108"/>
<text text-anchor="middle" x="338.5" y="-87.5" font-family="Fira Mono" font-size="10.00">CL&#45;DATA&#45;STRUCTURES:INVALID&#45;ARGUMENT</text>
</g>
<!-- 1&#45;&gt;2 -->
<g id="edge1" class="edge">
<title>1&#45;&gt;2</title>
<path fill="none" stroke="black" d="M338.5,-36.3C338.5,-44.02 338.5,-53.29 338.5,-61.89"/>
<polygon fill="none" stroke="black" points="335,-61.9 338.5,-71.9 342,-61.9 335,-61.9"/>
</g>
<!-- 4 -->
<g id="node3" class="node">
<title>4</title>
<polygon fill="lightgrey" stroke="black" points="327,-180 112,-180 112,-144 327,-144 327,-180"/>
<text text-anchor="middle" x="219.5" y="-159.5" font-family="Fira Mono" font-size="10.00">CL&#45;DATA&#45;STRUCTURES:ARGUMENT&#45;ERROR</text>
</g>
<!-- 2&#45;&gt;4 -->
<g id="edge2" class="edge">
<title>2&#45;&gt;4</title>
<path fill="none" stroke="black" d="M309.39,-108.12C293.83,-117.28 274.48,-128.66 257.72,-138.52"/>
<polygon fill="none" stroke="black" points="255.57,-135.72 248.72,-143.81 259.12,-141.76 255.57,-135.72"/>
</g>
<!-- 3 -->
<g id="node8" class="node">
<title>3</title>
<polygon fill="lightgrey" stroke="black" points="572,-180 345,-180 345,-144 572,-144 572,-180"/>
<text text-anchor="middle" x="458.5" y="-159.5" font-family="Fira Mono" font-size="10.00">MORE&#45;CONDITIONS:REFERENCE&#45;CONDITION</text>
</g>
<!-- 2&#45;&gt;3 -->
<g id="edge3" class="edge">
<title>2&#45;&gt;3</title>
<path fill="none" stroke="black" d="M367.86,-108.12C383.55,-117.28 403.06,-128.66 419.95,-138.52"/>
<polygon fill="none" stroke="black" points="418.63,-141.79 429.03,-143.81 422.16,-135.75 418.63,-141.79"/>
</g>
<!-- 5 -->
<g id="node4" class="node">
<title>5</title>
<polygon fill="lightgrey" stroke="black" points="324,-252 115,-252 115,-216 324,-216 324,-252"/>
<text text-anchor="middle" x="219.5" y="-231.5" font-family="Fira Mono" font-size="10.00">CL&#45;DATA&#45;STRUCTURES:TEXTUAL&#45;ERROR</text>
</g>
<!-- 4&#45;&gt;5 -->
<g id="edge4" class="edge">
<title>4&#45;&gt;5</title>
<path fill="none" stroke="black" d="M219.5,-180.3C219.5,-188.02 219.5,-197.29 219.5,-205.89"/>
<polygon fill="none" stroke="black" points="216,-205.9 219.5,-215.9 223,-205.9 216,-205.9"/>
</g>
<!-- 8 -->
<g id="node5" class="node">
<title>8</title>
<polygon fill="lightgrey" stroke="black" points="227,-324 0,-324 0,-288 227,-288 227,-324"/>
<text text-anchor="middle" x="113.5" y="-303.5" font-family="Fira Mono" font-size="10.00">MORE&#45;CONDITIONS:CHAINABLE&#45;CONDITION</text>
</g>
<!-- 5&#45;&gt;8 -->
<g id="edge5" class="edge">
<title>5&#45;&gt;8</title>
<path fill="none" stroke="black" d="M193.57,-252.12C179.84,-261.19 162.79,-272.45 147.96,-282.24"/>
<polygon fill="none" stroke="black" points="145.95,-279.38 139.53,-287.81 149.8,-285.22 145.95,-279.38"/>
</g>
<!-- 6 -->
<g id="node6" class="node">
<title>6</title>
<polygon fill="lightgrey" stroke="black" points="406,-324 245,-324 245,-288 406,-288 406,-324"/>
<text text-anchor="middle" x="325.5" y="-303.5" font-family="Fira Mono" font-size="10.00">COMMON&#45;LISP:SIMPLE&#45;ERROR</text>
</g>
<!-- 5&#45;&gt;6 -->
<g id="edge6" class="edge">
<title>5&#45;&gt;6</title>
<path fill="none" stroke="black" d="M245.43,-252.12C259.16,-261.19 276.21,-272.45 291.04,-282.24"/>
<polygon fill="none" stroke="black" points="289.2,-285.22 299.47,-287.81 293.05,-279.38 289.2,-285.22"/>
</g>
<!-- 7 -->
<g id="node7" class="node">
<title>7</title>
<polygon fill="lightgrey" stroke="black" points="418,-396 233,-396 233,-360 418,-360 418,-396"/>
<text text-anchor="middle" x="325.5" y="-375.5" font-family="Fira Mono" font-size="10.00">COMMON&#45;LISP:SIMPLE&#45;CONDITION</text>
</g>
<!-- 6&#45;&gt;7 -->
<g id="edge7" class="edge">
<title>6&#45;&gt;7</title>
<path fill="none" stroke="black" d="M325.5,-324.3C325.5,-332.02 325.5,-341.29 325.5,-349.89"/>
<polygon fill="none" stroke="black" points="322,-349.9 325.5,-359.9 329,-349.9 322,-349.9"/>
</g>
</g>
</svg>
