<?xml version="1.0" encoding="UTF-8" standalone="no"?>
<!DOCTYPE svg PUBLIC "-//W3C//DTD SVG 1.1//EN"
 "http://www.w3.org/Graphics/SVG/1.1/DTD/svg11.dtd">
<!-- Generated by graphviz version 3.0.0 (0)
 -->
<!-- Pages: 1 -->
<svg width="498pt" height="260pt"
 viewBox="0.00 0.00 498.00 260.00" xmlns="http://www.w3.org/2000/svg" xmlns:xlink="http://www.w3.org/1999/xlink">
<g id="graph0" class="graph" transform="scale(1 1) rotate(0) translate(4 256)">
<polygon fill="transparent" stroke="transparent" points="-4,4 -4,-256 494,-256 494,4 -4,4"/>
<!-- 1 -->
<g id="node1" class="node">
<title>1</title>
<polygon fill="lightgrey" stroke="black" points="351,-36 76,-36 76,0 351,0 351,-36"/>
<text text-anchor="middle" x="213.5" y="-15.5" font-family="Fira Mono" font-size="10.00">CL&#45;DATA&#45;STRUCTURES.DICTS:MUTABLE&#45;DICTIONARY</text>
</g>
<!-- 5 -->
<g id="node2" class="node">
<title>5</title>
<polygon fill="lightgrey" stroke="black" points="173,-108 0,-108 0,-72 173,-72 173,-108"/>
<text text-anchor="middle" x="86.5" y="-87.5" font-family="Fira Mono" font-size="10.00">CL&#45;DATA&#45;STRUCTURES:MUTABLE</text>
</g>
<!-- 1&#45;&gt;5 -->
<g id="edge1" class="edge">
<title>1&#45;&gt;5</title>
<path fill="none" stroke="black" d="M182.43,-36.12C165.67,-45.36 144.79,-56.87 126.8,-66.79"/>
<polygon fill="none" stroke="black" points="124.76,-63.92 117.69,-71.81 128.13,-70.05 124.76,-63.92"/>
</g>
<!-- 2 -->
<g id="node3" class="node">
<title>2</title>
<polygon fill="lightgrey" stroke="black" points="490,-108 191,-108 191,-72 490,-72 490,-108"/>
<text text-anchor="middle" x="340.5" y="-87.5" font-family="Fira Mono" font-size="10.00">CL&#45;DATA&#45;STRUCTURES.DICTS:FUNDAMENTAL&#45;DICTIONARY</text>
</g>
<!-- 1&#45;&gt;2 -->
<g id="edge2" class="edge">
<title>1&#45;&gt;2</title>
<path fill="none" stroke="black" d="M244.57,-36.12C261.33,-45.36 282.21,-56.87 300.2,-66.79"/>
<polygon fill="none" stroke="black" points="298.87,-70.05 309.31,-71.81 302.24,-63.92 298.87,-70.05"/>
</g>
<!-- 3 -->
<g id="node4" class="node">
<title>3</title>
<polygon fill="lightgrey" stroke="black" points="342,-180 85,-180 85,-144 342,-144 342,-180"/>
<text text-anchor="middle" x="213.5" y="-159.5" font-family="Fira Mono" font-size="10.00">CL&#45;DATA&#45;STRUCTURES:FUNDAMENTAL&#45;CONTAINER</text>
</g>
<!-- 5&#45;&gt;3 -->
<g id="edge3" class="edge">
<title>5&#45;&gt;3</title>
<path fill="none" stroke="black" d="M117.57,-108.12C134.33,-117.36 155.21,-128.87 173.2,-138.79"/>
<polygon fill="none" stroke="black" points="171.87,-142.05 182.31,-143.81 175.24,-135.92 171.87,-142.05"/>
</g>
<!-- 2&#45;&gt;3 -->
<g id="edge4" class="edge">
<title>2&#45;&gt;3</title>
<path fill="none" stroke="black" d="M309.43,-108.12C292.67,-117.36 271.79,-128.87 253.8,-138.79"/>
<polygon fill="none" stroke="black" points="251.76,-135.92 244.69,-143.81 255.13,-142.05 251.76,-135.92"/>
</g>
<!-- 4 -->
<g id="node5" class="node">
<title>4</title>
<polygon fill="lightgrey" stroke="black" points="312,-252 115,-252 115,-216 312,-216 312,-252"/>
<text text-anchor="middle" x="213.5" y="-231.5" font-family="Fira Mono" font-size="10.00">CL&#45;DATA&#45;STRUCTURES:TRAVERSABLE</text>
</g>
<!-- 3&#45;&gt;4 -->
<g id="edge5" class="edge">
<title>3&#45;&gt;4</title>
<path fill="none" stroke="black" d="M213.5,-180.3C213.5,-188.02 213.5,-197.29 213.5,-205.89"/>
<polygon fill="none" stroke="black" points="210,-205.9 213.5,-215.9 217,-205.9 210,-205.9"/>
</g>
</g>
</svg>
