<?xml version="1.0" encoding="UTF-8" standalone="no"?>
<!DOCTYPE svg PUBLIC "-//W3C//DTD SVG 1.1//EN"
 "http://www.w3.org/Graphics/SVG/1.1/DTD/svg11.dtd">
<!-- Generated by graphviz version 2.40.1 (20161225.0304)
 -->
<!-- Title: %3 Pages: 1 -->
<svg width="576pt" height="260pt"
 viewBox="0.00 0.00 576.00 260.00" xmlns="http://www.w3.org/2000/svg" xmlns:xlink="http://www.w3.org/1999/xlink">
<g id="graph0" class="graph" transform="scale(1 1) rotate(0) translate(4 256)">
<title>%3</title>
<polygon fill="transparent" stroke="transparent" points="-4,4 -4,-256 572,-256 572,4 -4,4"/>
<!-- 1 -->
<g id="node1" class="node">
<title>1</title>
<polygon fill="#d3d3d3" stroke="#000000" points="445,-36 122,-36 122,0 445,0 445,-36"/>
<text text-anchor="middle" x="283.5" y="-15.5" font-family="Fira Mono" font-size="10.00" fill="#000000">CL&#45;DATA&#45;STRUCTURES.DICTS:MUTABLE&#45;HASHING&#45;DICTIONARY</text>
</g>
<!-- 5 -->
<g id="node2" class="node">
<title>5</title>
<polygon fill="#d3d3d3" stroke="#000000" points="275,-108 0,-108 0,-72 275,-72 275,-108"/>
<text text-anchor="middle" x="137.5" y="-87.5" font-family="Fira Mono" font-size="10.00" fill="#000000">CL&#45;DATA&#45;STRUCTURES.DICTS:MUTABLE&#45;DICTIONARY</text>
</g>
<!-- 1&#45;&gt;5 -->
<g id="edge1" class="edge">
<title>1&#45;&gt;5</title>
<path fill="none" stroke="#000000" d="M246.658,-36.1686C227.3918,-45.6698 203.6301,-57.3879 183.2008,-67.4626"/>
<polygon fill="none" stroke="#000000" points="181.4977,-64.4 174.077,-71.962 184.5938,-70.6781 181.4977,-64.4"/>
</g>
<!-- 2 -->
<g id="node4" class="node">
<title>2</title>
<polygon fill="#d3d3d3" stroke="#000000" points="568,-108 293,-108 293,-72 568,-72 568,-108"/>
<text text-anchor="middle" x="430.5" y="-87.5" font-family="Fira Mono" font-size="10.00" fill="#000000">CL&#45;DATA&#45;STRUCTURES.DICTS:HASHING&#45;DICTIONARY</text>
</g>
<!-- 1&#45;&gt;2 -->
<g id="edge2" class="edge">
<title>1&#45;&gt;2</title>
<path fill="none" stroke="#000000" d="M320.5943,-36.1686C339.9926,-45.6698 363.917,-57.3879 384.4862,-67.4626"/>
<polygon fill="none" stroke="#000000" points="383.1522,-70.7065 393.6724,-71.962 386.2314,-64.4201 383.1522,-70.7065"/>
</g>
<!-- 6 -->
<g id="node3" class="node">
<title>6</title>
<polygon fill="#d3d3d3" stroke="#000000" points="224,-180 51,-180 51,-144 224,-144 224,-180"/>
<text text-anchor="middle" x="137.5" y="-159.5" font-family="Fira Mono" font-size="10.00" fill="#000000">CL&#45;DATA&#45;STRUCTURES:MUTABLE</text>
</g>
<!-- 5&#45;&gt;6 -->
<g id="edge3" class="edge">
<title>5&#45;&gt;6</title>
<path fill="none" stroke="#000000" d="M137.5,-108.1686C137.5,-115.869 137.5,-125.0257 137.5,-133.5834"/>
<polygon fill="none" stroke="#000000" points="134.0001,-133.5867 137.5,-143.5867 141.0001,-133.5868 134.0001,-133.5867"/>
</g>
<!-- 3 -->
<g id="node5" class="node">
<title>3</title>
<polygon fill="#d3d3d3" stroke="#000000" points="469,-180 242,-180 242,-144 469,-144 469,-180"/>
<text text-anchor="middle" x="355.5" y="-159.5" font-family="Fira Mono" font-size="10.00" fill="#000000">CL&#45;DATA&#45;STRUCTURES.DICTS:DICTIONARY</text>
</g>
<!-- 5&#45;&gt;3 -->
<g id="edge4" class="edge">
<title>5&#45;&gt;3</title>
<path fill="none" stroke="#000000" d="M192.2292,-108.0757C222.2902,-118.0041 259.745,-130.3745 291.1954,-140.7618"/>
<polygon fill="none" stroke="#000000" points="290.1551,-144.1041 300.7483,-143.9169 292.3504,-137.4572 290.1551,-144.1041"/>
</g>
<!-- 4 -->
<g id="node6" class="node">
<title>4</title>
<polygon fill="#d3d3d3" stroke="#000000" points="375,-252 118,-252 118,-216 375,-216 375,-252"/>
<text text-anchor="middle" x="246.5" y="-231.5" font-family="Fira Mono" font-size="10.00" fill="#000000">CL&#45;DATA&#45;STRUCTURES:FUNDAMENTAL&#45;CONTAINER</text>
</g>
<!-- 6&#45;&gt;4 -->
<g id="edge5" class="edge">
<title>6&#45;&gt;4</title>
<path fill="none" stroke="#000000" d="M165.0053,-180.1686C178.818,-189.2926 195.7256,-200.461 210.5529,-210.2551"/>
<polygon fill="none" stroke="#000000" points="208.7304,-213.2459 219.0035,-215.8372 212.5886,-207.4051 208.7304,-213.2459"/>
</g>
<!-- 2&#45;&gt;3 -->
<g id="edge6" class="edge">
<title>2&#45;&gt;3</title>
<path fill="none" stroke="#000000" d="M411.5743,-108.1686C402.5143,-116.8663 391.5191,-127.4217 381.6735,-136.8735"/>
<polygon fill="none" stroke="#000000" points="379.2096,-134.387 374.4196,-143.8372 384.0574,-139.4367 379.2096,-134.387"/>
</g>
<!-- 3&#45;&gt;4 -->
<g id="edge7" class="edge">
<title>3&#45;&gt;4</title>
<path fill="none" stroke="#000000" d="M327.9947,-180.1686C314.182,-189.2926 297.2744,-200.461 282.4471,-210.2551"/>
<polygon fill="none" stroke="#000000" points="280.4114,-207.4051 273.9965,-215.8372 284.2696,-213.2459 280.4114,-207.4051"/>
</g>
</g>
</svg>
