<?xml version="1.0" encoding="UTF-8" standalone="no"?>
<!DOCTYPE svg PUBLIC "-//W3C//DTD SVG 1.1//EN"
 "http://www.w3.org/Graphics/SVG/1.1/DTD/svg11.dtd">
<!-- Generated by graphviz version 3.0.0 (0)
 -->
<!-- Pages: 1 -->
<svg width="648pt" height="332pt"
 viewBox="0.00 0.00 648.00 332.00" xmlns="http://www.w3.org/2000/svg" xmlns:xlink="http://www.w3.org/1999/xlink">
<g id="graph0" class="graph" transform="scale(1 1) rotate(0) translate(4 328)">
<polygon fill="transparent" stroke="transparent" points="-4,4 -4,-328 644,-328 644,4 -4,4"/>
<!-- 1 -->
<g id="node1" class="node">
<title>1</title>
<polygon fill="lightgrey" stroke="black" points="463,-36 140,-36 140,0 463,0 463,-36"/>
<text text-anchor="middle" x="301.5" y="-15.5" font-family="Fira Mono" font-size="10.00">CL&#45;DATA&#45;STRUCTURES.DICTS:MUTABLE&#45;HASHING&#45;DICTIONARY</text>
</g>
<!-- 6 -->
<g id="node2" class="node">
<title>6</title>
<polygon fill="lightgrey" stroke="black" points="275,-108 0,-108 0,-72 275,-72 275,-108"/>
<text text-anchor="middle" x="137.5" y="-87.5" font-family="Fira Mono" font-size="10.00">CL&#45;DATA&#45;STRUCTURES.DICTS:MUTABLE&#45;DICTIONARY</text>
</g>
<!-- 1&#45;&gt;6 -->
<g id="edge1" class="edge">
<title>1&#45;&gt;6</title>
<path fill="none" stroke="black" d="M261.38,-36.12C238.86,-45.74 210.58,-57.81 186.73,-67.99"/>
<polygon fill="none" stroke="black" points="185.31,-64.79 177.49,-71.93 188.06,-71.23 185.31,-64.79"/>
</g>
<!-- 2 -->
<g id="node4" class="node">
<title>2</title>
<polygon fill="lightgrey" stroke="black" points="640,-108 293,-108 293,-72 640,-72 640,-108"/>
<text text-anchor="middle" x="466.5" y="-87.5" font-family="Fira Mono" font-size="10.00">CL&#45;DATA&#45;STRUCTURES.DICTS:FUNDAMENTAL&#45;HASHING&#45;DICTIONARY</text>
</g>
<!-- 1&#45;&gt;2 -->
<g id="edge2" class="edge">
<title>1&#45;&gt;2</title>
<path fill="none" stroke="black" d="M341.86,-36.12C364.52,-45.74 392.97,-57.81 416.97,-67.99"/>
<polygon fill="none" stroke="black" points="415.69,-71.25 426.27,-71.93 418.43,-64.8 415.69,-71.25"/>
</g>
<!-- 7 -->
<g id="node3" class="node">
<title>7</title>
<polygon fill="lightgrey" stroke="black" points="224,-180 51,-180 51,-144 224,-144 224,-180"/>
<text text-anchor="middle" x="137.5" y="-159.5" font-family="Fira Mono" font-size="10.00">CL&#45;DATA&#45;STRUCTURES:MUTABLE</text>
</g>
<!-- 6&#45;&gt;7 -->
<g id="edge3" class="edge">
<title>6&#45;&gt;7</title>
<path fill="none" stroke="black" d="M137.5,-108.3C137.5,-116.02 137.5,-125.29 137.5,-133.89"/>
<polygon fill="none" stroke="black" points="134,-133.9 137.5,-143.9 141,-133.9 134,-133.9"/>
</g>
<!-- 3 -->
<g id="node5" class="node">
<title>3</title>
<polygon fill="lightgrey" stroke="black" points="541,-180 242,-180 242,-144 541,-144 541,-180"/>
<text text-anchor="middle" x="391.5" y="-159.5" font-family="Fira Mono" font-size="10.00">CL&#45;DATA&#45;STRUCTURES.DICTS:FUNDAMENTAL&#45;DICTIONARY</text>
</g>
<!-- 6&#45;&gt;3 -->
<g id="edge4" class="edge">
<title>6&#45;&gt;3</title>
<path fill="none" stroke="black" d="M199.31,-108.03C235.57,-118.03 281.56,-130.7 319.46,-141.15"/>
<polygon fill="none" stroke="black" points="318.84,-144.61 329.41,-143.89 320.7,-137.86 318.84,-144.61"/>
</g>
<!-- 4 -->
<g id="node6" class="node">
<title>4</title>
<polygon fill="lightgrey" stroke="black" points="393,-252 136,-252 136,-216 393,-216 393,-252"/>
<text text-anchor="middle" x="264.5" y="-231.5" font-family="Fira Mono" font-size="10.00">CL&#45;DATA&#45;STRUCTURES:FUNDAMENTAL&#45;CONTAINER</text>
</g>
<!-- 7&#45;&gt;4 -->
<g id="edge5" class="edge">
<title>7&#45;&gt;4</title>
<path fill="none" stroke="black" d="M168.57,-180.12C185.33,-189.36 206.21,-200.87 224.2,-210.79"/>
<polygon fill="none" stroke="black" points="222.87,-214.05 233.31,-215.81 226.24,-207.92 222.87,-214.05"/>
</g>
<!-- 2&#45;&gt;3 -->
<g id="edge6" class="edge">
<title>2&#45;&gt;3</title>
<path fill="none" stroke="black" d="M447.96,-108.3C438.7,-116.95 427.34,-127.55 417.24,-136.97"/>
<polygon fill="none" stroke="black" points="414.75,-134.51 409.83,-143.9 419.52,-139.63 414.75,-134.51"/>
</g>
<!-- 3&#45;&gt;4 -->
<g id="edge7" class="edge">
<title>3&#45;&gt;4</title>
<path fill="none" stroke="black" d="M360.43,-180.12C343.67,-189.36 322.79,-200.87 304.8,-210.79"/>
<polygon fill="none" stroke="black" points="302.76,-207.92 295.69,-215.81 306.13,-214.05 302.76,-207.92"/>
</g>
<!-- 5 -->
<g id="node7" class="node">
<title>5</title>
<polygon fill="lightgrey" stroke="black" points="363,-324 166,-324 166,-288 363,-288 363,-324"/>
<text text-anchor="middle" x="264.5" y="-303.5" font-family="Fira Mono" font-size="10.00">CL&#45;DATA&#45;STRUCTURES:TRAVERSABLE</text>
</g>
<!-- 4&#45;&gt;5 -->
<g id="edge8" class="edge">
<title>4&#45;&gt;5</title>
<path fill="none" stroke="black" d="M264.5,-252.3C264.5,-260.02 264.5,-269.29 264.5,-277.89"/>
<polygon fill="none" stroke="black" points="261,-277.9 264.5,-287.9 268,-277.9 261,-277.9"/>
</g>
</g>
</svg>
