<?xml version="1.0" encoding="UTF-8" standalone="no"?>
<!DOCTYPE svg PUBLIC "-//W3C//DTD SVG 1.1//EN"
 "http://www.w3.org/Graphics/SVG/1.1/DTD/svg11.dtd">
<!-- Generated by graphviz version 2.40.1 (20161225.0304)
 -->
<!-- Title: %3 Pages: 1 -->
<svg width="307pt" height="188pt"
 viewBox="0.00 0.00 307.00 188.00" xmlns="http://www.w3.org/2000/svg" xmlns:xlink="http://www.w3.org/1999/xlink">
<g id="graph0" class="graph" transform="scale(1 1) rotate(0) translate(4 184)">
<title>%3</title>
<polygon fill="transparent" stroke="transparent" points="-4,4 -4,-184 303,-184 303,4 -4,4"/>
<!-- 1 -->
<g id="node1" class="node">
<title>1</title>
<polygon fill="#d3d3d3" stroke="#000000" points="299,-36 0,-36 0,0 299,0 299,-36"/>
<text text-anchor="middle" x="149.5" y="-15.5" font-family="Fira Mono" font-size="10.00" fill="#000000">CL&#45;DATA&#45;STRUCTURES.DICTS:FUNDAMENTAL&#45;DICTIONARY</text>
</g>
<!-- 2 -->
<g id="node2" class="node">
<title>2</title>
<polygon fill="#d3d3d3" stroke="#000000" points="278,-108 21,-108 21,-72 278,-72 278,-108"/>
<text text-anchor="middle" x="149.5" y="-87.5" font-family="Fira Mono" font-size="10.00" fill="#000000">CL&#45;DATA&#45;STRUCTURES:FUNDAMENTAL&#45;CONTAINER</text>
</g>
<!-- 1&#45;&gt;2 -->
<g id="edge1" class="edge">
<title>1&#45;&gt;2</title>
<path fill="none" stroke="#000000" d="M149.5,-36.1686C149.5,-43.869 149.5,-53.0257 149.5,-61.5834"/>
<polygon fill="none" stroke="#000000" points="146.0001,-61.5867 149.5,-71.5867 153.0001,-61.5868 146.0001,-61.5867"/>
</g>
<!-- 3 -->
<g id="node3" class="node">
<title>3</title>
<polygon fill="#d3d3d3" stroke="#000000" points="248,-180 51,-180 51,-144 248,-144 248,-180"/>
<text text-anchor="middle" x="149.5" y="-159.5" font-family="Fira Mono" font-size="10.00" fill="#000000">CL&#45;DATA&#45;STRUCTURES:TRAVERSABLE</text>
</g>
<!-- 2&#45;&gt;3 -->
<g id="edge2" class="edge">
<title>2&#45;&gt;3</title>
<path fill="none" stroke="#000000" d="M149.5,-108.1686C149.5,-115.869 149.5,-125.0257 149.5,-133.5834"/>
<polygon fill="none" stroke="#000000" points="146.0001,-133.5867 149.5,-143.5867 153.0001,-133.5868 146.0001,-133.5867"/>
</g>
</g>
</svg>
