<?xml version="1.0" encoding="UTF-8" standalone="no"?>
<!DOCTYPE svg PUBLIC "-//W3C//DTD SVG 1.1//EN"
 "http://www.w3.org/Graphics/SVG/1.1/DTD/svg11.dtd">
<!-- Generated by graphviz version 2.50.0 (0)
 -->
<!-- Pages: 1 -->
<svg width="522pt" height="332pt"
 viewBox="0.00 0.00 522.00 332.00" xmlns="http://www.w3.org/2000/svg" xmlns:xlink="http://www.w3.org/1999/xlink">
<g id="graph0" class="graph" transform="scale(1 1) rotate(0) translate(4 328)">
<polygon fill="transparent" stroke="transparent" points="-4,4 -4,-328 518,-328 518,4 -4,4"/>
<!-- 1 -->
<g id="node1" class="node">
<title>1</title>
<polygon fill="lightgrey" stroke="black" points="390,-36 79,-36 79,0 390,0 390,-36"/>
<text text-anchor="middle" x="234.5" y="-15.5" font-family="Fira Mono" font-size="10.00">CL&#45;DATA&#45;STRUCTURES.DICTS:TRANSACTIONAL&#45;DICTIONARY</text>
</g>
<!-- 7 -->
<g id="node2" class="node">
<title>7</title>
<polygon fill="lightgrey" stroke="black" points="209,-108 0,-108 0,-72 209,-72 209,-108"/>
<text text-anchor="middle" x="104.5" y="-87.5" font-family="Fira Mono" font-size="10.00">CL&#45;DATA&#45;STRUCTURES:TRANSACTIONAL</text>
</g>
<!-- 1&#45;&gt;7 -->
<g id="edge1" class="edge">
<title>1&#45;&gt;7</title>
<path fill="none" stroke="black" d="M202.7,-36.12C185.39,-45.45 163.78,-57.08 145.24,-67.06"/>
<polygon fill="none" stroke="black" points="143.57,-63.99 136.42,-71.81 146.89,-70.15 143.57,-63.99"/>
</g>
<!-- 2 -->
<g id="node3" class="node">
<title>2</title>
<polygon fill="lightgrey" stroke="black" points="502,-108 227,-108 227,-72 502,-72 502,-108"/>
<text text-anchor="middle" x="364.5" y="-87.5" font-family="Fira Mono" font-size="10.00">CL&#45;DATA&#45;STRUCTURES.DICTS:MUTABLE&#45;DICTIONARY</text>
</g>
<!-- 1&#45;&gt;2 -->
<g id="edge2" class="edge">
<title>1&#45;&gt;2</title>
<path fill="none" stroke="black" d="M266.3,-36.12C283.61,-45.45 305.22,-57.08 323.76,-67.06"/>
<polygon fill="none" stroke="black" points="322.11,-70.15 332.58,-71.81 325.43,-63.99 322.11,-70.15"/>
</g>
<!-- 6 -->
<g id="node4" class="node">
<title>6</title>
<polygon fill="lightgrey" stroke="black" points="197,-180 24,-180 24,-144 197,-144 197,-180"/>
<text text-anchor="middle" x="110.5" y="-159.5" font-family="Fira Mono" font-size="10.00">CL&#45;DATA&#45;STRUCTURES:MUTABLE</text>
</g>
<!-- 7&#45;&gt;6 -->
<g id="edge3" class="edge">
<title>7&#45;&gt;6</title>
<path fill="none" stroke="black" d="M105.98,-108.3C106.64,-116.02 107.44,-125.29 108.18,-133.89"/>
<polygon fill="none" stroke="black" points="104.69,-134.23 109.03,-143.9 111.67,-133.63 104.69,-134.23"/>
</g>
<!-- 2&#45;&gt;6 -->
<g id="edge4" class="edge">
<title>2&#45;&gt;6</title>
<path fill="none" stroke="black" d="M302.69,-108.03C266.43,-118.03 220.44,-130.7 182.54,-141.15"/>
<polygon fill="none" stroke="black" points="181.3,-137.86 172.59,-143.89 183.16,-144.61 181.3,-137.86"/>
</g>
<!-- 3 -->
<g id="node5" class="node">
<title>3</title>
<polygon fill="lightgrey" stroke="black" points="514,-180 215,-180 215,-144 514,-144 514,-180"/>
<text text-anchor="middle" x="364.5" y="-159.5" font-family="Fira Mono" font-size="10.00">CL&#45;DATA&#45;STRUCTURES.DICTS:FUNDAMENTAL&#45;DICTIONARY</text>
</g>
<!-- 2&#45;&gt;3 -->
<g id="edge5" class="edge">
<title>2&#45;&gt;3</title>
<path fill="none" stroke="black" d="M364.5,-108.3C364.5,-116.02 364.5,-125.29 364.5,-133.89"/>
<polygon fill="none" stroke="black" points="361,-133.9 364.5,-143.9 368,-133.9 361,-133.9"/>
</g>
<!-- 4 -->
<g id="node6" class="node">
<title>4</title>
<polygon fill="lightgrey" stroke="black" points="366,-252 109,-252 109,-216 366,-216 366,-252"/>
<text text-anchor="middle" x="237.5" y="-231.5" font-family="Fira Mono" font-size="10.00">CL&#45;DATA&#45;STRUCTURES:FUNDAMENTAL&#45;CONTAINER</text>
</g>
<!-- 6&#45;&gt;4 -->
<g id="edge6" class="edge">
<title>6&#45;&gt;4</title>
<path fill="none" stroke="black" d="M141.57,-180.12C158.33,-189.36 179.21,-200.87 197.2,-210.79"/>
<polygon fill="none" stroke="black" points="195.87,-214.05 206.31,-215.81 199.24,-207.92 195.87,-214.05"/>
</g>
<!-- 3&#45;&gt;4 -->
<g id="edge7" class="edge">
<title>3&#45;&gt;4</title>
<path fill="none" stroke="black" d="M333.43,-180.12C316.67,-189.36 295.79,-200.87 277.8,-210.79"/>
<polygon fill="none" stroke="black" points="275.76,-207.92 268.69,-215.81 279.13,-214.05 275.76,-207.92"/>
</g>
<!-- 5 -->
<g id="node7" class="node">
<title>5</title>
<polygon fill="lightgrey" stroke="black" points="336,-324 139,-324 139,-288 336,-288 336,-324"/>
<text text-anchor="middle" x="237.5" y="-303.5" font-family="Fira Mono" font-size="10.00">CL&#45;DATA&#45;STRUCTURES:TRAVERSABLE</text>
</g>
<!-- 4&#45;&gt;5 -->
<g id="edge8" class="edge">
<title>4&#45;&gt;5</title>
<path fill="none" stroke="black" d="M237.5,-252.3C237.5,-260.02 237.5,-269.29 237.5,-277.89"/>
<polygon fill="none" stroke="black" points="234,-277.9 237.5,-287.9 241,-277.9 234,-277.9"/>
</g>
</g>
</svg>
