<?xml version="1.0" encoding="UTF-8" standalone="no"?>
<!DOCTYPE svg PUBLIC "-//W3C//DTD SVG 1.1//EN"
 "http://www.w3.org/Graphics/SVG/1.1/DTD/svg11.dtd">
<!-- Generated by graphviz version 2.46.1 (0)
 -->
<!-- Pages: 1 -->
<svg width="666pt" height="332pt"
 viewBox="0.00 0.00 666.00 332.00" xmlns="http://www.w3.org/2000/svg" xmlns:xlink="http://www.w3.org/1999/xlink">
<g id="graph0" class="graph" transform="scale(1 1) rotate(0) translate(4 328)">
<polygon fill="transparent" stroke="transparent" points="-4,4 -4,-328 662,-328 662,4 -4,4"/>
<!-- 1 -->
<g id="node1" class="node">
<title>1</title>
<polygon fill="lightgrey" stroke="black" points="486,-36 145,-36 145,0 486,0 486,-36"/>
<text text-anchor="middle" x="315.5" y="-15.5" font-family="Fira Mono" font-size="10.00">CL&#45;DATA&#45;STRUCTURES.DICTS:FUNCTIONAL&#45;HASHING&#45;DICTIONARY</text>
</g>
<!-- 6 -->
<g id="node2" class="node">
<title>6</title>
<polygon fill="lightgrey" stroke="black" points="293,-108 0,-108 0,-72 293,-72 293,-108"/>
<text text-anchor="middle" x="146.5" y="-87.5" font-family="Fira Mono" font-size="10.00">CL&#45;DATA&#45;STRUCTURES.DICTS:FUNCTIONAL&#45;DICTIONARY</text>
</g>
<!-- 1&#45;&gt;6 -->
<g id="edge1" class="edge">
<title>1&#45;&gt;6</title>
<path fill="none" stroke="black" d="M274.16,-36.12C250.95,-45.74 221.81,-57.81 197.23,-67.99"/>
<polygon fill="none" stroke="black" points="195.61,-64.87 187.71,-71.93 198.29,-71.34 195.61,-64.87"/>
</g>
<!-- 2 -->
<g id="node4" class="node">
<title>2</title>
<polygon fill="lightgrey" stroke="black" points="658,-108 311,-108 311,-72 658,-72 658,-108"/>
<text text-anchor="middle" x="484.5" y="-87.5" font-family="Fira Mono" font-size="10.00">CL&#45;DATA&#45;STRUCTURES.DICTS:FUNDAMENTAL&#45;HASHING&#45;DICTIONARY</text>
</g>
<!-- 1&#45;&gt;2 -->
<g id="edge2" class="edge">
<title>1&#45;&gt;2</title>
<path fill="none" stroke="black" d="M356.84,-36.12C380.05,-45.74 409.19,-57.81 433.77,-67.99"/>
<polygon fill="none" stroke="black" points="432.71,-71.34 443.29,-71.93 435.39,-64.87 432.71,-71.34"/>
</g>
<!-- 7 -->
<g id="node3" class="node">
<title>7</title>
<polygon fill="lightgrey" stroke="black" points="242,-180 51,-180 51,-144 242,-144 242,-180"/>
<text text-anchor="middle" x="146.5" y="-159.5" font-family="Fira Mono" font-size="10.00">CL&#45;DATA&#45;STRUCTURES:FUNCTIONAL</text>
</g>
<!-- 6&#45;&gt;7 -->
<g id="edge3" class="edge">
<title>6&#45;&gt;7</title>
<path fill="none" stroke="black" d="M146.5,-108.3C146.5,-116.02 146.5,-125.29 146.5,-133.89"/>
<polygon fill="none" stroke="black" points="143,-133.9 146.5,-143.9 150,-133.9 143,-133.9"/>
</g>
<!-- 3 -->
<g id="node5" class="node">
<title>3</title>
<polygon fill="lightgrey" stroke="black" points="559,-180 260,-180 260,-144 559,-144 559,-180"/>
<text text-anchor="middle" x="409.5" y="-159.5" font-family="Fira Mono" font-size="10.00">CL&#45;DATA&#45;STRUCTURES.DICTS:FUNDAMENTAL&#45;DICTIONARY</text>
</g>
<!-- 6&#45;&gt;3 -->
<g id="edge4" class="edge">
<title>6&#45;&gt;3</title>
<path fill="none" stroke="black" d="M210.5,-108.03C248.21,-118.07 296.07,-130.81 335.41,-141.28"/>
<polygon fill="none" stroke="black" points="334.65,-144.7 345.21,-143.89 336.45,-137.93 334.65,-144.7"/>
</g>
<!-- 4 -->
<g id="node6" class="node">
<title>4</title>
<polygon fill="lightgrey" stroke="black" points="406,-252 149,-252 149,-216 406,-216 406,-252"/>
<text text-anchor="middle" x="277.5" y="-231.5" font-family="Fira Mono" font-size="10.00">CL&#45;DATA&#45;STRUCTURES:FUNDAMENTAL&#45;CONTAINER</text>
</g>
<!-- 7&#45;&gt;4 -->
<g id="edge5" class="edge">
<title>7&#45;&gt;4</title>
<path fill="none" stroke="black" d="M178.55,-180.12C195.99,-189.45 217.77,-201.08 236.44,-211.06"/>
<polygon fill="none" stroke="black" points="234.86,-214.18 245.33,-215.81 238.16,-208.01 234.86,-214.18"/>
</g>
<!-- 2&#45;&gt;3 -->
<g id="edge6" class="edge">
<title>2&#45;&gt;3</title>
<path fill="none" stroke="black" d="M465.96,-108.3C456.7,-116.95 445.34,-127.55 435.24,-136.97"/>
<polygon fill="none" stroke="black" points="432.75,-134.51 427.83,-143.9 437.52,-139.63 432.75,-134.51"/>
</g>
<!-- 3&#45;&gt;4 -->
<g id="edge7" class="edge">
<title>3&#45;&gt;4</title>
<path fill="none" stroke="black" d="M377.21,-180.12C359.63,-189.45 337.69,-201.08 318.87,-211.06"/>
<polygon fill="none" stroke="black" points="317.11,-208.03 309.91,-215.81 320.39,-214.22 317.11,-208.03"/>
</g>
<!-- 5 -->
<g id="node7" class="node">
<title>5</title>
<polygon fill="lightgrey" stroke="black" points="376,-324 179,-324 179,-288 376,-288 376,-324"/>
<text text-anchor="middle" x="277.5" y="-303.5" font-family="Fira Mono" font-size="10.00">CL&#45;DATA&#45;STRUCTURES:TRAVERSABLE</text>
</g>
<!-- 4&#45;&gt;5 -->
<g id="edge8" class="edge">
<title>4&#45;&gt;5</title>
<path fill="none" stroke="black" d="M277.5,-252.3C277.5,-260.02 277.5,-269.29 277.5,-277.89"/>
<polygon fill="none" stroke="black" points="274,-277.9 277.5,-287.9 281,-277.9 274,-277.9"/>
</g>
</g>
</svg>
