<?xml version="1.0" encoding="UTF-8" standalone="no"?>
<!DOCTYPE svg PUBLIC "-//W3C//DTD SVG 1.1//EN"
 "http://www.w3.org/Graphics/SVG/1.1/DTD/svg11.dtd">
<!-- Generated by graphviz version 2.40.1 (20161225.0304)
 -->
<!-- Title: %3 Pages: 1 -->
<svg width="773pt" height="332pt"
 viewBox="0.00 0.00 773.00 332.00" xmlns="http://www.w3.org/2000/svg" xmlns:xlink="http://www.w3.org/1999/xlink">
<g id="graph0" class="graph" transform="scale(1 1) rotate(0) translate(4 328)">
<title>%3</title>
<polygon fill="transparent" stroke="transparent" points="-4,4 -4,-328 769,-328 769,4 -4,4"/>
<!-- 1 -->
<g id="node1" class="node">
<title>1</title>
<polygon fill="#d3d3d3" stroke="#000000" points="497,-36 210,-36 210,0 497,0 497,-36"/>
<text text-anchor="middle" x="353.5" y="-15.5" font-family="Fira Mono" font-size="10.00" fill="#000000">CL&#45;DATA&#45;STRUCTURES.DICTS.HAMT:HAMT&#45;DICTIONARY</text>
</g>
<!-- 4 -->
<g id="node2" class="node">
<title>4</title>
<polygon fill="#d3d3d3" stroke="#000000" points="347,-108 0,-108 0,-72 347,-72 347,-108"/>
<text text-anchor="middle" x="173.5" y="-87.5" font-family="Fira Mono" font-size="10.00" fill="#000000">CL&#45;DATA&#45;STRUCTURES.DICTS:FUNDAMENTAL&#45;HASHING&#45;DICTIONARY</text>
</g>
<!-- 1&#45;&gt;4 -->
<g id="edge1" class="edge">
<title>1&#45;&gt;4</title>
<path fill="none" stroke="#000000" d="M308.0784,-36.1686C283.7905,-45.8838 253.7078,-57.9169 228.148,-68.1408"/>
<polygon fill="none" stroke="#000000" points="226.5799,-64.9984 218.595,-71.962 229.1796,-71.4977 226.5799,-64.9984"/>
</g>
<!-- 2 -->
<g id="node6" class="node">
<title>2</title>
<polygon fill="#d3d3d3" stroke="#000000" points="677,-108 390,-108 390,-72 677,-72 677,-108"/>
<text text-anchor="middle" x="533.5" y="-87.5" font-family="Fira Mono" font-size="10.00" fill="#000000">CL&#45;DATA&#45;STRUCTURES.COMMON.HAMT:HAMT&#45;CONTAINER</text>
</g>
<!-- 1&#45;&gt;2 -->
<g id="edge2" class="edge">
<title>1&#45;&gt;2</title>
<path fill="none" stroke="#000000" d="M398.9216,-36.1686C423.2095,-45.8838 453.2922,-57.9169 478.852,-68.1408"/>
<polygon fill="none" stroke="#000000" points="477.8204,-71.4977 488.405,-71.962 480.4201,-64.9984 477.8204,-71.4977"/>
</g>
<!-- 5 -->
<g id="node3" class="node">
<title>5</title>
<polygon fill="#d3d3d3" stroke="#000000" points="310,-180 11,-180 11,-144 310,-144 310,-180"/>
<text text-anchor="middle" x="160.5" y="-159.5" font-family="Fira Mono" font-size="10.00" fill="#000000">CL&#45;DATA&#45;STRUCTURES.DICTS:FUNDAMENTAL&#45;DICTIONARY</text>
</g>
<!-- 4&#45;&gt;5 -->
<g id="edge3" class="edge">
<title>4&#45;&gt;5</title>
<path fill="none" stroke="#000000" d="M170.2196,-108.1686C168.8292,-115.869 167.1759,-125.0257 165.6308,-133.5834"/>
<polygon fill="none" stroke="#000000" points="162.1572,-133.1239 163.8246,-143.5867 169.0458,-134.3678 162.1572,-133.1239"/>
</g>
<!-- 6 -->
<g id="node4" class="node">
<title>6</title>
<polygon fill="#d3d3d3" stroke="#000000" points="289,-252 32,-252 32,-216 289,-216 289,-252"/>
<text text-anchor="middle" x="160.5" y="-231.5" font-family="Fira Mono" font-size="10.00" fill="#000000">CL&#45;DATA&#45;STRUCTURES:FUNDAMENTAL&#45;CONTAINER</text>
</g>
<!-- 5&#45;&gt;6 -->
<g id="edge4" class="edge">
<title>5&#45;&gt;6</title>
<path fill="none" stroke="#000000" d="M160.5,-180.1686C160.5,-187.869 160.5,-197.0257 160.5,-205.5834"/>
<polygon fill="none" stroke="#000000" points="157.0001,-205.5867 160.5,-215.5867 164.0001,-205.5868 157.0001,-205.5867"/>
</g>
<!-- 7 -->
<g id="node5" class="node">
<title>7</title>
<polygon fill="#d3d3d3" stroke="#000000" points="259,-324 62,-324 62,-288 259,-288 259,-324"/>
<text text-anchor="middle" x="160.5" y="-303.5" font-family="Fira Mono" font-size="10.00" fill="#000000">CL&#45;DATA&#45;STRUCTURES:TRAVERSABLE</text>
</g>
<!-- 6&#45;&gt;7 -->
<g id="edge5" class="edge">
<title>6&#45;&gt;7</title>
<path fill="none" stroke="#000000" d="M160.5,-252.1686C160.5,-259.869 160.5,-269.0257 160.5,-277.5834"/>
<polygon fill="none" stroke="#000000" points="157.0001,-277.5867 160.5,-287.5867 164.0001,-277.5868 157.0001,-277.5867"/>
</g>
<!-- 3 -->
<g id="node7" class="node">
<title>3</title>
<polygon fill="#d3d3d3" stroke="#000000" points="765,-180 328,-180 328,-144 765,-144 765,-180"/>
<text text-anchor="middle" x="546.5" y="-159.5" font-family="Fira Mono" font-size="10.00" fill="#000000">CL&#45;DATA&#45;STRUCTURES.COMMON.ABSTRACT:FUNDAMENTAL&#45;OWNERSHIP&#45;TAGGED&#45;OBJECT</text>
</g>
<!-- 2&#45;&gt;3 -->
<g id="edge6" class="edge">
<title>2&#45;&gt;3</title>
<path fill="none" stroke="#000000" d="M536.7804,-108.1686C538.1708,-115.869 539.8241,-125.0257 541.3692,-133.5834"/>
<polygon fill="none" stroke="#000000" points="537.9542,-134.3678 543.1754,-143.5867 544.8428,-133.1239 537.9542,-134.3678"/>
</g>
</g>
</svg>
