<?xml version="1.0" encoding="UTF-8" standalone="no"?>
<!DOCTYPE svg PUBLIC "-//W3C//DTD SVG 1.1//EN"
 "http://www.w3.org/Graphics/SVG/1.1/DTD/svg11.dtd">
<!-- Generated by graphviz version 2.40.1 (20161225.0304)
 -->
<!-- Title: %3 Pages: 1 -->
<svg width="734pt" height="188pt"
 viewBox="0.00 0.00 734.00 188.00" xmlns="http://www.w3.org/2000/svg" xmlns:xlink="http://www.w3.org/1999/xlink">
<g id="graph0" class="graph" transform="scale(1 1) rotate(0) translate(4 184)">
<title>%3</title>
<polygon fill="transparent" stroke="transparent" points="-4,4 -4,-184 730,-184 730,4 -4,4"/>
<!-- 1 -->
<g id="node1" class="node">
<title>1</title>
<polygon fill="#d3d3d3" stroke="#000000" points="454,-36 245,-36 245,0 454,0 454,-36"/>
<text text-anchor="middle" x="349.5" y="-15.5" font-family="Fira Mono" font-size="10.00" fill="#000000">CL&#45;DATA&#45;STRUCTURES:ADD!&#45;FUNCTION</text>
</g>
<!-- 4 -->
<g id="node2" class="node">
<title>4</title>
<polygon fill="#d3d3d3" stroke="#000000" points="206,-108 3,-108 3,-72 206,-72 206,-108"/>
<text text-anchor="middle" x="104.5" y="-87.5" font-family="Fira Mono" font-size="10.00" fill="#000000">CL&#45;DATA&#45;STRUCTURES:ADD&#45;FUNCTION</text>
</g>
<!-- 1&#45;&gt;4 -->
<g id="edge1" class="edge">
<title>1&#45;&gt;4</title>
<path fill="none" stroke="#000000" d="M287.9924,-36.0757C253.917,-46.0897 211.3882,-58.588 175.8563,-69.03"/>
<polygon fill="none" stroke="#000000" points="174.6403,-65.7392 166.0329,-71.9169 176.6141,-72.4552 174.6403,-65.7392"/>
</g>
<!-- 3 -->
<g id="node4" class="node">
<title>3</title>
<polygon fill="#d3d3d3" stroke="#000000" points="475,-108 224,-108 224,-72 475,-72 475,-108"/>
<text text-anchor="middle" x="349.5" y="-87.5" font-family="Fira Mono" font-size="10.00" fill="#000000">CL&#45;DATA&#45;STRUCTURES:DESTRUCTIVE&#45;FUNCTION</text>
</g>
<!-- 1&#45;&gt;3 -->
<g id="edge2" class="edge">
<title>1&#45;&gt;3</title>
<path fill="none" stroke="#000000" d="M349.5,-36.1686C349.5,-43.869 349.5,-53.0257 349.5,-61.5834"/>
<polygon fill="none" stroke="#000000" points="346.0001,-61.5867 349.5,-71.5867 353.0001,-61.5868 346.0001,-61.5867"/>
</g>
<!-- 2 -->
<g id="node5" class="node">
<title>2</title>
<polygon fill="#d3d3d3" stroke="#000000" points="726,-108 493,-108 493,-72 726,-72 726,-108"/>
<text text-anchor="middle" x="609.5" y="-87.5" font-family="Fira Mono" font-size="10.00" fill="#000000">CLOSER&#45;MOP:STANDARD&#45;GENERIC&#45;FUNCTION</text>
</g>
<!-- 1&#45;&gt;2 -->
<g id="edge3" class="edge">
<title>1&#45;&gt;2</title>
<path fill="none" stroke="#000000" d="M414.7734,-36.0757C451.0896,-46.1325 496.4536,-58.6948 534.2579,-69.1637"/>
<polygon fill="none" stroke="#000000" points="533.6284,-72.6211 544.1998,-71.9169 535.4966,-65.8749 533.6284,-72.6211"/>
</g>
<!-- 5 -->
<g id="node3" class="node">
<title>5</title>
<polygon fill="#d3d3d3" stroke="#000000" points="209,-180 0,-180 0,-144 209,-144 209,-180"/>
<text text-anchor="middle" x="104.5" y="-159.5" font-family="Fira Mono" font-size="10.00" fill="#000000">CL&#45;DATA&#45;STRUCTURES:GROW&#45;FUNCTION</text>
</g>
<!-- 4&#45;&gt;5 -->
<g id="edge4" class="edge">
<title>4&#45;&gt;5</title>
<path fill="none" stroke="#000000" d="M104.5,-108.1686C104.5,-115.869 104.5,-125.0257 104.5,-133.5834"/>
<polygon fill="none" stroke="#000000" points="101.0001,-133.5867 104.5,-143.5867 108.0001,-133.5868 101.0001,-133.5867"/>
</g>
</g>
</svg>
