<?xml version="1.0" encoding="UTF-8" standalone="no"?>
<!DOCTYPE svg PUBLIC "-//W3C//DTD SVG 1.1//EN"
 "http://www.w3.org/Graphics/SVG/1.1/DTD/svg11.dtd">
<!-- Generated by graphviz version 2.46.1 (0)
 -->
<!-- Pages: 1 -->
<svg width="426pt" height="188pt"
 viewBox="0.00 0.00 426.00 188.00" xmlns="http://www.w3.org/2000/svg" xmlns:xlink="http://www.w3.org/1999/xlink">
<g id="graph0" class="graph" transform="scale(1 1) rotate(0) translate(4 184)">
<polygon fill="transparent" stroke="transparent" points="-4,4 -4,-184 422,-184 422,4 -4,4"/>
<!-- 1 -->
<g id="node1" class="node">
<title>1</title>
<polygon fill="lightgrey" stroke="black" points="324,-36 115,-36 115,0 324,0 324,-36"/>
<text text-anchor="middle" x="219.5" y="-15.5" font-family="Fira Mono" font-size="10.00">CL&#45;DATA&#45;STRUCTURES:TEXTUAL&#45;ERROR</text>
</g>
<!-- 4 -->
<g id="node2" class="node">
<title>4</title>
<polygon fill="lightgrey" stroke="black" points="227,-108 0,-108 0,-72 227,-72 227,-108"/>
<text text-anchor="middle" x="113.5" y="-87.5" font-family="Fira Mono" font-size="10.00">MORE&#45;CONDITIONS:CHAINABLE&#45;CONDITION</text>
</g>
<!-- 1&#45;&gt;4 -->
<g id="edge1" class="edge">
<title>1&#45;&gt;4</title>
<path fill="none" stroke="black" d="M193.57,-36.12C179.84,-45.19 162.79,-56.45 147.96,-66.24"/>
<polygon fill="none" stroke="black" points="145.95,-63.38 139.53,-71.81 149.8,-69.22 145.95,-63.38"/>
</g>
<!-- 2 -->
<g id="node3" class="node">
<title>2</title>
<polygon fill="lightgrey" stroke="black" points="406,-108 245,-108 245,-72 406,-72 406,-108"/>
<text text-anchor="middle" x="325.5" y="-87.5" font-family="Fira Mono" font-size="10.00">COMMON&#45;LISP:SIMPLE&#45;ERROR</text>
</g>
<!-- 1&#45;&gt;2 -->
<g id="edge2" class="edge">
<title>1&#45;&gt;2</title>
<path fill="none" stroke="black" d="M245.43,-36.12C259.16,-45.19 276.21,-56.45 291.04,-66.24"/>
<polygon fill="none" stroke="black" points="289.2,-69.22 299.47,-71.81 293.05,-63.38 289.2,-69.22"/>
</g>
<!-- 3 -->
<g id="node4" class="node">
<title>3</title>
<polygon fill="lightgrey" stroke="black" points="418,-180 233,-180 233,-144 418,-144 418,-180"/>
<text text-anchor="middle" x="325.5" y="-159.5" font-family="Fira Mono" font-size="10.00">COMMON&#45;LISP:SIMPLE&#45;CONDITION</text>
</g>
<!-- 2&#45;&gt;3 -->
<g id="edge3" class="edge">
<title>2&#45;&gt;3</title>
<path fill="none" stroke="black" d="M325.5,-108.3C325.5,-116.02 325.5,-125.29 325.5,-133.89"/>
<polygon fill="none" stroke="black" points="322,-133.9 325.5,-143.9 329,-133.9 322,-133.9"/>
</g>
</g>
</svg>
