<?xml version="1.0" encoding="UTF-8" standalone="no"?>
<!DOCTYPE svg PUBLIC "-//W3C//DTD SVG 1.1//EN"
 "http://www.w3.org/Graphics/SVG/1.1/DTD/svg11.dtd">
<!-- Generated by graphviz version 2.50.0 (0)
 -->
<!-- Pages: 1 -->
<svg width="580pt" height="332pt"
 viewBox="0.00 0.00 580.00 332.00" xmlns="http://www.w3.org/2000/svg" xmlns:xlink="http://www.w3.org/1999/xlink">
<g id="graph0" class="graph" transform="scale(1 1) rotate(0) translate(4 328)">
<polygon fill="transparent" stroke="transparent" points="-4,4 -4,-328 576,-328 576,4 -4,4"/>
<!-- 1 -->
<g id="node1" class="node">
<title>1</title>
<polygon fill="lightgrey" stroke="black" points="452,-36 225,-36 225,0 452,0 452,-36"/>
<text text-anchor="middle" x="338.5" y="-15.5" font-family="Fira Mono" font-size="10.00">CL&#45;DATA&#45;STRUCTURES:INVALID&#45;ARGUMENT</text>
</g>
<!-- 3 -->
<g id="node2" class="node">
<title>3</title>
<polygon fill="lightgrey" stroke="black" points="327,-108 112,-108 112,-72 327,-72 327,-108"/>
<text text-anchor="middle" x="219.5" y="-87.5" font-family="Fira Mono" font-size="10.00">CL&#45;DATA&#45;STRUCTURES:ARGUMENT&#45;ERROR</text>
</g>
<!-- 1&#45;&gt;3 -->
<g id="edge1" class="edge">
<title>1&#45;&gt;3</title>
<path fill="none" stroke="black" d="M309.39,-36.12C293.83,-45.28 274.48,-56.66 257.72,-66.52"/>
<polygon fill="none" stroke="black" points="255.57,-63.72 248.72,-71.81 259.12,-69.76 255.57,-63.72"/>
</g>
<!-- 2 -->
<g id="node7" class="node">
<title>2</title>
<polygon fill="lightgrey" stroke="black" points="572,-108 345,-108 345,-72 572,-72 572,-108"/>
<text text-anchor="middle" x="458.5" y="-87.5" font-family="Fira Mono" font-size="10.00">MORE&#45;CONDITIONS:REFERENCE&#45;CONDITION</text>
</g>
<!-- 1&#45;&gt;2 -->
<g id="edge2" class="edge">
<title>1&#45;&gt;2</title>
<path fill="none" stroke="black" d="M367.86,-36.12C383.55,-45.28 403.06,-56.66 419.95,-66.52"/>
<polygon fill="none" stroke="black" points="418.63,-69.79 429.03,-71.81 422.16,-63.75 418.63,-69.79"/>
</g>
<!-- 4 -->
<g id="node3" class="node">
<title>4</title>
<polygon fill="lightgrey" stroke="black" points="324,-180 115,-180 115,-144 324,-144 324,-180"/>
<text text-anchor="middle" x="219.5" y="-159.5" font-family="Fira Mono" font-size="10.00">CL&#45;DATA&#45;STRUCTURES:TEXTUAL&#45;ERROR</text>
</g>
<!-- 3&#45;&gt;4 -->
<g id="edge3" class="edge">
<title>3&#45;&gt;4</title>
<path fill="none" stroke="black" d="M219.5,-108.3C219.5,-116.02 219.5,-125.29 219.5,-133.89"/>
<polygon fill="none" stroke="black" points="216,-133.9 219.5,-143.9 223,-133.9 216,-133.9"/>
</g>
<!-- 7 -->
<g id="node4" class="node">
<title>7</title>
<polygon fill="lightgrey" stroke="black" points="227,-252 0,-252 0,-216 227,-216 227,-252"/>
<text text-anchor="middle" x="113.5" y="-231.5" font-family="Fira Mono" font-size="10.00">MORE&#45;CONDITIONS:CHAINABLE&#45;CONDITION</text>
</g>
<!-- 4&#45;&gt;7 -->
<g id="edge4" class="edge">
<title>4&#45;&gt;7</title>
<path fill="none" stroke="black" d="M193.57,-180.12C179.84,-189.19 162.79,-200.45 147.96,-210.24"/>
<polygon fill="none" stroke="black" points="145.95,-207.38 139.53,-215.81 149.8,-213.22 145.95,-207.38"/>
</g>
<!-- 5 -->
<g id="node5" class="node">
<title>5</title>
<polygon fill="lightgrey" stroke="black" points="406,-252 245,-252 245,-216 406,-216 406,-252"/>
<text text-anchor="middle" x="325.5" y="-231.5" font-family="Fira Mono" font-size="10.00">COMMON&#45;LISP:SIMPLE&#45;ERROR</text>
</g>
<!-- 4&#45;&gt;5 -->
<g id="edge5" class="edge">
<title>4&#45;&gt;5</title>
<path fill="none" stroke="black" d="M245.43,-180.12C259.16,-189.19 276.21,-200.45 291.04,-210.24"/>
<polygon fill="none" stroke="black" points="289.2,-213.22 299.47,-215.81 293.05,-207.38 289.2,-213.22"/>
</g>
<!-- 6 -->
<g id="node6" class="node">
<title>6</title>
<polygon fill="lightgrey" stroke="black" points="418,-324 233,-324 233,-288 418,-288 418,-324"/>
<text text-anchor="middle" x="325.5" y="-303.5" font-family="Fira Mono" font-size="10.00">COMMON&#45;LISP:SIMPLE&#45;CONDITION</text>
</g>
<!-- 5&#45;&gt;6 -->
<g id="edge6" class="edge">
<title>5&#45;&gt;6</title>
<path fill="none" stroke="black" d="M325.5,-252.3C325.5,-260.02 325.5,-269.29 325.5,-277.89"/>
<polygon fill="none" stroke="black" points="322,-277.9 325.5,-287.9 329,-277.9 322,-277.9"/>
</g>
</g>
</svg>
