<?xml version="1.0" encoding="UTF-8" standalone="no"?>
<!DOCTYPE svg PUBLIC "-//W3C//DTD SVG 1.1//EN"
 "http://www.w3.org/Graphics/SVG/1.1/DTD/svg11.dtd">
<!-- Generated by graphviz version 2.40.1 (20161225.0304)
 -->
<!-- Title: %3 Pages: 1 -->
<svg width="839pt" height="404pt"
 viewBox="0.00 0.00 839.00 404.00" xmlns="http://www.w3.org/2000/svg" xmlns:xlink="http://www.w3.org/1999/xlink">
<g id="graph0" class="graph" transform="scale(1 1) rotate(0) translate(4 400)">
<title>%3</title>
<polygon fill="transparent" stroke="transparent" points="-4,4 -4,-400 835,-400 835,4 -4,4"/>
<!-- 1 -->
<g id="node1" class="node">
<title>1</title>
<polygon fill="#d3d3d3" stroke="#000000" points="509,-36 204,-36 204,0 509,0 509,-36"/>
<text text-anchor="middle" x="356.5" y="-15.5" font-family="Fira Mono" font-size="10.00" fill="#000000">CL&#45;DATA&#45;STRUCTURES.DICTS:LAZY&#45;HASHING&#45;DICTIONARY</text>
</g>
<!-- 9 -->
<g id="node2" class="node">
<title>9</title>
<polygon fill="#d3d3d3" stroke="#000000" points="327,-108 70,-108 70,-72 327,-72 327,-108"/>
<text text-anchor="middle" x="198.5" y="-87.5" font-family="Fira Mono" font-size="10.00" fill="#000000">CL&#45;DATA&#45;STRUCTURES.DICTS:LAZY&#45;DICTIONARY</text>
</g>
<!-- 1&#45;&gt;9 -->
<g id="edge1" class="edge">
<title>1&#45;&gt;9</title>
<path fill="none" stroke="#000000" d="M316.6299,-36.1686C295.5923,-45.7554 269.6017,-57.5992 247.3604,-67.7345"/>
<polygon fill="none" stroke="#000000" points="245.7317,-64.6303 238.0834,-71.962 248.6345,-71.0001 245.7317,-64.6303"/>
</g>
<!-- 2 -->
<g id="node4" class="node">
<title>2</title>
<polygon fill="#d3d3d3" stroke="#000000" points="686,-108 345,-108 345,-72 686,-72 686,-108"/>
<text text-anchor="middle" x="515.5" y="-87.5" font-family="Fira Mono" font-size="10.00" fill="#000000">CL&#45;DATA&#45;STRUCTURES.DICTS:FUNCTIONAL&#45;HASHING&#45;DICTIONARY</text>
</g>
<!-- 1&#45;&gt;2 -->
<g id="edge2" class="edge">
<title>1&#45;&gt;2</title>
<path fill="none" stroke="#000000" d="M396.6224,-36.1686C417.7932,-45.7554 443.9483,-57.5992 466.3303,-67.7345"/>
<polygon fill="none" stroke="#000000" points="465.1128,-71.0252 475.6661,-71.962 468.0003,-64.6485 465.1128,-71.0252"/>
</g>
<!-- 10 -->
<g id="node3" class="node">
<title>10</title>
<polygon fill="#d3d3d3" stroke="#000000" points="155,-180 0,-180 0,-144 155,-144 155,-180"/>
<text text-anchor="middle" x="77.5" y="-159.5" font-family="Fira Mono" font-size="10.00" fill="#000000">CL&#45;DATA&#45;STRUCTURES:LAZY</text>
</g>
<!-- 9&#45;&gt;10 -->
<g id="edge4" class="edge">
<title>9&#45;&gt;10</title>
<path fill="none" stroke="#000000" d="M167.9666,-108.1686C152.4899,-117.3779 133.5131,-128.6699 116.9437,-138.5294"/>
<polygon fill="none" stroke="#000000" points="114.8276,-135.7157 108.0236,-143.8372 118.4071,-141.7313 114.8276,-135.7157"/>
</g>
<!-- 7 -->
<g id="node5" class="node">
<title>7</title>
<polygon fill="#d3d3d3" stroke="#000000" points="466,-180 173,-180 173,-144 466,-144 466,-180"/>
<text text-anchor="middle" x="319.5" y="-159.5" font-family="Fira Mono" font-size="10.00" fill="#000000">CL&#45;DATA&#45;STRUCTURES.DICTS:FUNCTIONAL&#45;DICTIONARY</text>
</g>
<!-- 9&#45;&gt;7 -->
<g id="edge3" class="edge">
<title>9&#45;&gt;7</title>
<path fill="none" stroke="#000000" d="M229.0334,-108.1686C244.5101,-117.3779 263.4869,-128.6699 280.0563,-138.5294"/>
<polygon fill="none" stroke="#000000" points="278.5929,-141.7313 288.9764,-143.8372 282.1724,-135.7157 278.5929,-141.7313"/>
</g>
<!-- 8 -->
<g id="node6" class="node">
<title>8</title>
<polygon fill="#d3d3d3" stroke="#000000" points="294,-252 103,-252 103,-216 294,-216 294,-252"/>
<text text-anchor="middle" x="198.5" y="-231.5" font-family="Fira Mono" font-size="10.00" fill="#000000">CL&#45;DATA&#45;STRUCTURES:FUNCTIONAL</text>
</g>
<!-- 10&#45;&gt;8 -->
<g id="edge5" class="edge">
<title>10&#45;&gt;8</title>
<path fill="none" stroke="#000000" d="M108.0334,-180.1686C123.5101,-189.3779 142.4869,-200.6699 159.0563,-210.5294"/>
<polygon fill="none" stroke="#000000" points="157.5929,-213.7313 167.9764,-215.8372 161.1724,-207.7157 157.5929,-213.7313"/>
</g>
<!-- 2&#45;&gt;7 -->
<g id="edge6" class="edge">
<title>2&#45;&gt;7</title>
<path fill="none" stroke="#000000" d="M466.2939,-108.0757C439.6161,-117.8757 406.4614,-130.055 378.4148,-140.3578"/>
<polygon fill="none" stroke="#000000" points="376.9062,-137.1833 368.7263,-143.9169 379.3199,-143.754 376.9062,-137.1833"/>
</g>
<!-- 3 -->
<g id="node7" class="node">
<title>3</title>
<polygon fill="#d3d3d3" stroke="#000000" points="831,-180 484,-180 484,-144 831,-144 831,-180"/>
<text text-anchor="middle" x="657.5" y="-159.5" font-family="Fira Mono" font-size="10.00" fill="#000000">CL&#45;DATA&#45;STRUCTURES.DICTS:FUNDAMENTAL&#45;HASHING&#45;DICTIONARY</text>
</g>
<!-- 2&#45;&gt;3 -->
<g id="edge7" class="edge">
<title>2&#45;&gt;3</title>
<path fill="none" stroke="#000000" d="M551.3326,-108.1686C569.9157,-117.5911 592.7989,-129.1938 612.5565,-139.2117"/>
<polygon fill="none" stroke="#000000" points="611.177,-142.4365 621.6789,-143.8372 614.3427,-136.1931 611.177,-142.4365"/>
</g>
<!-- 7&#45;&gt;8 -->
<g id="edge8" class="edge">
<title>7&#45;&gt;8</title>
<path fill="none" stroke="#000000" d="M288.9666,-180.1686C273.4899,-189.3779 254.5131,-200.6699 237.9437,-210.5294"/>
<polygon fill="none" stroke="#000000" points="235.8276,-207.7157 229.0236,-215.8372 239.4071,-213.7313 235.8276,-207.7157"/>
</g>
<!-- 4 -->
<g id="node8" class="node">
<title>4</title>
<polygon fill="#d3d3d3" stroke="#000000" points="611,-252 312,-252 312,-216 611,-216 611,-252"/>
<text text-anchor="middle" x="461.5" y="-231.5" font-family="Fira Mono" font-size="10.00" fill="#000000">CL&#45;DATA&#45;STRUCTURES.DICTS:FUNDAMENTAL&#45;DICTIONARY</text>
</g>
<!-- 7&#45;&gt;4 -->
<g id="edge9" class="edge">
<title>7&#45;&gt;4</title>
<path fill="none" stroke="#000000" d="M355.3326,-180.1686C373.9157,-189.5911 396.7989,-201.1938 416.5565,-211.2117"/>
<polygon fill="none" stroke="#000000" points="415.177,-214.4365 425.6789,-215.8372 418.3427,-208.1931 415.177,-214.4365"/>
</g>
<!-- 5 -->
<g id="node9" class="node">
<title>5</title>
<polygon fill="#d3d3d3" stroke="#000000" points="458,-324 201,-324 201,-288 458,-288 458,-324"/>
<text text-anchor="middle" x="329.5" y="-303.5" font-family="Fira Mono" font-size="10.00" fill="#000000">CL&#45;DATA&#45;STRUCTURES:FUNDAMENTAL&#45;CONTAINER</text>
</g>
<!-- 8&#45;&gt;5 -->
<g id="edge10" class="edge">
<title>8&#45;&gt;5</title>
<path fill="none" stroke="#000000" d="M231.5568,-252.1686C248.4677,-261.4632 269.2385,-272.8792 287.2941,-282.8029"/>
<polygon fill="none" stroke="#000000" points="286.0043,-286.0878 296.4537,-287.8372 289.376,-279.9532 286.0043,-286.0878"/>
</g>
<!-- 3&#45;&gt;4 -->
<g id="edge11" class="edge">
<title>3&#45;&gt;4</title>
<path fill="none" stroke="#000000" d="M608.2939,-180.0757C581.6161,-189.8757 548.4614,-202.055 520.4148,-212.3578"/>
<polygon fill="none" stroke="#000000" points="518.9062,-209.1833 510.7263,-215.9169 521.3199,-215.754 518.9062,-209.1833"/>
</g>
<!-- 4&#45;&gt;5 -->
<g id="edge12" class="edge">
<title>4&#45;&gt;5</title>
<path fill="none" stroke="#000000" d="M428.1908,-252.1686C411.0727,-261.5058 390.0294,-272.984 371.7778,-282.9394"/>
<polygon fill="none" stroke="#000000" points="369.9015,-279.976 362.7985,-287.8372 373.2535,-286.1212 369.9015,-279.976"/>
</g>
<!-- 6 -->
<g id="node10" class="node">
<title>6</title>
<polygon fill="#d3d3d3" stroke="#000000" points="428,-396 231,-396 231,-360 428,-360 428,-396"/>
<text text-anchor="middle" x="329.5" y="-375.5" font-family="Fira Mono" font-size="10.00" fill="#000000">CL&#45;DATA&#45;STRUCTURES:TRAVERSABLE</text>
</g>
<!-- 5&#45;&gt;6 -->
<g id="edge13" class="edge">
<title>5&#45;&gt;6</title>
<path fill="none" stroke="#000000" d="M329.5,-324.1686C329.5,-331.869 329.5,-341.0257 329.5,-349.5834"/>
<polygon fill="none" stroke="#000000" points="326.0001,-349.5867 329.5,-359.5867 333.0001,-349.5868 326.0001,-349.5867"/>
</g>
</g>
</svg>
