<?xml version="1.0" encoding="UTF-8" standalone="no"?>
<!DOCTYPE svg PUBLIC "-//W3C//DTD SVG 1.1//EN"
 "http://www.w3.org/Graphics/SVG/1.1/DTD/svg11.dtd">
<!-- Generated by graphviz version 2.50.0 (0)
 -->
<!-- Pages: 1 -->
<svg width="788pt" height="332pt"
 viewBox="0.00 0.00 788.00 332.00" xmlns="http://www.w3.org/2000/svg" xmlns:xlink="http://www.w3.org/1999/xlink">
<g id="graph0" class="graph" transform="scale(1 1) rotate(0) translate(4 328)">
<polygon fill="transparent" stroke="transparent" points="-4,4 -4,-328 784,-328 784,4 -4,4"/>
<!-- 1 -->
<g id="node1" class="node">
<title>1</title>
<polygon fill="lightgrey" stroke="black" points="615,-36 292,-36 292,0 615,0 615,-36"/>
<text text-anchor="middle" x="453.5" y="-15.5" font-family="Fira Mono" font-size="10.00">CL&#45;DATA&#45;STRUCTURES.SETS.QP&#45;TRIE:MUTABLE&#45;QP&#45;TRIE&#45;SET</text>
</g>
<!-- 4 -->
<g id="node2" class="node">
<title>4</title>
<polygon fill="lightgrey" stroke="black" points="415,-108 188,-108 188,-72 415,-72 415,-108"/>
<text text-anchor="middle" x="301.5" y="-87.5" font-family="Fira Mono" font-size="10.00">CL&#45;DATA&#45;STRUCTURES.SETS:MUTABLE&#45;SET</text>
</g>
<!-- 1&#45;&gt;4 -->
<g id="edge1" class="edge">
<title>1&#45;&gt;4</title>
<path fill="none" stroke="black" d="M416.32,-36.12C395.63,-45.65 369.7,-57.59 347.72,-67.72"/>
<polygon fill="none" stroke="black" points="346.18,-64.57 338.56,-71.93 349.11,-70.93 346.18,-64.57"/>
</g>
<!-- 2 -->
<g id="node7" class="node">
<title>2</title>
<polygon fill="lightgrey" stroke="black" points="780,-108 433,-108 433,-72 780,-72 780,-108"/>
<text text-anchor="middle" x="606.5" y="-87.5" font-family="Fira Mono" font-size="10.00">CL&#45;DATA&#45;STRUCTURES.SETS.QP&#45;TRIE:FUNDAMENTAL&#45;QP&#45;TRIE&#45;SET</text>
</g>
<!-- 1&#45;&gt;2 -->
<g id="edge2" class="edge">
<title>1&#45;&gt;2</title>
<path fill="none" stroke="black" d="M490.93,-36.12C511.75,-45.65 537.85,-57.59 559.98,-67.72"/>
<polygon fill="none" stroke="black" points="558.64,-70.95 569.19,-71.93 561.56,-64.59 558.64,-70.95"/>
</g>
<!-- 8 -->
<g id="node3" class="node">
<title>8</title>
<polygon fill="lightgrey" stroke="black" points="173,-180 0,-180 0,-144 173,-144 173,-180"/>
<text text-anchor="middle" x="86.5" y="-159.5" font-family="Fira Mono" font-size="10.00">CL&#45;DATA&#45;STRUCTURES:MUTABLE</text>
</g>
<!-- 4&#45;&gt;8 -->
<g id="edge3" class="edge">
<title>4&#45;&gt;8</title>
<path fill="none" stroke="black" d="M249.18,-108.03C218.88,-117.9 180.55,-130.38 148.71,-140.75"/>
<polygon fill="none" stroke="black" points="147.48,-137.47 139.05,-143.89 149.65,-144.12 147.48,-137.47"/>
</g>
<!-- 5 -->
<g id="node4" class="node">
<title>5</title>
<polygon fill="lightgrey" stroke="black" points="442,-180 191,-180 191,-144 442,-144 442,-180"/>
<text text-anchor="middle" x="316.5" y="-159.5" font-family="Fira Mono" font-size="10.00">CL&#45;DATA&#45;STRUCTURES.SETS:FUNDAMENTAL&#45;SET</text>
</g>
<!-- 4&#45;&gt;5 -->
<g id="edge4" class="edge">
<title>4&#45;&gt;5</title>
<path fill="none" stroke="black" d="M305.21,-108.3C306.86,-116.02 308.85,-125.29 310.69,-133.89"/>
<polygon fill="none" stroke="black" points="307.32,-134.85 312.83,-143.9 314.16,-133.38 307.32,-134.85"/>
</g>
<!-- 6 -->
<g id="node5" class="node">
<title>6</title>
<polygon fill="lightgrey" stroke="black" points="330,-252 73,-252 73,-216 330,-216 330,-252"/>
<text text-anchor="middle" x="201.5" y="-231.5" font-family="Fira Mono" font-size="10.00">CL&#45;DATA&#45;STRUCTURES:FUNDAMENTAL&#45;CONTAINER</text>
</g>
<!-- 8&#45;&gt;6 -->
<g id="edge5" class="edge">
<title>8&#45;&gt;6</title>
<path fill="none" stroke="black" d="M114.63,-180.12C129.67,-189.28 148.37,-200.66 164.56,-210.52"/>
<polygon fill="none" stroke="black" points="162.9,-213.6 173.26,-215.81 166.54,-207.62 162.9,-213.6"/>
</g>
<!-- 5&#45;&gt;6 -->
<g id="edge6" class="edge">
<title>5&#45;&gt;6</title>
<path fill="none" stroke="black" d="M288.37,-180.12C273.33,-189.28 254.63,-200.66 238.44,-210.52"/>
<polygon fill="none" stroke="black" points="236.46,-207.62 229.74,-215.81 240.1,-213.6 236.46,-207.62"/>
</g>
<!-- 7 -->
<g id="node6" class="node">
<title>7</title>
<polygon fill="lightgrey" stroke="black" points="300,-324 103,-324 103,-288 300,-288 300,-324"/>
<text text-anchor="middle" x="201.5" y="-303.5" font-family="Fira Mono" font-size="10.00">CL&#45;DATA&#45;STRUCTURES:TRAVERSABLE</text>
</g>
<!-- 6&#45;&gt;7 -->
<g id="edge7" class="edge">
<title>6&#45;&gt;7</title>
<path fill="none" stroke="black" d="M201.5,-252.3C201.5,-260.02 201.5,-269.29 201.5,-277.89"/>
<polygon fill="none" stroke="black" points="198,-277.9 201.5,-287.9 205,-277.9 198,-277.9"/>
</g>
<!-- 3 -->
<g id="node8" class="node">
<title>3</title>
<polygon fill="lightgrey" stroke="black" points="738,-180 475,-180 475,-144 738,-144 738,-180"/>
<text text-anchor="middle" x="606.5" y="-159.5" font-family="Fira Mono" font-size="10.00">CL&#45;DATA&#45;STRUCTURES.COMMON.QP&#45;TRIE:QP&#45;TRIE</text>
</g>
<!-- 2&#45;&gt;3 -->
<g id="edge8" class="edge">
<title>2&#45;&gt;3</title>
<path fill="none" stroke="black" d="M606.5,-108.3C606.5,-116.02 606.5,-125.29 606.5,-133.89"/>
<polygon fill="none" stroke="black" points="603,-133.9 606.5,-143.9 610,-133.9 603,-133.9"/>
</g>
</g>
</svg>
