<?xml version="1.0" encoding="UTF-8" standalone="no"?>
<!DOCTYPE svg PUBLIC "-//W3C//DTD SVG 1.1//EN"
 "http://www.w3.org/Graphics/SVG/1.1/DTD/svg11.dtd">
<!-- Generated by graphviz version 2.44.1 (0)
 -->
<!-- Pages: 1 -->
<svg width="827pt" height="188pt"
 viewBox="0.00 0.00 827.00 188.00" xmlns="http://www.w3.org/2000/svg" xmlns:xlink="http://www.w3.org/1999/xlink">
<g id="graph0" class="graph" transform="scale(1 1) rotate(0) translate(4 184)">
<polygon fill="transparent" stroke="transparent" points="-4,4 -4,-184 823,-184 823,4 -4,4"/>
<!-- 1 -->
<g id="node1" class="node">
<title>1</title>
<polygon fill="lightgrey" stroke="black" points="565,-36 290,-36 290,0 565,0 565,-36"/>
<text text-anchor="middle" x="427.5" y="-15.5" font-family="Fira Mono" font-size="10.00">CL&#45;DATA&#45;STRUCTURES.META:UPDATE&#45;IF!&#45;FUNCTION</text>
</g>
<!-- 4 -->
<g id="node2" class="node">
<title>4</title>
<polygon fill="lightgrey" stroke="black" points="269,-108 0,-108 0,-72 269,-72 269,-108"/>
<text text-anchor="middle" x="134.5" y="-87.5" font-family="Fira Mono" font-size="10.00">CL&#45;DATA&#45;STRUCTURES.META:UPDATE&#45;IF&#45;FUNCTION</text>
</g>
<!-- 1&#45;&gt;4 -->
<g id="edge1" class="edge">
<title>1&#45;&gt;4</title>
<path fill="none" stroke="black" d="M356.2,-36.03C313.76,-46.17 259.76,-59.07 215.69,-69.6"/>
<polygon fill="none" stroke="black" points="214.78,-66.22 205.87,-71.95 216.41,-73.03 214.78,-66.22"/>
</g>
<!-- 3 -->
<g id="node4" class="node">
<title>3</title>
<polygon fill="lightgrey" stroke="black" points="568,-108 287,-108 287,-72 568,-72 568,-108"/>
<text text-anchor="middle" x="427.5" y="-87.5" font-family="Fira Mono" font-size="10.00">CL&#45;DATA&#45;STRUCTURES.META:DESTRUCTIVE&#45;FUNCTION</text>
</g>
<!-- 1&#45;&gt;3 -->
<g id="edge2" class="edge">
<title>1&#45;&gt;3</title>
<path fill="none" stroke="black" d="M427.5,-36.3C427.5,-44.02 427.5,-53.29 427.5,-61.89"/>
<polygon fill="none" stroke="black" points="424,-61.9 427.5,-71.9 431,-61.9 424,-61.9"/>
</g>
<!-- 2 -->
<g id="node5" class="node">
<title>2</title>
<polygon fill="lightgrey" stroke="black" points="819,-108 586,-108 586,-72 819,-72 819,-108"/>
<text text-anchor="middle" x="702.5" y="-87.5" font-family="Fira Mono" font-size="10.00">CLOSER&#45;MOP:STANDARD&#45;GENERIC&#45;FUNCTION</text>
</g>
<!-- 1&#45;&gt;2 -->
<g id="edge3" class="edge">
<title>1&#45;&gt;2</title>
<path fill="none" stroke="black" d="M494.42,-36.03C534.01,-46.11 584.32,-58.92 625.55,-69.41"/>
<polygon fill="none" stroke="black" points="624.72,-72.81 635.28,-71.89 626.45,-66.03 624.72,-72.81"/>
</g>
<!-- 5 -->
<g id="node3" class="node">
<title>5</title>
<polygon fill="lightgrey" stroke="black" points="254,-180 15,-180 15,-144 254,-144 254,-180"/>
<text text-anchor="middle" x="134.5" y="-159.5" font-family="Fira Mono" font-size="10.00">CL&#45;DATA&#45;STRUCTURES.META:GROW&#45;FUNCTION</text>
</g>
<!-- 4&#45;&gt;5 -->
<g id="edge4" class="edge">
<title>4&#45;&gt;5</title>
<path fill="none" stroke="black" d="M134.5,-108.3C134.5,-116.02 134.5,-125.29 134.5,-133.89"/>
<polygon fill="none" stroke="black" points="131,-133.9 134.5,-143.9 138,-133.9 131,-133.9"/>
</g>
</g>
</svg>
