<?xml version="1.0" encoding="UTF-8" standalone="no"?>
<!DOCTYPE svg PUBLIC "-//W3C//DTD SVG 1.1//EN"
 "http://www.w3.org/Graphics/SVG/1.1/DTD/svg11.dtd">
<!-- Generated by graphviz version 2.40.1 (20161225.0304)
 -->
<!-- Title: %3 Pages: 1 -->
<svg width="1028pt" height="404pt"
 viewBox="0.00 0.00 1028.00 404.00" xmlns="http://www.w3.org/2000/svg" xmlns:xlink="http://www.w3.org/1999/xlink">
<g id="graph0" class="graph" transform="scale(1 1) rotate(0) translate(4 400)">
<title>%3</title>
<polygon fill="transparent" stroke="transparent" points="-4,4 -4,-400 1024,-400 1024,4 -4,4"/>
<!-- 1 -->
<g id="node1" class="node">
<title>1</title>
<polygon fill="#d3d3d3" stroke="#000000" points="720,-36 385,-36 385,0 720,0 720,-36"/>
<text text-anchor="middle" x="552.5" y="-15.5" font-family="Fira Mono" font-size="10.00" fill="#000000">CL&#45;DATA&#45;STRUCTURES.DICTS.HAMT:MUTABLE&#45;HAMT&#45;DICTIONARY</text>
</g>
<!-- 9 -->
<g id="node2" class="node">
<title>9</title>
<polygon fill="#d3d3d3" stroke="#000000" points="535,-108 248,-108 248,-72 535,-72 535,-108"/>
<text text-anchor="middle" x="391.5" y="-87.5" font-family="Fira Mono" font-size="10.00" fill="#000000">CL&#45;DATA&#45;STRUCTURES.DICTS.HAMT:HAMT&#45;DICTIONARY</text>
</g>
<!-- 1&#45;&gt;9 -->
<g id="edge1" class="edge">
<title>1&#45;&gt;9</title>
<path fill="none" stroke="#000000" d="M511.8729,-36.1686C490.3401,-45.7982 463.7151,-57.705 440.9848,-67.8701"/>
<polygon fill="none" stroke="#000000" points="439.5348,-64.6845 431.835,-71.962 442.3926,-71.0746 439.5348,-64.6845"/>
</g>
<!-- 2 -->
<g id="node5" class="node">
<title>2</title>
<polygon fill="#d3d3d3" stroke="#000000" points="876,-108 553,-108 553,-72 876,-72 876,-108"/>
<text text-anchor="middle" x="714.5" y="-87.5" font-family="Fira Mono" font-size="10.00" fill="#000000">CL&#45;DATA&#45;STRUCTURES.DICTS:MUTABLE&#45;HASHING&#45;DICTIONARY</text>
</g>
<!-- 1&#45;&gt;2 -->
<g id="edge2" class="edge">
<title>1&#45;&gt;2</title>
<path fill="none" stroke="#000000" d="M593.3794,-36.1686C615.046,-45.7982 641.8363,-57.705 664.7078,-67.8701"/>
<polygon fill="none" stroke="#000000" points="663.3549,-71.0989 673.9145,-71.962 666.1979,-64.7022 663.3549,-71.0989"/>
</g>
<!-- 10 -->
<g id="node3" class="node">
<title>10</title>
<polygon fill="#d3d3d3" stroke="#000000" points="362,-180 75,-180 75,-144 362,-144 362,-180"/>
<text text-anchor="middle" x="218.5" y="-159.5" font-family="Fira Mono" font-size="10.00" fill="#000000">CL&#45;DATA&#45;STRUCTURES.COMMON.HAMT:HAMT&#45;CONTAINER</text>
</g>
<!-- 9&#45;&gt;10 -->
<g id="edge4" class="edge">
<title>9&#45;&gt;10</title>
<path fill="none" stroke="#000000" d="M347.8448,-108.1686C324.6042,-117.841 295.8432,-129.8109 271.3477,-140.0056"/>
<polygon fill="none" stroke="#000000" points="269.7288,-136.8883 261.8413,-143.962 272.4185,-143.3509 269.7288,-136.8883"/>
</g>
<!-- 3 -->
<g id="node8" class="node">
<title>3</title>
<polygon fill="#d3d3d3" stroke="#000000" points="727,-180 380,-180 380,-144 727,-144 727,-180"/>
<text text-anchor="middle" x="553.5" y="-159.5" font-family="Fira Mono" font-size="10.00" fill="#000000">CL&#45;DATA&#45;STRUCTURES.DICTS:FUNDAMENTAL&#45;HASHING&#45;DICTIONARY</text>
</g>
<!-- 9&#45;&gt;3 -->
<g id="edge3" class="edge">
<title>9&#45;&gt;3</title>
<path fill="none" stroke="#000000" d="M432.3794,-108.1686C454.046,-117.7982 480.8363,-129.705 503.7078,-139.8701"/>
<polygon fill="none" stroke="#000000" points="502.3549,-143.0989 512.9145,-143.962 505.1979,-136.7022 502.3549,-143.0989"/>
</g>
<!-- 11 -->
<g id="node4" class="node">
<title>11</title>
<polygon fill="#d3d3d3" stroke="#000000" points="437,-252 0,-252 0,-216 437,-216 437,-252"/>
<text text-anchor="middle" x="218.5" y="-231.5" font-family="Fira Mono" font-size="10.00" fill="#000000">CL&#45;DATA&#45;STRUCTURES.COMMON.ABSTRACT:FUNDAMENTAL&#45;OWNERSHIP&#45;TAGGED&#45;OBJECT</text>
</g>
<!-- 10&#45;&gt;11 -->
<g id="edge5" class="edge">
<title>10&#45;&gt;11</title>
<path fill="none" stroke="#000000" d="M218.5,-180.1686C218.5,-187.869 218.5,-197.0257 218.5,-205.5834"/>
<polygon fill="none" stroke="#000000" points="215.0001,-205.5867 218.5,-215.5867 222.0001,-205.5868 215.0001,-205.5867"/>
</g>
<!-- 7 -->
<g id="node6" class="node">
<title>7</title>
<polygon fill="#d3d3d3" stroke="#000000" points="1020,-180 745,-180 745,-144 1020,-144 1020,-180"/>
<text text-anchor="middle" x="882.5" y="-159.5" font-family="Fira Mono" font-size="10.00" fill="#000000">CL&#45;DATA&#45;STRUCTURES.DICTS:MUTABLE&#45;DICTIONARY</text>
</g>
<!-- 2&#45;&gt;7 -->
<g id="edge6" class="edge">
<title>2&#45;&gt;7</title>
<path fill="none" stroke="#000000" d="M756.8935,-108.1686C779.4624,-117.841 807.3921,-129.8109 831.1796,-140.0056"/>
<polygon fill="none" stroke="#000000" points="829.8412,-143.2398 840.4114,-143.962 832.5986,-136.8057 829.8412,-143.2398"/>
</g>
<!-- 2&#45;&gt;3 -->
<g id="edge7" class="edge">
<title>2&#45;&gt;3</title>
<path fill="none" stroke="#000000" d="M673.8729,-108.1686C652.3401,-117.7982 625.7151,-129.705 602.9848,-139.8701"/>
<polygon fill="none" stroke="#000000" points="601.5348,-136.6845 593.835,-143.962 604.3926,-143.0746 601.5348,-136.6845"/>
</g>
<!-- 8 -->
<g id="node7" class="node">
<title>8</title>
<polygon fill="#d3d3d3" stroke="#000000" points="969,-252 796,-252 796,-216 969,-216 969,-252"/>
<text text-anchor="middle" x="882.5" y="-231.5" font-family="Fira Mono" font-size="10.00" fill="#000000">CL&#45;DATA&#45;STRUCTURES:MUTABLE</text>
</g>
<!-- 7&#45;&gt;8 -->
<g id="edge8" class="edge">
<title>7&#45;&gt;8</title>
<path fill="none" stroke="#000000" d="M882.5,-180.1686C882.5,-187.869 882.5,-197.0257 882.5,-205.5834"/>
<polygon fill="none" stroke="#000000" points="879.0001,-205.5867 882.5,-215.5867 886.0001,-205.5868 879.0001,-205.5867"/>
</g>
<!-- 4 -->
<g id="node9" class="node">
<title>4</title>
<polygon fill="#d3d3d3" stroke="#000000" points="778,-252 479,-252 479,-216 778,-216 778,-252"/>
<text text-anchor="middle" x="628.5" y="-231.5" font-family="Fira Mono" font-size="10.00" fill="#000000">CL&#45;DATA&#45;STRUCTURES.DICTS:FUNDAMENTAL&#45;DICTIONARY</text>
</g>
<!-- 7&#45;&gt;4 -->
<g id="edge9" class="edge">
<title>7&#45;&gt;4</title>
<path fill="none" stroke="#000000" d="M818.7329,-180.0757C783.2548,-190.1325 738.9377,-202.6948 702.0057,-213.1637"/>
<polygon fill="none" stroke="#000000" points="700.9597,-209.8223 692.2933,-215.9169 702.8688,-216.5569 700.9597,-209.8223"/>
</g>
<!-- 5 -->
<g id="node10" class="node">
<title>5</title>
<polygon fill="#d3d3d3" stroke="#000000" points="884,-324 627,-324 627,-288 884,-288 884,-324"/>
<text text-anchor="middle" x="755.5" y="-303.5" font-family="Fira Mono" font-size="10.00" fill="#000000">CL&#45;DATA&#45;STRUCTURES:FUNDAMENTAL&#45;CONTAINER</text>
</g>
<!-- 8&#45;&gt;5 -->
<g id="edge10" class="edge">
<title>8&#45;&gt;5</title>
<path fill="none" stroke="#000000" d="M850.4525,-252.1686C834.058,-261.4632 813.9214,-272.8792 796.4171,-282.8029"/>
<polygon fill="none" stroke="#000000" points="794.5103,-279.8605 787.5372,-287.8372 797.9626,-285.95 794.5103,-279.8605"/>
</g>
<!-- 3&#45;&gt;4 -->
<g id="edge11" class="edge">
<title>3&#45;&gt;4</title>
<path fill="none" stroke="#000000" d="M572.4257,-180.1686C581.4857,-188.8663 592.4809,-199.4217 602.3265,-208.8735"/>
<polygon fill="none" stroke="#000000" points="599.9426,-211.4367 609.5804,-215.8372 604.7904,-206.387 599.9426,-211.4367"/>
</g>
<!-- 4&#45;&gt;5 -->
<g id="edge12" class="edge">
<title>4&#45;&gt;5</title>
<path fill="none" stroke="#000000" d="M660.5475,-252.1686C676.942,-261.4632 697.0786,-272.8792 714.5829,-282.8029"/>
<polygon fill="none" stroke="#000000" points="713.0374,-285.95 723.4628,-287.8372 716.4897,-279.8605 713.0374,-285.95"/>
</g>
<!-- 6 -->
<g id="node11" class="node">
<title>6</title>
<polygon fill="#d3d3d3" stroke="#000000" points="854,-396 657,-396 657,-360 854,-360 854,-396"/>
<text text-anchor="middle" x="755.5" y="-375.5" font-family="Fira Mono" font-size="10.00" fill="#000000">CL&#45;DATA&#45;STRUCTURES:TRAVERSABLE</text>
</g>
<!-- 5&#45;&gt;6 -->
<g id="edge13" class="edge">
<title>5&#45;&gt;6</title>
<path fill="none" stroke="#000000" d="M755.5,-324.1686C755.5,-331.869 755.5,-341.0257 755.5,-349.5834"/>
<polygon fill="none" stroke="#000000" points="752.0001,-349.5867 755.5,-359.5867 759.0001,-349.5868 752.0001,-349.5867"/>
</g>
</g>
</svg>
