<?xml version="1.0" encoding="UTF-8" standalone="no"?>
<!DOCTYPE svg PUBLIC "-//W3C//DTD SVG 1.1//EN"
 "http://www.w3.org/Graphics/SVG/1.1/DTD/svg11.dtd">
<!-- Generated by graphviz version 3.0.0 (0)
 -->
<!-- Pages: 1 -->
<svg width="516pt" height="332pt"
 viewBox="0.00 0.00 516.00 332.00" xmlns="http://www.w3.org/2000/svg" xmlns:xlink="http://www.w3.org/1999/xlink">
<g id="graph0" class="graph" transform="scale(1 1) rotate(0) translate(4 328)">
<polygon fill="transparent" stroke="transparent" points="-4,4 -4,-328 512,-328 512,4 -4,4"/>
<!-- 1 -->
<g id="node1" class="node">
<title>1</title>
<polygon fill="lightgrey" stroke="black" points="420,-36 163,-36 163,0 420,0 420,-36"/>
<text text-anchor="middle" x="291.5" y="-15.5" font-family="Fira Mono" font-size="10.00">CL&#45;DATA&#45;STRUCTURES.DICTS:LAZY&#45;DICTIONARY</text>
</g>
<!-- 6 -->
<g id="node2" class="node">
<title>6</title>
<polygon fill="lightgrey" stroke="black" points="317,-108 24,-108 24,-72 317,-72 317,-108"/>
<text text-anchor="middle" x="170.5" y="-87.5" font-family="Fira Mono" font-size="10.00">CL&#45;DATA&#45;STRUCTURES.DICTS:FUNCTIONAL&#45;DICTIONARY</text>
</g>
<!-- 1&#45;&gt;6 -->
<g id="edge1" class="edge">
<title>1&#45;&gt;6</title>
<path fill="none" stroke="black" d="M261.9,-36.12C245.93,-45.36 226.04,-56.87 208.89,-66.79"/>
<polygon fill="none" stroke="black" points="207.12,-63.77 200.21,-71.81 210.62,-69.83 207.12,-63.77"/>
</g>
<!-- 2 -->
<g id="node4" class="node">
<title>2</title>
<polygon fill="lightgrey" stroke="black" points="490,-108 335,-108 335,-72 490,-72 490,-108"/>
<text text-anchor="middle" x="412.5" y="-87.5" font-family="Fira Mono" font-size="10.00">CL&#45;DATA&#45;STRUCTURES:LAZY</text>
</g>
<!-- 1&#45;&gt;2 -->
<g id="edge2" class="edge">
<title>1&#45;&gt;2</title>
<path fill="none" stroke="black" d="M321.1,-36.12C337.07,-45.36 356.96,-56.87 374.11,-66.79"/>
<polygon fill="none" stroke="black" points="372.38,-69.83 382.79,-71.81 375.88,-63.77 372.38,-69.83"/>
</g>
<!-- 7 -->
<g id="node3" class="node">
<title>7</title>
<polygon fill="lightgrey" stroke="black" points="299,-180 0,-180 0,-144 299,-144 299,-180"/>
<text text-anchor="middle" x="149.5" y="-159.5" font-family="Fira Mono" font-size="10.00">CL&#45;DATA&#45;STRUCTURES.DICTS:FUNDAMENTAL&#45;DICTIONARY</text>
</g>
<!-- 6&#45;&gt;7 -->
<g id="edge4" class="edge">
<title>6&#45;&gt;7</title>
<path fill="none" stroke="black" d="M165.31,-108.3C162.97,-116.1 160.15,-125.49 157.55,-134.17"/>
<polygon fill="none" stroke="black" points="154.15,-133.31 154.63,-143.9 160.86,-135.32 154.15,-133.31"/>
</g>
<!-- 3 -->
<g id="node5" class="node">
<title>3</title>
<polygon fill="lightgrey" stroke="black" points="508,-180 317,-180 317,-144 508,-144 508,-180"/>
<text text-anchor="middle" x="412.5" y="-159.5" font-family="Fira Mono" font-size="10.00">CL&#45;DATA&#45;STRUCTURES:FUNCTIONAL</text>
</g>
<!-- 6&#45;&gt;3 -->
<g id="edge3" class="edge">
<title>6&#45;&gt;3</title>
<path fill="none" stroke="black" d="M229.39,-108.03C263.79,-117.99 307.38,-130.59 343.4,-141.01"/>
<polygon fill="none" stroke="black" points="342.77,-144.47 353.35,-143.89 344.71,-137.75 342.77,-144.47"/>
</g>
<!-- 4 -->
<g id="node6" class="node">
<title>4</title>
<polygon fill="lightgrey" stroke="black" points="409,-252 152,-252 152,-216 409,-216 409,-252"/>
<text text-anchor="middle" x="280.5" y="-231.5" font-family="Fira Mono" font-size="10.00">CL&#45;DATA&#45;STRUCTURES:FUNDAMENTAL&#45;CONTAINER</text>
</g>
<!-- 7&#45;&gt;4 -->
<g id="edge5" class="edge">
<title>7&#45;&gt;4</title>
<path fill="none" stroke="black" d="M181.55,-180.12C198.99,-189.45 220.77,-201.08 239.44,-211.06"/>
<polygon fill="none" stroke="black" points="237.86,-214.18 248.33,-215.81 241.16,-208.01 237.86,-214.18"/>
</g>
<!-- 2&#45;&gt;3 -->
<g id="edge6" class="edge">
<title>2&#45;&gt;3</title>
<path fill="none" stroke="black" d="M412.5,-108.3C412.5,-116.02 412.5,-125.29 412.5,-133.89"/>
<polygon fill="none" stroke="black" points="409,-133.9 412.5,-143.9 416,-133.9 409,-133.9"/>
</g>
<!-- 3&#45;&gt;4 -->
<g id="edge7" class="edge">
<title>3&#45;&gt;4</title>
<path fill="none" stroke="black" d="M380.21,-180.12C362.63,-189.45 340.69,-201.08 321.87,-211.06"/>
<polygon fill="none" stroke="black" points="320.11,-208.03 312.91,-215.81 323.39,-214.22 320.11,-208.03"/>
</g>
<!-- 5 -->
<g id="node7" class="node">
<title>5</title>
<polygon fill="lightgrey" stroke="black" points="379,-324 182,-324 182,-288 379,-288 379,-324"/>
<text text-anchor="middle" x="280.5" y="-303.5" font-family="Fira Mono" font-size="10.00">CL&#45;DATA&#45;STRUCTURES:TRAVERSABLE</text>
</g>
<!-- 4&#45;&gt;5 -->
<g id="edge8" class="edge">
<title>4&#45;&gt;5</title>
<path fill="none" stroke="black" d="M280.5,-252.3C280.5,-260.02 280.5,-269.29 280.5,-277.89"/>
<polygon fill="none" stroke="black" points="277,-277.9 280.5,-287.9 284,-277.9 277,-277.9"/>
</g>
</g>
</svg>
