<?xml version="1.0" encoding="UTF-8" standalone="no"?>
<!DOCTYPE svg PUBLIC "-//W3C//DTD SVG 1.1//EN"
 "http://www.w3.org/Graphics/SVG/1.1/DTD/svg11.dtd">
<!-- Generated by graphviz version 2.44.1 (0)
 -->
<!-- Pages: 1 -->
<svg width="821pt" height="188pt"
 viewBox="0.00 0.00 821.00 188.00" xmlns="http://www.w3.org/2000/svg" xmlns:xlink="http://www.w3.org/1999/xlink">
<g id="graph0" class="graph" transform="scale(1 1) rotate(0) translate(4 184)">
<polygon fill="transparent" stroke="transparent" points="-4,4 -4,-184 817,-184 817,4 -4,4"/>
<!-- 1 -->
<g id="node1" class="node">
<title>1</title>
<polygon fill="lightgrey" stroke="black" points="556,-36 287,-36 287,0 556,0 556,-36"/>
<text text-anchor="middle" x="421.5" y="-15.5" font-family="Fira Mono" font-size="10.00">CL&#45;DATA&#45;STRUCTURES.META:ERASE&#45;IF!&#45;FUNCTION</text>
</g>
<!-- 4 -->
<g id="node2" class="node">
<title>4</title>
<polygon fill="lightgrey" stroke="black" points="263,-108 0,-108 0,-72 263,-72 263,-108"/>
<text text-anchor="middle" x="131.5" y="-87.5" font-family="Fira Mono" font-size="10.00">CL&#45;DATA&#45;STRUCTURES.META:ERASE&#45;IF&#45;FUNCTION</text>
</g>
<!-- 1&#45;&gt;4 -->
<g id="edge1" class="edge">
<title>1&#45;&gt;4</title>
<path fill="none" stroke="black" d="M350.93,-36.03C309.01,-46.15 255.71,-59.02 212.13,-69.54"/>
<polygon fill="none" stroke="black" points="211.04,-66.2 202.14,-71.95 212.68,-73.01 211.04,-66.2"/>
</g>
<!-- 3 -->
<g id="node4" class="node">
<title>3</title>
<polygon fill="lightgrey" stroke="black" points="562,-108 281,-108 281,-72 562,-72 562,-108"/>
<text text-anchor="middle" x="421.5" y="-87.5" font-family="Fira Mono" font-size="10.00">CL&#45;DATA&#45;STRUCTURES.META:DESTRUCTIVE&#45;FUNCTION</text>
</g>
<!-- 1&#45;&gt;3 -->
<g id="edge2" class="edge">
<title>1&#45;&gt;3</title>
<path fill="none" stroke="black" d="M421.5,-36.3C421.5,-44.02 421.5,-53.29 421.5,-61.89"/>
<polygon fill="none" stroke="black" points="418,-61.9 421.5,-71.9 425,-61.9 418,-61.9"/>
</g>
<!-- 2 -->
<g id="node5" class="node">
<title>2</title>
<polygon fill="lightgrey" stroke="black" points="813,-108 580,-108 580,-72 813,-72 813,-108"/>
<text text-anchor="middle" x="696.5" y="-87.5" font-family="Fira Mono" font-size="10.00">CLOSER&#45;MOP:STANDARD&#45;GENERIC&#45;FUNCTION</text>
</g>
<!-- 1&#45;&gt;2 -->
<g id="edge3" class="edge">
<title>1&#45;&gt;2</title>
<path fill="none" stroke="black" d="M488.42,-36.03C528.01,-46.11 578.32,-58.92 619.55,-69.41"/>
<polygon fill="none" stroke="black" points="618.72,-72.81 629.28,-71.89 620.45,-66.03 618.72,-72.81"/>
</g>
<!-- 5 -->
<g id="node3" class="node">
<title>5</title>
<polygon fill="lightgrey" stroke="black" points="257,-180 6,-180 6,-144 257,-144 257,-180"/>
<text text-anchor="middle" x="131.5" y="-159.5" font-family="Fira Mono" font-size="10.00">CL&#45;DATA&#45;STRUCTURES.META:SHRINK&#45;FUNCTION</text>
</g>
<!-- 4&#45;&gt;5 -->
<g id="edge4" class="edge">
<title>4&#45;&gt;5</title>
<path fill="none" stroke="black" d="M131.5,-108.3C131.5,-116.02 131.5,-125.29 131.5,-133.89"/>
<polygon fill="none" stroke="black" points="128,-133.9 131.5,-143.9 135,-133.9 128,-133.9"/>
</g>
</g>
</svg>
