<?xml version="1.0" encoding="UTF-8" standalone="no"?>
<!DOCTYPE svg PUBLIC "-//W3C//DTD SVG 1.1//EN"
 "http://www.w3.org/Graphics/SVG/1.1/DTD/svg11.dtd">
<!-- Generated by graphviz version 2.40.1 (20161225.0304)
 -->
<!-- Title: %3 Pages: 1 -->
<svg width="1046pt" height="404pt"
 viewBox="0.00 0.00 1046.00 404.00" xmlns="http://www.w3.org/2000/svg" xmlns:xlink="http://www.w3.org/1999/xlink">
<g id="graph0" class="graph" transform="scale(1 1) rotate(0) translate(4 400)">
<title>%3</title>
<polygon fill="transparent" stroke="transparent" points="-4,4 -4,-400 1042,-400 1042,4 -4,4"/>
<!-- 1 -->
<g id="node1" class="node">
<title>1</title>
<polygon fill="#d3d3d3" stroke="#000000" points="730,-36 377,-36 377,0 730,0 730,-36"/>
<text text-anchor="middle" x="553.5" y="-15.5" font-family="Fira Mono" font-size="10.00" fill="#000000">CL&#45;DATA&#45;STRUCTURES.DICTS.HAMT:FUNCTIONAL&#45;HAMT&#45;DICTIONARY</text>
</g>
<!-- 9 -->
<g id="node2" class="node">
<title>9</title>
<polygon fill="#d3d3d3" stroke="#000000" points="531,-108 244,-108 244,-72 531,-72 531,-108"/>
<text text-anchor="middle" x="387.5" y="-87.5" font-family="Fira Mono" font-size="10.00" fill="#000000">CL&#45;DATA&#45;STRUCTURES.DICTS.HAMT:HAMT&#45;DICTIONARY</text>
</g>
<!-- 1&#45;&gt;9 -->
<g id="edge1" class="edge">
<title>1&#45;&gt;9</title>
<path fill="none" stroke="#000000" d="M511.6112,-36.1686C489.4097,-45.7982 461.9578,-57.705 438.5216,-67.8701"/>
<polygon fill="none" stroke="#000000" points="436.8691,-64.7718 429.0876,-71.962 439.6545,-71.1938 436.8691,-64.7718"/>
</g>
<!-- 2 -->
<g id="node5" class="node">
<title>2</title>
<polygon fill="#d3d3d3" stroke="#000000" points="890,-108 549,-108 549,-72 890,-72 890,-108"/>
<text text-anchor="middle" x="719.5" y="-87.5" font-family="Fira Mono" font-size="10.00" fill="#000000">CL&#45;DATA&#45;STRUCTURES.DICTS:FUNCTIONAL&#45;HASHING&#45;DICTIONARY</text>
</g>
<!-- 1&#45;&gt;2 -->
<g id="edge2" class="edge">
<title>1&#45;&gt;2</title>
<path fill="none" stroke="#000000" d="M595.3888,-36.1686C617.5903,-45.7982 645.0422,-57.705 668.4784,-67.8701"/>
<polygon fill="none" stroke="#000000" points="667.3455,-71.1938 677.9124,-71.962 670.1309,-64.7718 667.3455,-71.1938"/>
</g>
<!-- 10 -->
<g id="node3" class="node">
<title>10</title>
<polygon fill="#d3d3d3" stroke="#000000" points="362,-180 75,-180 75,-144 362,-144 362,-180"/>
<text text-anchor="middle" x="218.5" y="-159.5" font-family="Fira Mono" font-size="10.00" fill="#000000">CL&#45;DATA&#45;STRUCTURES.COMMON.HAMT:HAMT&#45;CONTAINER</text>
</g>
<!-- 9&#45;&gt;10 -->
<g id="edge4" class="edge">
<title>9&#45;&gt;10</title>
<path fill="none" stroke="#000000" d="M344.8542,-108.1686C322.151,-117.841 294.0549,-129.8109 270.1258,-140.0056"/>
<polygon fill="none" stroke="#000000" points="268.6672,-136.8225 260.8392,-143.962 271.4109,-143.2624 268.6672,-136.8225"/>
</g>
<!-- 3 -->
<g id="node8" class="node">
<title>3</title>
<polygon fill="#d3d3d3" stroke="#000000" points="727,-180 380,-180 380,-144 727,-144 727,-180"/>
<text text-anchor="middle" x="553.5" y="-159.5" font-family="Fira Mono" font-size="10.00" fill="#000000">CL&#45;DATA&#45;STRUCTURES.DICTS:FUNDAMENTAL&#45;HASHING&#45;DICTIONARY</text>
</g>
<!-- 9&#45;&gt;3 -->
<g id="edge3" class="edge">
<title>9&#45;&gt;3</title>
<path fill="none" stroke="#000000" d="M429.3888,-108.1686C451.5903,-117.7982 479.0422,-129.705 502.4784,-139.8701"/>
<polygon fill="none" stroke="#000000" points="501.3455,-143.1938 511.9124,-143.962 504.1309,-136.7718 501.3455,-143.1938"/>
</g>
<!-- 11 -->
<g id="node4" class="node">
<title>11</title>
<polygon fill="#d3d3d3" stroke="#000000" points="437,-252 0,-252 0,-216 437,-216 437,-252"/>
<text text-anchor="middle" x="218.5" y="-231.5" font-family="Fira Mono" font-size="10.00" fill="#000000">CL&#45;DATA&#45;STRUCTURES.COMMON.ABSTRACT:FUNDAMENTAL&#45;OWNERSHIP&#45;TAGGED&#45;OBJECT</text>
</g>
<!-- 10&#45;&gt;11 -->
<g id="edge5" class="edge">
<title>10&#45;&gt;11</title>
<path fill="none" stroke="#000000" d="M218.5,-180.1686C218.5,-187.869 218.5,-197.0257 218.5,-205.5834"/>
<polygon fill="none" stroke="#000000" points="215.0001,-205.5867 218.5,-215.5867 222.0001,-205.5868 215.0001,-205.5867"/>
</g>
<!-- 7 -->
<g id="node6" class="node">
<title>7</title>
<polygon fill="#d3d3d3" stroke="#000000" points="1038,-180 745,-180 745,-144 1038,-144 1038,-180"/>
<text text-anchor="middle" x="891.5" y="-159.5" font-family="Fira Mono" font-size="10.00" fill="#000000">CL&#45;DATA&#45;STRUCTURES.DICTS:FUNCTIONAL&#45;DICTIONARY</text>
</g>
<!-- 2&#45;&gt;7 -->
<g id="edge6" class="edge">
<title>2&#45;&gt;7</title>
<path fill="none" stroke="#000000" d="M762.9029,-108.1686C786.0091,-117.841 814.6038,-129.8109 838.9577,-140.0056"/>
<polygon fill="none" stroke="#000000" points="837.8333,-143.3291 848.4092,-143.962 840.5363,-136.872 837.8333,-143.3291"/>
</g>
<!-- 2&#45;&gt;3 -->
<g id="edge7" class="edge">
<title>2&#45;&gt;3</title>
<path fill="none" stroke="#000000" d="M677.6112,-108.1686C655.4097,-117.7982 627.9578,-129.705 604.5216,-139.8701"/>
<polygon fill="none" stroke="#000000" points="602.8691,-136.7718 595.0876,-143.962 605.6545,-143.1938 602.8691,-136.7718"/>
</g>
<!-- 8 -->
<g id="node7" class="node">
<title>8</title>
<polygon fill="#d3d3d3" stroke="#000000" points="987,-252 796,-252 796,-216 987,-216 987,-252"/>
<text text-anchor="middle" x="891.5" y="-231.5" font-family="Fira Mono" font-size="10.00" fill="#000000">CL&#45;DATA&#45;STRUCTURES:FUNCTIONAL</text>
</g>
<!-- 7&#45;&gt;8 -->
<g id="edge8" class="edge">
<title>7&#45;&gt;8</title>
<path fill="none" stroke="#000000" d="M891.5,-180.1686C891.5,-187.869 891.5,-197.0257 891.5,-205.5834"/>
<polygon fill="none" stroke="#000000" points="888.0001,-205.5867 891.5,-215.5867 895.0001,-205.5868 888.0001,-205.5867"/>
</g>
<!-- 4 -->
<g id="node9" class="node">
<title>4</title>
<polygon fill="#d3d3d3" stroke="#000000" points="778,-252 479,-252 479,-216 778,-216 778,-252"/>
<text text-anchor="middle" x="628.5" y="-231.5" font-family="Fira Mono" font-size="10.00" fill="#000000">CL&#45;DATA&#45;STRUCTURES.DICTS:FUNDAMENTAL&#45;DICTIONARY</text>
</g>
<!-- 7&#45;&gt;4 -->
<g id="edge9" class="edge">
<title>7&#45;&gt;4</title>
<path fill="none" stroke="#000000" d="M825.4735,-180.0757C788.7382,-190.1325 742.8508,-202.6948 704.6102,-213.1637"/>
<polygon fill="none" stroke="#000000" points="703.2746,-209.9005 694.5537,-215.9169 705.123,-216.6521 703.2746,-209.9005"/>
</g>
<!-- 5 -->
<g id="node10" class="node">
<title>5</title>
<polygon fill="#d3d3d3" stroke="#000000" points="888,-324 631,-324 631,-288 888,-288 888,-324"/>
<text text-anchor="middle" x="759.5" y="-303.5" font-family="Fira Mono" font-size="10.00" fill="#000000">CL&#45;DATA&#45;STRUCTURES:FUNDAMENTAL&#45;CONTAINER</text>
</g>
<!-- 8&#45;&gt;5 -->
<g id="edge10" class="edge">
<title>8&#45;&gt;5</title>
<path fill="none" stroke="#000000" d="M858.1908,-252.1686C841.0727,-261.5058 820.0294,-272.984 801.7778,-282.9394"/>
<polygon fill="none" stroke="#000000" points="799.9015,-279.976 792.7985,-287.8372 803.2535,-286.1212 799.9015,-279.976"/>
</g>
<!-- 3&#45;&gt;4 -->
<g id="edge11" class="edge">
<title>3&#45;&gt;4</title>
<path fill="none" stroke="#000000" d="M572.4257,-180.1686C581.4857,-188.8663 592.4809,-199.4217 602.3265,-208.8735"/>
<polygon fill="none" stroke="#000000" points="599.9426,-211.4367 609.5804,-215.8372 604.7904,-206.387 599.9426,-211.4367"/>
</g>
<!-- 4&#45;&gt;5 -->
<g id="edge12" class="edge">
<title>4&#45;&gt;5</title>
<path fill="none" stroke="#000000" d="M661.5568,-252.1686C678.4677,-261.4632 699.2385,-272.8792 717.2941,-282.8029"/>
<polygon fill="none" stroke="#000000" points="716.0043,-286.0878 726.4537,-287.8372 719.376,-279.9532 716.0043,-286.0878"/>
</g>
<!-- 6 -->
<g id="node11" class="node">
<title>6</title>
<polygon fill="#d3d3d3" stroke="#000000" points="858,-396 661,-396 661,-360 858,-360 858,-396"/>
<text text-anchor="middle" x="759.5" y="-375.5" font-family="Fira Mono" font-size="10.00" fill="#000000">CL&#45;DATA&#45;STRUCTURES:TRAVERSABLE</text>
</g>
<!-- 5&#45;&gt;6 -->
<g id="edge13" class="edge">
<title>5&#45;&gt;6</title>
<path fill="none" stroke="#000000" d="M759.5,-324.1686C759.5,-331.869 759.5,-341.0257 759.5,-349.5834"/>
<polygon fill="none" stroke="#000000" points="756.0001,-349.5867 759.5,-359.5867 763.0001,-349.5868 756.0001,-349.5867"/>
</g>
</g>
</svg>
