<?xml version="1.0" encoding="UTF-8" standalone="no"?>
<!DOCTYPE svg PUBLIC "-//W3C//DTD SVG 1.1//EN"
 "http://www.w3.org/Graphics/SVG/1.1/DTD/svg11.dtd">
<!-- Generated by graphviz version 2.46.1 (0)
 -->
<!-- Pages: 1 -->
<svg width="1121pt" height="404pt"
 viewBox="0.00 0.00 1121.00 404.00" xmlns="http://www.w3.org/2000/svg" xmlns:xlink="http://www.w3.org/1999/xlink">
<g id="graph0" class="graph" transform="scale(1 1) rotate(0) translate(4 400)">
<polygon fill="transparent" stroke="transparent" points="-4,4 -4,-400 1117,-400 1117,4 -4,4"/>
<!-- 1 -->
<g id="node1" class="node">
<title>1</title>
<polygon fill="lightgrey" stroke="black" points="778,-36 413,-36 413,0 778,0 778,-36"/>
<text text-anchor="middle" x="595.5" y="-15.5" font-family="Fira Mono" font-size="10.00">CL&#45;DATA&#45;STRUCTURES.QUEUES.2&#45;3&#45;TREE:TRANSACTIONAL&#45;2&#45;3&#45;QUEUE</text>
</g>
<!-- 7 -->
<g id="node2" class="node">
<title>7</title>
<polygon fill="lightgrey" stroke="black" points="359,-108 0,-108 0,-72 359,-72 359,-108"/>
<text text-anchor="middle" x="179.5" y="-87.5" font-family="Fira Mono" font-size="10.00">CL&#45;DATA&#45;STRUCTURES.QUEUES:FUNDAMENTAL&#45;TRANSACTIONAL&#45;QUEUE</text>
</g>
<!-- 1&#45;&gt;7 -->
<g id="edge1" class="edge">
<title>1&#45;&gt;7</title>
<path fill="none" stroke="black" d="M494.27,-36.03C432.74,-46.39 354.12,-59.62 290.84,-70.26"/>
<polygon fill="none" stroke="black" points="290.11,-66.84 280.83,-71.95 291.27,-73.74 290.11,-66.84"/>
</g>
<!-- 6 -->
<g id="node6" class="node">
<title>6</title>
<polygon fill="lightgrey" stroke="black" points="814,-108 377,-108 377,-72 814,-72 814,-108"/>
<text text-anchor="middle" x="595.5" y="-87.5" font-family="Fira Mono" font-size="10.00">CL&#45;DATA&#45;STRUCTURES.COMMON.ABSTRACT:FUNDAMENTAL&#45;OWNERSHIP&#45;TAGGED&#45;OBJECT</text>
</g>
<!-- 1&#45;&gt;6 -->
<g id="edge2" class="edge">
<title>1&#45;&gt;6</title>
<path fill="none" stroke="black" d="M595.5,-36.3C595.5,-44.02 595.5,-53.29 595.5,-61.89"/>
<polygon fill="none" stroke="black" points="592,-61.9 595.5,-71.9 599,-61.9 592,-61.9"/>
</g>
<!-- 2 -->
<g id="node7" class="node">
<title>2</title>
<polygon fill="lightgrey" stroke="black" points="1113,-108 832,-108 832,-72 1113,-72 1113,-108"/>
<text text-anchor="middle" x="972.5" y="-87.5" font-family="Fira Mono" font-size="10.00">CL&#45;DATA&#45;STRUCTURES.QUEUES.2&#45;3&#45;TREE:2&#45;3&#45;QUEUE</text>
</g>
<!-- 1&#45;&gt;2 -->
<g id="edge3" class="edge">
<title>1&#45;&gt;2</title>
<path fill="none" stroke="black" d="M687.24,-36.03C742.65,-46.32 813.37,-59.45 870.53,-70.07"/>
<polygon fill="none" stroke="black" points="870.2,-73.57 880.67,-71.95 871.48,-66.68 870.2,-73.57"/>
</g>
<!-- 10 -->
<g id="node3" class="node">
<title>10</title>
<polygon fill="lightgrey" stroke="black" points="317,-252 42,-252 42,-216 317,-216 317,-252"/>
<text text-anchor="middle" x="179.5" y="-231.5" font-family="Fira Mono" font-size="10.00">CL&#45;DATA&#45;STRUCTURES.QUEUES:FUNDAMENTAL&#45;QUEUE</text>
</g>
<!-- 7&#45;&gt;10 -->
<g id="edge4" class="edge">
<title>7&#45;&gt;10</title>
<path fill="none" stroke="black" d="M179.5,-108.13C179.5,-132.33 179.5,-176.79 179.5,-205.61"/>
<polygon fill="none" stroke="black" points="176,-205.81 179.5,-215.81 183,-205.81 176,-205.81"/>
</g>
<!-- 8 -->
<g id="node4" class="node">
<title>8</title>
<polygon fill="lightgrey" stroke="black" points="471,-180 262,-180 262,-144 471,-144 471,-180"/>
<text text-anchor="middle" x="366.5" y="-159.5" font-family="Fira Mono" font-size="10.00">CL&#45;DATA&#45;STRUCTURES:TRANSACTIONAL</text>
</g>
<!-- 7&#45;&gt;8 -->
<g id="edge5" class="edge">
<title>7&#45;&gt;8</title>
<path fill="none" stroke="black" d="M225.25,-108.12C251.26,-117.86 284.03,-130.13 311.45,-140.39"/>
<polygon fill="none" stroke="black" points="310.31,-143.7 320.9,-143.93 312.76,-137.15 310.31,-143.7"/>
</g>
<!-- 4 -->
<g id="node9" class="node">
<title>4</title>
<polygon fill="lightgrey" stroke="black" points="550,-324 293,-324 293,-288 550,-288 550,-324"/>
<text text-anchor="middle" x="421.5" y="-303.5" font-family="Fira Mono" font-size="10.00">CL&#45;DATA&#45;STRUCTURES:FUNDAMENTAL&#45;CONTAINER</text>
</g>
<!-- 10&#45;&gt;4 -->
<g id="edge6" class="edge">
<title>10&#45;&gt;4</title>
<path fill="none" stroke="black" d="M238.39,-252.03C272.79,-261.99 316.38,-274.59 352.4,-285.01"/>
<polygon fill="none" stroke="black" points="351.77,-288.47 362.35,-287.89 353.71,-281.75 351.77,-288.47"/>
</g>
<!-- 9 -->
<g id="node5" class="node">
<title>9</title>
<polygon fill="lightgrey" stroke="black" points="508,-252 335,-252 335,-216 508,-216 508,-252"/>
<text text-anchor="middle" x="421.5" y="-231.5" font-family="Fira Mono" font-size="10.00">CL&#45;DATA&#45;STRUCTURES:MUTABLE</text>
</g>
<!-- 8&#45;&gt;9 -->
<g id="edge7" class="edge">
<title>8&#45;&gt;9</title>
<path fill="none" stroke="black" d="M380.1,-180.3C386.62,-188.61 394.57,-198.72 401.75,-207.86"/>
<polygon fill="none" stroke="black" points="399.13,-210.19 408.06,-215.9 404.63,-205.87 399.13,-210.19"/>
</g>
<!-- 9&#45;&gt;4 -->
<g id="edge8" class="edge">
<title>9&#45;&gt;4</title>
<path fill="none" stroke="black" d="M421.5,-252.3C421.5,-260.02 421.5,-269.29 421.5,-277.89"/>
<polygon fill="none" stroke="black" points="418,-277.9 421.5,-287.9 425,-277.9 418,-277.9"/>
</g>
<!-- 3 -->
<g id="node8" class="node">
<title>3</title>
<polygon fill="lightgrey" stroke="black" points="919,-180 668,-180 668,-144 919,-144 919,-180"/>
<text text-anchor="middle" x="793.5" y="-159.5" font-family="Fira Mono" font-size="10.00">CL&#45;DATA&#45;STRUCTURES.COMMON.2&#45;3&#45;TREE:TREE</text>
</g>
<!-- 2&#45;&gt;3 -->
<g id="edge9" class="edge">
<title>2&#45;&gt;3</title>
<path fill="none" stroke="black" d="M928.71,-108.12C903.92,-117.82 872.72,-130.02 846.54,-140.26"/>
<polygon fill="none" stroke="black" points="845.18,-137.03 837.15,-143.93 847.73,-143.55 845.18,-137.03"/>
</g>
<!-- 3&#45;&gt;4 -->
<g id="edge10" class="edge">
<title>3&#45;&gt;4</title>
<path fill="none" stroke="black" d="M748.63,-180.13C680.11,-206.28 549.6,-256.1 475.82,-284.26"/>
<polygon fill="none" stroke="black" points="474.34,-281.09 466.24,-287.92 476.83,-287.62 474.34,-281.09"/>
</g>
<!-- 5 -->
<g id="node10" class="node">
<title>5</title>
<polygon fill="lightgrey" stroke="black" points="520,-396 323,-396 323,-360 520,-360 520,-396"/>
<text text-anchor="middle" x="421.5" y="-375.5" font-family="Fira Mono" font-size="10.00">CL&#45;DATA&#45;STRUCTURES:TRAVERSABLE</text>
</g>
<!-- 4&#45;&gt;5 -->
<g id="edge11" class="edge">
<title>4&#45;&gt;5</title>
<path fill="none" stroke="black" d="M421.5,-324.3C421.5,-332.02 421.5,-341.29 421.5,-349.89"/>
<polygon fill="none" stroke="black" points="418,-349.9 421.5,-359.9 425,-349.9 418,-349.9"/>
</g>
</g>
</svg>
