<?xml version="1.0" encoding="UTF-8" standalone="no"?>
<!DOCTYPE svg PUBLIC "-//W3C//DTD SVG 1.1//EN"
 "http://www.w3.org/Graphics/SVG/1.1/DTD/svg11.dtd">
<!-- Generated by graphviz version 2.40.1 (20161225.0304)
 -->
<!-- Title: %3 Pages: 1 -->
<svg width="498pt" height="260pt"
 viewBox="0.00 0.00 498.00 260.00" xmlns="http://www.w3.org/2000/svg" xmlns:xlink="http://www.w3.org/1999/xlink">
<g id="graph0" class="graph" transform="scale(1 1) rotate(0) translate(4 256)">
<title>%3</title>
<polygon fill="transparent" stroke="transparent" points="-4,4 -4,-256 494,-256 494,4 -4,4"/>
<!-- 1 -->
<g id="node1" class="node">
<title>1</title>
<polygon fill="#d3d3d3" stroke="#000000" points="351,-36 76,-36 76,0 351,0 351,-36"/>
<text text-anchor="middle" x="213.5" y="-15.5" font-family="Fira Mono" font-size="10.00" fill="#000000">CL&#45;DATA&#45;STRUCTURES.DICTS:MUTABLE&#45;DICTIONARY</text>
</g>
<!-- 5 -->
<g id="node2" class="node">
<title>5</title>
<polygon fill="#d3d3d3" stroke="#000000" points="173,-108 0,-108 0,-72 173,-72 173,-108"/>
<text text-anchor="middle" x="86.5" y="-87.5" font-family="Fira Mono" font-size="10.00" fill="#000000">CL&#45;DATA&#45;STRUCTURES:MUTABLE</text>
</g>
<!-- 1&#45;&gt;5 -->
<g id="edge1" class="edge">
<title>1&#45;&gt;5</title>
<path fill="none" stroke="#000000" d="M181.4525,-36.1686C165.058,-45.4632 144.9214,-56.8792 127.4171,-66.8029"/>
<polygon fill="none" stroke="#000000" points="125.5103,-63.8605 118.5372,-71.8372 128.9626,-69.95 125.5103,-63.8605"/>
</g>
<!-- 2 -->
<g id="node3" class="node">
<title>2</title>
<polygon fill="#d3d3d3" stroke="#000000" points="490,-108 191,-108 191,-72 490,-72 490,-108"/>
<text text-anchor="middle" x="340.5" y="-87.5" font-family="Fira Mono" font-size="10.00" fill="#000000">CL&#45;DATA&#45;STRUCTURES.DICTS:FUNDAMENTAL&#45;DICTIONARY</text>
</g>
<!-- 1&#45;&gt;2 -->
<g id="edge2" class="edge">
<title>1&#45;&gt;2</title>
<path fill="none" stroke="#000000" d="M245.5475,-36.1686C261.942,-45.4632 282.0786,-56.8792 299.5829,-66.8029"/>
<polygon fill="none" stroke="#000000" points="298.0374,-69.95 308.4628,-71.8372 301.4897,-63.8605 298.0374,-69.95"/>
</g>
<!-- 3 -->
<g id="node4" class="node">
<title>3</title>
<polygon fill="#d3d3d3" stroke="#000000" points="342,-180 85,-180 85,-144 342,-144 342,-180"/>
<text text-anchor="middle" x="213.5" y="-159.5" font-family="Fira Mono" font-size="10.00" fill="#000000">CL&#45;DATA&#45;STRUCTURES:FUNDAMENTAL&#45;CONTAINER</text>
</g>
<!-- 5&#45;&gt;3 -->
<g id="edge3" class="edge">
<title>5&#45;&gt;3</title>
<path fill="none" stroke="#000000" d="M118.5475,-108.1686C134.942,-117.4632 155.0786,-128.8792 172.5829,-138.8029"/>
<polygon fill="none" stroke="#000000" points="171.0374,-141.95 181.4628,-143.8372 174.4897,-135.8605 171.0374,-141.95"/>
</g>
<!-- 2&#45;&gt;3 -->
<g id="edge4" class="edge">
<title>2&#45;&gt;3</title>
<path fill="none" stroke="#000000" d="M308.4525,-108.1686C292.058,-117.4632 271.9214,-128.8792 254.4171,-138.8029"/>
<polygon fill="none" stroke="#000000" points="252.5103,-135.8605 245.5372,-143.8372 255.9626,-141.95 252.5103,-135.8605"/>
</g>
<!-- 4 -->
<g id="node5" class="node">
<title>4</title>
<polygon fill="#d3d3d3" stroke="#000000" points="312,-252 115,-252 115,-216 312,-216 312,-252"/>
<text text-anchor="middle" x="213.5" y="-231.5" font-family="Fira Mono" font-size="10.00" fill="#000000">CL&#45;DATA&#45;STRUCTURES:TRAVERSABLE</text>
</g>
<!-- 3&#45;&gt;4 -->
<g id="edge5" class="edge">
<title>3&#45;&gt;4</title>
<path fill="none" stroke="#000000" d="M213.5,-180.1686C213.5,-187.869 213.5,-197.0257 213.5,-205.5834"/>
<polygon fill="none" stroke="#000000" points="210.0001,-205.5867 213.5,-215.5867 217.0001,-205.5868 210.0001,-205.5867"/>
</g>
</g>
</svg>
