<?xml version="1.0" encoding="UTF-8" standalone="no"?>
<!DOCTYPE svg PUBLIC "-//W3C//DTD SVG 1.1//EN"
 "http://www.w3.org/Graphics/SVG/1.1/DTD/svg11.dtd">
<!-- Generated by graphviz version 2.40.1 (20161225.0304)
 -->
<!-- Title: %3 Pages: 1 -->
<svg width="755pt" height="188pt"
 viewBox="0.00 0.00 755.00 188.00" xmlns="http://www.w3.org/2000/svg" xmlns:xlink="http://www.w3.org/1999/xlink">
<g id="graph0" class="graph" transform="scale(1 1) rotate(0) translate(4 184)">
<title>%3</title>
<polygon fill="transparent" stroke="transparent" points="-4,4 -4,-184 751,-184 751,4 -4,4"/>
<!-- 1 -->
<g id="node1" class="node">
<title>1</title>
<polygon fill="#d3d3d3" stroke="#000000" points="523,-36 224,-36 224,0 523,0 523,-36"/>
<text text-anchor="middle" x="373.5" y="-15.5" font-family="Fira Mono" font-size="10.00" fill="#000000">CL&#45;DATA&#45;STRUCTURES:FUNCTIONAL&#45;ERASE&#45;IF&#45;FUNCTION</text>
</g>
<!-- 4 -->
<g id="node2" class="node">
<title>4</title>
<polygon fill="#d3d3d3" stroke="#000000" points="233,-108 0,-108 0,-72 233,-72 233,-108"/>
<text text-anchor="middle" x="116.5" y="-87.5" font-family="Fira Mono" font-size="10.00" fill="#000000">CL&#45;DATA&#45;STRUCTURES:ERASE&#45;IF&#45;FUNCTION</text>
</g>
<!-- 1&#45;&gt;4 -->
<g id="edge1" class="edge">
<title>1&#45;&gt;4</title>
<path fill="none" stroke="#000000" d="M308.9798,-36.0757C273.0826,-46.1325 228.242,-58.6948 190.8739,-69.1637"/>
<polygon fill="none" stroke="#000000" points="189.7318,-65.8489 181.0468,-71.9169 191.6202,-72.5893 189.7318,-65.8489"/>
</g>
<!-- 3 -->
<g id="node4" class="node">
<title>3</title>
<polygon fill="#d3d3d3" stroke="#000000" points="496,-108 251,-108 251,-72 496,-72 496,-108"/>
<text text-anchor="middle" x="373.5" y="-87.5" font-family="Fira Mono" font-size="10.00" fill="#000000">CL&#45;DATA&#45;STRUCTURES:FUNCTIONAL&#45;FUNCTION</text>
</g>
<!-- 1&#45;&gt;3 -->
<g id="edge2" class="edge">
<title>1&#45;&gt;3</title>
<path fill="none" stroke="#000000" d="M373.5,-36.1686C373.5,-43.869 373.5,-53.0257 373.5,-61.5834"/>
<polygon fill="none" stroke="#000000" points="370.0001,-61.5867 373.5,-71.5867 377.0001,-61.5868 370.0001,-61.5867"/>
</g>
<!-- 2 -->
<g id="node5" class="node">
<title>2</title>
<polygon fill="#d3d3d3" stroke="#000000" points="747,-108 514,-108 514,-72 747,-72 747,-108"/>
<text text-anchor="middle" x="630.5" y="-87.5" font-family="Fira Mono" font-size="10.00" fill="#000000">CLOSER&#45;MOP:STANDARD&#45;GENERIC&#45;FUNCTION</text>
</g>
<!-- 1&#45;&gt;2 -->
<g id="edge3" class="edge">
<title>1&#45;&gt;2</title>
<path fill="none" stroke="#000000" d="M438.0202,-36.0757C473.9174,-46.1325 518.758,-58.6948 556.1261,-69.1637"/>
<polygon fill="none" stroke="#000000" points="555.3798,-72.5893 565.9532,-71.9169 557.2682,-65.8489 555.3798,-72.5893"/>
</g>
<!-- 5 -->
<g id="node3" class="node">
<title>5</title>
<polygon fill="#d3d3d3" stroke="#000000" points="227,-180 6,-180 6,-144 227,-144 227,-180"/>
<text text-anchor="middle" x="116.5" y="-159.5" font-family="Fira Mono" font-size="10.00" fill="#000000">CL&#45;DATA&#45;STRUCTURES:SHRINK&#45;FUNCTION</text>
</g>
<!-- 4&#45;&gt;5 -->
<g id="edge4" class="edge">
<title>4&#45;&gt;5</title>
<path fill="none" stroke="#000000" d="M116.5,-108.1686C116.5,-115.869 116.5,-125.0257 116.5,-133.5834"/>
<polygon fill="none" stroke="#000000" points="113.0001,-133.5867 116.5,-143.5867 120.0001,-133.5868 113.0001,-133.5867"/>
</g>
</g>
</svg>
