<?xml version="1.0" encoding="UTF-8" standalone="no"?>
<!DOCTYPE svg PUBLIC "-//W3C//DTD SVG 1.1//EN"
 "http://www.w3.org/Graphics/SVG/1.1/DTD/svg11.dtd">
<!-- Generated by graphviz version 2.50.0 (0)
 -->
<!-- Pages: 1 -->
<svg width="289pt" height="260pt"
 viewBox="0.00 0.00 289.00 260.00" xmlns="http://www.w3.org/2000/svg" xmlns:xlink="http://www.w3.org/1999/xlink">
<g id="graph0" class="graph" transform="scale(1 1) rotate(0) translate(4 256)">
<polygon fill="transparent" stroke="transparent" points="-4,4 -4,-256 285,-256 285,4 -4,4"/>
<!-- 1 -->
<g id="node1" class="node">
<title>1</title>
<polygon fill="lightgrey" stroke="black" points="281,-36 0,-36 0,0 281,0 281,-36"/>
<text text-anchor="middle" x="140.5" y="-15.5" font-family="Fira Mono" font-size="10.00">CL&#45;DATA&#45;STRUCTURES.META:DESTRUCTIVE&#45;FUNCTION</text>
</g>
<!-- 2 -->
<g id="node2" class="node">
<title>2</title>
<polygon fill="lightgrey" stroke="black" points="251,-108 30,-108 30,-72 251,-72 251,-108"/>
<text text-anchor="middle" x="140.5" y="-87.5" font-family="Fira Mono" font-size="10.00">SB&#45;MOP:FUNCALLABLE&#45;STANDARD&#45;OBJECT</text>
</g>
<!-- 1&#45;&gt;2 -->
<g id="edge1" class="edge">
<title>1&#45;&gt;2</title>
<path fill="none" stroke="black" d="M140.5,-36.3C140.5,-44.02 140.5,-53.29 140.5,-61.89"/>
<polygon fill="none" stroke="black" points="137,-61.9 140.5,-71.9 144,-61.9 137,-61.9"/>
</g>
<!-- 3 -->
<g id="node3" class="node">
<title>3</title>
<polygon fill="lightgrey" stroke="black" points="209,-180 72,-180 72,-144 209,-144 209,-180"/>
<text text-anchor="middle" x="140.5" y="-159.5" font-family="Fira Mono" font-size="10.00">COMMON&#45;LISP:FUNCTION</text>
</g>
<!-- 2&#45;&gt;3 -->
<g id="edge2" class="edge">
<title>2&#45;&gt;3</title>
<path fill="none" stroke="black" d="M140.5,-108.3C140.5,-116.02 140.5,-125.29 140.5,-133.89"/>
<polygon fill="none" stroke="black" points="137,-133.9 140.5,-143.9 144,-133.9 137,-133.9"/>
</g>
<!-- 4 -->
<g id="node4" class="node">
<title>4</title>
<polygon fill="lightgrey" stroke="black" points="188,-252 93,-252 93,-216 188,-216 188,-252"/>
<text text-anchor="middle" x="140.5" y="-231.5" font-family="Fira Mono" font-size="10.00">COMMON&#45;LISP:T</text>
</g>
<!-- 3&#45;&gt;4 -->
<g id="edge3" class="edge">
<title>3&#45;&gt;4</title>
<path fill="none" stroke="black" d="M140.5,-180.3C140.5,-188.02 140.5,-197.29 140.5,-205.89"/>
<polygon fill="none" stroke="black" points="137,-205.9 140.5,-215.9 144,-205.9 137,-205.9"/>
</g>
</g>
</svg>
