<?xml version="1.0" encoding="UTF-8" standalone="no"?>
<!DOCTYPE svg PUBLIC "-//W3C//DTD SVG 1.1//EN"
 "http://www.w3.org/Graphics/SVG/1.1/DTD/svg11.dtd">
<!-- Generated by graphviz version 2.40.1 (20161225.0304)
 -->
<!-- Title: %3 Pages: 1 -->
<svg width="740pt" height="188pt"
 viewBox="0.00 0.00 740.00 188.00" xmlns="http://www.w3.org/2000/svg" xmlns:xlink="http://www.w3.org/1999/xlink">
<g id="graph0" class="graph" transform="scale(1 1) rotate(0) translate(4 184)">
<title>%3</title>
<polygon fill="transparent" stroke="transparent" points="-4,4 -4,-184 736,-184 736,4 -4,4"/>
<!-- 1 -->
<g id="node1" class="node">
<title>1</title>
<polygon fill="#d3d3d3" stroke="#000000" points="499,-36 218,-36 218,0 499,0 499,-36"/>
<text text-anchor="middle" x="358.5" y="-15.5" font-family="Fira Mono" font-size="10.00" fill="#000000">CL&#45;DATA&#45;STRUCTURES:FUNCTIONAL&#45;ERASE&#45;FUNCTION</text>
</g>
<!-- 4 -->
<g id="node2" class="node">
<title>4</title>
<polygon fill="#d3d3d3" stroke="#000000" points="218,-108 3,-108 3,-72 218,-72 218,-108"/>
<text text-anchor="middle" x="110.5" y="-87.5" font-family="Fira Mono" font-size="10.00" fill="#000000">CL&#45;DATA&#45;STRUCTURES:ERASE&#45;FUNCTION</text>
</g>
<!-- 1&#45;&gt;4 -->
<g id="edge1" class="edge">
<title>1&#45;&gt;4</title>
<path fill="none" stroke="#000000" d="M296.2392,-36.0757C261.7466,-46.0897 218.697,-58.588 182.7301,-69.03"/>
<polygon fill="none" stroke="#000000" points="181.414,-65.7675 172.7864,-71.9169 183.3657,-72.4899 181.414,-65.7675"/>
</g>
<!-- 3 -->
<g id="node4" class="node">
<title>3</title>
<polygon fill="#d3d3d3" stroke="#000000" points="481,-108 236,-108 236,-72 481,-72 481,-108"/>
<text text-anchor="middle" x="358.5" y="-87.5" font-family="Fira Mono" font-size="10.00" fill="#000000">CL&#45;DATA&#45;STRUCTURES:FUNCTIONAL&#45;FUNCTION</text>
</g>
<!-- 1&#45;&gt;3 -->
<g id="edge2" class="edge">
<title>1&#45;&gt;3</title>
<path fill="none" stroke="#000000" d="M358.5,-36.1686C358.5,-43.869 358.5,-53.0257 358.5,-61.5834"/>
<polygon fill="none" stroke="#000000" points="355.0001,-61.5867 358.5,-71.5867 362.0001,-61.5868 355.0001,-61.5867"/>
</g>
<!-- 2 -->
<g id="node5" class="node">
<title>2</title>
<polygon fill="#d3d3d3" stroke="#000000" points="732,-108 499,-108 499,-72 732,-72 732,-108"/>
<text text-anchor="middle" x="615.5" y="-87.5" font-family="Fira Mono" font-size="10.00" fill="#000000">CLOSER&#45;MOP:STANDARD&#45;GENERIC&#45;FUNCTION</text>
</g>
<!-- 1&#45;&gt;2 -->
<g id="edge3" class="edge">
<title>1&#45;&gt;2</title>
<path fill="none" stroke="#000000" d="M423.0202,-36.0757C458.9174,-46.1325 503.758,-58.6948 541.1261,-69.1637"/>
<polygon fill="none" stroke="#000000" points="540.3798,-72.5893 550.9532,-71.9169 542.2682,-65.8489 540.3798,-72.5893"/>
</g>
<!-- 5 -->
<g id="node3" class="node">
<title>5</title>
<polygon fill="#d3d3d3" stroke="#000000" points="221,-180 0,-180 0,-144 221,-144 221,-180"/>
<text text-anchor="middle" x="110.5" y="-159.5" font-family="Fira Mono" font-size="10.00" fill="#000000">CL&#45;DATA&#45;STRUCTURES:SHRINK&#45;FUNCTION</text>
</g>
<!-- 4&#45;&gt;5 -->
<g id="edge4" class="edge">
<title>4&#45;&gt;5</title>
<path fill="none" stroke="#000000" d="M110.5,-108.1686C110.5,-115.869 110.5,-125.0257 110.5,-133.5834"/>
<polygon fill="none" stroke="#000000" points="107.0001,-133.5867 110.5,-143.5867 114.0001,-133.5868 107.0001,-133.5867"/>
</g>
</g>
</svg>
