<?xml version="1.0" encoding="UTF-8" standalone="no"?>
<!DOCTYPE svg PUBLIC "-//W3C//DTD SVG 1.1//EN"
 "http://www.w3.org/Graphics/SVG/1.1/DTD/svg11.dtd">
<!-- Generated by graphviz version 2.40.1 (20161225.0304)
 -->
<!-- Title: %3 Pages: 1 -->
<svg width="648pt" height="332pt"
 viewBox="0.00 0.00 648.00 332.00" xmlns="http://www.w3.org/2000/svg" xmlns:xlink="http://www.w3.org/1999/xlink">
<g id="graph0" class="graph" transform="scale(1 1) rotate(0) translate(4 328)">
<title>%3</title>
<polygon fill="transparent" stroke="transparent" points="-4,4 -4,-328 644,-328 644,4 -4,4"/>
<!-- 1 -->
<g id="node1" class="node">
<title>1</title>
<polygon fill="#d3d3d3" stroke="#000000" points="463,-36 140,-36 140,0 463,0 463,-36"/>
<text text-anchor="middle" x="301.5" y="-15.5" font-family="Fira Mono" font-size="10.00" fill="#000000">CL&#45;DATA&#45;STRUCTURES.DICTS:MUTABLE&#45;HASHING&#45;DICTIONARY</text>
</g>
<!-- 6 -->
<g id="node2" class="node">
<title>6</title>
<polygon fill="#d3d3d3" stroke="#000000" points="275,-108 0,-108 0,-72 275,-72 275,-108"/>
<text text-anchor="middle" x="137.5" y="-87.5" font-family="Fira Mono" font-size="10.00" fill="#000000">CL&#45;DATA&#45;STRUCTURES.DICTS:MUTABLE&#45;DICTIONARY</text>
</g>
<!-- 1&#45;&gt;6 -->
<g id="edge1" class="edge">
<title>1&#45;&gt;6</title>
<path fill="none" stroke="#000000" d="M260.1159,-36.1686C238.1818,-45.7982 211.0608,-57.705 187.9069,-67.8701"/>
<polygon fill="none" stroke="#000000" points="186.336,-64.7373 178.5865,-71.962 189.15,-71.1468 186.336,-64.7373"/>
</g>
<!-- 2 -->
<g id="node4" class="node">
<title>2</title>
<polygon fill="#d3d3d3" stroke="#000000" points="640,-108 293,-108 293,-72 640,-72 640,-108"/>
<text text-anchor="middle" x="466.5" y="-87.5" font-family="Fira Mono" font-size="10.00" fill="#000000">CL&#45;DATA&#45;STRUCTURES.DICTS:FUNDAMENTAL&#45;HASHING&#45;DICTIONARY</text>
</g>
<!-- 1&#45;&gt;2 -->
<g id="edge2" class="edge">
<title>1&#45;&gt;2</title>
<path fill="none" stroke="#000000" d="M343.1365,-36.1686C365.2042,-45.7982 392.4907,-57.705 415.7857,-67.8701"/>
<polygon fill="none" stroke="#000000" points="414.5977,-71.1704 425.1629,-71.962 417.3974,-64.7546 414.5977,-71.1704"/>
</g>
<!-- 7 -->
<g id="node3" class="node">
<title>7</title>
<polygon fill="#d3d3d3" stroke="#000000" points="224,-180 51,-180 51,-144 224,-144 224,-180"/>
<text text-anchor="middle" x="137.5" y="-159.5" font-family="Fira Mono" font-size="10.00" fill="#000000">CL&#45;DATA&#45;STRUCTURES:MUTABLE</text>
</g>
<!-- 6&#45;&gt;7 -->
<g id="edge3" class="edge">
<title>6&#45;&gt;7</title>
<path fill="none" stroke="#000000" d="M137.5,-108.1686C137.5,-115.869 137.5,-125.0257 137.5,-133.5834"/>
<polygon fill="none" stroke="#000000" points="134.0001,-133.5867 137.5,-143.5867 141.0001,-133.5868 134.0001,-133.5867"/>
</g>
<!-- 3 -->
<g id="node5" class="node">
<title>3</title>
<polygon fill="#d3d3d3" stroke="#000000" points="541,-180 242,-180 242,-144 541,-144 541,-180"/>
<text text-anchor="middle" x="391.5" y="-159.5" font-family="Fira Mono" font-size="10.00" fill="#000000">CL&#45;DATA&#45;STRUCTURES.DICTS:FUNDAMENTAL&#45;DICTIONARY</text>
</g>
<!-- 6&#45;&gt;3 -->
<g id="edge4" class="edge">
<title>6&#45;&gt;3</title>
<path fill="none" stroke="#000000" d="M201.2671,-108.0757C236.7452,-118.1325 281.0623,-130.6948 317.9943,-141.1637"/>
<polygon fill="none" stroke="#000000" points="317.1312,-144.5569 327.7067,-143.9169 319.0403,-137.8223 317.1312,-144.5569"/>
</g>
<!-- 4 -->
<g id="node6" class="node">
<title>4</title>
<polygon fill="#d3d3d3" stroke="#000000" points="393,-252 136,-252 136,-216 393,-216 393,-252"/>
<text text-anchor="middle" x="264.5" y="-231.5" font-family="Fira Mono" font-size="10.00" fill="#000000">CL&#45;DATA&#45;STRUCTURES:FUNDAMENTAL&#45;CONTAINER</text>
</g>
<!-- 7&#45;&gt;4 -->
<g id="edge5" class="edge">
<title>7&#45;&gt;4</title>
<path fill="none" stroke="#000000" d="M169.5475,-180.1686C185.942,-189.4632 206.0786,-200.8792 223.5829,-210.8029"/>
<polygon fill="none" stroke="#000000" points="222.0374,-213.95 232.4628,-215.8372 225.4897,-207.8605 222.0374,-213.95"/>
</g>
<!-- 2&#45;&gt;3 -->
<g id="edge6" class="edge">
<title>2&#45;&gt;3</title>
<path fill="none" stroke="#000000" d="M447.5743,-108.1686C438.5143,-116.8663 427.5191,-127.4217 417.6735,-136.8735"/>
<polygon fill="none" stroke="#000000" points="415.2096,-134.387 410.4196,-143.8372 420.0574,-139.4367 415.2096,-134.387"/>
</g>
<!-- 3&#45;&gt;4 -->
<g id="edge7" class="edge">
<title>3&#45;&gt;4</title>
<path fill="none" stroke="#000000" d="M359.4525,-180.1686C343.058,-189.4632 322.9214,-200.8792 305.4171,-210.8029"/>
<polygon fill="none" stroke="#000000" points="303.5103,-207.8605 296.5372,-215.8372 306.9626,-213.95 303.5103,-207.8605"/>
</g>
<!-- 5 -->
<g id="node7" class="node">
<title>5</title>
<polygon fill="#d3d3d3" stroke="#000000" points="363,-324 166,-324 166,-288 363,-288 363,-324"/>
<text text-anchor="middle" x="264.5" y="-303.5" font-family="Fira Mono" font-size="10.00" fill="#000000">CL&#45;DATA&#45;STRUCTURES:TRAVERSABLE</text>
</g>
<!-- 4&#45;&gt;5 -->
<g id="edge8" class="edge">
<title>4&#45;&gt;5</title>
<path fill="none" stroke="#000000" d="M264.5,-252.1686C264.5,-259.869 264.5,-269.0257 264.5,-277.5834"/>
<polygon fill="none" stroke="#000000" points="261.0001,-277.5867 264.5,-287.5867 268.0001,-277.5868 261.0001,-277.5867"/>
</g>
</g>
</svg>
