<?xml version="1.0" encoding="UTF-8" standalone="no"?>
<!DOCTYPE svg PUBLIC "-//W3C//DTD SVG 1.1//EN"
 "http://www.w3.org/Graphics/SVG/1.1/DTD/svg11.dtd">
<!-- Generated by graphviz version 3.0.0 (0)
 -->
<!-- Pages: 1 -->
<svg width="565pt" height="404pt"
 viewBox="0.00 0.00 565.00 404.00" xmlns="http://www.w3.org/2000/svg" xmlns:xlink="http://www.w3.org/1999/xlink">
<g id="graph0" class="graph" transform="scale(1 1) rotate(0) translate(4 400)">
<polygon fill="transparent" stroke="transparent" points="-4,4 -4,-400 561,-400 561,4 -4,4"/>
<!-- 1 -->
<g id="node1" class="node">
<title>1</title>
<polygon fill="lightgrey" stroke="black" points="381,-36 82,-36 82,0 381,0 381,-36"/>
<text text-anchor="middle" x="231.5" y="-15.5" font-family="Fira Mono" font-size="10.00">CL&#45;DATA&#45;STRUCTURES:ARGUMENT&#45;VALUE&#45;OUT&#45;OF&#45;BOUNDS</text>
</g>
<!-- 10 -->
<g id="node2" class="node">
<title>10</title>
<polygon fill="lightgrey" stroke="black" points="209,-108 0,-108 0,-72 209,-72 209,-108"/>
<text text-anchor="middle" x="104.5" y="-87.5" font-family="Fira Mono" font-size="10.00">CL&#45;DATA&#45;STRUCTURES:OUT&#45;OF&#45;BOUNDS</text>
</g>
<!-- 1&#45;&gt;10 -->
<g id="edge1" class="edge">
<title>1&#45;&gt;10</title>
<path fill="none" stroke="black" d="M200.43,-36.12C183.67,-45.36 162.79,-56.87 144.8,-66.79"/>
<polygon fill="none" stroke="black" points="142.76,-63.92 135.69,-71.81 146.13,-70.05 142.76,-63.92"/>
</g>
<!-- 2 -->
<g id="node3" class="node">
<title>2</title>
<polygon fill="lightgrey" stroke="black" points="490,-108 227,-108 227,-72 490,-72 490,-108"/>
<text text-anchor="middle" x="358.5" y="-87.5" font-family="Fira Mono" font-size="10.00">CL&#45;DATA&#45;STRUCTURES:INVALID&#45;ARGUMENT&#45;VALUE</text>
</g>
<!-- 1&#45;&gt;2 -->
<g id="edge2" class="edge">
<title>1&#45;&gt;2</title>
<path fill="none" stroke="black" d="M262.57,-36.12C279.33,-45.36 300.21,-56.87 318.2,-66.79"/>
<polygon fill="none" stroke="black" points="316.87,-70.05 327.31,-71.81 320.24,-63.92 316.87,-70.05"/>
</g>
<!-- 3 -->
<g id="node5" class="node">
<title>3</title>
<polygon fill="lightgrey" stroke="black" points="230,-180 21,-180 21,-144 230,-144 230,-180"/>
<text text-anchor="middle" x="125.5" y="-159.5" font-family="Fira Mono" font-size="10.00">CL&#45;DATA&#45;STRUCTURES:INVALID&#45;VALUE</text>
</g>
<!-- 10&#45;&gt;3 -->
<g id="edge3" class="edge">
<title>10&#45;&gt;3</title>
<path fill="none" stroke="black" d="M109.69,-108.3C112.03,-116.1 114.85,-125.49 117.45,-134.17"/>
<polygon fill="none" stroke="black" points="114.14,-135.32 120.37,-143.9 120.85,-133.31 114.14,-135.32"/>
</g>
<!-- 9 -->
<g id="node4" class="node">
<title>9</title>
<polygon fill="lightgrey" stroke="black" points="466,-180 251,-180 251,-144 466,-144 466,-180"/>
<text text-anchor="middle" x="358.5" y="-159.5" font-family="Fira Mono" font-size="10.00">CL&#45;DATA&#45;STRUCTURES:ARGUMENT&#45;ERROR</text>
</g>
<!-- 2&#45;&gt;9 -->
<g id="edge4" class="edge">
<title>2&#45;&gt;9</title>
<path fill="none" stroke="black" d="M358.5,-108.3C358.5,-116.02 358.5,-125.29 358.5,-133.89"/>
<polygon fill="none" stroke="black" points="355,-133.9 358.5,-143.9 362,-133.9 355,-133.9"/>
</g>
<!-- 2&#45;&gt;3 -->
<g id="edge5" class="edge">
<title>2&#45;&gt;3</title>
<path fill="none" stroke="black" d="M301.8,-108.03C268.82,-117.94 227.07,-130.49 192.47,-140.88"/>
<polygon fill="none" stroke="black" points="191.02,-137.66 182.45,-143.89 193.04,-144.36 191.02,-137.66"/>
</g>
<!-- 5 -->
<g id="node6" class="node">
<title>5</title>
<polygon fill="lightgrey" stroke="black" points="463,-252 254,-252 254,-216 463,-216 463,-252"/>
<text text-anchor="middle" x="358.5" y="-231.5" font-family="Fira Mono" font-size="10.00">CL&#45;DATA&#45;STRUCTURES:TEXTUAL&#45;ERROR</text>
</g>
<!-- 9&#45;&gt;5 -->
<g id="edge6" class="edge">
<title>9&#45;&gt;5</title>
<path fill="none" stroke="black" d="M358.5,-180.3C358.5,-188.02 358.5,-197.29 358.5,-205.89"/>
<polygon fill="none" stroke="black" points="355,-205.9 358.5,-215.9 362,-205.9 355,-205.9"/>
</g>
<!-- 3&#45;&gt;5 -->
<g id="edge7" class="edge">
<title>3&#45;&gt;5</title>
<path fill="none" stroke="black" d="M182.2,-180.03C215.18,-189.94 256.93,-202.49 291.53,-212.88"/>
<polygon fill="none" stroke="black" points="290.96,-216.36 301.55,-215.89 292.98,-209.66 290.96,-216.36"/>
</g>
<!-- 4 -->
<g id="node10" class="node">
<title>4</title>
<polygon fill="lightgrey" stroke="black" points="236,-252 9,-252 9,-216 236,-216 236,-252"/>
<text text-anchor="middle" x="122.5" y="-231.5" font-family="Fira Mono" font-size="10.00">MORE&#45;CONDITIONS:REFERENCE&#45;CONDITION</text>
</g>
<!-- 3&#45;&gt;4 -->
<g id="edge8" class="edge">
<title>3&#45;&gt;4</title>
<path fill="none" stroke="black" d="M124.76,-180.3C124.43,-188.02 124.03,-197.29 123.66,-205.89"/>
<polygon fill="none" stroke="black" points="120.16,-205.75 123.23,-215.9 127.16,-206.05 120.16,-205.75"/>
</g>
<!-- 8 -->
<g id="node7" class="node">
<title>8</title>
<polygon fill="lightgrey" stroke="black" points="366,-324 139,-324 139,-288 366,-288 366,-324"/>
<text text-anchor="middle" x="252.5" y="-303.5" font-family="Fira Mono" font-size="10.00">MORE&#45;CONDITIONS:CHAINABLE&#45;CONDITION</text>
</g>
<!-- 5&#45;&gt;8 -->
<g id="edge9" class="edge">
<title>5&#45;&gt;8</title>
<path fill="none" stroke="black" d="M332.57,-252.12C318.84,-261.19 301.79,-272.45 286.96,-282.24"/>
<polygon fill="none" stroke="black" points="284.95,-279.38 278.53,-287.81 288.8,-285.22 284.95,-279.38"/>
</g>
<!-- 6 -->
<g id="node8" class="node">
<title>6</title>
<polygon fill="lightgrey" stroke="black" points="545,-324 384,-324 384,-288 545,-288 545,-324"/>
<text text-anchor="middle" x="464.5" y="-303.5" font-family="Fira Mono" font-size="10.00">COMMON&#45;LISP:SIMPLE&#45;ERROR</text>
</g>
<!-- 5&#45;&gt;6 -->
<g id="edge10" class="edge">
<title>5&#45;&gt;6</title>
<path fill="none" stroke="black" d="M384.43,-252.12C398.16,-261.19 415.21,-272.45 430.04,-282.24"/>
<polygon fill="none" stroke="black" points="428.2,-285.22 438.47,-287.81 432.05,-279.38 428.2,-285.22"/>
</g>
<!-- 7 -->
<g id="node9" class="node">
<title>7</title>
<polygon fill="lightgrey" stroke="black" points="557,-396 372,-396 372,-360 557,-360 557,-396"/>
<text text-anchor="middle" x="464.5" y="-375.5" font-family="Fira Mono" font-size="10.00">COMMON&#45;LISP:SIMPLE&#45;CONDITION</text>
</g>
<!-- 6&#45;&gt;7 -->
<g id="edge11" class="edge">
<title>6&#45;&gt;7</title>
<path fill="none" stroke="black" d="M464.5,-324.3C464.5,-332.02 464.5,-341.29 464.5,-349.89"/>
<polygon fill="none" stroke="black" points="461,-349.9 464.5,-359.9 468,-349.9 461,-349.9"/>
</g>
</g>
</svg>
