<?xml version="1.0" encoding="UTF-8" standalone="no"?>
<!DOCTYPE svg PUBLIC "-//W3C//DTD SVG 1.1//EN"
 "http://www.w3.org/Graphics/SVG/1.1/DTD/svg11.dtd">
<!-- Generated by graphviz version 2.40.1 (20161225.0304)
 -->
<!-- Title: %3 Pages: 1 -->
<svg width="781pt" height="332pt"
 viewBox="0.00 0.00 781.00 332.00" xmlns="http://www.w3.org/2000/svg" xmlns:xlink="http://www.w3.org/1999/xlink">
<g id="graph0" class="graph" transform="scale(1 1) rotate(0) translate(4 328)">
<title>%3</title>
<polygon fill="transparent" stroke="transparent" points="-4,4 -4,-328 777,-328 777,4 -4,4"/>
<!-- 1 -->
<g id="node1" class="node">
<title>1</title>
<polygon fill="#d3d3d3" stroke="#000000" points="358,-36 5,-36 5,0 358,0 358,-36"/>
<text text-anchor="middle" x="181.5" y="-15.5" font-family="Fira Mono" font-size="10.00" fill="#000000">CL&#45;DATA&#45;STRUCTURES.DICTS.HAMT:FUNCTIONAL&#45;HAMT&#45;DICTIONARY</text>
</g>
<!-- 7 -->
<g id="node2" class="node">
<title>7</title>
<polygon fill="#d3d3d3" stroke="#000000" points="191,-252 0,-252 0,-216 191,-216 191,-252"/>
<text text-anchor="middle" x="95.5" y="-231.5" font-family="Fira Mono" font-size="10.00" fill="#000000">CL&#45;DATA&#45;STRUCTURES:FUNCTIONAL</text>
</g>
<!-- 1&#45;&gt;7 -->
<g id="edge1" class="edge">
<title>1&#45;&gt;7</title>
<path fill="none" stroke="#000000" d="M149.4299,-36.1328C136.4246,-45.1861 122.5892,-57.3529 114.5,-72 91.276,-114.0516 90.4879,-171.5084 92.5991,-205.488"/>
<polygon fill="none" stroke="#000000" points="89.1228,-205.9362 93.3617,-215.6461 96.1032,-205.4122 89.1228,-205.9362"/>
</g>
<!-- 2 -->
<g id="node3" class="node">
<title>2</title>
<polygon fill="#d3d3d3" stroke="#000000" points="411,-108 124,-108 124,-72 411,-72 411,-108"/>
<text text-anchor="middle" x="267.5" y="-87.5" font-family="Fira Mono" font-size="10.00" fill="#000000">CL&#45;DATA&#45;STRUCTURES.DICTS.HAMT:HAMT&#45;DICTIONARY</text>
</g>
<!-- 1&#45;&gt;2 -->
<g id="edge2" class="edge">
<title>1&#45;&gt;2</title>
<path fill="none" stroke="#000000" d="M203.2014,-36.1686C213.6921,-44.9515 226.4455,-55.6288 237.8194,-65.1511"/>
<polygon fill="none" stroke="#000000" points="235.8911,-68.1014 245.8055,-71.8372 240.3847,-62.7341 235.8911,-68.1014"/>
</g>
<!-- 4 -->
<g id="node7" class="node">
<title>4</title>
<polygon fill="#d3d3d3" stroke="#000000" points="451,-324 194,-324 194,-288 451,-288 451,-324"/>
<text text-anchor="middle" x="322.5" y="-303.5" font-family="Fira Mono" font-size="10.00" fill="#000000">CL&#45;DATA&#45;STRUCTURES:FUNDAMENTAL&#45;CONTAINER</text>
</g>
<!-- 7&#45;&gt;4 -->
<g id="edge3" class="edge">
<title>7&#45;&gt;4</title>
<path fill="none" stroke="#000000" d="M152.4887,-252.0757C183.7907,-262.0041 222.7918,-274.3745 255.5406,-284.7618"/>
<polygon fill="none" stroke="#000000" points="254.8977,-288.2296 265.4879,-287.9169 257.0141,-281.5572 254.8977,-288.2296"/>
</g>
<!-- 5 -->
<g id="node4" class="node">
<title>5</title>
<polygon fill="#d3d3d3" stroke="#000000" points="402,-180 127,-180 127,-144 402,-144 402,-180"/>
<text text-anchor="middle" x="264.5" y="-159.5" font-family="Fira Mono" font-size="10.00" fill="#000000">CL&#45;DATA&#45;STRUCTURES.DICTS:HASHING&#45;DICTIONARY</text>
</g>
<!-- 2&#45;&gt;5 -->
<g id="edge4" class="edge">
<title>2&#45;&gt;5</title>
<path fill="none" stroke="#000000" d="M266.743,-108.1686C266.4221,-115.869 266.0406,-125.0257 265.684,-133.5834"/>
<polygon fill="none" stroke="#000000" points="262.1867,-133.4497 265.2672,-143.5867 269.1806,-133.7411 262.1867,-133.4497"/>
</g>
<!-- 3 -->
<g id="node6" class="node">
<title>3</title>
<polygon fill="#d3d3d3" stroke="#000000" points="773,-180 420,-180 420,-144 773,-144 773,-180"/>
<text text-anchor="middle" x="596.5" y="-159.5" font-family="Fira Mono" font-size="10.00" fill="#000000">CL&#45;DATA&#45;STRUCTURES.DICTS.HAMT:FUNDAMENTAL&#45;HAMT&#45;CONTAINER</text>
</g>
<!-- 2&#45;&gt;3 -->
<g id="edge5" class="edge">
<title>2&#45;&gt;3</title>
<path fill="none" stroke="#000000" d="M350.0959,-108.0757C397.0189,-118.3446 455.8787,-131.2257 504.303,-141.8232"/>
<polygon fill="none" stroke="#000000" points="503.6384,-145.2605 514.1555,-143.9793 505.135,-138.4223 503.6384,-145.2605"/>
</g>
<!-- 6 -->
<g id="node5" class="node">
<title>6</title>
<polygon fill="#d3d3d3" stroke="#000000" points="436,-252 209,-252 209,-216 436,-216 436,-252"/>
<text text-anchor="middle" x="322.5" y="-231.5" font-family="Fira Mono" font-size="10.00" fill="#000000">CL&#45;DATA&#45;STRUCTURES.DICTS:DICTIONARY</text>
</g>
<!-- 5&#45;&gt;6 -->
<g id="edge6" class="edge">
<title>5&#45;&gt;6</title>
<path fill="none" stroke="#000000" d="M279.1358,-180.1686C285.8161,-188.4614 293.8568,-198.443 301.1904,-207.5467"/>
<polygon fill="none" stroke="#000000" points="298.6681,-209.9948 307.6671,-215.5867 304.1194,-205.6035 298.6681,-209.9948"/>
</g>
<!-- 6&#45;&gt;4 -->
<g id="edge7" class="edge">
<title>6&#45;&gt;4</title>
<path fill="none" stroke="#000000" d="M322.5,-252.1686C322.5,-259.869 322.5,-269.0257 322.5,-277.5834"/>
<polygon fill="none" stroke="#000000" points="319.0001,-277.5867 322.5,-287.5867 326.0001,-277.5868 319.0001,-277.5867"/>
</g>
<!-- 3&#45;&gt;4 -->
<g id="edge8" class="edge">
<title>3&#45;&gt;4</title>
<path fill="none" stroke="#000000" d="M568.2122,-180.1148C538.1071,-199.067 488.8033,-229.1797 444.5,-252 422.4374,-263.3643 397.4719,-274.6751 375.8981,-283.9865"/>
<polygon fill="none" stroke="#000000" points="374.3793,-280.8294 366.5638,-287.9826 377.1342,-287.2645 374.3793,-280.8294"/>
</g>
</g>
</svg>
