<?xml version="1.0" encoding="UTF-8" standalone="no"?>
<!DOCTYPE svg PUBLIC "-//W3C//DTD SVG 1.1//EN"
 "http://www.w3.org/Graphics/SVG/1.1/DTD/svg11.dtd">
<!-- Generated by graphviz version 2.50.0 (0)
 -->
<!-- Pages: 1 -->
<svg width="1384pt" height="476pt"
 viewBox="0.00 0.00 1384.00 476.00" xmlns="http://www.w3.org/2000/svg" xmlns:xlink="http://www.w3.org/1999/xlink">
<g id="graph0" class="graph" transform="scale(1 1) rotate(0) translate(4 472)">
<polygon fill="transparent" stroke="transparent" points="-4,4 -4,-472 1380,-472 1380,4 -4,4"/>
<!-- 1 -->
<g id="node1" class="node">
<title>1</title>
<polygon fill="lightgrey" stroke="black" points="962,-36 579,-36 579,0 962,0 962,-36"/>
<text text-anchor="middle" x="770.5" y="-15.5" font-family="Fira Mono" font-size="10.00">CL&#45;DATA&#45;STRUCTURES.DICTS.SRRB:TRANSACTIONAL&#45;SPARSE&#45;RRB&#45;VECTOR</text>
</g>
<!-- 11 -->
<g id="node2" class="node">
<title>11</title>
<polygon fill="lightgrey" stroke="black" points="1149,-108 802,-108 802,-72 1149,-72 1149,-108"/>
<text text-anchor="middle" x="975.5" y="-87.5" font-family="Fira Mono" font-size="10.00">CL&#45;DATA&#45;STRUCTURES.DICTS.SRRB:MUTABLE&#45;SPARSE&#45;RRB&#45;VECTOR</text>
</g>
<!-- 1&#45;&gt;11 -->
<g id="edge1" class="edge">
<title>1&#45;&gt;11</title>
<path fill="none" stroke="black" d="M820.39,-36.03C849.15,-45.86 885.51,-58.27 915.79,-68.61"/>
<polygon fill="none" stroke="black" points="914.8,-71.97 925.39,-71.89 917.06,-65.35 914.8,-71.97"/>
</g>
<!-- 10 -->
<g id="node4" class="node">
<title>10</title>
<polygon fill="lightgrey" stroke="black" points="784,-108 347,-108 347,-72 784,-72 784,-108"/>
<text text-anchor="middle" x="565.5" y="-87.5" font-family="Fira Mono" font-size="10.00">CL&#45;DATA&#45;STRUCTURES.COMMON.ABSTRACT:FUNDAMENTAL&#45;OWNERSHIP&#45;TAGGED&#45;OBJECT</text>
</g>
<!-- 1&#45;&gt;10 -->
<g id="edge2" class="edge">
<title>1&#45;&gt;10</title>
<path fill="none" stroke="black" d="M720.61,-36.03C691.85,-45.86 655.49,-58.27 625.21,-68.61"/>
<polygon fill="none" stroke="black" points="623.94,-65.35 615.61,-71.89 626.2,-71.97 623.94,-65.35"/>
</g>
<!-- 6 -->
<g id="node5" class="node">
<title>6</title>
<polygon fill="lightgrey" stroke="black" points="329,-108 0,-108 0,-72 329,-72 329,-108"/>
<text text-anchor="middle" x="164.5" y="-87.5" font-family="Fira Mono" font-size="10.00">CL&#45;DATA&#45;STRUCTURES.DICTS:TRANSACTIONAL&#45;SPARSE&#45;VECTOR</text>
</g>
<!-- 1&#45;&gt;6 -->
<g id="edge3" class="edge">
<title>1&#45;&gt;6</title>
<path fill="none" stroke="black" d="M623.03,-36.03C531.85,-46.57 414.88,-60.08 321.91,-70.82"/>
<polygon fill="none" stroke="black" points="321.37,-67.36 311.84,-71.98 322.18,-74.31 321.37,-67.36"/>
</g>
<!-- 2 -->
<g id="node9" class="node">
<title>2</title>
<polygon fill="lightgrey" stroke="black" points="1376,-108 1167,-108 1167,-72 1376,-72 1376,-108"/>
<text text-anchor="middle" x="1271.5" y="-87.5" font-family="Fira Mono" font-size="10.00">CL&#45;DATA&#45;STRUCTURES:TRANSACTIONAL</text>
</g>
<!-- 1&#45;&gt;2 -->
<g id="edge4" class="edge">
<title>1&#45;&gt;2</title>
<path fill="none" stroke="black" d="M898.57,-36.05C971.56,-45.87 1065.02,-58.63 1156.82,-71.77"/>
<polygon fill="none" stroke="black" points="1156.45,-75.25 1166.85,-73.2 1157.45,-68.32 1156.45,-75.25"/>
</g>
<!-- 12 -->
<g id="node3" class="node">
<title>12</title>
<polygon fill="lightgrey" stroke="black" points="1161,-180 790,-180 790,-144 1161,-144 1161,-180"/>
<text text-anchor="middle" x="975.5" y="-159.5" font-family="Fira Mono" font-size="10.00">CL&#45;DATA&#45;STRUCTURES.DICTS.SRRB:FUNDAMENTAL&#45;SPARSE&#45;RRB&#45;VECTOR</text>
</g>
<!-- 11&#45;&gt;12 -->
<g id="edge5" class="edge">
<title>11&#45;&gt;12</title>
<path fill="none" stroke="black" d="M975.5,-108.3C975.5,-116.02 975.5,-125.29 975.5,-133.89"/>
<polygon fill="none" stroke="black" points="972,-133.9 975.5,-143.9 979,-133.9 972,-133.9"/>
</g>
<!-- 7 -->
<g id="node6" class="node">
<title>7</title>
<polygon fill="lightgrey" stroke="black" points="772,-180 479,-180 479,-144 772,-144 772,-180"/>
<text text-anchor="middle" x="625.5" y="-159.5" font-family="Fira Mono" font-size="10.00">CL&#45;DATA&#45;STRUCTURES.DICTS:MUTABLE&#45;SPARSE&#45;VECTOR</text>
</g>
<!-- 11&#45;&gt;7 -->
<g id="edge6" class="edge">
<title>11&#45;&gt;7</title>
<path fill="none" stroke="black" d="M890.33,-108.03C839.1,-118.28 773.78,-131.34 720.83,-141.93"/>
<polygon fill="none" stroke="black" points="719.87,-138.56 710.75,-143.95 721.24,-145.42 719.87,-138.56"/>
</g>
<!-- 3 -->
<g id="node10" class="node">
<title>3</title>
<polygon fill="lightgrey" stroke="black" points="1352,-180 1179,-180 1179,-144 1352,-144 1352,-180"/>
<text text-anchor="middle" x="1265.5" y="-159.5" font-family="Fira Mono" font-size="10.00">CL&#45;DATA&#45;STRUCTURES:MUTABLE</text>
</g>
<!-- 11&#45;&gt;3 -->
<g id="edge7" class="edge">
<title>11&#45;&gt;3</title>
<path fill="none" stroke="black" d="M1046.07,-108.03C1087.99,-118.15 1141.29,-131.02 1184.87,-141.54"/>
<polygon fill="none" stroke="black" points="1184.32,-145.01 1194.86,-143.95 1185.96,-138.2 1184.32,-145.01"/>
</g>
<!-- 8 -->
<g id="node7" class="node">
<title>8</title>
<polygon fill="lightgrey" stroke="black" points="1134,-252 817,-252 817,-216 1134,-216 1134,-252"/>
<text text-anchor="middle" x="975.5" y="-231.5" font-family="Fira Mono" font-size="10.00">CL&#45;DATA&#45;STRUCTURES.DICTS:FUNDAMENTAL&#45;SPARSE&#45;VECTOR</text>
</g>
<!-- 12&#45;&gt;8 -->
<g id="edge8" class="edge">
<title>12&#45;&gt;8</title>
<path fill="none" stroke="black" d="M975.5,-180.3C975.5,-188.02 975.5,-197.29 975.5,-205.89"/>
<polygon fill="none" stroke="black" points="972,-205.9 975.5,-215.9 979,-205.9 972,-205.9"/>
</g>
<!-- 6&#45;&gt;7 -->
<g id="edge9" class="edge">
<title>6&#45;&gt;7</title>
<path fill="none" stroke="black" d="M276.68,-108.03C345.14,-118.43 432.71,-131.73 502.98,-142.4"/>
<polygon fill="none" stroke="black" points="502.8,-145.91 513.21,-143.95 503.85,-138.99 502.8,-145.91"/>
</g>
<!-- 7&#45;&gt;8 -->
<g id="edge10" class="edge">
<title>7&#45;&gt;8</title>
<path fill="none" stroke="black" d="M710.67,-180.03C761.9,-190.28 827.22,-203.34 880.17,-213.93"/>
<polygon fill="none" stroke="black" points="879.76,-217.42 890.25,-215.95 881.13,-210.56 879.76,-217.42"/>
</g>
<!-- 9 -->
<g id="node8" class="node">
<title>9</title>
<polygon fill="lightgrey" stroke="black" points="1181,-324 882,-324 882,-288 1181,-288 1181,-324"/>
<text text-anchor="middle" x="1031.5" y="-303.5" font-family="Fira Mono" font-size="10.00">CL&#45;DATA&#45;STRUCTURES.DICTS:FUNDAMENTAL&#45;DICTIONARY</text>
</g>
<!-- 8&#45;&gt;9 -->
<g id="edge11" class="edge">
<title>8&#45;&gt;9</title>
<path fill="none" stroke="black" d="M989.34,-252.3C995.99,-260.61 1004.08,-270.72 1011.39,-279.86"/>
<polygon fill="none" stroke="black" points="1008.84,-282.27 1017.82,-287.9 1014.3,-277.9 1008.84,-282.27"/>
</g>
<!-- 4 -->
<g id="node11" class="node">
<title>4</title>
<polygon fill="lightgrey" stroke="black" points="1249,-396 992,-396 992,-360 1249,-360 1249,-396"/>
<text text-anchor="middle" x="1120.5" y="-375.5" font-family="Fira Mono" font-size="10.00">CL&#45;DATA&#45;STRUCTURES:FUNDAMENTAL&#45;CONTAINER</text>
</g>
<!-- 9&#45;&gt;4 -->
<g id="edge12" class="edge">
<title>9&#45;&gt;4</title>
<path fill="none" stroke="black" d="M1053.5,-324.3C1064.71,-333.12 1078.5,-343.97 1090.65,-353.53"/>
<polygon fill="none" stroke="black" points="1088.73,-356.46 1098.75,-359.9 1093.06,-350.96 1088.73,-356.46"/>
</g>
<!-- 2&#45;&gt;3 -->
<g id="edge13" class="edge">
<title>2&#45;&gt;3</title>
<path fill="none" stroke="black" d="M1270.02,-108.3C1269.36,-116.02 1268.56,-125.29 1267.82,-133.89"/>
<polygon fill="none" stroke="black" points="1264.33,-133.63 1266.97,-143.9 1271.31,-134.23 1264.33,-133.63"/>
</g>
<!-- 3&#45;&gt;4 -->
<g id="edge14" class="edge">
<title>3&#45;&gt;4</title>
<path fill="none" stroke="black" d="M1260.61,-180.01C1251.04,-211.11 1227.5,-278.18 1190.5,-324 1181.33,-335.36 1169.23,-345.63 1157.67,-354.05"/>
<polygon fill="none" stroke="black" points="1155.58,-351.23 1149.39,-359.83 1159.59,-356.97 1155.58,-351.23"/>
</g>
<!-- 5 -->
<g id="node12" class="node">
<title>5</title>
<polygon fill="lightgrey" stroke="black" points="1219,-468 1022,-468 1022,-432 1219,-432 1219,-468"/>
<text text-anchor="middle" x="1120.5" y="-447.5" font-family="Fira Mono" font-size="10.00">CL&#45;DATA&#45;STRUCTURES:TRAVERSABLE</text>
</g>
<!-- 4&#45;&gt;5 -->
<g id="edge15" class="edge">
<title>4&#45;&gt;5</title>
<path fill="none" stroke="black" d="M1120.5,-396.3C1120.5,-404.02 1120.5,-413.29 1120.5,-421.89"/>
<polygon fill="none" stroke="black" points="1117,-421.9 1120.5,-431.9 1124,-421.9 1117,-421.9"/>
</g>
</g>
</svg>
