<?xml version="1.0" encoding="UTF-8" standalone="no"?>
<!DOCTYPE svg PUBLIC "-//W3C//DTD SVG 1.1//EN"
 "http://www.w3.org/Graphics/SVG/1.1/DTD/svg11.dtd">
<!-- Generated by graphviz version 2.40.1 (20161225.0304)
 -->
<!-- Title: %3 Pages: 1 -->
<svg width="635pt" height="332pt"
 viewBox="0.00 0.00 635.00 332.00" xmlns="http://www.w3.org/2000/svg" xmlns:xlink="http://www.w3.org/1999/xlink">
<g id="graph0" class="graph" transform="scale(1 1) rotate(0) translate(4 328)">
<title>%3</title>
<polygon fill="transparent" stroke="transparent" points="-4,4 -4,-328 631,-328 631,4 -4,4"/>
<!-- 1 -->
<g id="node1" class="node">
<title>1</title>
<polygon fill="#d3d3d3" stroke="#000000" points="365,-36 102,-36 102,0 365,0 365,-36"/>
<text text-anchor="middle" x="233.5" y="-15.5" font-family="Fira Mono" font-size="10.00" fill="#000000">CL&#45;DATA&#45;STRUCTURES:ARGUMENT&#45;OUT&#45;OF&#45;BOUNDS</text>
</g>
<!-- 7 -->
<g id="node2" class="node">
<title>7</title>
<polygon fill="#d3d3d3" stroke="#000000" points="272,-108 63,-108 63,-72 272,-72 272,-108"/>
<text text-anchor="middle" x="167.5" y="-87.5" font-family="Fira Mono" font-size="10.00" fill="#000000">CL&#45;DATA&#45;STRUCTURES:OUT&#45;OF&#45;BOUNDS</text>
</g>
<!-- 1&#45;&gt;7 -->
<g id="edge1" class="edge">
<title>1&#45;&gt;7</title>
<path fill="none" stroke="#000000" d="M216.8454,-36.1686C209.0886,-44.6306 199.7198,-54.8511 191.239,-64.1029"/>
<polygon fill="none" stroke="#000000" points="188.5561,-61.8501 184.3788,-71.5867 193.7162,-66.5802 188.5561,-61.8501"/>
</g>
<!-- 2 -->
<g id="node5" class="node">
<title>2</title>
<polygon fill="#d3d3d3" stroke="#000000" points="457,-180 242,-180 242,-144 457,-144 457,-180"/>
<text text-anchor="middle" x="349.5" y="-159.5" font-family="Fira Mono" font-size="10.00" fill="#000000">CL&#45;DATA&#45;STRUCTURES:ARGUMENT&#45;ERROR</text>
</g>
<!-- 1&#45;&gt;2 -->
<g id="edge2" class="edge">
<title>1&#45;&gt;2</title>
<path fill="none" stroke="#000000" d="M249.8846,-36.2518C259.05,-46.603 270.5905,-59.8739 280.5,-72 297.6306,-92.9625 316.2648,-117.3705 329.8454,-135.4753"/>
<polygon fill="none" stroke="#000000" points="327.2874,-137.8993 336.0775,-143.8141 332.8945,-133.7087 327.2874,-137.8993"/>
</g>
<!-- 8 -->
<g id="node3" class="node">
<title>8</title>
<polygon fill="#d3d3d3" stroke="#000000" points="224,-180 15,-180 15,-144 224,-144 224,-180"/>
<text text-anchor="middle" x="119.5" y="-159.5" font-family="Fira Mono" font-size="10.00" fill="#000000">CL&#45;DATA&#45;STRUCTURES:INVALID&#45;VALUE</text>
</g>
<!-- 7&#45;&gt;8 -->
<g id="edge3" class="edge">
<title>7&#45;&gt;8</title>
<path fill="none" stroke="#000000" d="M155.3876,-108.1686C149.9719,-116.2921 143.4758,-126.0363 137.5079,-134.9882"/>
<polygon fill="none" stroke="#000000" points="134.4104,-133.3247 131.7755,-143.5867 140.2347,-137.2077 134.4104,-133.3247"/>
</g>
<!-- 9 -->
<g id="node4" class="node">
<title>9</title>
<polygon fill="#d3d3d3" stroke="#000000" points="227,-252 0,-252 0,-216 227,-216 227,-252"/>
<text text-anchor="middle" x="113.5" y="-231.5" font-family="Fira Mono" font-size="10.00" fill="#000000">MORE&#45;CONDITIONS:REFERENCE&#45;CONDITION</text>
</g>
<!-- 8&#45;&gt;9 -->
<g id="edge5" class="edge">
<title>8&#45;&gt;9</title>
<path fill="none" stroke="#000000" d="M117.9859,-180.1686C117.3442,-187.869 116.5812,-197.0257 115.8681,-205.5834"/>
<polygon fill="none" stroke="#000000" points="112.3771,-205.3306 115.0344,-215.5867 119.3529,-205.912 112.3771,-205.3306"/>
</g>
<!-- 3 -->
<g id="node6" class="node">
<title>3</title>
<polygon fill="#d3d3d3" stroke="#000000" points="454,-252 245,-252 245,-216 454,-216 454,-252"/>
<text text-anchor="middle" x="349.5" y="-231.5" font-family="Fira Mono" font-size="10.00" fill="#000000">CL&#45;DATA&#45;STRUCTURES:TEXTUAL&#45;ERROR</text>
</g>
<!-- 8&#45;&gt;3 -->
<g id="edge4" class="edge">
<title>8&#45;&gt;3</title>
<path fill="none" stroke="#000000" d="M177.2418,-180.0757C209.0943,-190.0469 248.8149,-202.4812 282.0844,-212.896"/>
<polygon fill="none" stroke="#000000" points="281.1454,-216.2695 291.7344,-215.9169 283.2367,-209.5891 281.1454,-216.2695"/>
</g>
<!-- 2&#45;&gt;3 -->
<g id="edge6" class="edge">
<title>2&#45;&gt;3</title>
<path fill="none" stroke="#000000" d="M349.5,-180.1686C349.5,-187.869 349.5,-197.0257 349.5,-205.5834"/>
<polygon fill="none" stroke="#000000" points="346.0001,-205.5867 349.5,-215.5867 353.0001,-205.5868 346.0001,-205.5867"/>
</g>
<!-- 6 -->
<g id="node7" class="node">
<title>6</title>
<polygon fill="#d3d3d3" stroke="#000000" points="239,-324 12,-324 12,-288 239,-288 239,-324"/>
<text text-anchor="middle" x="125.5" y="-303.5" font-family="Fira Mono" font-size="10.00" fill="#000000">MORE&#45;CONDITIONS:CHAINABLE&#45;CONDITION</text>
</g>
<!-- 3&#45;&gt;6 -->
<g id="edge7" class="edge">
<title>3&#45;&gt;6</title>
<path fill="none" stroke="#000000" d="M293.2645,-252.0757C262.3761,-262.0041 223.8904,-274.3745 191.5744,-284.7618"/>
<polygon fill="none" stroke="#000000" points="190.2079,-281.5246 181.7587,-287.9169 192.35,-288.1888 190.2079,-281.5246"/>
</g>
<!-- 5 -->
<g id="node8" class="node">
<title>5</title>
<polygon fill="#d3d3d3" stroke="#000000" points="442,-324 257,-324 257,-288 442,-288 442,-324"/>
<text text-anchor="middle" x="349.5" y="-303.5" font-family="Fira Mono" font-size="10.00" fill="#000000">COMMON&#45;LISP:SIMPLE&#45;CONDITION</text>
</g>
<!-- 3&#45;&gt;5 -->
<g id="edge8" class="edge">
<title>3&#45;&gt;5</title>
<path fill="none" stroke="#000000" d="M349.5,-252.1686C349.5,-259.869 349.5,-269.0257 349.5,-277.5834"/>
<polygon fill="none" stroke="#000000" points="346.0001,-277.5867 349.5,-287.5867 353.0001,-277.5868 346.0001,-277.5867"/>
</g>
<!-- 4 -->
<g id="node9" class="node">
<title>4</title>
<polygon fill="#d3d3d3" stroke="#000000" points="627,-324 460,-324 460,-288 627,-288 627,-324"/>
<text text-anchor="middle" x="543.5" y="-303.5" font-family="Fira Mono" font-size="10.00" fill="#000000">COMMON&#45;LISP:PROGRAM&#45;ERROR</text>
</g>
<!-- 3&#45;&gt;4 -->
<g id="edge9" class="edge">
<title>3&#45;&gt;4</title>
<path fill="none" stroke="#000000" d="M398.4544,-252.1686C424.862,-261.9694 457.6256,-274.1291 485.3286,-284.4106"/>
<polygon fill="none" stroke="#000000" points="484.3047,-287.7638 494.8976,-287.962 486.7403,-281.2012 484.3047,-287.7638"/>
</g>
</g>
</svg>
