<?xml version="1.0" encoding="UTF-8" standalone="no"?>
<!DOCTYPE svg PUBLIC "-//W3C//DTD SVG 1.1//EN"
 "http://www.w3.org/Graphics/SVG/1.1/DTD/svg11.dtd">
<!-- Generated by graphviz version 2.40.1 (20161225.0304)
 -->
<!-- Title: %3 Pages: 1 -->
<svg width="1198pt" height="332pt"
 viewBox="0.00 0.00 1198.00 332.00" xmlns="http://www.w3.org/2000/svg" xmlns:xlink="http://www.w3.org/1999/xlink">
<g id="graph0" class="graph" transform="scale(1 1) rotate(0) translate(4 328)">
<title>%3</title>
<polygon fill="transparent" stroke="transparent" points="-4,4 -4,-328 1194,-328 1194,4 -4,4"/>
<!-- 1 -->
<g id="node1" class="node">
<title>1</title>
<polygon fill="#d3d3d3" stroke="#000000" points="753,-36 400,-36 400,0 753,0 753,-36"/>
<text text-anchor="middle" x="576.5" y="-15.5" font-family="Fira Mono" font-size="10.00" fill="#000000">CL&#45;DATA&#45;STRUCTURES.DICTS.HAMT:FUNCTIONAL&#45;HAMT&#45;DICTIONARY</text>
</g>
<!-- 10 -->
<g id="node2" class="node">
<title>10</title>
<polygon fill="#d3d3d3" stroke="#000000" points="333,-108 4,-108 4,-72 333,-72 333,-108"/>
<text text-anchor="middle" x="168.5" y="-87.5" font-family="Fira Mono" font-size="10.00" fill="#000000">CL&#45;DATA&#45;STRUCTURES.DICTS:ABSTRACT&#45;HASHING&#45;DICTIONARY</text>
</g>
<!-- 1&#45;&gt;10 -->
<g id="edge1" class="edge">
<title>1&#45;&gt;10</title>
<path fill="none" stroke="#000000" d="M474.334,-36.0293C415.4175,-46.4263 341.2596,-59.513 280.7234,-70.1959"/>
<polygon fill="none" stroke="#000000" points="279.9844,-66.7721 270.7448,-71.9568 281.2009,-73.6656 279.9844,-66.7721"/>
</g>
<!-- 4 -->
<g id="node4" class="node">
<title>4</title>
<polygon fill="#d3d3d3" stroke="#000000" points="747,-108 406,-108 406,-72 747,-72 747,-108"/>
<text text-anchor="middle" x="576.5" y="-87.5" font-family="Fira Mono" font-size="10.00" fill="#000000">CL&#45;DATA&#45;STRUCTURES.DICTS:FUNCTIONAL&#45;HASHING&#45;DICTIONARY</text>
</g>
<!-- 1&#45;&gt;4 -->
<g id="edge2" class="edge">
<title>1&#45;&gt;4</title>
<path fill="none" stroke="#000000" d="M576.5,-36.1686C576.5,-43.869 576.5,-53.0257 576.5,-61.5834"/>
<polygon fill="none" stroke="#000000" points="573.0001,-61.5867 576.5,-71.5867 580.0001,-61.5868 573.0001,-61.5867"/>
</g>
<!-- 2 -->
<g id="node10" class="node">
<title>2</title>
<polygon fill="#d3d3d3" stroke="#000000" points="1162,-108 875,-108 875,-72 1162,-72 1162,-108"/>
<text text-anchor="middle" x="1018.5" y="-87.5" font-family="Fira Mono" font-size="10.00" fill="#000000">CL&#45;DATA&#45;STRUCTURES.DICTS.HAMT:HAMT&#45;DICTIONARY</text>
</g>
<!-- 1&#45;&gt;2 -->
<g id="edge3" class="edge">
<title>1&#45;&gt;2</title>
<path fill="none" stroke="#000000" d="M687.1798,-36.0293C751.2693,-46.4692 832.0066,-59.621 897.7352,-70.3279"/>
<polygon fill="none" stroke="#000000" points="897.3021,-73.8034 907.7348,-71.9568 898.4276,-66.8945 897.3021,-73.8034"/>
</g>
<!-- 11 -->
<g id="node3" class="node">
<title>11</title>
<polygon fill="#d3d3d3" stroke="#000000" points="281,-180 0,-180 0,-144 281,-144 281,-180"/>
<text text-anchor="middle" x="140.5" y="-159.5" font-family="Fira Mono" font-size="10.00" fill="#000000">CL&#45;DATA&#45;STRUCTURES.DICTS:ABSTRACT&#45;DICTIONARY</text>
</g>
<!-- 10&#45;&gt;11 -->
<g id="edge4" class="edge">
<title>10&#45;&gt;11</title>
<path fill="none" stroke="#000000" d="M161.4344,-108.1686C158.374,-116.0383 154.7221,-125.4288 151.3318,-134.1467"/>
<polygon fill="none" stroke="#000000" points="148.0232,-132.9981 147.6607,-143.5867 154.5473,-135.5353 148.0232,-132.9981"/>
</g>
<!-- 8 -->
<g id="node5" class="node">
<title>8</title>
<polygon fill="#d3d3d3" stroke="#000000" points="592,-180 299,-180 299,-144 592,-144 592,-180"/>
<text text-anchor="middle" x="445.5" y="-159.5" font-family="Fira Mono" font-size="10.00" fill="#000000">CL&#45;DATA&#45;STRUCTURES.DICTS:FUNCTIONAL&#45;DICTIONARY</text>
</g>
<!-- 4&#45;&gt;8 -->
<g id="edge5" class="edge">
<title>4&#45;&gt;8</title>
<path fill="none" stroke="#000000" d="M543.4432,-108.1686C526.5323,-117.4632 505.7615,-128.8792 487.7059,-138.8029"/>
<polygon fill="none" stroke="#000000" points="485.624,-135.9532 478.5463,-143.8372 488.9957,-142.0878 485.624,-135.9532"/>
</g>
<!-- 5 -->
<g id="node7" class="node">
<title>5</title>
<polygon fill="#d3d3d3" stroke="#000000" points="885,-180 610,-180 610,-144 885,-144 885,-180"/>
<text text-anchor="middle" x="747.5" y="-159.5" font-family="Fira Mono" font-size="10.00" fill="#000000">CL&#45;DATA&#45;STRUCTURES.DICTS:HASHING&#45;DICTIONARY</text>
</g>
<!-- 4&#45;&gt;5 -->
<g id="edge6" class="edge">
<title>4&#45;&gt;5</title>
<path fill="none" stroke="#000000" d="M619.6505,-108.1686C642.6224,-117.841 671.0509,-129.8109 695.2632,-140.0056"/>
<polygon fill="none" stroke="#000000" points="694.0852,-143.3071 704.6598,-143.962 696.8016,-136.8557 694.0852,-143.3071"/>
</g>
<!-- 9 -->
<g id="node6" class="node">
<title>9</title>
<polygon fill="#d3d3d3" stroke="#000000" points="541,-252 350,-252 350,-216 541,-216 541,-252"/>
<text text-anchor="middle" x="445.5" y="-231.5" font-family="Fira Mono" font-size="10.00" fill="#000000">CL&#45;DATA&#45;STRUCTURES:FUNCTIONAL</text>
</g>
<!-- 8&#45;&gt;9 -->
<g id="edge7" class="edge">
<title>8&#45;&gt;9</title>
<path fill="none" stroke="#000000" d="M445.5,-180.1686C445.5,-187.869 445.5,-197.0257 445.5,-205.5834"/>
<polygon fill="none" stroke="#000000" points="442.0001,-205.5867 445.5,-215.5867 449.0001,-205.5868 442.0001,-205.5867"/>
</g>
<!-- 6 -->
<g id="node8" class="node">
<title>6</title>
<polygon fill="#d3d3d3" stroke="#000000" points="786,-252 559,-252 559,-216 786,-216 786,-252"/>
<text text-anchor="middle" x="672.5" y="-231.5" font-family="Fira Mono" font-size="10.00" fill="#000000">CL&#45;DATA&#45;STRUCTURES.DICTS:DICTIONARY</text>
</g>
<!-- 8&#45;&gt;6 -->
<g id="edge8" class="edge">
<title>8&#45;&gt;6</title>
<path fill="none" stroke="#000000" d="M502.4887,-180.0757C533.7907,-190.0041 572.7918,-202.3745 605.5406,-212.7618"/>
<polygon fill="none" stroke="#000000" points="604.8977,-216.2296 615.4879,-215.9169 607.0141,-209.5572 604.8977,-216.2296"/>
</g>
<!-- 7 -->
<g id="node9" class="node">
<title>7</title>
<polygon fill="#d3d3d3" stroke="#000000" points="687,-324 430,-324 430,-288 687,-288 687,-324"/>
<text text-anchor="middle" x="558.5" y="-303.5" font-family="Fira Mono" font-size="10.00" fill="#000000">CL&#45;DATA&#45;STRUCTURES:FUNDAMENTAL&#45;CONTAINER</text>
</g>
<!-- 9&#45;&gt;7 -->
<g id="edge9" class="edge">
<title>9&#45;&gt;7</title>
<path fill="none" stroke="#000000" d="M474.0147,-252.1686C488.3342,-261.2926 505.8624,-272.461 521.2338,-282.2551"/>
<polygon fill="none" stroke="#000000" points="519.6801,-285.4153 529.9945,-287.8372 523.4417,-279.5118 519.6801,-285.4153"/>
</g>
<!-- 5&#45;&gt;6 -->
<g id="edge10" class="edge">
<title>5&#45;&gt;6</title>
<path fill="none" stroke="#000000" d="M728.5743,-180.1686C719.5143,-188.8663 708.5191,-199.4217 698.6735,-208.8735"/>
<polygon fill="none" stroke="#000000" points="696.2096,-206.387 691.4196,-215.8372 701.0574,-211.4367 696.2096,-206.387"/>
</g>
<!-- 6&#45;&gt;7 -->
<g id="edge11" class="edge">
<title>6&#45;&gt;7</title>
<path fill="none" stroke="#000000" d="M643.733,-252.1686C629.2867,-261.2926 611.6035,-272.461 596.096,-282.2551"/>
<polygon fill="none" stroke="#000000" points="593.8437,-279.538 587.2578,-287.8372 597.5817,-285.4564 593.8437,-279.538"/>
</g>
<!-- 3 -->
<g id="node11" class="node">
<title>3</title>
<polygon fill="#d3d3d3" stroke="#000000" points="1190,-180 903,-180 903,-144 1190,-144 1190,-180"/>
<text text-anchor="middle" x="1046.5" y="-159.5" font-family="Fira Mono" font-size="10.00" fill="#000000">CL&#45;DATA&#45;STRUCTURES.COMMON.HAMT:HAMT&#45;CONTAINER</text>
</g>
<!-- 2&#45;&gt;3 -->
<g id="edge12" class="edge">
<title>2&#45;&gt;3</title>
<path fill="none" stroke="#000000" d="M1025.5656,-108.1686C1028.626,-116.0383 1032.2779,-125.4288 1035.6682,-134.1467"/>
<polygon fill="none" stroke="#000000" points="1032.4527,-135.5353 1039.3393,-143.5867 1038.9768,-132.9981 1032.4527,-135.5353"/>
</g>
</g>
</svg>
