<?xml version="1.0" encoding="UTF-8" standalone="no"?>
<!DOCTYPE svg PUBLIC "-//W3C//DTD SVG 1.1//EN"
 "http://www.w3.org/Graphics/SVG/1.1/DTD/svg11.dtd">
<!-- Generated by graphviz version 2.40.1 (20161225.0304)
 -->
<!-- Title: %3 Pages: 1 -->
<svg width="444pt" height="188pt"
 viewBox="0.00 0.00 444.00 188.00" xmlns="http://www.w3.org/2000/svg" xmlns:xlink="http://www.w3.org/1999/xlink">
<g id="graph0" class="graph" transform="scale(1 1) rotate(0) translate(4 184)">
<title>%3</title>
<polygon fill="transparent" stroke="transparent" points="-4,4 -4,-184 440,-184 440,4 -4,4"/>
<!-- 1 -->
<g id="node1" class="node">
<title>1</title>
<polygon fill="#d3d3d3" stroke="#000000" points="355,-36 62,-36 62,0 355,0 355,-36"/>
<text text-anchor="middle" x="208.5" y="-15.5" font-family="Fira Mono" font-size="10.00" fill="#000000">CL&#45;DATA&#45;STRUCTURES.DICTS:FUNCTIONAL&#45;DICTIONARY</text>
</g>
<!-- 4 -->
<g id="node2" class="node">
<title>4</title>
<polygon fill="#d3d3d3" stroke="#000000" points="191,-108 0,-108 0,-72 191,-72 191,-108"/>
<text text-anchor="middle" x="95.5" y="-87.5" font-family="Fira Mono" font-size="10.00" fill="#000000">CL&#45;DATA&#45;STRUCTURES:FUNCTIONAL</text>
</g>
<!-- 1&#45;&gt;4 -->
<g id="edge1" class="edge">
<title>1&#45;&gt;4</title>
<path fill="none" stroke="#000000" d="M179.9853,-36.1686C165.6658,-45.2926 148.1376,-56.461 132.7662,-66.2551"/>
<polygon fill="none" stroke="#000000" points="130.5583,-63.5118 124.0055,-71.8372 134.3199,-69.4153 130.5583,-63.5118"/>
</g>
<!-- 2 -->
<g id="node3" class="node">
<title>2</title>
<polygon fill="#d3d3d3" stroke="#000000" points="436,-108 209,-108 209,-72 436,-72 436,-108"/>
<text text-anchor="middle" x="322.5" y="-87.5" font-family="Fira Mono" font-size="10.00" fill="#000000">CL&#45;DATA&#45;STRUCTURES.DICTS:DICTIONARY</text>
</g>
<!-- 1&#45;&gt;2 -->
<g id="edge2" class="edge">
<title>1&#45;&gt;2</title>
<path fill="none" stroke="#000000" d="M237.267,-36.1686C251.7133,-45.2926 269.3965,-56.461 284.904,-66.2551"/>
<polygon fill="none" stroke="#000000" points="283.4183,-69.4564 293.7422,-71.8372 287.1563,-63.538 283.4183,-69.4564"/>
</g>
<!-- 3 -->
<g id="node4" class="node">
<title>3</title>
<polygon fill="#d3d3d3" stroke="#000000" points="337,-180 80,-180 80,-144 337,-144 337,-180"/>
<text text-anchor="middle" x="208.5" y="-159.5" font-family="Fira Mono" font-size="10.00" fill="#000000">CL&#45;DATA&#45;STRUCTURES:FUNDAMENTAL&#45;CONTAINER</text>
</g>
<!-- 4&#45;&gt;3 -->
<g id="edge3" class="edge">
<title>4&#45;&gt;3</title>
<path fill="none" stroke="#000000" d="M124.0147,-108.1686C138.3342,-117.2926 155.8624,-128.461 171.2338,-138.2551"/>
<polygon fill="none" stroke="#000000" points="169.6801,-141.4153 179.9945,-143.8372 173.4417,-135.5118 169.6801,-141.4153"/>
</g>
<!-- 2&#45;&gt;3 -->
<g id="edge4" class="edge">
<title>2&#45;&gt;3</title>
<path fill="none" stroke="#000000" d="M293.733,-108.1686C279.2867,-117.2926 261.6035,-128.461 246.096,-138.2551"/>
<polygon fill="none" stroke="#000000" points="243.8437,-135.538 237.2578,-143.8372 247.5817,-141.4564 243.8437,-135.538"/>
</g>
</g>
</svg>
