<?xml version="1.0" encoding="UTF-8" standalone="no"?>
<!DOCTYPE svg PUBLIC "-//W3C//DTD SVG 1.1//EN"
 "http://www.w3.org/Graphics/SVG/1.1/DTD/svg11.dtd">
<!-- Generated by graphviz version 2.40.1 (20161225.0304)
 -->
<!-- Title: %3 Pages: 1 -->
<svg width="522pt" height="332pt"
 viewBox="0.00 0.00 522.00 332.00" xmlns="http://www.w3.org/2000/svg" xmlns:xlink="http://www.w3.org/1999/xlink">
<g id="graph0" class="graph" transform="scale(1 1) rotate(0) translate(4 328)">
<title>%3</title>
<polygon fill="transparent" stroke="transparent" points="-4,4 -4,-328 518,-328 518,4 -4,4"/>
<!-- 1 -->
<g id="node1" class="node">
<title>1</title>
<polygon fill="#d3d3d3" stroke="#000000" points="390,-36 79,-36 79,0 390,0 390,-36"/>
<text text-anchor="middle" x="234.5" y="-15.5" font-family="Fira Mono" font-size="10.00" fill="#000000">CL&#45;DATA&#45;STRUCTURES.DICTS:TRANSACTIONAL&#45;DICTIONARY</text>
</g>
<!-- 7 -->
<g id="node2" class="node">
<title>7</title>
<polygon fill="#d3d3d3" stroke="#000000" points="209,-108 0,-108 0,-72 209,-72 209,-108"/>
<text text-anchor="middle" x="104.5" y="-87.5" font-family="Fira Mono" font-size="10.00" fill="#000000">CL&#45;DATA&#45;STRUCTURES:TRANSACTIONAL</text>
</g>
<!-- 1&#45;&gt;7 -->
<g id="edge1" class="edge">
<title>1&#45;&gt;7</title>
<path fill="none" stroke="#000000" d="M201.6955,-36.1686C184.9138,-45.4632 164.3015,-56.8792 146.3837,-66.8029"/>
<polygon fill="none" stroke="#000000" points="144.3462,-63.9304 137.294,-71.8372 147.7377,-70.0539 144.3462,-63.9304"/>
</g>
<!-- 2 -->
<g id="node3" class="node">
<title>2</title>
<polygon fill="#d3d3d3" stroke="#000000" points="502,-108 227,-108 227,-72 502,-72 502,-108"/>
<text text-anchor="middle" x="364.5" y="-87.5" font-family="Fira Mono" font-size="10.00" fill="#000000">CL&#45;DATA&#45;STRUCTURES.DICTS:MUTABLE&#45;DICTIONARY</text>
</g>
<!-- 1&#45;&gt;2 -->
<g id="edge2" class="edge">
<title>1&#45;&gt;2</title>
<path fill="none" stroke="#000000" d="M267.3045,-36.1686C284.0862,-45.4632 304.6985,-56.8792 322.6163,-66.8029"/>
<polygon fill="none" stroke="#000000" points="321.2623,-70.0539 331.706,-71.8372 324.6538,-63.9304 321.2623,-70.0539"/>
</g>
<!-- 6 -->
<g id="node4" class="node">
<title>6</title>
<polygon fill="#d3d3d3" stroke="#000000" points="197,-180 24,-180 24,-144 197,-144 197,-180"/>
<text text-anchor="middle" x="110.5" y="-159.5" font-family="Fira Mono" font-size="10.00" fill="#000000">CL&#45;DATA&#45;STRUCTURES:MUTABLE</text>
</g>
<!-- 7&#45;&gt;6 -->
<g id="edge3" class="edge">
<title>7&#45;&gt;6</title>
<path fill="none" stroke="#000000" d="M106.0141,-108.1686C106.6558,-115.869 107.4188,-125.0257 108.1319,-133.5834"/>
<polygon fill="none" stroke="#000000" points="104.6471,-133.912 108.9656,-143.5867 111.6229,-133.3306 104.6471,-133.912"/>
</g>
<!-- 2&#45;&gt;6 -->
<g id="edge4" class="edge">
<title>2&#45;&gt;6</title>
<path fill="none" stroke="#000000" d="M300.7329,-108.0757C265.2548,-118.1325 220.9377,-130.6948 184.0057,-141.1637"/>
<polygon fill="none" stroke="#000000" points="182.9597,-137.8223 174.2933,-143.9169 184.8688,-144.5569 182.9597,-137.8223"/>
</g>
<!-- 3 -->
<g id="node5" class="node">
<title>3</title>
<polygon fill="#d3d3d3" stroke="#000000" points="514,-180 215,-180 215,-144 514,-144 514,-180"/>
<text text-anchor="middle" x="364.5" y="-159.5" font-family="Fira Mono" font-size="10.00" fill="#000000">CL&#45;DATA&#45;STRUCTURES.DICTS:FUNDAMENTAL&#45;DICTIONARY</text>
</g>
<!-- 2&#45;&gt;3 -->
<g id="edge5" class="edge">
<title>2&#45;&gt;3</title>
<path fill="none" stroke="#000000" d="M364.5,-108.1686C364.5,-115.869 364.5,-125.0257 364.5,-133.5834"/>
<polygon fill="none" stroke="#000000" points="361.0001,-133.5867 364.5,-143.5867 368.0001,-133.5868 361.0001,-133.5867"/>
</g>
<!-- 4 -->
<g id="node6" class="node">
<title>4</title>
<polygon fill="#d3d3d3" stroke="#000000" points="366,-252 109,-252 109,-216 366,-216 366,-252"/>
<text text-anchor="middle" x="237.5" y="-231.5" font-family="Fira Mono" font-size="10.00" fill="#000000">CL&#45;DATA&#45;STRUCTURES:FUNDAMENTAL&#45;CONTAINER</text>
</g>
<!-- 6&#45;&gt;4 -->
<g id="edge6" class="edge">
<title>6&#45;&gt;4</title>
<path fill="none" stroke="#000000" d="M142.5475,-180.1686C158.942,-189.4632 179.0786,-200.8792 196.5829,-210.8029"/>
<polygon fill="none" stroke="#000000" points="195.0374,-213.95 205.4628,-215.8372 198.4897,-207.8605 195.0374,-213.95"/>
</g>
<!-- 3&#45;&gt;4 -->
<g id="edge7" class="edge">
<title>3&#45;&gt;4</title>
<path fill="none" stroke="#000000" d="M332.4525,-180.1686C316.058,-189.4632 295.9214,-200.8792 278.4171,-210.8029"/>
<polygon fill="none" stroke="#000000" points="276.5103,-207.8605 269.5372,-215.8372 279.9626,-213.95 276.5103,-207.8605"/>
</g>
<!-- 5 -->
<g id="node7" class="node">
<title>5</title>
<polygon fill="#d3d3d3" stroke="#000000" points="336,-324 139,-324 139,-288 336,-288 336,-324"/>
<text text-anchor="middle" x="237.5" y="-303.5" font-family="Fira Mono" font-size="10.00" fill="#000000">CL&#45;DATA&#45;STRUCTURES:TRAVERSABLE</text>
</g>
<!-- 4&#45;&gt;5 -->
<g id="edge8" class="edge">
<title>4&#45;&gt;5</title>
<path fill="none" stroke="#000000" d="M237.5,-252.1686C237.5,-259.869 237.5,-269.0257 237.5,-277.5834"/>
<polygon fill="none" stroke="#000000" points="234.0001,-277.5867 237.5,-287.5867 241.0001,-277.5868 234.0001,-277.5867"/>
</g>
</g>
</svg>
