<?xml version="1.0" encoding="UTF-8" standalone="no"?>
<!DOCTYPE svg PUBLIC "-//W3C//DTD SVG 1.1//EN"
 "http://www.w3.org/Graphics/SVG/1.1/DTD/svg11.dtd">
<!-- Generated by graphviz version 2.40.1 (20161225.0304)
 -->
<!-- Title: %3 Pages: 1 -->
<svg width="728pt" height="188pt"
 viewBox="0.00 0.00 728.00 188.00" xmlns="http://www.w3.org/2000/svg" xmlns:xlink="http://www.w3.org/1999/xlink">
<g id="graph0" class="graph" transform="scale(1 1) rotate(0) translate(4 184)">
<title>%3</title>
<polygon fill="transparent" stroke="transparent" points="-4,4 -4,-184 724,-184 724,4 -4,4"/>
<!-- 1 -->
<g id="node1" class="node">
<title>1</title>
<polygon fill="#d3d3d3" stroke="#000000" points="481,-36 212,-36 212,0 481,0 481,-36"/>
<text text-anchor="middle" x="346.5" y="-15.5" font-family="Fira Mono" font-size="10.00" fill="#000000">CL&#45;DATA&#45;STRUCTURES:FUNCTIONAL&#45;ADD&#45;FUNCTION</text>
</g>
<!-- 4 -->
<g id="node2" class="node">
<title>4</title>
<polygon fill="#d3d3d3" stroke="#000000" points="206,-108 3,-108 3,-72 206,-72 206,-108"/>
<text text-anchor="middle" x="104.5" y="-87.5" font-family="Fira Mono" font-size="10.00" fill="#000000">CL&#45;DATA&#45;STRUCTURES:ADD&#45;FUNCTION</text>
</g>
<!-- 1&#45;&gt;4 -->
<g id="edge1" class="edge">
<title>1&#45;&gt;4</title>
<path fill="none" stroke="#000000" d="M285.7455,-36.0757C252.0874,-46.0897 210.0793,-58.588 174.9826,-69.03"/>
<polygon fill="none" stroke="#000000" points="173.8661,-65.7104 165.2794,-71.9169 175.8623,-72.4198 173.8661,-65.7104"/>
</g>
<!-- 3 -->
<g id="node4" class="node">
<title>3</title>
<polygon fill="#d3d3d3" stroke="#000000" points="469,-108 224,-108 224,-72 469,-72 469,-108"/>
<text text-anchor="middle" x="346.5" y="-87.5" font-family="Fira Mono" font-size="10.00" fill="#000000">CL&#45;DATA&#45;STRUCTURES:FUNCTIONAL&#45;FUNCTION</text>
</g>
<!-- 1&#45;&gt;3 -->
<g id="edge2" class="edge">
<title>1&#45;&gt;3</title>
<path fill="none" stroke="#000000" d="M346.5,-36.1686C346.5,-43.869 346.5,-53.0257 346.5,-61.5834"/>
<polygon fill="none" stroke="#000000" points="343.0001,-61.5867 346.5,-71.5867 350.0001,-61.5868 343.0001,-61.5867"/>
</g>
<!-- 2 -->
<g id="node5" class="node">
<title>2</title>
<polygon fill="#d3d3d3" stroke="#000000" points="720,-108 487,-108 487,-72 720,-72 720,-108"/>
<text text-anchor="middle" x="603.5" y="-87.5" font-family="Fira Mono" font-size="10.00" fill="#000000">CLOSER&#45;MOP:STANDARD&#45;GENERIC&#45;FUNCTION</text>
</g>
<!-- 1&#45;&gt;2 -->
<g id="edge3" class="edge">
<title>1&#45;&gt;2</title>
<path fill="none" stroke="#000000" d="M411.0202,-36.0757C446.9174,-46.1325 491.758,-58.6948 529.1261,-69.1637"/>
<polygon fill="none" stroke="#000000" points="528.3798,-72.5893 538.9532,-71.9169 530.2682,-65.8489 528.3798,-72.5893"/>
</g>
<!-- 5 -->
<g id="node3" class="node">
<title>5</title>
<polygon fill="#d3d3d3" stroke="#000000" points="209,-180 0,-180 0,-144 209,-144 209,-180"/>
<text text-anchor="middle" x="104.5" y="-159.5" font-family="Fira Mono" font-size="10.00" fill="#000000">CL&#45;DATA&#45;STRUCTURES:GROW&#45;FUNCTION</text>
</g>
<!-- 4&#45;&gt;5 -->
<g id="edge4" class="edge">
<title>4&#45;&gt;5</title>
<path fill="none" stroke="#000000" d="M104.5,-108.1686C104.5,-115.869 104.5,-125.0257 104.5,-133.5834"/>
<polygon fill="none" stroke="#000000" points="101.0001,-133.5867 104.5,-143.5867 108.0001,-133.5868 101.0001,-133.5867"/>
</g>
</g>
</svg>
