<?xml version="1.0" encoding="UTF-8" standalone="no"?>
<!DOCTYPE svg PUBLIC "-//W3C//DTD SVG 1.1//EN"
 "http://www.w3.org/Graphics/SVG/1.1/DTD/svg11.dtd">
<!-- Generated by graphviz version 2.46.1 (0)
 -->
<!-- Pages: 1 -->
<svg width="788pt" height="188pt"
 viewBox="0.00 0.00 788.00 188.00" xmlns="http://www.w3.org/2000/svg" xmlns:xlink="http://www.w3.org/1999/xlink">
<g id="graph0" class="graph" transform="scale(1 1) rotate(0) translate(4 184)">
<polygon fill="transparent" stroke="transparent" points="-4,4 -4,-184 784,-184 784,4 -4,4"/>
<!-- 1 -->
<g id="node1" class="node">
<title>1</title>
<polygon fill="lightgrey" stroke="black" points="541,-36 242,-36 242,0 541,0 541,-36"/>
<text text-anchor="middle" x="391.5" y="-15.5" font-family="Fira Mono" font-size="10.00">CL&#45;DATA&#45;STRUCTURES.META:FUNCTIONAL&#45;ADD&#45;FUNCTION</text>
</g>
<!-- 4 -->
<g id="node2" class="node">
<title>4</title>
<polygon fill="lightgrey" stroke="black" points="236,-108 3,-108 3,-72 236,-72 236,-108"/>
<text text-anchor="middle" x="119.5" y="-87.5" font-family="Fira Mono" font-size="10.00">CL&#45;DATA&#45;STRUCTURES.META:ADD&#45;FUNCTION</text>
</g>
<!-- 1&#45;&gt;4 -->
<g id="edge1" class="edge">
<title>1&#45;&gt;4</title>
<path fill="none" stroke="black" d="M325.31,-36.03C286.23,-46.09 236.6,-58.86 195.87,-69.35"/>
<polygon fill="none" stroke="black" points="194.8,-66.01 185.99,-71.89 196.54,-72.79 194.8,-66.01"/>
</g>
<!-- 3 -->
<g id="node4" class="node">
<title>3</title>
<polygon fill="lightgrey" stroke="black" points="529,-108 254,-108 254,-72 529,-72 529,-108"/>
<text text-anchor="middle" x="391.5" y="-87.5" font-family="Fira Mono" font-size="10.00">CL&#45;DATA&#45;STRUCTURES.META:FUNCTIONAL&#45;FUNCTION</text>
</g>
<!-- 1&#45;&gt;3 -->
<g id="edge2" class="edge">
<title>1&#45;&gt;3</title>
<path fill="none" stroke="black" d="M391.5,-36.3C391.5,-44.02 391.5,-53.29 391.5,-61.89"/>
<polygon fill="none" stroke="black" points="388,-61.9 391.5,-71.9 395,-61.9 388,-61.9"/>
</g>
<!-- 2 -->
<g id="node5" class="node">
<title>2</title>
<polygon fill="lightgrey" stroke="black" points="780,-108 547,-108 547,-72 780,-72 780,-108"/>
<text text-anchor="middle" x="663.5" y="-87.5" font-family="Fira Mono" font-size="10.00">CLOSER&#45;MOP:STANDARD&#45;GENERIC&#45;FUNCTION</text>
</g>
<!-- 1&#45;&gt;2 -->
<g id="edge3" class="edge">
<title>1&#45;&gt;2</title>
<path fill="none" stroke="black" d="M457.69,-36.03C496.77,-46.09 546.4,-58.86 587.13,-69.35"/>
<polygon fill="none" stroke="black" points="586.46,-72.79 597.01,-71.89 588.2,-66.01 586.46,-72.79"/>
</g>
<!-- 5 -->
<g id="node3" class="node">
<title>5</title>
<polygon fill="lightgrey" stroke="black" points="239,-180 0,-180 0,-144 239,-144 239,-180"/>
<text text-anchor="middle" x="119.5" y="-159.5" font-family="Fira Mono" font-size="10.00">CL&#45;DATA&#45;STRUCTURES.META:GROW&#45;FUNCTION</text>
</g>
<!-- 4&#45;&gt;5 -->
<g id="edge4" class="edge">
<title>4&#45;&gt;5</title>
<path fill="none" stroke="black" d="M119.5,-108.3C119.5,-116.02 119.5,-125.29 119.5,-133.89"/>
<polygon fill="none" stroke="black" points="116,-133.9 119.5,-143.9 123,-133.9 116,-133.9"/>
</g>
</g>
</svg>
