<?xml version="1.0" encoding="UTF-8" standalone="no"?>
<!DOCTYPE svg PUBLIC "-//W3C//DTD SVG 1.1//EN"
 "http://www.w3.org/Graphics/SVG/1.1/DTD/svg11.dtd">
<!-- Generated by graphviz version 2.40.1 (20161225.0304)
 -->
<!-- Title: %3 Pages: 1 -->
<svg width="815pt" height="188pt"
 viewBox="0.00 0.00 815.00 188.00" xmlns="http://www.w3.org/2000/svg" xmlns:xlink="http://www.w3.org/1999/xlink">
<g id="graph0" class="graph" transform="scale(1 1) rotate(0) translate(4 184)">
<title>%3</title>
<polygon fill="transparent" stroke="transparent" points="-4,4 -4,-184 811,-184 811,4 -4,4"/>
<!-- 1 -->
<g id="node1" class="node">
<title>1</title>
<polygon fill="#d3d3d3" stroke="#000000" points="583,-36 254,-36 254,0 583,0 583,-36"/>
<text text-anchor="middle" x="418.5" y="-15.5" font-family="Fira Mono" font-size="10.00" fill="#000000">CL&#45;DATA&#45;STRUCTURES.META:FUNCTIONAL&#45;ERASE&#45;IF&#45;FUNCTION</text>
</g>
<!-- 4 -->
<g id="node2" class="node">
<title>4</title>
<polygon fill="#d3d3d3" stroke="#000000" points="263,-108 0,-108 0,-72 263,-72 263,-108"/>
<text text-anchor="middle" x="131.5" y="-87.5" font-family="Fira Mono" font-size="10.00" fill="#000000">CL&#45;DATA&#45;STRUCTURES.META:ERASE&#45;IF&#45;FUNCTION</text>
</g>
<!-- 1&#45;&gt;4 -->
<g id="edge1" class="edge">
<title>1&#45;&gt;4</title>
<path fill="none" stroke="#000000" d="M346.4482,-36.0757C306.0196,-46.2181 255.4328,-58.9088 213.492,-69.4306"/>
<polygon fill="none" stroke="#000000" points="212.4292,-66.0887 203.5814,-71.9169 214.1325,-72.8783 212.4292,-66.0887"/>
</g>
<!-- 3 -->
<g id="node4" class="node">
<title>3</title>
<polygon fill="#d3d3d3" stroke="#000000" points="556,-108 281,-108 281,-72 556,-72 556,-108"/>
<text text-anchor="middle" x="418.5" y="-87.5" font-family="Fira Mono" font-size="10.00" fill="#000000">CL&#45;DATA&#45;STRUCTURES.META:FUNCTIONAL&#45;FUNCTION</text>
</g>
<!-- 1&#45;&gt;3 -->
<g id="edge2" class="edge">
<title>1&#45;&gt;3</title>
<path fill="none" stroke="#000000" d="M418.5,-36.1686C418.5,-43.869 418.5,-53.0257 418.5,-61.5834"/>
<polygon fill="none" stroke="#000000" points="415.0001,-61.5867 418.5,-71.5867 422.0001,-61.5868 415.0001,-61.5867"/>
</g>
<!-- 2 -->
<g id="node5" class="node">
<title>2</title>
<polygon fill="#d3d3d3" stroke="#000000" points="807,-108 574,-108 574,-72 807,-72 807,-108"/>
<text text-anchor="middle" x="690.5" y="-87.5" font-family="Fira Mono" font-size="10.00" fill="#000000">CLOSER&#45;MOP:STANDARD&#45;GENERIC&#45;FUNCTION</text>
</g>
<!-- 1&#45;&gt;2 -->
<g id="edge3" class="edge">
<title>1&#45;&gt;2</title>
<path fill="none" stroke="#000000" d="M486.786,-36.0757C524.94,-46.1753 572.6401,-58.8018 612.2897,-69.2973"/>
<polygon fill="none" stroke="#000000" points="611.6232,-72.7413 622.1859,-71.9169 613.4145,-65.9744 611.6232,-72.7413"/>
</g>
<!-- 5 -->
<g id="node3" class="node">
<title>5</title>
<polygon fill="#d3d3d3" stroke="#000000" points="257,-180 6,-180 6,-144 257,-144 257,-180"/>
<text text-anchor="middle" x="131.5" y="-159.5" font-family="Fira Mono" font-size="10.00" fill="#000000">CL&#45;DATA&#45;STRUCTURES.META:SHRINK&#45;FUNCTION</text>
</g>
<!-- 4&#45;&gt;5 -->
<g id="edge4" class="edge">
<title>4&#45;&gt;5</title>
<path fill="none" stroke="#000000" d="M131.5,-108.1686C131.5,-115.869 131.5,-125.0257 131.5,-133.5834"/>
<polygon fill="none" stroke="#000000" points="128.0001,-133.5867 131.5,-143.5867 135.0001,-133.5868 128.0001,-133.5867"/>
</g>
</g>
</svg>
