<?xml version="1.0" encoding="UTF-8" standalone="no"?>
<!DOCTYPE svg PUBLIC "-//W3C//DTD SVG 1.1//EN"
 "http://www.w3.org/Graphics/SVG/1.1/DTD/svg11.dtd">
<!-- Generated by graphviz version 2.40.1 (20161225.0304)
 -->
<!-- Title: %3 Pages: 1 -->
<svg width="640pt" height="404pt"
 viewBox="0.00 0.00 640.00 404.00" xmlns="http://www.w3.org/2000/svg" xmlns:xlink="http://www.w3.org/1999/xlink">
<g id="graph0" class="graph" transform="scale(1 1) rotate(0) translate(4 400)">
<title>%3</title>
<polygon fill="transparent" stroke="transparent" points="-4,4 -4,-400 636,-400 636,4 -4,4"/>
<!-- 1 -->
<g id="node1" class="node">
<title>1</title>
<polygon fill="#d3d3d3" stroke="#000000" points="505,-36 200,-36 200,0 505,0 505,-36"/>
<text text-anchor="middle" x="352.5" y="-15.5" font-family="Fira Mono" font-size="10.00" fill="#000000">CL&#45;DATA&#45;STRUCTURES.DICTS:LAZY&#45;HASHING&#45;DICTIONARY</text>
</g>
<!-- 6 -->
<g id="node2" class="node">
<title>6</title>
<polygon fill="#d3d3d3" stroke="#000000" points="339,-108 82,-108 82,-72 339,-72 339,-108"/>
<text text-anchor="middle" x="210.5" y="-87.5" font-family="Fira Mono" font-size="10.00" fill="#000000">CL&#45;DATA&#45;STRUCTURES.DICTS:LAZY&#45;DICTIONARY</text>
</g>
<!-- 1&#45;&gt;6 -->
<g id="edge1" class="edge">
<title>1&#45;&gt;6</title>
<path fill="none" stroke="#000000" d="M316.6674,-36.1686C298.0843,-45.5911 275.2011,-57.1938 255.4435,-67.2117"/>
<polygon fill="none" stroke="#000000" points="253.6573,-64.1931 246.3211,-71.8372 256.823,-70.4365 253.6573,-64.1931"/>
</g>
<!-- 2 -->
<g id="node6" class="node">
<title>2</title>
<polygon fill="#d3d3d3" stroke="#000000" points="632,-108 357,-108 357,-72 632,-72 632,-108"/>
<text text-anchor="middle" x="494.5" y="-87.5" font-family="Fira Mono" font-size="10.00" fill="#000000">CL&#45;DATA&#45;STRUCTURES.DICTS:HASHING&#45;DICTIONARY</text>
</g>
<!-- 1&#45;&gt;2 -->
<g id="edge2" class="edge">
<title>1&#45;&gt;2</title>
<path fill="none" stroke="#000000" d="M388.3326,-36.1686C406.9157,-45.5911 429.7989,-57.1938 449.5565,-67.2117"/>
<polygon fill="none" stroke="#000000" points="448.177,-70.4365 458.6789,-71.8372 451.3427,-64.1931 448.177,-70.4365"/>
</g>
<!-- 9 -->
<g id="node3" class="node">
<title>9</title>
<polygon fill="#d3d3d3" stroke="#000000" points="466,-180 173,-180 173,-144 466,-144 466,-180"/>
<text text-anchor="middle" x="319.5" y="-159.5" font-family="Fira Mono" font-size="10.00" fill="#000000">CL&#45;DATA&#45;STRUCTURES.DICTS:FUNCTIONAL&#45;DICTIONARY</text>
</g>
<!-- 6&#45;&gt;9 -->
<g id="edge3" class="edge">
<title>6&#45;&gt;9</title>
<path fill="none" stroke="#000000" d="M238.0053,-108.1686C251.818,-117.2926 268.7256,-128.461 283.5529,-138.2551"/>
<polygon fill="none" stroke="#000000" points="281.7304,-141.2459 292.0035,-143.8372 285.5886,-135.4051 281.7304,-141.2459"/>
</g>
<!-- 7 -->
<g id="node4" class="node">
<title>7</title>
<polygon fill="#d3d3d3" stroke="#000000" points="155,-180 0,-180 0,-144 155,-144 155,-180"/>
<text text-anchor="middle" x="77.5" y="-159.5" font-family="Fira Mono" font-size="10.00" fill="#000000">CL&#45;DATA&#45;STRUCTURES:LAZY</text>
</g>
<!-- 6&#45;&gt;7 -->
<g id="edge4" class="edge">
<title>6&#45;&gt;7</title>
<path fill="none" stroke="#000000" d="M176.9385,-108.1686C159.6119,-117.5484 138.2942,-129.0888 119.8464,-139.0756"/>
<polygon fill="none" stroke="#000000" points="118.1786,-135.9985 111.0508,-143.8372 121.5111,-142.1543 118.1786,-135.9985"/>
</g>
<!-- 8 -->
<g id="node5" class="node">
<title>8</title>
<polygon fill="#d3d3d3" stroke="#000000" points="275,-252 84,-252 84,-216 275,-216 275,-252"/>
<text text-anchor="middle" x="179.5" y="-231.5" font-family="Fira Mono" font-size="10.00" fill="#000000">CL&#45;DATA&#45;STRUCTURES:FUNCTIONAL</text>
</g>
<!-- 9&#45;&gt;8 -->
<g id="edge5" class="edge">
<title>9&#45;&gt;8</title>
<path fill="none" stroke="#000000" d="M284.1721,-180.1686C265.8507,-189.5911 243.2898,-201.1938 223.8105,-211.2117"/>
<polygon fill="none" stroke="#000000" points="222.1088,-208.1511 214.8166,-215.8372 225.3102,-214.3761 222.1088,-208.1511"/>
</g>
<!-- 3 -->
<g id="node7" class="node">
<title>3</title>
<polygon fill="#d3d3d3" stroke="#000000" points="520,-252 293,-252 293,-216 520,-216 520,-252"/>
<text text-anchor="middle" x="406.5" y="-231.5" font-family="Fira Mono" font-size="10.00" fill="#000000">CL&#45;DATA&#45;STRUCTURES.DICTS:DICTIONARY</text>
</g>
<!-- 9&#45;&gt;3 -->
<g id="edge6" class="edge">
<title>9&#45;&gt;3</title>
<path fill="none" stroke="#000000" d="M341.4538,-180.1686C352.1695,-189.0368 365.2189,-199.8363 376.809,-209.4282"/>
<polygon fill="none" stroke="#000000" points="374.6178,-212.1578 384.5533,-215.8372 379.0808,-206.7651 374.6178,-212.1578"/>
</g>
<!-- 7&#45;&gt;8 -->
<g id="edge7" class="edge">
<title>7&#45;&gt;8</title>
<path fill="none" stroke="#000000" d="M103.2389,-180.1686C116.0437,-189.2073 131.6909,-200.2524 145.4719,-209.9802"/>
<polygon fill="none" stroke="#000000" points="143.5812,-212.9297 153.7693,-215.8372 147.618,-207.2109 143.5812,-212.9297"/>
</g>
<!-- 4 -->
<g id="node8" class="node">
<title>4</title>
<polygon fill="#d3d3d3" stroke="#000000" points="421,-324 164,-324 164,-288 421,-288 421,-324"/>
<text text-anchor="middle" x="292.5" y="-303.5" font-family="Fira Mono" font-size="10.00" fill="#000000">CL&#45;DATA&#45;STRUCTURES:FUNDAMENTAL&#45;CONTAINER</text>
</g>
<!-- 8&#45;&gt;4 -->
<g id="edge8" class="edge">
<title>8&#45;&gt;4</title>
<path fill="none" stroke="#000000" d="M208.0147,-252.1686C222.3342,-261.2926 239.8624,-272.461 255.2338,-282.2551"/>
<polygon fill="none" stroke="#000000" points="253.6801,-285.4153 263.9945,-287.8372 257.4417,-279.5118 253.6801,-285.4153"/>
</g>
<!-- 2&#45;&gt;3 -->
<g id="edge9" class="edge">
<title>2&#45;&gt;3</title>
<path fill="none" stroke="#000000" d="M494.251,-108.2571C493.2072,-127.4633 489.2695,-157.91 475.5,-180 468.2542,-191.6241 457.5688,-201.752 446.7599,-209.9979"/>
<polygon fill="none" stroke="#000000" points="444.593,-207.2452 438.5252,-215.9304 448.6848,-212.9249 444.593,-207.2452"/>
</g>
<!-- 3&#45;&gt;4 -->
<g id="edge10" class="edge">
<title>3&#45;&gt;4</title>
<path fill="none" stroke="#000000" d="M377.733,-252.1686C363.2867,-261.2926 345.6035,-272.461 330.096,-282.2551"/>
<polygon fill="none" stroke="#000000" points="327.8437,-279.538 321.2578,-287.8372 331.5817,-285.4564 327.8437,-279.538"/>
</g>
<!-- 5 -->
<g id="node9" class="node">
<title>5</title>
<polygon fill="#d3d3d3" stroke="#000000" points="391,-396 194,-396 194,-360 391,-360 391,-396"/>
<text text-anchor="middle" x="292.5" y="-375.5" font-family="Fira Mono" font-size="10.00" fill="#000000">CL&#45;DATA&#45;STRUCTURES:TRAVERSABLE</text>
</g>
<!-- 4&#45;&gt;5 -->
<g id="edge11" class="edge">
<title>4&#45;&gt;5</title>
<path fill="none" stroke="#000000" d="M292.5,-324.1686C292.5,-331.869 292.5,-341.0257 292.5,-349.5834"/>
<polygon fill="none" stroke="#000000" points="289.0001,-349.5867 292.5,-359.5867 296.0001,-349.5868 289.0001,-349.5867"/>
</g>
</g>
</svg>
