<?xml version="1.0" encoding="UTF-8" standalone="no"?>
<!DOCTYPE svg PUBLIC "-//W3C//DTD SVG 1.1//EN"
 "http://www.w3.org/Graphics/SVG/1.1/DTD/svg11.dtd">
<!-- Generated by graphviz version 2.44.1 (0)
 -->
<!-- Pages: 1 -->
<svg width="821pt" height="188pt"
 viewBox="0.00 0.00 821.00 188.00" xmlns="http://www.w3.org/2000/svg" xmlns:xlink="http://www.w3.org/1999/xlink">
<g id="graph0" class="graph" transform="scale(1 1) rotate(0) translate(4 184)">
<polygon fill="transparent" stroke="transparent" points="-4,4 -4,-184 817,-184 817,4 -4,4"/>
<!-- 1 -->
<g id="node1" class="node">
<title>1</title>
<polygon fill="lightgrey" stroke="black" points="592,-36 257,-36 257,0 592,0 592,-36"/>
<text text-anchor="middle" x="424.5" y="-15.5" font-family="Fira Mono" font-size="10.00">CL&#45;DATA&#45;STRUCTURES.META:FUNCTIONAL&#45;UPDATE&#45;IF&#45;FUNCTION</text>
</g>
<!-- 4 -->
<g id="node2" class="node">
<title>4</title>
<polygon fill="lightgrey" stroke="black" points="269,-108 0,-108 0,-72 269,-72 269,-108"/>
<text text-anchor="middle" x="134.5" y="-87.5" font-family="Fira Mono" font-size="10.00">CL&#45;DATA&#45;STRUCTURES.META:UPDATE&#45;IF&#45;FUNCTION</text>
</g>
<!-- 1&#45;&gt;4 -->
<g id="edge1" class="edge">
<title>1&#45;&gt;4</title>
<path fill="none" stroke="black" d="M353.93,-36.03C312.01,-46.15 258.71,-59.02 215.13,-69.54"/>
<polygon fill="none" stroke="black" points="214.04,-66.2 205.14,-71.95 215.68,-73.01 214.04,-66.2"/>
</g>
<!-- 3 -->
<g id="node4" class="node">
<title>3</title>
<polygon fill="lightgrey" stroke="black" points="562,-108 287,-108 287,-72 562,-72 562,-108"/>
<text text-anchor="middle" x="424.5" y="-87.5" font-family="Fira Mono" font-size="10.00">CL&#45;DATA&#45;STRUCTURES.META:FUNCTIONAL&#45;FUNCTION</text>
</g>
<!-- 1&#45;&gt;3 -->
<g id="edge2" class="edge">
<title>1&#45;&gt;3</title>
<path fill="none" stroke="black" d="M424.5,-36.3C424.5,-44.02 424.5,-53.29 424.5,-61.89"/>
<polygon fill="none" stroke="black" points="421,-61.9 424.5,-71.9 428,-61.9 421,-61.9"/>
</g>
<!-- 2 -->
<g id="node5" class="node">
<title>2</title>
<polygon fill="lightgrey" stroke="black" points="813,-108 580,-108 580,-72 813,-72 813,-108"/>
<text text-anchor="middle" x="696.5" y="-87.5" font-family="Fira Mono" font-size="10.00">CLOSER&#45;MOP:STANDARD&#45;GENERIC&#45;FUNCTION</text>
</g>
<!-- 1&#45;&gt;2 -->
<g id="edge3" class="edge">
<title>1&#45;&gt;2</title>
<path fill="none" stroke="black" d="M490.69,-36.03C529.77,-46.09 579.4,-58.86 620.13,-69.35"/>
<polygon fill="none" stroke="black" points="619.46,-72.79 630.01,-71.89 621.2,-66.01 619.46,-72.79"/>
</g>
<!-- 5 -->
<g id="node3" class="node">
<title>5</title>
<polygon fill="lightgrey" stroke="black" points="254,-180 15,-180 15,-144 254,-144 254,-180"/>
<text text-anchor="middle" x="134.5" y="-159.5" font-family="Fira Mono" font-size="10.00">CL&#45;DATA&#45;STRUCTURES.META:GROW&#45;FUNCTION</text>
</g>
<!-- 4&#45;&gt;5 -->
<g id="edge4" class="edge">
<title>4&#45;&gt;5</title>
<path fill="none" stroke="black" d="M134.5,-108.3C134.5,-116.02 134.5,-125.29 134.5,-133.89"/>
<polygon fill="none" stroke="black" points="131,-133.9 134.5,-143.9 138,-133.9 131,-133.9"/>
</g>
</g>
</svg>
