<?xml version="1.0" encoding="UTF-8" standalone="no"?>
<!DOCTYPE svg PUBLIC "-//W3C//DTD SVG 1.1//EN"
 "http://www.w3.org/Graphics/SVG/1.1/DTD/svg11.dtd">
<!-- Generated by graphviz version 2.50.0 (0)
 -->
<!-- Pages: 1 -->
<svg width="283pt" height="260pt"
 viewBox="0.00 0.00 283.00 260.00" xmlns="http://www.w3.org/2000/svg" xmlns:xlink="http://www.w3.org/1999/xlink">
<g id="graph0" class="graph" transform="scale(1 1) rotate(0) translate(4 256)">
<polygon fill="transparent" stroke="transparent" points="-4,4 -4,-256 279,-256 279,4 -4,4"/>
<!-- 1 -->
<g id="node1" class="node">
<title>1</title>
<polygon fill="lightgrey" stroke="black" points="275,-36 0,-36 0,0 275,0 275,-36"/>
<text text-anchor="middle" x="137.5" y="-15.5" font-family="Fira Mono" font-size="10.00">CL&#45;DATA&#45;STRUCTURES.META:FUNCTIONAL&#45;FUNCTION</text>
</g>
<!-- 2 -->
<g id="node2" class="node">
<title>2</title>
<polygon fill="lightgrey" stroke="black" points="248,-108 27,-108 27,-72 248,-72 248,-108"/>
<text text-anchor="middle" x="137.5" y="-87.5" font-family="Fira Mono" font-size="10.00">SB&#45;MOP:FUNCALLABLE&#45;STANDARD&#45;OBJECT</text>
</g>
<!-- 1&#45;&gt;2 -->
<g id="edge1" class="edge">
<title>1&#45;&gt;2</title>
<path fill="none" stroke="black" d="M137.5,-36.3C137.5,-44.02 137.5,-53.29 137.5,-61.89"/>
<polygon fill="none" stroke="black" points="134,-61.9 137.5,-71.9 141,-61.9 134,-61.9"/>
</g>
<!-- 3 -->
<g id="node3" class="node">
<title>3</title>
<polygon fill="lightgrey" stroke="black" points="206,-180 69,-180 69,-144 206,-144 206,-180"/>
<text text-anchor="middle" x="137.5" y="-159.5" font-family="Fira Mono" font-size="10.00">COMMON&#45;LISP:FUNCTION</text>
</g>
<!-- 2&#45;&gt;3 -->
<g id="edge2" class="edge">
<title>2&#45;&gt;3</title>
<path fill="none" stroke="black" d="M137.5,-108.3C137.5,-116.02 137.5,-125.29 137.5,-133.89"/>
<polygon fill="none" stroke="black" points="134,-133.9 137.5,-143.9 141,-133.9 134,-133.9"/>
</g>
<!-- 4 -->
<g id="node4" class="node">
<title>4</title>
<polygon fill="lightgrey" stroke="black" points="185,-252 90,-252 90,-216 185,-216 185,-252"/>
<text text-anchor="middle" x="137.5" y="-231.5" font-family="Fira Mono" font-size="10.00">COMMON&#45;LISP:T</text>
</g>
<!-- 3&#45;&gt;4 -->
<g id="edge3" class="edge">
<title>3&#45;&gt;4</title>
<path fill="none" stroke="black" d="M137.5,-180.3C137.5,-188.02 137.5,-197.29 137.5,-205.89"/>
<polygon fill="none" stroke="black" points="134,-205.9 137.5,-215.9 141,-205.9 134,-205.9"/>
</g>
</g>
</svg>
