<?xml version="1.0" encoding="UTF-8" standalone="no"?>
<!DOCTYPE svg PUBLIC "-//W3C//DTD SVG 1.1//EN"
 "http://www.w3.org/Graphics/SVG/1.1/DTD/svg11.dtd">
<!-- Generated by graphviz version 2.40.1 (20161225.0304)
 -->
<!-- Title: %3 Pages: 1 -->
<svg width="809pt" height="188pt"
 viewBox="0.00 0.00 809.00 188.00" xmlns="http://www.w3.org/2000/svg" xmlns:xlink="http://www.w3.org/1999/xlink">
<g id="graph0" class="graph" transform="scale(1 1) rotate(0) translate(4 184)">
<title>%3</title>
<polygon fill="transparent" stroke="transparent" points="-4,4 -4,-184 805,-184 805,4 -4,4"/>
<!-- 1 -->
<g id="node1" class="node">
<title>1</title>
<polygon fill="#d3d3d3" stroke="#000000" points="538,-36 281,-36 281,0 538,0 538,-36"/>
<text text-anchor="middle" x="409.5" y="-15.5" font-family="Fira Mono" font-size="10.00" fill="#000000">CL&#45;DATA&#45;STRUCTURES.META:UPDATE!&#45;FUNCTION</text>
</g>
<!-- 4 -->
<g id="node2" class="node">
<title>4</title>
<polygon fill="#d3d3d3" stroke="#000000" points="251,-108 0,-108 0,-72 251,-72 251,-108"/>
<text text-anchor="middle" x="125.5" y="-87.5" font-family="Fira Mono" font-size="10.00" fill="#000000">CL&#45;DATA&#45;STRUCTURES.META:UPDATE&#45;FUNCTION</text>
</g>
<!-- 1&#45;&gt;4 -->
<g id="edge1" class="edge">
<title>1&#45;&gt;4</title>
<path fill="none" stroke="#000000" d="M338.2014,-36.0757C298.1953,-46.2181 248.1373,-58.9088 206.635,-69.4306"/>
<polygon fill="none" stroke="#000000" points="205.6612,-66.0666 196.8279,-71.9169 207.3814,-72.852 205.6612,-66.0666"/>
</g>
<!-- 3 -->
<g id="node4" class="node">
<title>3</title>
<polygon fill="#d3d3d3" stroke="#000000" points="550,-108 269,-108 269,-72 550,-72 550,-108"/>
<text text-anchor="middle" x="409.5" y="-87.5" font-family="Fira Mono" font-size="10.00" fill="#000000">CL&#45;DATA&#45;STRUCTURES.META:DESTRUCTIVE&#45;FUNCTION</text>
</g>
<!-- 1&#45;&gt;3 -->
<g id="edge2" class="edge">
<title>1&#45;&gt;3</title>
<path fill="none" stroke="#000000" d="M409.5,-36.1686C409.5,-43.869 409.5,-53.0257 409.5,-61.5834"/>
<polygon fill="none" stroke="#000000" points="406.0001,-61.5867 409.5,-71.5867 413.0001,-61.5868 406.0001,-61.5867"/>
</g>
<!-- 2 -->
<g id="node5" class="node">
<title>2</title>
<polygon fill="#d3d3d3" stroke="#000000" points="801,-108 568,-108 568,-72 801,-72 801,-108"/>
<text text-anchor="middle" x="684.5" y="-87.5" font-family="Fira Mono" font-size="10.00" fill="#000000">CLOSER&#45;MOP:STANDARD&#45;GENERIC&#45;FUNCTION</text>
</g>
<!-- 1&#45;&gt;2 -->
<g id="edge3" class="edge">
<title>1&#45;&gt;2</title>
<path fill="none" stroke="#000000" d="M478.5392,-36.0757C517.1957,-46.1967 565.5446,-58.8553 605.6817,-69.3639"/>
<polygon fill="none" stroke="#000000" points="604.872,-72.7698 615.4324,-71.9169 606.645,-65.9981 604.872,-72.7698"/>
</g>
<!-- 5 -->
<g id="node3" class="node">
<title>5</title>
<polygon fill="#d3d3d3" stroke="#000000" points="245,-180 6,-180 6,-144 245,-144 245,-180"/>
<text text-anchor="middle" x="125.5" y="-159.5" font-family="Fira Mono" font-size="10.00" fill="#000000">CL&#45;DATA&#45;STRUCTURES.META:GROW&#45;FUNCTION</text>
</g>
<!-- 4&#45;&gt;5 -->
<g id="edge4" class="edge">
<title>4&#45;&gt;5</title>
<path fill="none" stroke="#000000" d="M125.5,-108.1686C125.5,-115.869 125.5,-125.0257 125.5,-133.5834"/>
<polygon fill="none" stroke="#000000" points="122.0001,-133.5867 125.5,-143.5867 129.0001,-133.5868 122.0001,-133.5867"/>
</g>
</g>
</svg>
