<?xml version="1.0" encoding="UTF-8" standalone="no"?>
<!DOCTYPE svg PUBLIC "-//W3C//DTD SVG 1.1//EN"
 "http://www.w3.org/Graphics/SVG/1.1/DTD/svg11.dtd">
<!-- Generated by graphviz version 2.40.1 (20161225.0304)
 -->
<!-- Title: %3 Pages: 1 -->
<svg width="712pt" height="404pt"
 viewBox="0.00 0.00 712.00 404.00" xmlns="http://www.w3.org/2000/svg" xmlns:xlink="http://www.w3.org/1999/xlink">
<g id="graph0" class="graph" transform="scale(1 1) rotate(0) translate(4 400)">
<title>%3</title>
<polygon fill="transparent" stroke="transparent" points="-4,4 -4,-400 708,-400 708,4 -4,4"/>
<!-- 1 -->
<g id="node1" class="node">
<title>1</title>
<polygon fill="#d3d3d3" stroke="#000000" points="536,-36 177,-36 177,0 536,0 536,-36"/>
<text text-anchor="middle" x="356.5" y="-15.5" font-family="Fira Mono" font-size="10.00" fill="#000000">CL&#45;DATA&#45;STRUCTURES.DICTS:TRANSACTIONAL&#45;HASHING&#45;DICTIONARY</text>
</g>
<!-- 6 -->
<g id="node2" class="node">
<title>6</title>
<polygon fill="#d3d3d3" stroke="#000000" points="339,-108 28,-108 28,-72 339,-72 339,-108"/>
<text text-anchor="middle" x="183.5" y="-87.5" font-family="Fira Mono" font-size="10.00" fill="#000000">CL&#45;DATA&#45;STRUCTURES.DICTS:TRANSACTIONAL&#45;DICTIONARY</text>
</g>
<!-- 1&#45;&gt;6 -->
<g id="edge1" class="edge">
<title>1&#45;&gt;6</title>
<path fill="none" stroke="#000000" d="M312.8448,-36.1686C289.6042,-45.841 260.8432,-57.8109 236.3477,-68.0056"/>
<polygon fill="none" stroke="#000000" points="234.7288,-64.8883 226.8413,-71.962 237.4185,-71.3509 234.7288,-64.8883"/>
</g>
<!-- 2 -->
<g id="node6" class="node">
<title>2</title>
<polygon fill="#d3d3d3" stroke="#000000" points="704,-108 357,-108 357,-72 704,-72 704,-108"/>
<text text-anchor="middle" x="530.5" y="-87.5" font-family="Fira Mono" font-size="10.00" fill="#000000">CL&#45;DATA&#45;STRUCTURES.DICTS:FUNDAMENTAL&#45;HASHING&#45;DICTIONARY</text>
</g>
<!-- 1&#45;&gt;2 -->
<g id="edge2" class="edge">
<title>1&#45;&gt;2</title>
<path fill="none" stroke="#000000" d="M400.4075,-36.1686C423.7824,-45.841 452.7097,-57.8109 477.3468,-68.0056"/>
<polygon fill="none" stroke="#000000" points="476.3298,-71.3725 486.9082,-71.962 479.0063,-64.9044 476.3298,-71.3725"/>
</g>
<!-- 9 -->
<g id="node3" class="node">
<title>9</title>
<polygon fill="#d3d3d3" stroke="#000000" points="209,-180 0,-180 0,-144 209,-144 209,-180"/>
<text text-anchor="middle" x="104.5" y="-159.5" font-family="Fira Mono" font-size="10.00" fill="#000000">CL&#45;DATA&#45;STRUCTURES:TRANSACTIONAL</text>
</g>
<!-- 6&#45;&gt;9 -->
<g id="edge3" class="edge">
<title>6&#45;&gt;9</title>
<path fill="none" stroke="#000000" d="M163.565,-108.1686C154.0217,-116.8663 142.4401,-127.4217 132.0694,-136.8735"/>
<polygon fill="none" stroke="#000000" points="129.462,-134.5143 124.4287,-143.8372 134.1772,-139.6879 129.462,-134.5143"/>
</g>
<!-- 7 -->
<g id="node4" class="node">
<title>7</title>
<polygon fill="#d3d3d3" stroke="#000000" points="502,-180 227,-180 227,-144 502,-144 502,-180"/>
<text text-anchor="middle" x="364.5" y="-159.5" font-family="Fira Mono" font-size="10.00" fill="#000000">CL&#45;DATA&#45;STRUCTURES.DICTS:MUTABLE&#45;DICTIONARY</text>
</g>
<!-- 6&#45;&gt;7 -->
<g id="edge4" class="edge">
<title>6&#45;&gt;7</title>
<path fill="none" stroke="#000000" d="M229.1739,-108.1686C253.5968,-117.8838 283.8466,-129.9169 309.5484,-140.1408"/>
<polygon fill="none" stroke="#000000" points="308.569,-143.5179 319.1545,-143.962 311.1563,-137.0136 308.569,-143.5179"/>
</g>
<!-- 8 -->
<g id="node5" class="node">
<title>8</title>
<polygon fill="#d3d3d3" stroke="#000000" points="280,-252 107,-252 107,-216 280,-216 280,-252"/>
<text text-anchor="middle" x="193.5" y="-231.5" font-family="Fira Mono" font-size="10.00" fill="#000000">CL&#45;DATA&#45;STRUCTURES:MUTABLE</text>
</g>
<!-- 9&#45;&gt;8 -->
<g id="edge5" class="edge">
<title>9&#45;&gt;8</title>
<path fill="none" stroke="#000000" d="M126.9585,-180.1686C137.9205,-189.0368 151.2699,-199.8363 163.1265,-209.4282"/>
<polygon fill="none" stroke="#000000" points="161.0729,-212.2687 171.0487,-215.8372 165.4755,-206.8266 161.0729,-212.2687"/>
</g>
<!-- 7&#45;&gt;8 -->
<g id="edge6" class="edge">
<title>7&#45;&gt;8</title>
<path fill="none" stroke="#000000" d="M321.3495,-180.1686C298.3776,-189.841 269.9491,-201.8109 245.7368,-212.0056"/>
<polygon fill="none" stroke="#000000" points="244.1984,-208.8557 236.3402,-215.962 246.9148,-215.3071 244.1984,-208.8557"/>
</g>
<!-- 3 -->
<g id="node7" class="node">
<title>3</title>
<polygon fill="#d3d3d3" stroke="#000000" points="597,-252 298,-252 298,-216 597,-216 597,-252"/>
<text text-anchor="middle" x="447.5" y="-231.5" font-family="Fira Mono" font-size="10.00" fill="#000000">CL&#45;DATA&#45;STRUCTURES.DICTS:FUNDAMENTAL&#45;DICTIONARY</text>
</g>
<!-- 7&#45;&gt;3 -->
<g id="edge7" class="edge">
<title>7&#45;&gt;3</title>
<path fill="none" stroke="#000000" d="M385.4444,-180.1686C395.5691,-188.9515 407.8777,-199.6288 418.8548,-209.1511"/>
<polygon fill="none" stroke="#000000" points="416.7149,-211.9282 426.5623,-215.8372 421.3019,-206.6405 416.7149,-211.9282"/>
</g>
<!-- 4 -->
<g id="node8" class="node">
<title>4</title>
<polygon fill="#d3d3d3" stroke="#000000" points="449,-324 192,-324 192,-288 449,-288 449,-324"/>
<text text-anchor="middle" x="320.5" y="-303.5" font-family="Fira Mono" font-size="10.00" fill="#000000">CL&#45;DATA&#45;STRUCTURES:FUNDAMENTAL&#45;CONTAINER</text>
</g>
<!-- 8&#45;&gt;4 -->
<g id="edge8" class="edge">
<title>8&#45;&gt;4</title>
<path fill="none" stroke="#000000" d="M225.5475,-252.1686C241.942,-261.4632 262.0786,-272.8792 279.5829,-282.8029"/>
<polygon fill="none" stroke="#000000" points="278.0374,-285.95 288.4628,-287.8372 281.4897,-279.8605 278.0374,-285.95"/>
</g>
<!-- 2&#45;&gt;3 -->
<g id="edge9" class="edge">
<title>2&#45;&gt;3</title>
<path fill="none" stroke="#000000" d="M530.0891,-108.1583C528.9102,-127.2819 524.8607,-157.6604 511.5,-180 504.7289,-191.3216 494.7168,-201.4018 484.6121,-209.6981"/>
<polygon fill="none" stroke="#000000" points="482.3009,-207.0615 476.5487,-215.9588 486.5938,-212.5906 482.3009,-207.0615"/>
</g>
<!-- 3&#45;&gt;4 -->
<g id="edge10" class="edge">
<title>3&#45;&gt;4</title>
<path fill="none" stroke="#000000" d="M415.4525,-252.1686C399.058,-261.4632 378.9214,-272.8792 361.4171,-282.8029"/>
<polygon fill="none" stroke="#000000" points="359.5103,-279.8605 352.5372,-287.8372 362.9626,-285.95 359.5103,-279.8605"/>
</g>
<!-- 5 -->
<g id="node9" class="node">
<title>5</title>
<polygon fill="#d3d3d3" stroke="#000000" points="419,-396 222,-396 222,-360 419,-360 419,-396"/>
<text text-anchor="middle" x="320.5" y="-375.5" font-family="Fira Mono" font-size="10.00" fill="#000000">CL&#45;DATA&#45;STRUCTURES:TRAVERSABLE</text>
</g>
<!-- 4&#45;&gt;5 -->
<g id="edge11" class="edge">
<title>4&#45;&gt;5</title>
<path fill="none" stroke="#000000" d="M320.5,-324.1686C320.5,-331.869 320.5,-341.0257 320.5,-349.5834"/>
<polygon fill="none" stroke="#000000" points="317.0001,-349.5867 320.5,-359.5867 324.0001,-349.5868 317.0001,-349.5867"/>
</g>
</g>
</svg>
