<?xml version="1.0" encoding="UTF-8" standalone="no"?>
<!DOCTYPE svg PUBLIC "-//W3C//DTD SVG 1.1//EN"
 "http://www.w3.org/Graphics/SVG/1.1/DTD/svg11.dtd">
<!-- Generated by graphviz version 2.44.1 (0)
 -->
<!-- Pages: 1 -->
<svg width="776pt" height="332pt"
 viewBox="0.00 0.00 776.00 332.00" xmlns="http://www.w3.org/2000/svg" xmlns:xlink="http://www.w3.org/1999/xlink">
<g id="graph0" class="graph" transform="scale(1 1) rotate(0) translate(4 328)">
<polygon fill="transparent" stroke="transparent" points="-4,4 -4,-328 772,-328 772,4 -4,4"/>
<!-- 1 -->
<g id="node1" class="node">
<title>1</title>
<polygon fill="lightgrey" stroke="black" points="636,-36 289,-36 289,0 636,0 636,-36"/>
<text text-anchor="middle" x="462.5" y="-15.5" font-family="Fira Mono" font-size="10.00">CL&#45;DATA&#45;STRUCTURES.QUEUES.2&#45;3&#45;TREE:FUNCTIONAL&#45;2&#45;3&#45;QUEUE</text>
</g>
<!-- 6 -->
<g id="node2" class="node">
<title>6</title>
<polygon fill="lightgrey" stroke="black" points="469,-108 128,-108 128,-72 469,-72 469,-108"/>
<text text-anchor="middle" x="298.5" y="-87.5" font-family="Fira Mono" font-size="10.00">CL&#45;DATA&#45;STRUCTURES.QUEUES:FUNDAMENTAL&#45;FUNCTIONAL&#45;QUEUE</text>
</g>
<!-- 1&#45;&gt;6 -->
<g id="edge1" class="edge">
<title>1&#45;&gt;6</title>
<path fill="none" stroke="black" d="M422.38,-36.12C399.86,-45.74 371.58,-57.81 347.73,-67.99"/>
<polygon fill="none" stroke="black" points="346.31,-64.79 338.49,-71.93 349.06,-71.23 346.31,-64.79"/>
</g>
<!-- 2 -->
<g id="node5" class="node">
<title>2</title>
<polygon fill="lightgrey" stroke="black" points="768,-108 487,-108 487,-72 768,-72 768,-108"/>
<text text-anchor="middle" x="627.5" y="-87.5" font-family="Fira Mono" font-size="10.00">CL&#45;DATA&#45;STRUCTURES.QUEUES.2&#45;3&#45;TREE:2&#45;3&#45;QUEUE</text>
</g>
<!-- 1&#45;&gt;2 -->
<g id="edge2" class="edge">
<title>1&#45;&gt;2</title>
<path fill="none" stroke="black" d="M502.86,-36.12C525.52,-45.74 553.97,-57.81 577.97,-67.99"/>
<polygon fill="none" stroke="black" points="576.69,-71.25 587.27,-71.93 579.43,-64.8 576.69,-71.25"/>
</g>
<!-- 8 -->
<g id="node3" class="node">
<title>8</title>
<polygon fill="lightgrey" stroke="black" points="275,-180 0,-180 0,-144 275,-144 275,-180"/>
<text text-anchor="middle" x="137.5" y="-159.5" font-family="Fira Mono" font-size="10.00">CL&#45;DATA&#45;STRUCTURES.QUEUES:FUNDAMENTAL&#45;QUEUE</text>
</g>
<!-- 6&#45;&gt;8 -->
<g id="edge3" class="edge">
<title>6&#45;&gt;8</title>
<path fill="none" stroke="black" d="M259.11,-108.12C237.11,-117.69 209.49,-129.7 186.14,-139.85"/>
<polygon fill="none" stroke="black" points="184.53,-136.73 176.76,-143.93 187.32,-143.15 184.53,-136.73"/>
</g>
<!-- 7 -->
<g id="node4" class="node">
<title>7</title>
<polygon fill="lightgrey" stroke="black" points="484,-180 293,-180 293,-144 484,-144 484,-180"/>
<text text-anchor="middle" x="388.5" y="-159.5" font-family="Fira Mono" font-size="10.00">CL&#45;DATA&#45;STRUCTURES:FUNCTIONAL</text>
</g>
<!-- 6&#45;&gt;7 -->
<g id="edge4" class="edge">
<title>6&#45;&gt;7</title>
<path fill="none" stroke="black" d="M320.75,-108.3C332.08,-117.12 346.03,-127.97 358.32,-137.53"/>
<polygon fill="none" stroke="black" points="356.47,-140.52 366.51,-143.9 360.76,-134.99 356.47,-140.52"/>
</g>
<!-- 4 -->
<g id="node7" class="node">
<title>4</title>
<polygon fill="lightgrey" stroke="black" points="517,-252 260,-252 260,-216 517,-216 517,-252"/>
<text text-anchor="middle" x="388.5" y="-231.5" font-family="Fira Mono" font-size="10.00">CL&#45;DATA&#45;STRUCTURES:FUNDAMENTAL&#45;CONTAINER</text>
</g>
<!-- 8&#45;&gt;4 -->
<g id="edge5" class="edge">
<title>8&#45;&gt;4</title>
<path fill="none" stroke="black" d="M198.58,-180.03C234.41,-190.03 279.86,-202.7 317.31,-213.15"/>
<polygon fill="none" stroke="black" points="316.57,-216.57 327.15,-215.89 318.45,-209.83 316.57,-216.57"/>
</g>
<!-- 7&#45;&gt;4 -->
<g id="edge6" class="edge">
<title>7&#45;&gt;4</title>
<path fill="none" stroke="black" d="M388.5,-180.3C388.5,-188.02 388.5,-197.29 388.5,-205.89"/>
<polygon fill="none" stroke="black" points="385,-205.9 388.5,-215.9 392,-205.9 385,-205.9"/>
</g>
<!-- 3 -->
<g id="node6" class="node">
<title>3</title>
<polygon fill="lightgrey" stroke="black" points="753,-180 502,-180 502,-144 753,-144 753,-180"/>
<text text-anchor="middle" x="627.5" y="-159.5" font-family="Fira Mono" font-size="10.00">CL&#45;DATA&#45;STRUCTURES.COMMON.2&#45;3&#45;TREE:TREE</text>
</g>
<!-- 2&#45;&gt;3 -->
<g id="edge7" class="edge">
<title>2&#45;&gt;3</title>
<path fill="none" stroke="black" d="M627.5,-108.3C627.5,-116.02 627.5,-125.29 627.5,-133.89"/>
<polygon fill="none" stroke="black" points="624,-133.9 627.5,-143.9 631,-133.9 624,-133.9"/>
</g>
<!-- 3&#45;&gt;4 -->
<g id="edge8" class="edge">
<title>3&#45;&gt;4</title>
<path fill="none" stroke="black" d="M569.34,-180.03C535.37,-189.99 492.32,-202.59 456.74,-213.01"/>
<polygon fill="none" stroke="black" points="455.53,-209.72 446.92,-215.89 457.5,-216.44 455.53,-209.72"/>
</g>
<!-- 5 -->
<g id="node8" class="node">
<title>5</title>
<polygon fill="lightgrey" stroke="black" points="487,-324 290,-324 290,-288 487,-288 487,-324"/>
<text text-anchor="middle" x="388.5" y="-303.5" font-family="Fira Mono" font-size="10.00">CL&#45;DATA&#45;STRUCTURES:TRAVERSABLE</text>
</g>
<!-- 4&#45;&gt;5 -->
<g id="edge9" class="edge">
<title>4&#45;&gt;5</title>
<path fill="none" stroke="black" d="M388.5,-252.3C388.5,-260.02 388.5,-269.29 388.5,-277.89"/>
<polygon fill="none" stroke="black" points="385,-277.9 388.5,-287.9 392,-277.9 385,-277.9"/>
</g>
</g>
</svg>
