<?xml version="1.0" encoding="UTF-8" standalone="no"?>
<!DOCTYPE svg PUBLIC "-//W3C//DTD SVG 1.1//EN"
 "http://www.w3.org/Graphics/SVG/1.1/DTD/svg11.dtd">
<!-- Generated by graphviz version 3.0.0 (0)
 -->
<!-- Pages: 1 -->
<svg width="1028pt" height="404pt"
 viewBox="0.00 0.00 1028.00 404.00" xmlns="http://www.w3.org/2000/svg" xmlns:xlink="http://www.w3.org/1999/xlink">
<g id="graph0" class="graph" transform="scale(1 1) rotate(0) translate(4 400)">
<polygon fill="transparent" stroke="transparent" points="-4,4 -4,-400 1024,-400 1024,4 -4,4"/>
<!-- 1 -->
<g id="node1" class="node">
<title>1</title>
<polygon fill="lightgrey" stroke="black" points="720,-36 385,-36 385,0 720,0 720,-36"/>
<text text-anchor="middle" x="552.5" y="-15.5" font-family="Fira Mono" font-size="10.00">CL&#45;DATA&#45;STRUCTURES.DICTS.HAMT:MUTABLE&#45;HAMT&#45;DICTIONARY</text>
</g>
<!-- 9 -->
<g id="node2" class="node">
<title>9</title>
<polygon fill="lightgrey" stroke="black" points="535,-108 248,-108 248,-72 535,-72 535,-108"/>
<text text-anchor="middle" x="391.5" y="-87.5" font-family="Fira Mono" font-size="10.00">CL&#45;DATA&#45;STRUCTURES.DICTS.HAMT:HAMT&#45;DICTIONARY</text>
</g>
<!-- 1&#45;&gt;9 -->
<g id="edge1" class="edge">
<title>1&#45;&gt;9</title>
<path fill="none" stroke="black" d="M513.11,-36.12C491.11,-45.69 463.49,-57.7 440.14,-67.85"/>
<polygon fill="none" stroke="black" points="438.53,-64.73 430.76,-71.93 441.32,-71.15 438.53,-64.73"/>
</g>
<!-- 2 -->
<g id="node5" class="node">
<title>2</title>
<polygon fill="lightgrey" stroke="black" points="876,-108 553,-108 553,-72 876,-72 876,-108"/>
<text text-anchor="middle" x="714.5" y="-87.5" font-family="Fira Mono" font-size="10.00">CL&#45;DATA&#45;STRUCTURES.DICTS:MUTABLE&#45;HASHING&#45;DICTIONARY</text>
</g>
<!-- 1&#45;&gt;2 -->
<g id="edge2" class="edge">
<title>1&#45;&gt;2</title>
<path fill="none" stroke="black" d="M592.13,-36.12C614.28,-45.69 642.06,-57.7 665.56,-67.85"/>
<polygon fill="none" stroke="black" points="664.43,-71.18 675,-71.93 667.21,-64.75 664.43,-71.18"/>
</g>
<!-- 10 -->
<g id="node3" class="node">
<title>10</title>
<polygon fill="lightgrey" stroke="black" points="362,-180 75,-180 75,-144 362,-144 362,-180"/>
<text text-anchor="middle" x="218.5" y="-159.5" font-family="Fira Mono" font-size="10.00">CL&#45;DATA&#45;STRUCTURES.COMMON.HAMT:HAMT&#45;CONTAINER</text>
</g>
<!-- 9&#45;&gt;10 -->
<g id="edge4" class="edge">
<title>9&#45;&gt;10</title>
<path fill="none" stroke="black" d="M349.18,-108.12C325.32,-117.78 295.33,-129.91 270.1,-140.12"/>
<polygon fill="none" stroke="black" points="268.64,-136.94 260.68,-143.93 271.27,-143.43 268.64,-136.94"/>
</g>
<!-- 3 -->
<g id="node8" class="node">
<title>3</title>
<polygon fill="lightgrey" stroke="black" points="727,-180 380,-180 380,-144 727,-144 727,-180"/>
<text text-anchor="middle" x="553.5" y="-159.5" font-family="Fira Mono" font-size="10.00">CL&#45;DATA&#45;STRUCTURES.DICTS:FUNDAMENTAL&#45;HASHING&#45;DICTIONARY</text>
</g>
<!-- 9&#45;&gt;3 -->
<g id="edge3" class="edge">
<title>9&#45;&gt;3</title>
<path fill="none" stroke="black" d="M431.13,-108.12C453.28,-117.69 481.06,-129.7 504.56,-139.85"/>
<polygon fill="none" stroke="black" points="503.43,-143.18 514,-143.93 506.21,-136.75 503.43,-143.18"/>
</g>
<!-- 11 -->
<g id="node4" class="node">
<title>11</title>
<polygon fill="lightgrey" stroke="black" points="437,-252 0,-252 0,-216 437,-216 437,-252"/>
<text text-anchor="middle" x="218.5" y="-231.5" font-family="Fira Mono" font-size="10.00">CL&#45;DATA&#45;STRUCTURES.COMMON.ABSTRACT:FUNDAMENTAL&#45;OWNERSHIP&#45;TAGGED&#45;OBJECT</text>
</g>
<!-- 10&#45;&gt;11 -->
<g id="edge5" class="edge">
<title>10&#45;&gt;11</title>
<path fill="none" stroke="black" d="M218.5,-180.3C218.5,-188.02 218.5,-197.29 218.5,-205.89"/>
<polygon fill="none" stroke="black" points="215,-205.9 218.5,-215.9 222,-205.9 215,-205.9"/>
</g>
<!-- 7 -->
<g id="node6" class="node">
<title>7</title>
<polygon fill="lightgrey" stroke="black" points="1020,-180 745,-180 745,-144 1020,-144 1020,-180"/>
<text text-anchor="middle" x="882.5" y="-159.5" font-family="Fira Mono" font-size="10.00">CL&#45;DATA&#45;STRUCTURES.DICTS:MUTABLE&#45;DICTIONARY</text>
</g>
<!-- 2&#45;&gt;7 -->
<g id="edge6" class="edge">
<title>2&#45;&gt;7</title>
<path fill="none" stroke="black" d="M755.6,-108.12C778.67,-117.74 807.64,-129.81 832.07,-139.99"/>
<polygon fill="none" stroke="black" points="830.96,-143.32 841.54,-143.93 833.65,-136.85 830.96,-143.32"/>
</g>
<!-- 2&#45;&gt;3 -->
<g id="edge7" class="edge">
<title>2&#45;&gt;3</title>
<path fill="none" stroke="black" d="M675.11,-108.12C653.11,-117.69 625.49,-129.7 602.14,-139.85"/>
<polygon fill="none" stroke="black" points="600.53,-136.73 592.76,-143.93 603.32,-143.15 600.53,-136.73"/>
</g>
<!-- 8 -->
<g id="node7" class="node">
<title>8</title>
<polygon fill="lightgrey" stroke="black" points="969,-252 796,-252 796,-216 969,-216 969,-252"/>
<text text-anchor="middle" x="882.5" y="-231.5" font-family="Fira Mono" font-size="10.00">CL&#45;DATA&#45;STRUCTURES:MUTABLE</text>
</g>
<!-- 7&#45;&gt;8 -->
<g id="edge8" class="edge">
<title>7&#45;&gt;8</title>
<path fill="none" stroke="black" d="M882.5,-180.3C882.5,-188.02 882.5,-197.29 882.5,-205.89"/>
<polygon fill="none" stroke="black" points="879,-205.9 882.5,-215.9 886,-205.9 879,-205.9"/>
</g>
<!-- 4 -->
<g id="node9" class="node">
<title>4</title>
<polygon fill="lightgrey" stroke="black" points="778,-252 479,-252 479,-216 778,-216 778,-252"/>
<text text-anchor="middle" x="628.5" y="-231.5" font-family="Fira Mono" font-size="10.00">CL&#45;DATA&#45;STRUCTURES.DICTS:FUNDAMENTAL&#45;DICTIONARY</text>
</g>
<!-- 7&#45;&gt;4 -->
<g id="edge9" class="edge">
<title>7&#45;&gt;4</title>
<path fill="none" stroke="black" d="M820.69,-180.03C784.43,-190.03 738.44,-202.7 700.54,-213.15"/>
<polygon fill="none" stroke="black" points="699.3,-209.86 690.59,-215.89 701.16,-216.61 699.3,-209.86"/>
</g>
<!-- 5 -->
<g id="node10" class="node">
<title>5</title>
<polygon fill="lightgrey" stroke="black" points="884,-324 627,-324 627,-288 884,-288 884,-324"/>
<text text-anchor="middle" x="755.5" y="-303.5" font-family="Fira Mono" font-size="10.00">CL&#45;DATA&#45;STRUCTURES:FUNDAMENTAL&#45;CONTAINER</text>
</g>
<!-- 8&#45;&gt;5 -->
<g id="edge10" class="edge">
<title>8&#45;&gt;5</title>
<path fill="none" stroke="black" d="M851.43,-252.12C834.67,-261.36 813.79,-272.87 795.8,-282.79"/>
<polygon fill="none" stroke="black" points="793.76,-279.92 786.69,-287.81 797.13,-286.05 793.76,-279.92"/>
</g>
<!-- 3&#45;&gt;4 -->
<g id="edge11" class="edge">
<title>3&#45;&gt;4</title>
<path fill="none" stroke="black" d="M572.04,-180.3C581.3,-188.95 592.66,-199.55 602.76,-208.97"/>
<polygon fill="none" stroke="black" points="600.48,-211.63 610.17,-215.9 605.25,-206.51 600.48,-211.63"/>
</g>
<!-- 4&#45;&gt;5 -->
<g id="edge12" class="edge">
<title>4&#45;&gt;5</title>
<path fill="none" stroke="black" d="M659.57,-252.12C676.33,-261.36 697.21,-272.87 715.2,-282.79"/>
<polygon fill="none" stroke="black" points="713.87,-286.05 724.31,-287.81 717.24,-279.92 713.87,-286.05"/>
</g>
<!-- 6 -->
<g id="node11" class="node">
<title>6</title>
<polygon fill="lightgrey" stroke="black" points="854,-396 657,-396 657,-360 854,-360 854,-396"/>
<text text-anchor="middle" x="755.5" y="-375.5" font-family="Fira Mono" font-size="10.00">CL&#45;DATA&#45;STRUCTURES:TRAVERSABLE</text>
</g>
<!-- 5&#45;&gt;6 -->
<g id="edge13" class="edge">
<title>5&#45;&gt;6</title>
<path fill="none" stroke="black" d="M755.5,-324.3C755.5,-332.02 755.5,-341.29 755.5,-349.89"/>
<polygon fill="none" stroke="black" points="752,-349.9 755.5,-359.9 759,-349.9 752,-349.9"/>
</g>
</g>
</svg>
