<?xml version="1.0" encoding="UTF-8" standalone="no"?>
<!DOCTYPE svg PUBLIC "-//W3C//DTD SVG 1.1//EN"
 "http://www.w3.org/Graphics/SVG/1.1/DTD/svg11.dtd">
<!-- Generated by graphviz version 2.40.1 (20161225.0304)
 -->
<!-- Title: %3 Pages: 1 -->
<svg width="698pt" height="260pt"
 viewBox="0.00 0.00 698.00 260.00" xmlns="http://www.w3.org/2000/svg" xmlns:xlink="http://www.w3.org/1999/xlink">
<g id="graph0" class="graph" transform="scale(1 1) rotate(0) translate(4 256)">
<title>%3</title>
<polygon fill="transparent" stroke="transparent" points="-4,4 -4,-256 694,-256 694,4 -4,4"/>
<!-- 1 -->
<g id="node1" class="node">
<title>1</title>
<polygon fill="#d3d3d3" stroke="#000000" points="570,-36 343,-36 343,0 570,0 570,-36"/>
<text text-anchor="middle" x="456.5" y="-15.5" font-family="Fira Mono" font-size="10.00" fill="#000000">CL&#45;DATA&#45;STRUCTURES:INVALID&#45;ARGUMENT</text>
</g>
<!-- 3 -->
<g id="node2" class="node">
<title>3</title>
<polygon fill="#d3d3d3" stroke="#000000" points="445,-108 230,-108 230,-72 445,-72 445,-108"/>
<text text-anchor="middle" x="337.5" y="-87.5" font-family="Fira Mono" font-size="10.00" fill="#000000">CL&#45;DATA&#45;STRUCTURES:ARGUMENT&#45;ERROR</text>
</g>
<!-- 1&#45;&gt;3 -->
<g id="edge1" class="edge">
<title>1&#45;&gt;3</title>
<path fill="none" stroke="#000000" d="M426.4713,-36.1686C411.2504,-45.3779 392.5872,-56.6699 376.2917,-66.5294"/>
<polygon fill="none" stroke="#000000" points="374.2631,-63.6659 367.5191,-71.8372 377.8868,-69.655 374.2631,-63.6659"/>
</g>
<!-- 2 -->
<g id="node7" class="node">
<title>2</title>
<polygon fill="#d3d3d3" stroke="#000000" points="690,-108 463,-108 463,-72 690,-72 690,-108"/>
<text text-anchor="middle" x="576.5" y="-87.5" font-family="Fira Mono" font-size="10.00" fill="#000000">MORE&#45;CONDITIONS:REFERENCE&#45;CONDITION</text>
</g>
<!-- 1&#45;&gt;2 -->
<g id="edge2" class="edge">
<title>1&#45;&gt;2</title>
<path fill="none" stroke="#000000" d="M486.7811,-36.1686C502.1298,-45.3779 520.9498,-56.6699 537.3823,-66.5294"/>
<polygon fill="none" stroke="#000000" points="535.8529,-69.6934 546.2286,-71.8372 539.4544,-63.6909 535.8529,-69.6934"/>
</g>
<!-- 4 -->
<g id="node3" class="node">
<title>4</title>
<polygon fill="#d3d3d3" stroke="#000000" points="442,-180 233,-180 233,-144 442,-144 442,-180"/>
<text text-anchor="middle" x="337.5" y="-159.5" font-family="Fira Mono" font-size="10.00" fill="#000000">CL&#45;DATA&#45;STRUCTURES:TEXTUAL&#45;ERROR</text>
</g>
<!-- 3&#45;&gt;4 -->
<g id="edge3" class="edge">
<title>3&#45;&gt;4</title>
<path fill="none" stroke="#000000" d="M337.5,-108.1686C337.5,-115.869 337.5,-125.0257 337.5,-133.5834"/>
<polygon fill="none" stroke="#000000" points="334.0001,-133.5867 337.5,-143.5867 341.0001,-133.5868 334.0001,-133.5867"/>
</g>
<!-- 7 -->
<g id="node4" class="node">
<title>7</title>
<polygon fill="#d3d3d3" stroke="#000000" points="227,-252 0,-252 0,-216 227,-216 227,-252"/>
<text text-anchor="middle" x="113.5" y="-231.5" font-family="Fira Mono" font-size="10.00" fill="#000000">MORE&#45;CONDITIONS:CHAINABLE&#45;CONDITION</text>
</g>
<!-- 4&#45;&gt;7 -->
<g id="edge4" class="edge">
<title>4&#45;&gt;7</title>
<path fill="none" stroke="#000000" d="M281.2645,-180.0757C250.3761,-190.0041 211.8904,-202.3745 179.5744,-212.7618"/>
<polygon fill="none" stroke="#000000" points="178.2079,-209.5246 169.7587,-215.9169 180.35,-216.1888 178.2079,-209.5246"/>
</g>
<!-- 6 -->
<g id="node5" class="node">
<title>6</title>
<polygon fill="#d3d3d3" stroke="#000000" points="430,-252 245,-252 245,-216 430,-216 430,-252"/>
<text text-anchor="middle" x="337.5" y="-231.5" font-family="Fira Mono" font-size="10.00" fill="#000000">COMMON&#45;LISP:SIMPLE&#45;CONDITION</text>
</g>
<!-- 4&#45;&gt;6 -->
<g id="edge5" class="edge">
<title>4&#45;&gt;6</title>
<path fill="none" stroke="#000000" d="M337.5,-180.1686C337.5,-187.869 337.5,-197.0257 337.5,-205.5834"/>
<polygon fill="none" stroke="#000000" points="334.0001,-205.5867 337.5,-215.5867 341.0001,-205.5868 334.0001,-205.5867"/>
</g>
<!-- 5 -->
<g id="node6" class="node">
<title>5</title>
<polygon fill="#d3d3d3" stroke="#000000" points="615,-252 448,-252 448,-216 615,-216 615,-252"/>
<text text-anchor="middle" x="531.5" y="-231.5" font-family="Fira Mono" font-size="10.00" fill="#000000">COMMON&#45;LISP:PROGRAM&#45;ERROR</text>
</g>
<!-- 4&#45;&gt;5 -->
<g id="edge6" class="edge">
<title>4&#45;&gt;5</title>
<path fill="none" stroke="#000000" d="M386.4544,-180.1686C412.862,-189.9694 445.6256,-202.1291 473.3286,-212.4106"/>
<polygon fill="none" stroke="#000000" points="472.3047,-215.7638 482.8976,-215.962 474.7403,-209.2012 472.3047,-215.7638"/>
</g>
</g>
</svg>
