<?xml version="1.0" encoding="UTF-8" standalone="no"?>
<!DOCTYPE svg PUBLIC "-//W3C//DTD SVG 1.1//EN"
 "http://www.w3.org/Graphics/SVG/1.1/DTD/svg11.dtd">
<!-- Generated by graphviz version 2.50.0 (0)
 -->
<!-- Pages: 1 -->
<svg width="1046pt" height="404pt"
 viewBox="0.00 0.00 1046.00 404.00" xmlns="http://www.w3.org/2000/svg" xmlns:xlink="http://www.w3.org/1999/xlink">
<g id="graph0" class="graph" transform="scale(1 1) rotate(0) translate(4 400)">
<polygon fill="transparent" stroke="transparent" points="-4,4 -4,-400 1042,-400 1042,4 -4,4"/>
<!-- 1 -->
<g id="node1" class="node">
<title>1</title>
<polygon fill="lightgrey" stroke="black" points="730,-36 377,-36 377,0 730,0 730,-36"/>
<text text-anchor="middle" x="553.5" y="-15.5" font-family="Fira Mono" font-size="10.00">CL&#45;DATA&#45;STRUCTURES.DICTS.HAMT:FUNCTIONAL&#45;HAMT&#45;DICTIONARY</text>
</g>
<!-- 9 -->
<g id="node2" class="node">
<title>9</title>
<polygon fill="lightgrey" stroke="black" points="531,-108 244,-108 244,-72 531,-72 531,-108"/>
<text text-anchor="middle" x="387.5" y="-87.5" font-family="Fira Mono" font-size="10.00">CL&#45;DATA&#45;STRUCTURES.DICTS.HAMT:HAMT&#45;DICTIONARY</text>
</g>
<!-- 1&#45;&gt;9 -->
<g id="edge1" class="edge">
<title>1&#45;&gt;9</title>
<path fill="none" stroke="black" d="M512.89,-36.12C490.1,-45.74 461.47,-57.81 437.33,-67.99"/>
<polygon fill="none" stroke="black" points="435.83,-64.82 427.98,-71.93 438.55,-71.27 435.83,-64.82"/>
</g>
<!-- 2 -->
<g id="node5" class="node">
<title>2</title>
<polygon fill="lightgrey" stroke="black" points="890,-108 549,-108 549,-72 890,-72 890,-108"/>
<text text-anchor="middle" x="719.5" y="-87.5" font-family="Fira Mono" font-size="10.00">CL&#45;DATA&#45;STRUCTURES.DICTS:FUNCTIONAL&#45;HASHING&#45;DICTIONARY</text>
</g>
<!-- 1&#45;&gt;2 -->
<g id="edge2" class="edge">
<title>1&#45;&gt;2</title>
<path fill="none" stroke="black" d="M594.11,-36.12C616.9,-45.74 645.53,-57.81 669.67,-67.99"/>
<polygon fill="none" stroke="black" points="668.45,-71.27 679.02,-71.93 671.17,-64.82 668.45,-71.27"/>
</g>
<!-- 10 -->
<g id="node3" class="node">
<title>10</title>
<polygon fill="lightgrey" stroke="black" points="362,-180 75,-180 75,-144 362,-144 362,-180"/>
<text text-anchor="middle" x="218.5" y="-159.5" font-family="Fira Mono" font-size="10.00">CL&#45;DATA&#45;STRUCTURES.COMMON.HAMT:HAMT&#45;CONTAINER</text>
</g>
<!-- 9&#45;&gt;10 -->
<g id="edge4" class="edge">
<title>9&#45;&gt;10</title>
<path fill="none" stroke="black" d="M346.16,-108.12C322.95,-117.74 293.81,-129.81 269.23,-139.99"/>
<polygon fill="none" stroke="black" points="267.61,-136.87 259.71,-143.93 270.29,-143.34 267.61,-136.87"/>
</g>
<!-- 3 -->
<g id="node8" class="node">
<title>3</title>
<polygon fill="lightgrey" stroke="black" points="727,-180 380,-180 380,-144 727,-144 727,-180"/>
<text text-anchor="middle" x="553.5" y="-159.5" font-family="Fira Mono" font-size="10.00">CL&#45;DATA&#45;STRUCTURES.DICTS:FUNDAMENTAL&#45;HASHING&#45;DICTIONARY</text>
</g>
<!-- 9&#45;&gt;3 -->
<g id="edge3" class="edge">
<title>9&#45;&gt;3</title>
<path fill="none" stroke="black" d="M428.11,-108.12C450.9,-117.74 479.53,-129.81 503.67,-139.99"/>
<polygon fill="none" stroke="black" points="502.45,-143.27 513.02,-143.93 505.17,-136.82 502.45,-143.27"/>
</g>
<!-- 11 -->
<g id="node4" class="node">
<title>11</title>
<polygon fill="lightgrey" stroke="black" points="437,-252 0,-252 0,-216 437,-216 437,-252"/>
<text text-anchor="middle" x="218.5" y="-231.5" font-family="Fira Mono" font-size="10.00">CL&#45;DATA&#45;STRUCTURES.COMMON.ABSTRACT:FUNDAMENTAL&#45;OWNERSHIP&#45;TAGGED&#45;OBJECT</text>
</g>
<!-- 10&#45;&gt;11 -->
<g id="edge5" class="edge">
<title>10&#45;&gt;11</title>
<path fill="none" stroke="black" d="M218.5,-180.3C218.5,-188.02 218.5,-197.29 218.5,-205.89"/>
<polygon fill="none" stroke="black" points="215,-205.9 218.5,-215.9 222,-205.9 215,-205.9"/>
</g>
<!-- 7 -->
<g id="node6" class="node">
<title>7</title>
<polygon fill="lightgrey" stroke="black" points="1038,-180 745,-180 745,-144 1038,-144 1038,-180"/>
<text text-anchor="middle" x="891.5" y="-159.5" font-family="Fira Mono" font-size="10.00">CL&#45;DATA&#45;STRUCTURES.DICTS:FUNCTIONAL&#45;DICTIONARY</text>
</g>
<!-- 2&#45;&gt;7 -->
<g id="edge6" class="edge">
<title>2&#45;&gt;7</title>
<path fill="none" stroke="black" d="M761.58,-108.12C785.3,-117.78 815.12,-129.91 840.2,-140.12"/>
<polygon fill="none" stroke="black" points="838.98,-143.4 849.56,-143.93 841.62,-136.92 838.98,-143.4"/>
</g>
<!-- 2&#45;&gt;3 -->
<g id="edge7" class="edge">
<title>2&#45;&gt;3</title>
<path fill="none" stroke="black" d="M678.89,-108.12C656.1,-117.74 627.47,-129.81 603.33,-139.99"/>
<polygon fill="none" stroke="black" points="601.83,-136.82 593.98,-143.93 604.55,-143.27 601.83,-136.82"/>
</g>
<!-- 8 -->
<g id="node7" class="node">
<title>8</title>
<polygon fill="lightgrey" stroke="black" points="987,-252 796,-252 796,-216 987,-216 987,-252"/>
<text text-anchor="middle" x="891.5" y="-231.5" font-family="Fira Mono" font-size="10.00">CL&#45;DATA&#45;STRUCTURES:FUNCTIONAL</text>
</g>
<!-- 7&#45;&gt;8 -->
<g id="edge8" class="edge">
<title>7&#45;&gt;8</title>
<path fill="none" stroke="black" d="M891.5,-180.3C891.5,-188.02 891.5,-197.29 891.5,-205.89"/>
<polygon fill="none" stroke="black" points="888,-205.9 891.5,-215.9 895,-205.9 888,-205.9"/>
</g>
<!-- 4 -->
<g id="node9" class="node">
<title>4</title>
<polygon fill="lightgrey" stroke="black" points="778,-252 479,-252 479,-216 778,-216 778,-252"/>
<text text-anchor="middle" x="628.5" y="-231.5" font-family="Fira Mono" font-size="10.00">CL&#45;DATA&#45;STRUCTURES.DICTS:FUNDAMENTAL&#45;DICTIONARY</text>
</g>
<!-- 7&#45;&gt;4 -->
<g id="edge9" class="edge">
<title>7&#45;&gt;4</title>
<path fill="none" stroke="black" d="M827.5,-180.03C789.79,-190.07 741.93,-202.81 702.59,-213.28"/>
<polygon fill="none" stroke="black" points="701.55,-209.93 692.79,-215.89 703.35,-216.7 701.55,-209.93"/>
</g>
<!-- 5 -->
<g id="node10" class="node">
<title>5</title>
<polygon fill="lightgrey" stroke="black" points="888,-324 631,-324 631,-288 888,-288 888,-324"/>
<text text-anchor="middle" x="759.5" y="-303.5" font-family="Fira Mono" font-size="10.00">CL&#45;DATA&#45;STRUCTURES:FUNDAMENTAL&#45;CONTAINER</text>
</g>
<!-- 8&#45;&gt;5 -->
<g id="edge10" class="edge">
<title>8&#45;&gt;5</title>
<path fill="none" stroke="black" d="M859.21,-252.12C841.63,-261.45 819.69,-273.08 800.87,-283.06"/>
<polygon fill="none" stroke="black" points="799.11,-280.03 791.91,-287.81 802.39,-286.22 799.11,-280.03"/>
</g>
<!-- 3&#45;&gt;4 -->
<g id="edge11" class="edge">
<title>3&#45;&gt;4</title>
<path fill="none" stroke="black" d="M572.04,-180.3C581.3,-188.95 592.66,-199.55 602.76,-208.97"/>
<polygon fill="none" stroke="black" points="600.48,-211.63 610.17,-215.9 605.25,-206.51 600.48,-211.63"/>
</g>
<!-- 4&#45;&gt;5 -->
<g id="edge12" class="edge">
<title>4&#45;&gt;5</title>
<path fill="none" stroke="black" d="M660.55,-252.12C677.99,-261.45 699.77,-273.08 718.44,-283.06"/>
<polygon fill="none" stroke="black" points="716.86,-286.18 727.33,-287.81 720.16,-280.01 716.86,-286.18"/>
</g>
<!-- 6 -->
<g id="node11" class="node">
<title>6</title>
<polygon fill="lightgrey" stroke="black" points="858,-396 661,-396 661,-360 858,-360 858,-396"/>
<text text-anchor="middle" x="759.5" y="-375.5" font-family="Fira Mono" font-size="10.00">CL&#45;DATA&#45;STRUCTURES:TRAVERSABLE</text>
</g>
<!-- 5&#45;&gt;6 -->
<g id="edge13" class="edge">
<title>5&#45;&gt;6</title>
<path fill="none" stroke="black" d="M759.5,-324.3C759.5,-332.02 759.5,-341.29 759.5,-349.89"/>
<polygon fill="none" stroke="black" points="756,-349.9 759.5,-359.9 763,-349.9 756,-349.9"/>
</g>
</g>
</svg>
