<?xml version="1.0" encoding="UTF-8" standalone="no"?>
<!DOCTYPE svg PUBLIC "-//W3C//DTD SVG 1.1//EN"
 "http://www.w3.org/Graphics/SVG/1.1/DTD/svg11.dtd">
<!-- Generated by graphviz version 3.0.0 (0)
 -->
<!-- Pages: 1 -->
<svg width="832pt" height="404pt"
 viewBox="0.00 0.00 832.00 404.00" xmlns="http://www.w3.org/2000/svg" xmlns:xlink="http://www.w3.org/1999/xlink">
<g id="graph0" class="graph" transform="scale(1 1) rotate(0) translate(4 400)">
<polygon fill="transparent" stroke="transparent" points="-4,4 -4,-400 828,-400 828,4 -4,4"/>
<!-- 1 -->
<g id="node1" class="node">
<title>1</title>
<polygon fill="lightgrey" stroke="black" points="727,-36 362,-36 362,0 727,0 727,-36"/>
<text text-anchor="middle" x="544.5" y="-15.5" font-family="Fira Mono" font-size="10.00">CL&#45;DATA&#45;STRUCTURES.DICTS.SRRB:FUNCTIONAL&#45;SPARSE&#45;RRB&#45;VECTOR</text>
</g>
<!-- 8 -->
<g id="node2" class="node">
<title>8</title>
<polygon fill="lightgrey" stroke="black" points="371,-108 0,-108 0,-72 371,-72 371,-108"/>
<text text-anchor="middle" x="185.5" y="-87.5" font-family="Fira Mono" font-size="10.00">CL&#45;DATA&#45;STRUCTURES.DICTS.SRRB:FUNDAMENTAL&#45;SPARSE&#45;RRB&#45;VECTOR</text>
</g>
<!-- 1&#45;&gt;8 -->
<g id="edge1" class="edge">
<title>1&#45;&gt;8</title>
<path fill="none" stroke="black" d="M457.14,-36.03C404.48,-46.3 337.31,-59.4 282.94,-70"/>
<polygon fill="none" stroke="black" points="282.09,-66.6 272.94,-71.95 283.43,-73.47 282.09,-66.6"/>
</g>
<!-- 5 -->
<g id="node3" class="node">
<title>5</title>
<polygon fill="lightgrey" stroke="black" points="700,-108 389,-108 389,-72 700,-72 700,-108"/>
<text text-anchor="middle" x="544.5" y="-87.5" font-family="Fira Mono" font-size="10.00">CL&#45;DATA&#45;STRUCTURES.DICTS:FUNCTIONAL&#45;SPARSE&#45;VECTOR</text>
</g>
<!-- 1&#45;&gt;5 -->
<g id="edge2" class="edge">
<title>1&#45;&gt;5</title>
<path fill="none" stroke="black" d="M544.5,-36.3C544.5,-44.02 544.5,-53.29 544.5,-61.89"/>
<polygon fill="none" stroke="black" points="541,-61.9 544.5,-71.9 548,-61.9 541,-61.9"/>
</g>
<!-- 2 -->
<g id="node6" class="node">
<title>2</title>
<polygon fill="lightgrey" stroke="black" points="824,-180 633,-180 633,-144 824,-144 824,-180"/>
<text text-anchor="middle" x="728.5" y="-159.5" font-family="Fira Mono" font-size="10.00">CL&#45;DATA&#45;STRUCTURES:FUNCTIONAL</text>
</g>
<!-- 1&#45;&gt;2 -->
<g id="edge3" class="edge">
<title>1&#45;&gt;2</title>
<path fill="none" stroke="black" d="M651.41,-36C672.76,-43.86 693.27,-55.31 708.5,-72 723.72,-88.68 728.19,-114.39 729.16,-133.9"/>
<polygon fill="none" stroke="black" points="725.67,-134.08 729.39,-144 732.67,-133.92 725.67,-134.08"/>
</g>
<!-- 6 -->
<g id="node4" class="node">
<title>6</title>
<polygon fill="lightgrey" stroke="black" points="615,-180 298,-180 298,-144 615,-144 615,-180"/>
<text text-anchor="middle" x="456.5" y="-159.5" font-family="Fira Mono" font-size="10.00">CL&#45;DATA&#45;STRUCTURES.DICTS:FUNDAMENTAL&#45;SPARSE&#45;VECTOR</text>
</g>
<!-- 8&#45;&gt;6 -->
<g id="edge4" class="edge">
<title>8&#45;&gt;6</title>
<path fill="none" stroke="black" d="M251.45,-108.03C290.38,-118.09 339.83,-130.86 380.41,-141.35"/>
<polygon fill="none" stroke="black" points="379.7,-144.78 390.26,-143.89 381.45,-138 379.7,-144.78"/>
</g>
<!-- 5&#45;&gt;6 -->
<g id="edge5" class="edge">
<title>5&#45;&gt;6</title>
<path fill="none" stroke="black" d="M522.75,-108.3C511.66,-117.12 498.03,-127.97 486.01,-137.53"/>
<polygon fill="none" stroke="black" points="483.65,-134.93 478,-143.9 488.01,-140.41 483.65,-134.93"/>
</g>
<!-- 7 -->
<g id="node5" class="node">
<title>7</title>
<polygon fill="lightgrey" stroke="black" points="653,-252 354,-252 354,-216 653,-216 653,-252"/>
<text text-anchor="middle" x="503.5" y="-231.5" font-family="Fira Mono" font-size="10.00">CL&#45;DATA&#45;STRUCTURES.DICTS:FUNDAMENTAL&#45;DICTIONARY</text>
</g>
<!-- 6&#45;&gt;7 -->
<g id="edge6" class="edge">
<title>6&#45;&gt;7</title>
<path fill="none" stroke="black" d="M468.12,-180.3C473.64,-188.53 480.35,-198.52 486.43,-207.58"/>
<polygon fill="none" stroke="black" points="483.54,-209.54 492.02,-215.9 489.35,-205.64 483.54,-209.54"/>
</g>
<!-- 3 -->
<g id="node7" class="node">
<title>3</title>
<polygon fill="lightgrey" stroke="black" points="721,-324 464,-324 464,-288 721,-288 721,-324"/>
<text text-anchor="middle" x="592.5" y="-303.5" font-family="Fira Mono" font-size="10.00">CL&#45;DATA&#45;STRUCTURES:FUNDAMENTAL&#45;CONTAINER</text>
</g>
<!-- 7&#45;&gt;3 -->
<g id="edge7" class="edge">
<title>7&#45;&gt;3</title>
<path fill="none" stroke="black" d="M525.5,-252.3C536.71,-261.12 550.5,-271.97 562.65,-281.53"/>
<polygon fill="none" stroke="black" points="560.73,-284.46 570.75,-287.9 565.06,-278.96 560.73,-284.46"/>
</g>
<!-- 2&#45;&gt;3 -->
<g id="edge8" class="edge">
<title>2&#45;&gt;3</title>
<path fill="none" stroke="black" d="M717.63,-180.15C705.3,-198.91 683.96,-229.33 661.5,-252 650.89,-262.71 638.07,-273.12 626.38,-281.84"/>
<polygon fill="none" stroke="black" points="624.12,-279.15 618.1,-287.87 628.25,-284.81 624.12,-279.15"/>
</g>
<!-- 4 -->
<g id="node8" class="node">
<title>4</title>
<polygon fill="lightgrey" stroke="black" points="691,-396 494,-396 494,-360 691,-360 691,-396"/>
<text text-anchor="middle" x="592.5" y="-375.5" font-family="Fira Mono" font-size="10.00">CL&#45;DATA&#45;STRUCTURES:TRAVERSABLE</text>
</g>
<!-- 3&#45;&gt;4 -->
<g id="edge9" class="edge">
<title>3&#45;&gt;4</title>
<path fill="none" stroke="black" d="M592.5,-324.3C592.5,-332.02 592.5,-341.29 592.5,-349.89"/>
<polygon fill="none" stroke="black" points="589,-349.9 592.5,-359.9 596,-349.9 589,-349.9"/>
</g>
</g>
</svg>
