<?xml version="1.0" encoding="UTF-8" standalone="no"?>
<!DOCTYPE svg PUBLIC "-//W3C//DTD SVG 1.1//EN"
 "http://www.w3.org/Graphics/SVG/1.1/DTD/svg11.dtd">
<!-- Generated by graphviz version 2.40.1 (20161225.0304)
 -->
<!-- Title: %3 Pages: 1 -->
<svg width="781pt" height="332pt"
 viewBox="0.00 0.00 781.00 332.00" xmlns="http://www.w3.org/2000/svg" xmlns:xlink="http://www.w3.org/1999/xlink">
<g id="graph0" class="graph" transform="scale(1 1) rotate(0) translate(4 328)">
<title>%3</title>
<polygon fill="transparent" stroke="transparent" points="-4,4 -4,-328 777,-328 777,4 -4,4"/>
<!-- 1 -->
<g id="node1" class="node">
<title>1</title>
<polygon fill="#d3d3d3" stroke="#000000" points="640,-36 287,-36 287,0 640,0 640,-36"/>
<text text-anchor="middle" x="463.5" y="-15.5" font-family="Fira Mono" font-size="10.00" fill="#000000">CL&#45;DATA&#45;STRUCTURES.DICTS.HAMT:FUNCTIONAL&#45;HAMT&#45;DICTIONARY</text>
</g>
<!-- 3 -->
<g id="node2" class="node">
<title>3</title>
<polygon fill="#d3d3d3" stroke="#000000" points="468,-108 127,-108 127,-72 468,-72 468,-108"/>
<text text-anchor="middle" x="297.5" y="-87.5" font-family="Fira Mono" font-size="10.00" fill="#000000">CL&#45;DATA&#45;STRUCTURES.DICTS:FUNCTIONAL&#45;HASHING&#45;DICTIONARY</text>
</g>
<!-- 1&#45;&gt;3 -->
<g id="edge1" class="edge">
<title>1&#45;&gt;3</title>
<path fill="none" stroke="#000000" d="M421.6112,-36.1686C399.4097,-45.7982 371.9578,-57.705 348.5216,-67.8701"/>
<polygon fill="none" stroke="#000000" points="346.8691,-64.7718 339.0876,-71.962 349.6545,-71.1938 346.8691,-64.7718"/>
</g>
<!-- 2 -->
<g id="node8" class="node">
<title>2</title>
<polygon fill="#d3d3d3" stroke="#000000" points="773,-108 486,-108 486,-72 773,-72 773,-108"/>
<text text-anchor="middle" x="629.5" y="-87.5" font-family="Fira Mono" font-size="10.00" fill="#000000">CL&#45;DATA&#45;STRUCTURES.DICTS.HAMT:HAMT&#45;DICTIONARY</text>
</g>
<!-- 1&#45;&gt;2 -->
<g id="edge2" class="edge">
<title>1&#45;&gt;2</title>
<path fill="none" stroke="#000000" d="M505.3888,-36.1686C527.5903,-45.7982 555.0422,-57.705 578.4784,-67.8701"/>
<polygon fill="none" stroke="#000000" points="577.3455,-71.1938 587.9124,-71.962 580.1309,-64.7718 577.3455,-71.1938"/>
</g>
<!-- 7 -->
<g id="node3" class="node">
<title>7</title>
<polygon fill="#d3d3d3" stroke="#000000" points="293,-180 0,-180 0,-144 293,-144 293,-180"/>
<text text-anchor="middle" x="146.5" y="-159.5" font-family="Fira Mono" font-size="10.00" fill="#000000">CL&#45;DATA&#45;STRUCTURES.DICTS:FUNCTIONAL&#45;DICTIONARY</text>
</g>
<!-- 3&#45;&gt;7 -->
<g id="edge3" class="edge">
<title>3&#45;&gt;7</title>
<path fill="none" stroke="#000000" d="M259.3963,-108.1686C239.3805,-117.7126 214.6733,-129.4935 193.4806,-139.5987"/>
<polygon fill="none" stroke="#000000" points="191.8497,-136.4987 184.3297,-143.962 194.8625,-142.8172 191.8497,-136.4987"/>
</g>
<!-- 4 -->
<g id="node5" class="node">
<title>4</title>
<polygon fill="#d3d3d3" stroke="#000000" points="586,-180 311,-180 311,-144 586,-144 586,-180"/>
<text text-anchor="middle" x="448.5" y="-159.5" font-family="Fira Mono" font-size="10.00" fill="#000000">CL&#45;DATA&#45;STRUCTURES.DICTS:HASHING&#45;DICTIONARY</text>
</g>
<!-- 3&#45;&gt;4 -->
<g id="edge4" class="edge">
<title>3&#45;&gt;4</title>
<path fill="none" stroke="#000000" d="M335.6037,-108.1686C355.6195,-117.7126 380.3267,-129.4935 401.5194,-139.5987"/>
<polygon fill="none" stroke="#000000" points="400.1375,-142.8172 410.6703,-143.962 403.1503,-136.4987 400.1375,-142.8172"/>
</g>
<!-- 8 -->
<g id="node4" class="node">
<title>8</title>
<polygon fill="#d3d3d3" stroke="#000000" points="242,-252 51,-252 51,-216 242,-216 242,-252"/>
<text text-anchor="middle" x="146.5" y="-231.5" font-family="Fira Mono" font-size="10.00" fill="#000000">CL&#45;DATA&#45;STRUCTURES:FUNCTIONAL</text>
</g>
<!-- 7&#45;&gt;8 -->
<g id="edge5" class="edge">
<title>7&#45;&gt;8</title>
<path fill="none" stroke="#000000" d="M146.5,-180.1686C146.5,-187.869 146.5,-197.0257 146.5,-205.5834"/>
<polygon fill="none" stroke="#000000" points="143.0001,-205.5867 146.5,-215.5867 150.0001,-205.5868 143.0001,-205.5867"/>
</g>
<!-- 5 -->
<g id="node6" class="node">
<title>5</title>
<polygon fill="#d3d3d3" stroke="#000000" points="487,-252 260,-252 260,-216 487,-216 487,-252"/>
<text text-anchor="middle" x="373.5" y="-231.5" font-family="Fira Mono" font-size="10.00" fill="#000000">CL&#45;DATA&#45;STRUCTURES.DICTS:DICTIONARY</text>
</g>
<!-- 7&#45;&gt;5 -->
<g id="edge6" class="edge">
<title>7&#45;&gt;5</title>
<path fill="none" stroke="#000000" d="M203.4887,-180.0757C234.7907,-190.0041 273.7918,-202.3745 306.5406,-212.7618"/>
<polygon fill="none" stroke="#000000" points="305.8977,-216.2296 316.4879,-215.9169 308.0141,-209.5572 305.8977,-216.2296"/>
</g>
<!-- 6 -->
<g id="node7" class="node">
<title>6</title>
<polygon fill="#d3d3d3" stroke="#000000" points="388,-324 131,-324 131,-288 388,-288 388,-324"/>
<text text-anchor="middle" x="259.5" y="-303.5" font-family="Fira Mono" font-size="10.00" fill="#000000">CL&#45;DATA&#45;STRUCTURES:FUNDAMENTAL&#45;CONTAINER</text>
</g>
<!-- 8&#45;&gt;6 -->
<g id="edge7" class="edge">
<title>8&#45;&gt;6</title>
<path fill="none" stroke="#000000" d="M175.0147,-252.1686C189.3342,-261.2926 206.8624,-272.461 222.2338,-282.2551"/>
<polygon fill="none" stroke="#000000" points="220.6801,-285.4153 230.9945,-287.8372 224.4417,-279.5118 220.6801,-285.4153"/>
</g>
<!-- 4&#45;&gt;5 -->
<g id="edge8" class="edge">
<title>4&#45;&gt;5</title>
<path fill="none" stroke="#000000" d="M429.5743,-180.1686C420.5143,-188.8663 409.5191,-199.4217 399.6735,-208.8735"/>
<polygon fill="none" stroke="#000000" points="397.2096,-206.387 392.4196,-215.8372 402.0574,-211.4367 397.2096,-206.387"/>
</g>
<!-- 5&#45;&gt;6 -->
<g id="edge9" class="edge">
<title>5&#45;&gt;6</title>
<path fill="none" stroke="#000000" d="M344.733,-252.1686C330.2867,-261.2926 312.6035,-272.461 297.096,-282.2551"/>
<polygon fill="none" stroke="#000000" points="294.8437,-279.538 288.2578,-287.8372 298.5817,-285.4564 294.8437,-279.538"/>
</g>
</g>
</svg>
