<?xml version="1.0" encoding="UTF-8" standalone="no"?>
<!DOCTYPE svg PUBLIC "-//W3C//DTD SVG 1.1//EN"
 "http://www.w3.org/Graphics/SVG/1.1/DTD/svg11.dtd">
<!-- Generated by graphviz version 2.40.1 (20161225.0304)
 -->
<!-- Title: %3 Pages: 1 -->
<svg width="1315pt" height="404pt"
 viewBox="0.00 0.00 1315.00 404.00" xmlns="http://www.w3.org/2000/svg" xmlns:xlink="http://www.w3.org/1999/xlink">
<g id="graph0" class="graph" transform="scale(1 1) rotate(0) translate(4 400)">
<title>%3</title>
<polygon fill="transparent" stroke="transparent" points="-4,4 -4,-400 1311,-400 1311,4 -4,4"/>
<!-- 1 -->
<g id="node1" class="node">
<title>1</title>
<polygon fill="#d3d3d3" stroke="#000000" points="878,-36 525,-36 525,0 878,0 878,-36"/>
<text text-anchor="middle" x="701.5" y="-15.5" font-family="Fira Mono" font-size="10.00" fill="#000000">CL&#45;DATA&#45;STRUCTURES.DICTS.HAMT:FUNCTIONAL&#45;HAMT&#45;DICTIONARY</text>
</g>
<!-- 9 -->
<g id="node2" class="node">
<title>9</title>
<polygon fill="#d3d3d3" stroke="#000000" points="679,-108 392,-108 392,-72 679,-72 679,-108"/>
<text text-anchor="middle" x="535.5" y="-87.5" font-family="Fira Mono" font-size="10.00" fill="#000000">CL&#45;DATA&#45;STRUCTURES.DICTS.HAMT:HAMT&#45;DICTIONARY</text>
</g>
<!-- 1&#45;&gt;9 -->
<g id="edge1" class="edge">
<title>1&#45;&gt;9</title>
<path fill="none" stroke="#000000" d="M659.6112,-36.1686C637.4097,-45.7982 609.9578,-57.705 586.5216,-67.8701"/>
<polygon fill="none" stroke="#000000" points="584.8691,-64.7718 577.0876,-71.962 587.6545,-71.1938 584.8691,-64.7718"/>
</g>
<!-- 2 -->
<g id="node7" class="node">
<title>2</title>
<polygon fill="#d3d3d3" stroke="#000000" points="1038,-108 697,-108 697,-72 1038,-72 1038,-108"/>
<text text-anchor="middle" x="867.5" y="-87.5" font-family="Fira Mono" font-size="10.00" fill="#000000">CL&#45;DATA&#45;STRUCTURES.DICTS:FUNCTIONAL&#45;HASHING&#45;DICTIONARY</text>
</g>
<!-- 1&#45;&gt;2 -->
<g id="edge2" class="edge">
<title>1&#45;&gt;2</title>
<path fill="none" stroke="#000000" d="M743.3888,-36.1686C765.5903,-45.7982 793.0422,-57.705 816.4784,-67.8701"/>
<polygon fill="none" stroke="#000000" points="815.3455,-71.1938 825.9124,-71.962 818.1309,-64.7718 815.3455,-71.1938"/>
</g>
<!-- 12 -->
<g id="node3" class="node">
<title>12</title>
<polygon fill="#d3d3d3" stroke="#000000" points="349,-180 2,-180 2,-144 349,-144 349,-180"/>
<text text-anchor="middle" x="175.5" y="-159.5" font-family="Fira Mono" font-size="10.00" fill="#000000">CL&#45;DATA&#45;STRUCTURES.DICTS:FUNDAMENTAL&#45;HASHING&#45;DICTIONARY</text>
</g>
<!-- 9&#45;&gt;12 -->
<g id="edge3" class="edge">
<title>9&#45;&gt;12</title>
<path fill="none" stroke="#000000" d="M445.1215,-108.0757C393.5628,-118.3874 328.8332,-131.3334 275.7211,-141.9558"/>
<polygon fill="none" stroke="#000000" points="274.7228,-138.586 265.6034,-143.9793 276.0957,-145.4501 274.7228,-138.586"/>
</g>
<!-- 10 -->
<g id="node5" class="node">
<title>10</title>
<polygon fill="#d3d3d3" stroke="#000000" points="679,-180 392,-180 392,-144 679,-144 679,-180"/>
<text text-anchor="middle" x="535.5" y="-159.5" font-family="Fira Mono" font-size="10.00" fill="#000000">CL&#45;DATA&#45;STRUCTURES.COMMON.HAMT:HAMT&#45;CONTAINER</text>
</g>
<!-- 9&#45;&gt;10 -->
<g id="edge4" class="edge">
<title>9&#45;&gt;10</title>
<path fill="none" stroke="#000000" d="M535.5,-108.1686C535.5,-115.869 535.5,-125.0257 535.5,-133.5834"/>
<polygon fill="none" stroke="#000000" points="532.0001,-133.5867 535.5,-143.5867 539.0001,-133.5868 532.0001,-133.5867"/>
</g>
<!-- 13 -->
<g id="node4" class="node">
<title>13</title>
<polygon fill="#d3d3d3" stroke="#000000" points="299,-252 0,-252 0,-216 299,-216 299,-252"/>
<text text-anchor="middle" x="149.5" y="-231.5" font-family="Fira Mono" font-size="10.00" fill="#000000">CL&#45;DATA&#45;STRUCTURES.DICTS:FUNDAMENTAL&#45;DICTIONARY</text>
</g>
<!-- 12&#45;&gt;13 -->
<g id="edge5" class="edge">
<title>12&#45;&gt;13</title>
<path fill="none" stroke="#000000" d="M168.9391,-180.1686C166.0973,-188.0383 162.7063,-197.4288 159.5581,-206.1467"/>
<polygon fill="none" stroke="#000000" points="156.2538,-204.9924 156.1492,-215.5867 162.8377,-207.37 156.2538,-204.9924"/>
</g>
<!-- 11 -->
<g id="node6" class="node">
<title>11</title>
<polygon fill="#d3d3d3" stroke="#000000" points="754,-252 317,-252 317,-216 754,-216 754,-252"/>
<text text-anchor="middle" x="535.5" y="-231.5" font-family="Fira Mono" font-size="10.00" fill="#000000">CL&#45;DATA&#45;STRUCTURES.COMMON.ABSTRACT:FUNDAMENTAL&#45;OWNERSHIP&#45;TAGGED&#45;OBJECT</text>
</g>
<!-- 10&#45;&gt;11 -->
<g id="edge6" class="edge">
<title>10&#45;&gt;11</title>
<path fill="none" stroke="#000000" d="M535.5,-180.1686C535.5,-187.869 535.5,-197.0257 535.5,-205.5834"/>
<polygon fill="none" stroke="#000000" points="532.0001,-205.5867 535.5,-215.5867 539.0001,-205.5868 532.0001,-205.5867"/>
</g>
<!-- 7 -->
<g id="node8" class="node">
<title>7</title>
<polygon fill="#d3d3d3" stroke="#000000" points="1014,-180 721,-180 721,-144 1014,-144 1014,-180"/>
<text text-anchor="middle" x="867.5" y="-159.5" font-family="Fira Mono" font-size="10.00" fill="#000000">CL&#45;DATA&#45;STRUCTURES.DICTS:FUNCTIONAL&#45;DICTIONARY</text>
</g>
<!-- 2&#45;&gt;7 -->
<g id="edge7" class="edge">
<title>2&#45;&gt;7</title>
<path fill="none" stroke="#000000" d="M867.5,-108.1686C867.5,-115.869 867.5,-125.0257 867.5,-133.5834"/>
<polygon fill="none" stroke="#000000" points="864.0001,-133.5867 867.5,-143.5867 871.0001,-133.5868 864.0001,-133.5867"/>
</g>
<!-- 3 -->
<g id="node10" class="node">
<title>3</title>
<polygon fill="#d3d3d3" stroke="#000000" points="1307,-180 1032,-180 1032,-144 1307,-144 1307,-180"/>
<text text-anchor="middle" x="1169.5" y="-159.5" font-family="Fira Mono" font-size="10.00" fill="#000000">CL&#45;DATA&#45;STRUCTURES.DICTS:HASHING&#45;DICTIONARY</text>
</g>
<!-- 2&#45;&gt;3 -->
<g id="edge8" class="edge">
<title>2&#45;&gt;3</title>
<path fill="none" stroke="#000000" d="M943.3175,-108.0757C986.1199,-118.2802 1039.7427,-131.0645 1084.033,-141.6238"/>
<polygon fill="none" stroke="#000000" points="1083.3742,-145.0647 1093.9132,-143.9793 1084.9976,-138.2556 1083.3742,-145.0647"/>
</g>
<!-- 8 -->
<g id="node9" class="node">
<title>8</title>
<polygon fill="#d3d3d3" stroke="#000000" points="963,-252 772,-252 772,-216 963,-216 963,-252"/>
<text text-anchor="middle" x="867.5" y="-231.5" font-family="Fira Mono" font-size="10.00" fill="#000000">CL&#45;DATA&#45;STRUCTURES:FUNCTIONAL</text>
</g>
<!-- 7&#45;&gt;8 -->
<g id="edge9" class="edge">
<title>7&#45;&gt;8</title>
<path fill="none" stroke="#000000" d="M867.5,-180.1686C867.5,-187.869 867.5,-197.0257 867.5,-205.5834"/>
<polygon fill="none" stroke="#000000" points="864.0001,-205.5867 867.5,-215.5867 871.0001,-205.5868 864.0001,-205.5867"/>
</g>
<!-- 4 -->
<g id="node11" class="node">
<title>4</title>
<polygon fill="#d3d3d3" stroke="#000000" points="1208,-252 981,-252 981,-216 1208,-216 1208,-252"/>
<text text-anchor="middle" x="1094.5" y="-231.5" font-family="Fira Mono" font-size="10.00" fill="#000000">CL&#45;DATA&#45;STRUCTURES.DICTS:DICTIONARY</text>
</g>
<!-- 7&#45;&gt;4 -->
<g id="edge10" class="edge">
<title>7&#45;&gt;4</title>
<path fill="none" stroke="#000000" d="M924.4887,-180.0757C955.7907,-190.0041 994.7918,-202.3745 1027.5406,-212.7618"/>
<polygon fill="none" stroke="#000000" points="1026.8977,-216.2296 1037.4879,-215.9169 1029.0141,-209.5572 1026.8977,-216.2296"/>
</g>
<!-- 5 -->
<g id="node12" class="node">
<title>5</title>
<polygon fill="#d3d3d3" stroke="#000000" points="1109,-324 852,-324 852,-288 1109,-288 1109,-324"/>
<text text-anchor="middle" x="980.5" y="-303.5" font-family="Fira Mono" font-size="10.00" fill="#000000">CL&#45;DATA&#45;STRUCTURES:FUNDAMENTAL&#45;CONTAINER</text>
</g>
<!-- 8&#45;&gt;5 -->
<g id="edge11" class="edge">
<title>8&#45;&gt;5</title>
<path fill="none" stroke="#000000" d="M896.0147,-252.1686C910.3342,-261.2926 927.8624,-272.461 943.2338,-282.2551"/>
<polygon fill="none" stroke="#000000" points="941.6801,-285.4153 951.9945,-287.8372 945.4417,-279.5118 941.6801,-285.4153"/>
</g>
<!-- 3&#45;&gt;4 -->
<g id="edge12" class="edge">
<title>3&#45;&gt;4</title>
<path fill="none" stroke="#000000" d="M1150.5743,-180.1686C1141.5143,-188.8663 1130.5191,-199.4217 1120.6735,-208.8735"/>
<polygon fill="none" stroke="#000000" points="1118.2096,-206.387 1113.4196,-215.8372 1123.0574,-211.4367 1118.2096,-206.387"/>
</g>
<!-- 4&#45;&gt;5 -->
<g id="edge13" class="edge">
<title>4&#45;&gt;5</title>
<path fill="none" stroke="#000000" d="M1065.733,-252.1686C1051.2867,-261.2926 1033.6035,-272.461 1018.096,-282.2551"/>
<polygon fill="none" stroke="#000000" points="1015.8437,-279.538 1009.2578,-287.8372 1019.5817,-285.4564 1015.8437,-279.538"/>
</g>
<!-- 6 -->
<g id="node13" class="node">
<title>6</title>
<polygon fill="#d3d3d3" stroke="#000000" points="1079,-396 882,-396 882,-360 1079,-360 1079,-396"/>
<text text-anchor="middle" x="980.5" y="-375.5" font-family="Fira Mono" font-size="10.00" fill="#000000">CL&#45;DATA&#45;STRUCTURES:TRAVERSABLE</text>
</g>
<!-- 5&#45;&gt;6 -->
<g id="edge14" class="edge">
<title>5&#45;&gt;6</title>
<path fill="none" stroke="#000000" d="M980.5,-324.1686C980.5,-331.869 980.5,-341.0257 980.5,-349.5834"/>
<polygon fill="none" stroke="#000000" points="977.0001,-349.5867 980.5,-359.5867 984.0001,-349.5868 977.0001,-349.5867"/>
</g>
</g>
</svg>
