<?xml version="1.0" encoding="UTF-8" standalone="no"?>
<!DOCTYPE svg PUBLIC "-//W3C//DTD SVG 1.1//EN"
 "http://www.w3.org/Graphics/SVG/1.1/DTD/svg11.dtd">
<!-- Generated by graphviz version 2.46.1 (0)
 -->
<!-- Pages: 1 -->
<svg width="884pt" height="332pt"
 viewBox="0.00 0.00 884.00 332.00" xmlns="http://www.w3.org/2000/svg" xmlns:xlink="http://www.w3.org/1999/xlink">
<g id="graph0" class="graph" transform="scale(1 1) rotate(0) translate(4 328)">
<polygon fill="transparent" stroke="transparent" points="-4,4 -4,-328 880,-328 880,4 -4,4"/>
<!-- 1 -->
<g id="node1" class="node">
<title>1</title>
<polygon fill="lightgrey" stroke="black" points="680,-36 315,-36 315,0 680,0 680,-36"/>
<text text-anchor="middle" x="497.5" y="-15.5" font-family="Fira Mono" font-size="10.00">CL&#45;DATA&#45;STRUCTURES.SEQUENCES.RRB&#45;VECTOR:MUTABLE&#45;RRB&#45;VECTOR</text>
</g>
<!-- 6 -->
<g id="node2" class="node">
<title>6</title>
<polygon fill="lightgrey" stroke="black" points="481,-108 194,-108 194,-72 481,-72 481,-108"/>
<text text-anchor="middle" x="337.5" y="-87.5" font-family="Fira Mono" font-size="10.00">CL&#45;DATA&#45;STRUCTURES.SEQUENCES:MUTABLE&#45;SEQUENCE</text>
</g>
<!-- 1&#45;&gt;6 -->
<g id="edge1" class="edge">
<title>1&#45;&gt;6</title>
<path fill="none" stroke="black" d="M458.36,-36.12C436.49,-45.69 409.04,-57.7 385.84,-67.85"/>
<polygon fill="none" stroke="black" points="384.27,-64.72 376.51,-71.93 387.08,-71.13 384.27,-64.72"/>
</g>
<!-- 2 -->
<g id="node6" class="node">
<title>2</title>
<polygon fill="lightgrey" stroke="black" points="816,-108 499,-108 499,-72 816,-72 816,-108"/>
<text text-anchor="middle" x="657.5" y="-87.5" font-family="Fira Mono" font-size="10.00">CL&#45;DATA&#45;STRUCTURES.SEQUENCES.RRB&#45;VECTOR:RRB&#45;VECTOR</text>
</g>
<!-- 1&#45;&gt;2 -->
<g id="edge2" class="edge">
<title>1&#45;&gt;2</title>
<path fill="none" stroke="black" d="M536.64,-36.12C558.51,-45.69 585.96,-57.7 609.16,-67.85"/>
<polygon fill="none" stroke="black" points="607.92,-71.13 618.49,-71.93 610.73,-64.72 607.92,-71.13"/>
</g>
<!-- 8 -->
<g id="node3" class="node">
<title>8</title>
<polygon fill="lightgrey" stroke="black" points="173,-180 0,-180 0,-144 173,-144 173,-180"/>
<text text-anchor="middle" x="86.5" y="-159.5" font-family="Fira Mono" font-size="10.00">CL&#45;DATA&#45;STRUCTURES:MUTABLE</text>
</g>
<!-- 6&#45;&gt;8 -->
<g id="edge3" class="edge">
<title>6&#45;&gt;8</title>
<path fill="none" stroke="black" d="M276.42,-108.03C240.59,-118.03 195.14,-130.7 157.69,-141.15"/>
<polygon fill="none" stroke="black" points="156.55,-137.83 147.85,-143.89 158.43,-144.57 156.55,-137.83"/>
</g>
<!-- 7 -->
<g id="node5" class="node">
<title>7</title>
<polygon fill="lightgrey" stroke="black" points="502,-180 191,-180 191,-144 502,-144 502,-180"/>
<text text-anchor="middle" x="346.5" y="-159.5" font-family="Fira Mono" font-size="10.00">CL&#45;DATA&#45;STRUCTURES.SEQUENCES:FUNDAMENTAL&#45;SEQUENCE</text>
</g>
<!-- 6&#45;&gt;7 -->
<g id="edge4" class="edge">
<title>6&#45;&gt;7</title>
<path fill="none" stroke="black" d="M339.72,-108.3C340.72,-116.02 341.91,-125.29 343.01,-133.89"/>
<polygon fill="none" stroke="black" points="339.55,-134.42 344.3,-143.9 346.5,-133.53 339.55,-134.42"/>
</g>
<!-- 9 -->
<g id="node4" class="node">
<title>9</title>
<polygon fill="lightgrey" stroke="black" points="257,-252 0,-252 0,-216 257,-216 257,-252"/>
<text text-anchor="middle" x="128.5" y="-231.5" font-family="Fira Mono" font-size="10.00">CL&#45;DATA&#45;STRUCTURES:FUNDAMENTAL&#45;CONTAINER</text>
</g>
<!-- 8&#45;&gt;9 -->
<g id="edge5" class="edge">
<title>8&#45;&gt;9</title>
<path fill="none" stroke="black" d="M96.88,-180.3C101.76,-188.44 107.69,-198.31 113.08,-207.3"/>
<polygon fill="none" stroke="black" points="110.09,-209.12 118.24,-215.9 116.09,-205.52 110.09,-209.12"/>
</g>
<!-- 5 -->
<g id="node8" class="node">
<title>5</title>
<polygon fill="lightgrey" stroke="black" points="305,-324 108,-324 108,-288 305,-288 305,-324"/>
<text text-anchor="middle" x="206.5" y="-303.5" font-family="Fira Mono" font-size="10.00">CL&#45;DATA&#45;STRUCTURES:TRAVERSABLE</text>
</g>
<!-- 9&#45;&gt;5 -->
<g id="edge6" class="edge">
<title>9&#45;&gt;5</title>
<path fill="none" stroke="black" d="M147.78,-252.3C157.42,-260.95 169.23,-271.55 179.73,-280.97"/>
<polygon fill="none" stroke="black" points="177.66,-283.82 187.44,-287.9 182.34,-278.61 177.66,-283.82"/>
</g>
<!-- 3 -->
<g id="node7" class="node">
<title>3</title>
<polygon fill="lightgrey" stroke="black" points="795,-180 520,-180 520,-144 795,-144 795,-180"/>
<text text-anchor="middle" x="657.5" y="-159.5" font-family="Fira Mono" font-size="10.00">CL&#45;DATA&#45;STRUCTURES.COMMON.RRB:RRB&#45;CONTAINER</text>
</g>
<!-- 2&#45;&gt;3 -->
<g id="edge7" class="edge">
<title>2&#45;&gt;3</title>
<path fill="none" stroke="black" d="M657.5,-108.3C657.5,-116.02 657.5,-125.29 657.5,-133.89"/>
<polygon fill="none" stroke="black" points="654,-133.9 657.5,-143.9 661,-133.9 654,-133.9"/>
</g>
<!-- 3&#45;&gt;5 -->
<g id="edge8" class="edge">
<title>3&#45;&gt;5</title>
<path fill="none" stroke="black" d="M570.33,-180.02C527.49,-189.21 475.35,-201.61 429.5,-216 367.44,-235.48 298.17,-264.28 253.55,-283.8"/>
<polygon fill="none" stroke="black" points="251.89,-280.71 244.14,-287.94 254.7,-287.12 251.89,-280.71"/>
</g>
<!-- 4 -->
<g id="node9" class="node">
<title>4</title>
<polygon fill="lightgrey" stroke="black" points="876,-252 439,-252 439,-216 876,-216 876,-252"/>
<text text-anchor="middle" x="657.5" y="-231.5" font-family="Fira Mono" font-size="10.00">CL&#45;DATA&#45;STRUCTURES.COMMON.ABSTRACT:FUNDAMENTAL&#45;OWNERSHIP&#45;TAGGED&#45;OBJECT</text>
</g>
<!-- 3&#45;&gt;4 -->
<g id="edge9" class="edge">
<title>3&#45;&gt;4</title>
<path fill="none" stroke="black" d="M657.5,-180.3C657.5,-188.02 657.5,-197.29 657.5,-205.89"/>
<polygon fill="none" stroke="black" points="654,-205.9 657.5,-215.9 661,-205.9 654,-205.9"/>
</g>
</g>
</svg>
