<?xml version="1.0" encoding="UTF-8" standalone="no"?>
<!DOCTYPE svg PUBLIC "-//W3C//DTD SVG 1.1//EN"
 "http://www.w3.org/Graphics/SVG/1.1/DTD/svg11.dtd">
<!-- Generated by graphviz version 2.50.0 (0)
 -->
<!-- Pages: 1 -->
<svg width="577pt" height="332pt"
 viewBox="0.00 0.00 577.00 332.00" xmlns="http://www.w3.org/2000/svg" xmlns:xlink="http://www.w3.org/1999/xlink">
<g id="graph0" class="graph" transform="scale(1 1) rotate(0) translate(4 328)">
<polygon fill="transparent" stroke="transparent" points="-4,4 -4,-328 573,-328 573,4 -4,4"/>
<!-- 1 -->
<g id="node1" class="node">
<title>1</title>
<polygon fill="lightgrey" stroke="black" points="442,-36 233,-36 233,0 442,0 442,-36"/>
<text text-anchor="middle" x="337.5" y="-15.5" font-family="Fira Mono" font-size="10.00">CL&#45;DATA&#45;STRUCTURES:OUT&#45;OF&#45;BOUNDS</text>
</g>
<!-- 2 -->
<g id="node2" class="node">
<title>2</title>
<polygon fill="lightgrey" stroke="black" points="442,-108 233,-108 233,-72 442,-72 442,-108"/>
<text text-anchor="middle" x="337.5" y="-87.5" font-family="Fira Mono" font-size="10.00">CL&#45;DATA&#45;STRUCTURES:INVALID&#45;VALUE</text>
</g>
<!-- 1&#45;&gt;2 -->
<g id="edge1" class="edge">
<title>1&#45;&gt;2</title>
<path fill="none" stroke="black" d="M337.5,-36.3C337.5,-44.02 337.5,-53.29 337.5,-61.89"/>
<polygon fill="none" stroke="black" points="334,-61.9 337.5,-71.9 341,-61.9 334,-61.9"/>
</g>
<!-- 4 -->
<g id="node3" class="node">
<title>4</title>
<polygon fill="lightgrey" stroke="black" points="324,-180 115,-180 115,-144 324,-144 324,-180"/>
<text text-anchor="middle" x="219.5" y="-159.5" font-family="Fira Mono" font-size="10.00">CL&#45;DATA&#45;STRUCTURES:TEXTUAL&#45;ERROR</text>
</g>
<!-- 2&#45;&gt;4 -->
<g id="edge2" class="edge">
<title>2&#45;&gt;4</title>
<path fill="none" stroke="black" d="M308.63,-108.12C293.21,-117.28 274.02,-128.66 257.4,-138.52"/>
<polygon fill="none" stroke="black" points="255.29,-135.7 248.48,-143.81 258.86,-141.72 255.29,-135.7"/>
</g>
<!-- 3 -->
<g id="node7" class="node">
<title>3</title>
<polygon fill="lightgrey" stroke="black" points="569,-180 342,-180 342,-144 569,-144 569,-180"/>
<text text-anchor="middle" x="455.5" y="-159.5" font-family="Fira Mono" font-size="10.00">MORE&#45;CONDITIONS:REFERENCE&#45;CONDITION</text>
</g>
<!-- 2&#45;&gt;3 -->
<g id="edge3" class="edge">
<title>2&#45;&gt;3</title>
<path fill="none" stroke="black" d="M366.37,-108.12C381.79,-117.28 400.98,-128.66 417.6,-138.52"/>
<polygon fill="none" stroke="black" points="416.14,-141.72 426.52,-143.81 419.71,-135.7 416.14,-141.72"/>
</g>
<!-- 7 -->
<g id="node4" class="node">
<title>7</title>
<polygon fill="lightgrey" stroke="black" points="227,-252 0,-252 0,-216 227,-216 227,-252"/>
<text text-anchor="middle" x="113.5" y="-231.5" font-family="Fira Mono" font-size="10.00">MORE&#45;CONDITIONS:CHAINABLE&#45;CONDITION</text>
</g>
<!-- 4&#45;&gt;7 -->
<g id="edge4" class="edge">
<title>4&#45;&gt;7</title>
<path fill="none" stroke="black" d="M193.57,-180.12C179.84,-189.19 162.79,-200.45 147.96,-210.24"/>
<polygon fill="none" stroke="black" points="145.95,-207.38 139.53,-215.81 149.8,-213.22 145.95,-207.38"/>
</g>
<!-- 5 -->
<g id="node5" class="node">
<title>5</title>
<polygon fill="lightgrey" stroke="black" points="406,-252 245,-252 245,-216 406,-216 406,-252"/>
<text text-anchor="middle" x="325.5" y="-231.5" font-family="Fira Mono" font-size="10.00">COMMON&#45;LISP:SIMPLE&#45;ERROR</text>
</g>
<!-- 4&#45;&gt;5 -->
<g id="edge5" class="edge">
<title>4&#45;&gt;5</title>
<path fill="none" stroke="black" d="M245.43,-180.12C259.16,-189.19 276.21,-200.45 291.04,-210.24"/>
<polygon fill="none" stroke="black" points="289.2,-213.22 299.47,-215.81 293.05,-207.38 289.2,-213.22"/>
</g>
<!-- 6 -->
<g id="node6" class="node">
<title>6</title>
<polygon fill="lightgrey" stroke="black" points="418,-324 233,-324 233,-288 418,-288 418,-324"/>
<text text-anchor="middle" x="325.5" y="-303.5" font-family="Fira Mono" font-size="10.00">COMMON&#45;LISP:SIMPLE&#45;CONDITION</text>
</g>
<!-- 5&#45;&gt;6 -->
<g id="edge6" class="edge">
<title>5&#45;&gt;6</title>
<path fill="none" stroke="black" d="M325.5,-252.3C325.5,-260.02 325.5,-269.29 325.5,-277.89"/>
<polygon fill="none" stroke="black" points="322,-277.9 325.5,-287.9 329,-277.9 322,-277.9"/>
</g>
</g>
</svg>
