<?xml version="1.0" encoding="UTF-8" standalone="no"?>
<!DOCTYPE svg PUBLIC "-//W3C//DTD SVG 1.1//EN"
 "http://www.w3.org/Graphics/SVG/1.1/DTD/svg11.dtd">
<!-- Generated by graphviz version 2.40.1 (20161225.0304)
 -->
<!-- Title: %3 Pages: 1 -->
<svg width="516pt" height="260pt"
 viewBox="0.00 0.00 516.00 260.00" xmlns="http://www.w3.org/2000/svg" xmlns:xlink="http://www.w3.org/1999/xlink">
<g id="graph0" class="graph" transform="scale(1 1) rotate(0) translate(4 256)">
<title>%3</title>
<polygon fill="transparent" stroke="transparent" points="-4,4 -4,-256 512,-256 512,4 -4,4"/>
<!-- 1 -->
<g id="node1" class="node">
<title>1</title>
<polygon fill="#d3d3d3" stroke="#000000" points="373,-36 80,-36 80,0 373,0 373,-36"/>
<text text-anchor="middle" x="226.5" y="-15.5" font-family="Fira Mono" font-size="10.00" fill="#000000">CL&#45;DATA&#45;STRUCTURES.DICTS:FUNCTIONAL&#45;DICTIONARY</text>
</g>
<!-- 5 -->
<g id="node2" class="node">
<title>5</title>
<polygon fill="#d3d3d3" stroke="#000000" points="191,-108 0,-108 0,-72 191,-72 191,-108"/>
<text text-anchor="middle" x="95.5" y="-87.5" font-family="Fira Mono" font-size="10.00" fill="#000000">CL&#45;DATA&#45;STRUCTURES:FUNCTIONAL</text>
</g>
<!-- 1&#45;&gt;5 -->
<g id="edge1" class="edge">
<title>1&#45;&gt;5</title>
<path fill="none" stroke="#000000" d="M193.4432,-36.1686C176.5323,-45.4632 155.7615,-56.8792 137.7059,-66.8029"/>
<polygon fill="none" stroke="#000000" points="135.624,-63.9532 128.5463,-71.8372 138.9957,-70.0878 135.624,-63.9532"/>
</g>
<!-- 2 -->
<g id="node3" class="node">
<title>2</title>
<polygon fill="#d3d3d3" stroke="#000000" points="508,-108 209,-108 209,-72 508,-72 508,-108"/>
<text text-anchor="middle" x="358.5" y="-87.5" font-family="Fira Mono" font-size="10.00" fill="#000000">CL&#45;DATA&#45;STRUCTURES.DICTS:FUNDAMENTAL&#45;DICTIONARY</text>
</g>
<!-- 1&#45;&gt;2 -->
<g id="edge2" class="edge">
<title>1&#45;&gt;2</title>
<path fill="none" stroke="#000000" d="M259.8092,-36.1686C276.9273,-45.5058 297.9706,-56.984 316.2222,-66.9394"/>
<polygon fill="none" stroke="#000000" points="314.7465,-70.1212 325.2015,-71.8372 318.0985,-63.976 314.7465,-70.1212"/>
</g>
<!-- 3 -->
<g id="node4" class="node">
<title>3</title>
<polygon fill="#d3d3d3" stroke="#000000" points="355,-180 98,-180 98,-144 355,-144 355,-180"/>
<text text-anchor="middle" x="226.5" y="-159.5" font-family="Fira Mono" font-size="10.00" fill="#000000">CL&#45;DATA&#45;STRUCTURES:FUNDAMENTAL&#45;CONTAINER</text>
</g>
<!-- 5&#45;&gt;3 -->
<g id="edge3" class="edge">
<title>5&#45;&gt;3</title>
<path fill="none" stroke="#000000" d="M128.5568,-108.1686C145.4677,-117.4632 166.2385,-128.8792 184.2941,-138.8029"/>
<polygon fill="none" stroke="#000000" points="183.0043,-142.0878 193.4537,-143.8372 186.376,-135.9532 183.0043,-142.0878"/>
</g>
<!-- 2&#45;&gt;3 -->
<g id="edge4" class="edge">
<title>2&#45;&gt;3</title>
<path fill="none" stroke="#000000" d="M325.1908,-108.1686C308.0727,-117.5058 287.0294,-128.984 268.7778,-138.9394"/>
<polygon fill="none" stroke="#000000" points="266.9015,-135.976 259.7985,-143.8372 270.2535,-142.1212 266.9015,-135.976"/>
</g>
<!-- 4 -->
<g id="node5" class="node">
<title>4</title>
<polygon fill="#d3d3d3" stroke="#000000" points="325,-252 128,-252 128,-216 325,-216 325,-252"/>
<text text-anchor="middle" x="226.5" y="-231.5" font-family="Fira Mono" font-size="10.00" fill="#000000">CL&#45;DATA&#45;STRUCTURES:TRAVERSABLE</text>
</g>
<!-- 3&#45;&gt;4 -->
<g id="edge5" class="edge">
<title>3&#45;&gt;4</title>
<path fill="none" stroke="#000000" d="M226.5,-180.1686C226.5,-187.869 226.5,-197.0257 226.5,-205.5834"/>
<polygon fill="none" stroke="#000000" points="223.0001,-205.5867 226.5,-215.5867 230.0001,-205.5868 223.0001,-205.5867"/>
</g>
</g>
</svg>
