<?xml version="1.0" encoding="UTF-8" standalone="no"?>
<!DOCTYPE svg PUBLIC "-//W3C//DTD SVG 1.1//EN"
 "http://www.w3.org/Graphics/SVG/1.1/DTD/svg11.dtd">
<!-- Generated by graphviz version 2.40.1 (20161225.0304)
 -->
<!-- Title: %3 Pages: 1 -->
<svg width="594pt" height="260pt"
 viewBox="0.00 0.00 594.00 260.00" xmlns="http://www.w3.org/2000/svg" xmlns:xlink="http://www.w3.org/1999/xlink">
<g id="graph0" class="graph" transform="scale(1 1) rotate(0) translate(4 256)">
<title>%3</title>
<polygon fill="transparent" stroke="transparent" points="-4,4 -4,-256 590,-256 590,4 -4,4"/>
<!-- 1 -->
<g id="node1" class="node">
<title>1</title>
<polygon fill="#d3d3d3" stroke="#000000" points="468,-36 127,-36 127,0 468,0 468,-36"/>
<text text-anchor="middle" x="297.5" y="-15.5" font-family="Fira Mono" font-size="10.00" fill="#000000">CL&#45;DATA&#45;STRUCTURES.DICTS:FUNCTIONAL&#45;HASHING&#45;DICTIONARY</text>
</g>
<!-- 5 -->
<g id="node2" class="node">
<title>5</title>
<polygon fill="#d3d3d3" stroke="#000000" points="293,-108 0,-108 0,-72 293,-72 293,-108"/>
<text text-anchor="middle" x="146.5" y="-87.5" font-family="Fira Mono" font-size="10.00" fill="#000000">CL&#45;DATA&#45;STRUCTURES.DICTS:FUNCTIONAL&#45;DICTIONARY</text>
</g>
<!-- 1&#45;&gt;5 -->
<g id="edge1" class="edge">
<title>1&#45;&gt;5</title>
<path fill="none" stroke="#000000" d="M259.3963,-36.1686C239.3805,-45.7126 214.6733,-57.4935 193.4806,-67.5987"/>
<polygon fill="none" stroke="#000000" points="191.8497,-64.4987 184.3297,-71.962 194.8625,-70.8172 191.8497,-64.4987"/>
</g>
<!-- 2 -->
<g id="node4" class="node">
<title>2</title>
<polygon fill="#d3d3d3" stroke="#000000" points="586,-108 311,-108 311,-72 586,-72 586,-108"/>
<text text-anchor="middle" x="448.5" y="-87.5" font-family="Fira Mono" font-size="10.00" fill="#000000">CL&#45;DATA&#45;STRUCTURES.DICTS:HASHING&#45;DICTIONARY</text>
</g>
<!-- 1&#45;&gt;2 -->
<g id="edge2" class="edge">
<title>1&#45;&gt;2</title>
<path fill="none" stroke="#000000" d="M335.6037,-36.1686C355.6195,-45.7126 380.3267,-57.4935 401.5194,-67.5987"/>
<polygon fill="none" stroke="#000000" points="400.1375,-70.8172 410.6703,-71.962 403.1503,-64.4987 400.1375,-70.8172"/>
</g>
<!-- 6 -->
<g id="node3" class="node">
<title>6</title>
<polygon fill="#d3d3d3" stroke="#000000" points="242,-180 51,-180 51,-144 242,-144 242,-180"/>
<text text-anchor="middle" x="146.5" y="-159.5" font-family="Fira Mono" font-size="10.00" fill="#000000">CL&#45;DATA&#45;STRUCTURES:FUNCTIONAL</text>
</g>
<!-- 5&#45;&gt;6 -->
<g id="edge3" class="edge">
<title>5&#45;&gt;6</title>
<path fill="none" stroke="#000000" d="M146.5,-108.1686C146.5,-115.869 146.5,-125.0257 146.5,-133.5834"/>
<polygon fill="none" stroke="#000000" points="143.0001,-133.5867 146.5,-143.5867 150.0001,-133.5868 143.0001,-133.5867"/>
</g>
<!-- 3 -->
<g id="node5" class="node">
<title>3</title>
<polygon fill="#d3d3d3" stroke="#000000" points="487,-180 260,-180 260,-144 487,-144 487,-180"/>
<text text-anchor="middle" x="373.5" y="-159.5" font-family="Fira Mono" font-size="10.00" fill="#000000">CL&#45;DATA&#45;STRUCTURES.DICTS:DICTIONARY</text>
</g>
<!-- 5&#45;&gt;3 -->
<g id="edge4" class="edge">
<title>5&#45;&gt;3</title>
<path fill="none" stroke="#000000" d="M203.4887,-108.0757C234.7907,-118.0041 273.7918,-130.3745 306.5406,-140.7618"/>
<polygon fill="none" stroke="#000000" points="305.8977,-144.2296 316.4879,-143.9169 308.0141,-137.5572 305.8977,-144.2296"/>
</g>
<!-- 4 -->
<g id="node6" class="node">
<title>4</title>
<polygon fill="#d3d3d3" stroke="#000000" points="388,-252 131,-252 131,-216 388,-216 388,-252"/>
<text text-anchor="middle" x="259.5" y="-231.5" font-family="Fira Mono" font-size="10.00" fill="#000000">CL&#45;DATA&#45;STRUCTURES:FUNDAMENTAL&#45;CONTAINER</text>
</g>
<!-- 6&#45;&gt;4 -->
<g id="edge5" class="edge">
<title>6&#45;&gt;4</title>
<path fill="none" stroke="#000000" d="M175.0147,-180.1686C189.3342,-189.2926 206.8624,-200.461 222.2338,-210.2551"/>
<polygon fill="none" stroke="#000000" points="220.6801,-213.4153 230.9945,-215.8372 224.4417,-207.5118 220.6801,-213.4153"/>
</g>
<!-- 2&#45;&gt;3 -->
<g id="edge6" class="edge">
<title>2&#45;&gt;3</title>
<path fill="none" stroke="#000000" d="M429.5743,-108.1686C420.5143,-116.8663 409.5191,-127.4217 399.6735,-136.8735"/>
<polygon fill="none" stroke="#000000" points="397.2096,-134.387 392.4196,-143.8372 402.0574,-139.4367 397.2096,-134.387"/>
</g>
<!-- 3&#45;&gt;4 -->
<g id="edge7" class="edge">
<title>3&#45;&gt;4</title>
<path fill="none" stroke="#000000" d="M344.733,-180.1686C330.2867,-189.2926 312.6035,-200.461 297.096,-210.2551"/>
<polygon fill="none" stroke="#000000" points="294.8437,-207.538 288.2578,-215.8372 298.5817,-213.4564 294.8437,-207.538"/>
</g>
</g>
</svg>
