<?xml version="1.0" encoding="UTF-8" standalone="no"?>
<!DOCTYPE svg PUBLIC "-//W3C//DTD SVG 1.1//EN"
 "http://www.w3.org/Graphics/SVG/1.1/DTD/svg11.dtd">
<!-- Generated by graphviz version 2.40.1 (20161225.0304)
 -->
<!-- Title: %3 Pages: 1 -->
<svg width="462pt" height="260pt"
 viewBox="0.00 0.00 462.00 260.00" xmlns="http://www.w3.org/2000/svg" xmlns:xlink="http://www.w3.org/1999/xlink">
<g id="graph0" class="graph" transform="scale(1 1) rotate(0) translate(4 256)">
<title>%3</title>
<polygon fill="transparent" stroke="transparent" points="-4,4 -4,-256 458,-256 458,4 -4,4"/>
<!-- 1 -->
<g id="node1" class="node">
<title>1</title>
<polygon fill="#d3d3d3" stroke="#000000" points="354,-36 91,-36 91,0 354,0 354,-36"/>
<text text-anchor="middle" x="222.5" y="-15.5" font-family="Fira Mono" font-size="10.00" fill="#000000">CL&#45;DATA&#45;STRUCTURES:ARGUMENT&#45;OUT&#45;OF&#45;BOUNDS</text>
</g>
<!-- 6 -->
<g id="node2" class="node">
<title>6</title>
<polygon fill="#d3d3d3" stroke="#000000" points="209,-108 0,-108 0,-72 209,-72 209,-108"/>
<text text-anchor="middle" x="104.5" y="-87.5" font-family="Fira Mono" font-size="10.00" fill="#000000">CL&#45;DATA&#45;STRUCTURES:OUT&#45;OF&#45;BOUNDS</text>
</g>
<!-- 1&#45;&gt;6 -->
<g id="edge1" class="edge">
<title>1&#45;&gt;6</title>
<path fill="none" stroke="#000000" d="M192.7236,-36.1686C177.6307,-45.3779 159.1243,-56.6699 142.9657,-66.5294"/>
<polygon fill="none" stroke="#000000" points="140.9802,-63.6407 134.2669,-71.8372 144.6263,-69.6162 140.9802,-63.6407"/>
</g>
<!-- 2 -->
<g id="node3" class="node">
<title>2</title>
<polygon fill="#d3d3d3" stroke="#000000" points="454,-108 227,-108 227,-72 454,-72 454,-108"/>
<text text-anchor="middle" x="340.5" y="-87.5" font-family="Fira Mono" font-size="10.00" fill="#000000">CL&#45;DATA&#45;STRUCTURES:INVALID&#45;ARGUMENT</text>
</g>
<!-- 1&#45;&gt;2 -->
<g id="edge2" class="edge">
<title>1&#45;&gt;2</title>
<path fill="none" stroke="#000000" d="M252.2764,-36.1686C267.3693,-45.3779 285.8757,-56.6699 302.0343,-66.5294"/>
<polygon fill="none" stroke="#000000" points="300.3737,-69.6162 310.7331,-71.8372 304.0198,-63.6407 300.3737,-69.6162"/>
</g>
<!-- 4 -->
<g id="node4" class="node">
<title>4</title>
<polygon fill="#d3d3d3" stroke="#000000" points="209,-180 0,-180 0,-144 209,-144 209,-180"/>
<text text-anchor="middle" x="104.5" y="-159.5" font-family="Fira Mono" font-size="10.00" fill="#000000">CL&#45;DATA&#45;STRUCTURES:TEXTUAL&#45;ERROR</text>
</g>
<!-- 6&#45;&gt;4 -->
<g id="edge3" class="edge">
<title>6&#45;&gt;4</title>
<path fill="none" stroke="#000000" d="M104.5,-108.1686C104.5,-115.869 104.5,-125.0257 104.5,-133.5834"/>
<polygon fill="none" stroke="#000000" points="101.0001,-133.5867 104.5,-143.5867 108.0001,-133.5868 101.0001,-133.5867"/>
</g>
<!-- 2&#45;&gt;4 -->
<g id="edge4" class="edge">
<title>2&#45;&gt;4</title>
<path fill="none" stroke="#000000" d="M281.2519,-108.0757C248.5685,-118.0469 207.8117,-130.4812 173.6742,-140.896"/>
<polygon fill="none" stroke="#000000" points="172.316,-137.6511 163.7725,-143.9169 174.3586,-144.3464 172.316,-137.6511"/>
</g>
<!-- 3 -->
<g id="node6" class="node">
<title>3</title>
<polygon fill="#d3d3d3" stroke="#000000" points="454,-180 227,-180 227,-144 454,-144 454,-180"/>
<text text-anchor="middle" x="340.5" y="-159.5" font-family="Fira Mono" font-size="10.00" fill="#000000">MORE&#45;CONDITIONS:REFERENCE&#45;CONDITION</text>
</g>
<!-- 2&#45;&gt;3 -->
<g id="edge5" class="edge">
<title>2&#45;&gt;3</title>
<path fill="none" stroke="#000000" d="M340.5,-108.1686C340.5,-115.869 340.5,-125.0257 340.5,-133.5834"/>
<polygon fill="none" stroke="#000000" points="337.0001,-133.5867 340.5,-143.5867 344.0001,-133.5868 337.0001,-133.5867"/>
</g>
<!-- 5 -->
<g id="node5" class="node">
<title>5</title>
<polygon fill="#d3d3d3" stroke="#000000" points="188,-252 21,-252 21,-216 188,-216 188,-252"/>
<text text-anchor="middle" x="104.5" y="-231.5" font-family="Fira Mono" font-size="10.00" fill="#000000">COMMON&#45;LISP:PROGRAM&#45;ERROR</text>
</g>
<!-- 4&#45;&gt;5 -->
<g id="edge6" class="edge">
<title>4&#45;&gt;5</title>
<path fill="none" stroke="#000000" d="M104.5,-180.1686C104.5,-187.869 104.5,-197.0257 104.5,-205.5834"/>
<polygon fill="none" stroke="#000000" points="101.0001,-205.5867 104.5,-215.5867 108.0001,-205.5868 101.0001,-205.5867"/>
</g>
</g>
</svg>
