<?xml version="1.0" encoding="UTF-8" standalone="no"?>
<!DOCTYPE svg PUBLIC "-//W3C//DTD SVG 1.1//EN"
 "http://www.w3.org/Graphics/SVG/1.1/DTD/svg11.dtd">
<!-- Generated by graphviz version 3.0.0 (0)
 -->
<!-- Pages: 1 -->
<svg width="633pt" height="404pt"
 viewBox="0.00 0.00 633.00 404.00" xmlns="http://www.w3.org/2000/svg" xmlns:xlink="http://www.w3.org/1999/xlink">
<g id="graph0" class="graph" transform="scale(1 1) rotate(0) translate(4 400)">
<polygon fill="transparent" stroke="transparent" points="-4,4 -4,-400 629,-400 629,4 -4,4"/>
<!-- 1 -->
<g id="node1" class="node">
<title>1</title>
<polygon fill="lightgrey" stroke="black" points="522,-36 205,-36 205,0 522,0 522,-36"/>
<text text-anchor="middle" x="363.5" y="-15.5" font-family="Fira Mono" font-size="10.00">CL&#45;DATA&#45;STRUCTURES.META:FUNCTIONAL&#45;INSERT&#45;FUNCTION</text>
</g>
<!-- 7 -->
<g id="node2" class="node">
<title>7</title>
<polygon fill="lightgrey" stroke="black" points="305,-108 54,-108 54,-72 305,-72 305,-108"/>
<text text-anchor="middle" x="179.5" y="-87.5" font-family="Fira Mono" font-size="10.00">CL&#45;DATA&#45;STRUCTURES.META:INSERT&#45;FUNCTION</text>
</g>
<!-- 1&#45;&gt;7 -->
<g id="edge1" class="edge">
<title>1&#45;&gt;7</title>
<path fill="none" stroke="black" d="M318.49,-36.12C293,-45.82 260.93,-58.02 234.02,-68.26"/>
<polygon fill="none" stroke="black" points="232.47,-65.1 224.37,-71.93 234.96,-71.65 232.47,-65.1"/>
</g>
<!-- 3 -->
<g id="node4" class="node">
<title>3</title>
<polygon fill="lightgrey" stroke="black" points="532,-180 257,-180 257,-144 532,-144 532,-180"/>
<text text-anchor="middle" x="394.5" y="-159.5" font-family="Fira Mono" font-size="10.00">CL&#45;DATA&#45;STRUCTURES.META:FUNCTIONAL&#45;FUNCTION</text>
</g>
<!-- 1&#45;&gt;3 -->
<g id="edge2" class="edge">
<title>1&#45;&gt;3</title>
<path fill="none" stroke="black" d="M367.24,-36.13C372.55,-60.44 382.31,-105.18 388.6,-133.99"/>
<polygon fill="none" stroke="black" points="385.2,-134.79 390.75,-143.81 392.03,-133.29 385.2,-134.79"/>
</g>
<!-- 2 -->
<g id="node8" class="node">
<title>2</title>
<polygon fill="lightgrey" stroke="black" points="625,-108 392,-108 392,-72 625,-72 625,-108"/>
<text text-anchor="middle" x="508.5" y="-87.5" font-family="Fira Mono" font-size="10.00">CLOSER&#45;MOP:STANDARD&#45;GENERIC&#45;FUNCTION</text>
</g>
<!-- 1&#45;&gt;2 -->
<g id="edge3" class="edge">
<title>1&#45;&gt;2</title>
<path fill="none" stroke="black" d="M398.97,-36.12C418.62,-45.61 443.22,-57.49 464.13,-67.58"/>
<polygon fill="none" stroke="black" points="462.62,-70.74 473.14,-71.93 465.66,-64.43 462.62,-70.74"/>
</g>
<!-- 8 -->
<g id="node3" class="node">
<title>8</title>
<polygon fill="lightgrey" stroke="black" points="239,-180 0,-180 0,-144 239,-144 239,-180"/>
<text text-anchor="middle" x="119.5" y="-159.5" font-family="Fira Mono" font-size="10.00">CL&#45;DATA&#45;STRUCTURES.META:GROW&#45;FUNCTION</text>
</g>
<!-- 7&#45;&gt;8 -->
<g id="edge4" class="edge">
<title>7&#45;&gt;8</title>
<path fill="none" stroke="black" d="M164.67,-108.3C157.48,-116.7 148.7,-126.93 140.81,-136.14"/>
<polygon fill="none" stroke="black" points="138.01,-134.03 134.16,-143.9 143.33,-138.58 138.01,-134.03"/>
</g>
<!-- 4 -->
<g id="node5" class="node">
<title>4</title>
<polygon fill="lightgrey" stroke="black" points="367,-252 146,-252 146,-216 367,-216 367,-252"/>
<text text-anchor="middle" x="256.5" y="-231.5" font-family="Fira Mono" font-size="10.00">SB&#45;MOP:FUNCALLABLE&#45;STANDARD&#45;OBJECT</text>
</g>
<!-- 8&#45;&gt;4 -->
<g id="edge5" class="edge">
<title>8&#45;&gt;4</title>
<path fill="none" stroke="black" d="M153.01,-180.12C171.34,-189.49 194.24,-201.19 213.83,-211.2"/>
<polygon fill="none" stroke="black" points="212.36,-214.38 222.86,-215.81 215.54,-208.14 212.36,-214.38"/>
</g>
<!-- 3&#45;&gt;4 -->
<g id="edge6" class="edge">
<title>3&#45;&gt;4</title>
<path fill="none" stroke="black" d="M360.74,-180.12C342.28,-189.49 319.22,-201.19 299.48,-211.2"/>
<polygon fill="none" stroke="black" points="297.72,-208.17 290.39,-215.81 300.89,-214.41 297.72,-208.17"/>
</g>
<!-- 5 -->
<g id="node6" class="node">
<title>5</title>
<polygon fill="lightgrey" stroke="black" points="325,-324 188,-324 188,-288 325,-288 325,-324"/>
<text text-anchor="middle" x="256.5" y="-303.5" font-family="Fira Mono" font-size="10.00">COMMON&#45;LISP:FUNCTION</text>
</g>
<!-- 4&#45;&gt;5 -->
<g id="edge7" class="edge">
<title>4&#45;&gt;5</title>
<path fill="none" stroke="black" d="M256.5,-252.3C256.5,-260.02 256.5,-269.29 256.5,-277.89"/>
<polygon fill="none" stroke="black" points="253,-277.9 256.5,-287.9 260,-277.9 253,-277.9"/>
</g>
<!-- 6 -->
<g id="node7" class="node">
<title>6</title>
<polygon fill="lightgrey" stroke="black" points="304,-396 209,-396 209,-360 304,-360 304,-396"/>
<text text-anchor="middle" x="256.5" y="-375.5" font-family="Fira Mono" font-size="10.00">COMMON&#45;LISP:T</text>
</g>
<!-- 5&#45;&gt;6 -->
<g id="edge8" class="edge">
<title>5&#45;&gt;6</title>
<path fill="none" stroke="black" d="M256.5,-324.3C256.5,-332.02 256.5,-341.29 256.5,-349.89"/>
<polygon fill="none" stroke="black" points="253,-349.9 256.5,-359.9 260,-349.9 253,-349.9"/>
</g>
</g>
</svg>
