<?xml version="1.0" encoding="UTF-8" standalone="no"?>
<!DOCTYPE svg PUBLIC "-//W3C//DTD SVG 1.1//EN"
 "http://www.w3.org/Graphics/SVG/1.1/DTD/svg11.dtd">
<!-- Generated by graphviz version 2.50.0 (0)
 -->
<!-- Pages: 1 -->
<svg width="758pt" height="332pt"
 viewBox="0.00 0.00 758.00 332.00" xmlns="http://www.w3.org/2000/svg" xmlns:xlink="http://www.w3.org/1999/xlink">
<g id="graph0" class="graph" transform="scale(1 1) rotate(0) translate(4 328)">
<polygon fill="transparent" stroke="transparent" points="-4,4 -4,-328 754,-328 754,4 -4,4"/>
<!-- 1 -->
<g id="node1" class="node">
<title>1</title>
<polygon fill="lightgrey" stroke="black" points="614,-36 285,-36 285,0 614,0 614,-36"/>
<text text-anchor="middle" x="449.5" y="-15.5" font-family="Fira Mono" font-size="10.00">CL&#45;DATA&#45;STRUCTURES.QUEUES.2&#45;3&#45;TREE:MUTABLE&#45;2&#45;3&#45;QUEUE</text>
</g>
<!-- 6 -->
<g id="node2" class="node">
<title>6</title>
<polygon fill="lightgrey" stroke="black" points="451,-108 128,-108 128,-72 451,-72 451,-108"/>
<text text-anchor="middle" x="289.5" y="-87.5" font-family="Fira Mono" font-size="10.00">CL&#45;DATA&#45;STRUCTURES.QUEUES:FUNDAMENTAL&#45;MUTABLE&#45;QUEUE</text>
</g>
<!-- 1&#45;&gt;6 -->
<g id="edge1" class="edge">
<title>1&#45;&gt;6</title>
<path fill="none" stroke="black" d="M410.36,-36.12C388.49,-45.69 361.04,-57.7 337.84,-67.85"/>
<polygon fill="none" stroke="black" points="336.27,-64.72 328.51,-71.93 339.08,-71.13 336.27,-64.72"/>
</g>
<!-- 2 -->
<g id="node5" class="node">
<title>2</title>
<polygon fill="lightgrey" stroke="black" points="750,-108 469,-108 469,-72 750,-72 750,-108"/>
<text text-anchor="middle" x="609.5" y="-87.5" font-family="Fira Mono" font-size="10.00">CL&#45;DATA&#45;STRUCTURES.QUEUES.2&#45;3&#45;TREE:2&#45;3&#45;QUEUE</text>
</g>
<!-- 1&#45;&gt;2 -->
<g id="edge2" class="edge">
<title>1&#45;&gt;2</title>
<path fill="none" stroke="black" d="M488.64,-36.12C510.51,-45.69 537.96,-57.7 561.16,-67.85"/>
<polygon fill="none" stroke="black" points="559.92,-71.13 570.49,-71.93 562.73,-64.72 559.92,-71.13"/>
</g>
<!-- 8 -->
<g id="node3" class="node">
<title>8</title>
<polygon fill="lightgrey" stroke="black" points="275,-180 0,-180 0,-144 275,-144 275,-180"/>
<text text-anchor="middle" x="137.5" y="-159.5" font-family="Fira Mono" font-size="10.00">CL&#45;DATA&#45;STRUCTURES.QUEUES:FUNDAMENTAL&#45;QUEUE</text>
</g>
<!-- 6&#45;&gt;8 -->
<g id="edge3" class="edge">
<title>6&#45;&gt;8</title>
<path fill="none" stroke="black" d="M252.32,-108.12C231.63,-117.65 205.7,-129.59 183.72,-139.72"/>
<polygon fill="none" stroke="black" points="182.18,-136.57 174.56,-143.93 185.11,-142.93 182.18,-136.57"/>
</g>
<!-- 7 -->
<g id="node4" class="node">
<title>7</title>
<polygon fill="lightgrey" stroke="black" points="466,-180 293,-180 293,-144 466,-144 466,-180"/>
<text text-anchor="middle" x="379.5" y="-159.5" font-family="Fira Mono" font-size="10.00">CL&#45;DATA&#45;STRUCTURES:MUTABLE</text>
</g>
<!-- 6&#45;&gt;7 -->
<g id="edge4" class="edge">
<title>6&#45;&gt;7</title>
<path fill="none" stroke="black" d="M311.75,-108.3C323.08,-117.12 337.03,-127.97 349.32,-137.53"/>
<polygon fill="none" stroke="black" points="347.47,-140.52 357.51,-143.9 351.76,-134.99 347.47,-140.52"/>
</g>
<!-- 4 -->
<g id="node7" class="node">
<title>4</title>
<polygon fill="lightgrey" stroke="black" points="508,-252 251,-252 251,-216 508,-216 508,-252"/>
<text text-anchor="middle" x="379.5" y="-231.5" font-family="Fira Mono" font-size="10.00">CL&#45;DATA&#45;STRUCTURES:FUNDAMENTAL&#45;CONTAINER</text>
</g>
<!-- 8&#45;&gt;4 -->
<g id="edge5" class="edge">
<title>8&#45;&gt;4</title>
<path fill="none" stroke="black" d="M196.39,-180.03C230.79,-189.99 274.38,-202.59 310.4,-213.01"/>
<polygon fill="none" stroke="black" points="309.77,-216.47 320.35,-215.89 311.71,-209.75 309.77,-216.47"/>
</g>
<!-- 7&#45;&gt;4 -->
<g id="edge6" class="edge">
<title>7&#45;&gt;4</title>
<path fill="none" stroke="black" d="M379.5,-180.3C379.5,-188.02 379.5,-197.29 379.5,-205.89"/>
<polygon fill="none" stroke="black" points="376,-205.9 379.5,-215.9 383,-205.9 376,-205.9"/>
</g>
<!-- 3 -->
<g id="node6" class="node">
<title>3</title>
<polygon fill="lightgrey" stroke="black" points="735,-180 484,-180 484,-144 735,-144 735,-180"/>
<text text-anchor="middle" x="609.5" y="-159.5" font-family="Fira Mono" font-size="10.00">CL&#45;DATA&#45;STRUCTURES.COMMON.2&#45;3&#45;TREE:TREE</text>
</g>
<!-- 2&#45;&gt;3 -->
<g id="edge7" class="edge">
<title>2&#45;&gt;3</title>
<path fill="none" stroke="black" d="M609.5,-108.3C609.5,-116.02 609.5,-125.29 609.5,-133.89"/>
<polygon fill="none" stroke="black" points="606,-133.9 609.5,-143.9 613,-133.9 606,-133.9"/>
</g>
<!-- 3&#45;&gt;4 -->
<g id="edge8" class="edge">
<title>3&#45;&gt;4</title>
<path fill="none" stroke="black" d="M553.53,-180.03C520.97,-189.94 479.76,-202.49 445.61,-212.88"/>
<polygon fill="none" stroke="black" points="444.27,-209.63 435.72,-215.89 446.31,-216.33 444.27,-209.63"/>
</g>
<!-- 5 -->
<g id="node8" class="node">
<title>5</title>
<polygon fill="lightgrey" stroke="black" points="478,-324 281,-324 281,-288 478,-288 478,-324"/>
<text text-anchor="middle" x="379.5" y="-303.5" font-family="Fira Mono" font-size="10.00">CL&#45;DATA&#45;STRUCTURES:TRAVERSABLE</text>
</g>
<!-- 4&#45;&gt;5 -->
<g id="edge9" class="edge">
<title>4&#45;&gt;5</title>
<path fill="none" stroke="black" d="M379.5,-252.3C379.5,-260.02 379.5,-269.29 379.5,-277.89"/>
<polygon fill="none" stroke="black" points="376,-277.9 379.5,-287.9 383,-277.9 376,-277.9"/>
</g>
</g>
</svg>
