<?xml version="1.0" encoding="UTF-8" standalone="no"?>
<!DOCTYPE svg PUBLIC "-//W3C//DTD SVG 1.1//EN"
 "http://www.w3.org/Graphics/SVG/1.1/DTD/svg11.dtd">
<!-- Generated by graphviz version 2.44.1 (0)
 -->
<!-- Pages: 1 -->
<svg width="830pt" height="332pt"
 viewBox="0.00 0.00 830.00 332.00" xmlns="http://www.w3.org/2000/svg" xmlns:xlink="http://www.w3.org/1999/xlink">
<g id="graph0" class="graph" transform="scale(1 1) rotate(0) translate(4 328)">
<polygon fill="transparent" stroke="transparent" points="-4,4 -4,-328 826,-328 826,4 -4,4"/>
<!-- 1 -->
<g id="node1" class="node">
<title>1</title>
<polygon fill="lightgrey" stroke="black" points="657,-36 334,-36 334,0 657,0 657,-36"/>
<text text-anchor="middle" x="495.5" y="-15.5" font-family="Fira Mono" font-size="10.00">CL&#45;DATA&#45;STRUCTURES.SETS.QP&#45;TRIE:MUTABLE&#45;QP&#45;TRIE&#45;SET</text>
</g>
<!-- 4 -->
<g id="node2" class="node">
<title>4</title>
<polygon fill="lightgrey" stroke="black" points="457,-108 230,-108 230,-72 457,-72 457,-108"/>
<text text-anchor="middle" x="343.5" y="-87.5" font-family="Fira Mono" font-size="10.00">CL&#45;DATA&#45;STRUCTURES.SETS:MUTABLE&#45;SET</text>
</g>
<!-- 1&#45;&gt;4 -->
<g id="edge1" class="edge">
<title>1&#45;&gt;4</title>
<path fill="none" stroke="black" d="M458.32,-36.12C437.63,-45.65 411.7,-57.59 389.72,-67.72"/>
<polygon fill="none" stroke="black" points="388.18,-64.57 380.56,-71.93 391.11,-70.93 388.18,-64.57"/>
</g>
<!-- 2 -->
<g id="node7" class="node">
<title>2</title>
<polygon fill="lightgrey" stroke="black" points="822,-108 475,-108 475,-72 822,-72 822,-108"/>
<text text-anchor="middle" x="648.5" y="-87.5" font-family="Fira Mono" font-size="10.00">CL&#45;DATA&#45;STRUCTURES.SETS.QP&#45;TRIE:FUNDAMENTAL&#45;QP&#45;TRIE&#45;SET</text>
</g>
<!-- 1&#45;&gt;2 -->
<g id="edge2" class="edge">
<title>1&#45;&gt;2</title>
<path fill="none" stroke="black" d="M532.93,-36.12C553.75,-45.65 579.85,-57.59 601.98,-67.72"/>
<polygon fill="none" stroke="black" points="600.64,-70.95 611.19,-71.93 603.56,-64.59 600.64,-70.95"/>
</g>
<!-- 6 -->
<g id="node3" class="node">
<title>6</title>
<polygon fill="lightgrey" stroke="black" points="215,-180 42,-180 42,-144 215,-144 215,-180"/>
<text text-anchor="middle" x="128.5" y="-159.5" font-family="Fira Mono" font-size="10.00">CL&#45;DATA&#45;STRUCTURES:MUTABLE</text>
</g>
<!-- 4&#45;&gt;6 -->
<g id="edge3" class="edge">
<title>4&#45;&gt;6</title>
<path fill="none" stroke="black" d="M291.18,-108.03C260.88,-117.9 222.55,-130.38 190.71,-140.75"/>
<polygon fill="none" stroke="black" points="189.48,-137.47 181.05,-143.89 191.65,-144.12 189.48,-137.47"/>
</g>
<!-- 5 -->
<g id="node6" class="node">
<title>5</title>
<polygon fill="lightgrey" stroke="black" points="484,-180 233,-180 233,-144 484,-144 484,-180"/>
<text text-anchor="middle" x="358.5" y="-159.5" font-family="Fira Mono" font-size="10.00">CL&#45;DATA&#45;STRUCTURES.SETS:FUNDAMENTAL&#45;SET</text>
</g>
<!-- 4&#45;&gt;5 -->
<g id="edge4" class="edge">
<title>4&#45;&gt;5</title>
<path fill="none" stroke="black" d="M347.21,-108.3C348.86,-116.02 350.85,-125.29 352.69,-133.89"/>
<polygon fill="none" stroke="black" points="349.32,-134.85 354.83,-143.9 356.16,-133.38 349.32,-134.85"/>
</g>
<!-- 7 -->
<g id="node4" class="node">
<title>7</title>
<polygon fill="lightgrey" stroke="black" points="257,-252 0,-252 0,-216 257,-216 257,-252"/>
<text text-anchor="middle" x="128.5" y="-231.5" font-family="Fira Mono" font-size="10.00">CL&#45;DATA&#45;STRUCTURES:FUNDAMENTAL&#45;CONTAINER</text>
</g>
<!-- 6&#45;&gt;7 -->
<g id="edge5" class="edge">
<title>6&#45;&gt;7</title>
<path fill="none" stroke="black" d="M128.5,-180.3C128.5,-188.02 128.5,-197.29 128.5,-205.89"/>
<polygon fill="none" stroke="black" points="125,-205.9 128.5,-215.9 132,-205.9 125,-205.9"/>
</g>
<!-- 8 -->
<g id="node5" class="node">
<title>8</title>
<polygon fill="lightgrey" stroke="black" points="227,-324 30,-324 30,-288 227,-288 227,-324"/>
<text text-anchor="middle" x="128.5" y="-303.5" font-family="Fira Mono" font-size="10.00">CL&#45;DATA&#45;STRUCTURES:TRAVERSABLE</text>
</g>
<!-- 7&#45;&gt;8 -->
<g id="edge6" class="edge">
<title>7&#45;&gt;8</title>
<path fill="none" stroke="black" d="M128.5,-252.3C128.5,-260.02 128.5,-269.29 128.5,-277.89"/>
<polygon fill="none" stroke="black" points="125,-277.9 128.5,-287.9 132,-277.9 125,-277.9"/>
</g>
<!-- 3 -->
<g id="node8" class="node">
<title>3</title>
<polygon fill="lightgrey" stroke="black" points="780,-180 517,-180 517,-144 780,-144 780,-180"/>
<text text-anchor="middle" x="648.5" y="-159.5" font-family="Fira Mono" font-size="10.00">CL&#45;DATA&#45;STRUCTURES.COMMON.QP&#45;TRIE:QP&#45;TRIE</text>
</g>
<!-- 2&#45;&gt;3 -->
<g id="edge7" class="edge">
<title>2&#45;&gt;3</title>
<path fill="none" stroke="black" d="M648.5,-108.3C648.5,-116.02 648.5,-125.29 648.5,-133.89"/>
<polygon fill="none" stroke="black" points="645,-133.9 648.5,-143.9 652,-133.9 645,-133.9"/>
</g>
</g>
</svg>
