<?xml version="1.0" encoding="UTF-8" standalone="no"?>
<!DOCTYPE svg PUBLIC "-//W3C//DTD SVG 1.1//EN"
 "http://www.w3.org/Graphics/SVG/1.1/DTD/svg11.dtd">
<!-- Generated by graphviz version 2.40.1 (20161225.0304)
 -->
<!-- Title: %3 Pages: 1 -->
<svg width="1180pt" height="332pt"
 viewBox="0.00 0.00 1180.00 332.00" xmlns="http://www.w3.org/2000/svg" xmlns:xlink="http://www.w3.org/1999/xlink">
<g id="graph0" class="graph" transform="scale(1 1) rotate(0) translate(4 328)">
<title>%3</title>
<polygon fill="transparent" stroke="transparent" points="-4,4 -4,-328 1176,-328 1176,4 -4,4"/>
<!-- 1 -->
<g id="node1" class="node">
<title>1</title>
<polygon fill="#d3d3d3" stroke="#000000" points="735,-36 400,-36 400,0 735,0 735,-36"/>
<text text-anchor="middle" x="567.5" y="-15.5" font-family="Fira Mono" font-size="10.00" fill="#000000">CL&#45;DATA&#45;STRUCTURES.DICTS.HAMT:MUTABLE&#45;HAMT&#45;DICTIONARY</text>
</g>
<!-- 10 -->
<g id="node2" class="node">
<title>10</title>
<polygon fill="#d3d3d3" stroke="#000000" points="333,-108 4,-108 4,-72 333,-72 333,-108"/>
<text text-anchor="middle" x="168.5" y="-87.5" font-family="Fira Mono" font-size="10.00" fill="#000000">CL&#45;DATA&#45;STRUCTURES.DICTS:ABSTRACT&#45;HASHING&#45;DICTIONARY</text>
</g>
<!-- 1&#45;&gt;10 -->
<g id="edge1" class="edge">
<title>1&#45;&gt;10</title>
<path fill="none" stroke="#000000" d="M467.5877,-36.0293C410.0895,-46.4049 337.7477,-59.4591 278.6142,-70.1298"/>
<polygon fill="none" stroke="#000000" points="277.7089,-66.7365 268.4894,-71.9568 278.952,-73.6253 277.7089,-66.7365"/>
</g>
<!-- 4 -->
<g id="node4" class="node">
<title>4</title>
<polygon fill="#d3d3d3" stroke="#000000" points="729,-108 406,-108 406,-72 729,-72 729,-108"/>
<text text-anchor="middle" x="567.5" y="-87.5" font-family="Fira Mono" font-size="10.00" fill="#000000">CL&#45;DATA&#45;STRUCTURES.DICTS:MUTABLE&#45;HASHING&#45;DICTIONARY</text>
</g>
<!-- 1&#45;&gt;4 -->
<g id="edge2" class="edge">
<title>1&#45;&gt;4</title>
<path fill="none" stroke="#000000" d="M567.5,-36.1686C567.5,-43.869 567.5,-53.0257 567.5,-61.5834"/>
<polygon fill="none" stroke="#000000" points="564.0001,-61.5867 567.5,-71.5867 571.0001,-61.5868 564.0001,-61.5867"/>
</g>
<!-- 2 -->
<g id="node10" class="node">
<title>2</title>
<polygon fill="#d3d3d3" stroke="#000000" points="1144,-108 857,-108 857,-72 1144,-72 1144,-108"/>
<text text-anchor="middle" x="1000.5" y="-87.5" font-family="Fira Mono" font-size="10.00" fill="#000000">CL&#45;DATA&#45;STRUCTURES.DICTS.HAMT:HAMT&#45;DICTIONARY</text>
</g>
<!-- 1&#45;&gt;2 -->
<g id="edge3" class="edge">
<title>1&#45;&gt;2</title>
<path fill="none" stroke="#000000" d="M675.9262,-36.0293C738.5817,-46.4478 817.4793,-59.567 881.7974,-70.2619"/>
<polygon fill="none" stroke="#000000" points="881.5515,-73.769 891.9902,-71.9568 882.6998,-66.8638 881.5515,-73.769"/>
</g>
<!-- 11 -->
<g id="node3" class="node">
<title>11</title>
<polygon fill="#d3d3d3" stroke="#000000" points="281,-180 0,-180 0,-144 281,-144 281,-180"/>
<text text-anchor="middle" x="140.5" y="-159.5" font-family="Fira Mono" font-size="10.00" fill="#000000">CL&#45;DATA&#45;STRUCTURES.DICTS:ABSTRACT&#45;DICTIONARY</text>
</g>
<!-- 10&#45;&gt;11 -->
<g id="edge4" class="edge">
<title>10&#45;&gt;11</title>
<path fill="none" stroke="#000000" d="M161.4344,-108.1686C158.374,-116.0383 154.7221,-125.4288 151.3318,-134.1467"/>
<polygon fill="none" stroke="#000000" points="148.0232,-132.9981 147.6607,-143.5867 154.5473,-135.5353 148.0232,-132.9981"/>
</g>
<!-- 8 -->
<g id="node5" class="node">
<title>8</title>
<polygon fill="#d3d3d3" stroke="#000000" points="574,-180 299,-180 299,-144 574,-144 574,-180"/>
<text text-anchor="middle" x="436.5" y="-159.5" font-family="Fira Mono" font-size="10.00" fill="#000000">CL&#45;DATA&#45;STRUCTURES.DICTS:MUTABLE&#45;DICTIONARY</text>
</g>
<!-- 4&#45;&gt;8 -->
<g id="edge5" class="edge">
<title>4&#45;&gt;8</title>
<path fill="none" stroke="#000000" d="M534.4432,-108.1686C517.5323,-117.4632 496.7615,-128.8792 478.7059,-138.8029"/>
<polygon fill="none" stroke="#000000" points="476.624,-135.9532 469.5463,-143.8372 479.9957,-142.0878 476.624,-135.9532"/>
</g>
<!-- 5 -->
<g id="node7" class="node">
<title>5</title>
<polygon fill="#d3d3d3" stroke="#000000" points="867,-180 592,-180 592,-144 867,-144 867,-180"/>
<text text-anchor="middle" x="729.5" y="-159.5" font-family="Fira Mono" font-size="10.00" fill="#000000">CL&#45;DATA&#45;STRUCTURES.DICTS:HASHING&#45;DICTIONARY</text>
</g>
<!-- 4&#45;&gt;5 -->
<g id="edge6" class="edge">
<title>4&#45;&gt;5</title>
<path fill="none" stroke="#000000" d="M608.3794,-108.1686C630.046,-117.7982 656.8363,-129.705 679.7078,-139.8701"/>
<polygon fill="none" stroke="#000000" points="678.3549,-143.0989 688.9145,-143.962 681.1979,-136.7022 678.3549,-143.0989"/>
</g>
<!-- 9 -->
<g id="node6" class="node">
<title>9</title>
<polygon fill="#d3d3d3" stroke="#000000" points="523,-252 350,-252 350,-216 523,-216 523,-252"/>
<text text-anchor="middle" x="436.5" y="-231.5" font-family="Fira Mono" font-size="10.00" fill="#000000">CL&#45;DATA&#45;STRUCTURES:MUTABLE</text>
</g>
<!-- 8&#45;&gt;9 -->
<g id="edge7" class="edge">
<title>8&#45;&gt;9</title>
<path fill="none" stroke="#000000" d="M436.5,-180.1686C436.5,-187.869 436.5,-197.0257 436.5,-205.5834"/>
<polygon fill="none" stroke="#000000" points="433.0001,-205.5867 436.5,-215.5867 440.0001,-205.5868 433.0001,-205.5867"/>
</g>
<!-- 6 -->
<g id="node8" class="node">
<title>6</title>
<polygon fill="#d3d3d3" stroke="#000000" points="768,-252 541,-252 541,-216 768,-216 768,-252"/>
<text text-anchor="middle" x="654.5" y="-231.5" font-family="Fira Mono" font-size="10.00" fill="#000000">CL&#45;DATA&#45;STRUCTURES.DICTS:DICTIONARY</text>
</g>
<!-- 8&#45;&gt;6 -->
<g id="edge8" class="edge">
<title>8&#45;&gt;6</title>
<path fill="none" stroke="#000000" d="M491.2292,-180.0757C521.2902,-190.0041 558.745,-202.3745 590.1954,-212.7618"/>
<polygon fill="none" stroke="#000000" points="589.1551,-216.1041 599.7483,-215.9169 591.3504,-209.4572 589.1551,-216.1041"/>
</g>
<!-- 7 -->
<g id="node9" class="node">
<title>7</title>
<polygon fill="#d3d3d3" stroke="#000000" points="674,-324 417,-324 417,-288 674,-288 674,-324"/>
<text text-anchor="middle" x="545.5" y="-303.5" font-family="Fira Mono" font-size="10.00" fill="#000000">CL&#45;DATA&#45;STRUCTURES:FUNDAMENTAL&#45;CONTAINER</text>
</g>
<!-- 9&#45;&gt;7 -->
<g id="edge9" class="edge">
<title>9&#45;&gt;7</title>
<path fill="none" stroke="#000000" d="M464.0053,-252.1686C477.818,-261.2926 494.7256,-272.461 509.5529,-282.2551"/>
<polygon fill="none" stroke="#000000" points="507.7304,-285.2459 518.0035,-287.8372 511.5886,-279.4051 507.7304,-285.2459"/>
</g>
<!-- 5&#45;&gt;6 -->
<g id="edge10" class="edge">
<title>5&#45;&gt;6</title>
<path fill="none" stroke="#000000" d="M710.5743,-180.1686C701.5143,-188.8663 690.5191,-199.4217 680.6735,-208.8735"/>
<polygon fill="none" stroke="#000000" points="678.2096,-206.387 673.4196,-215.8372 683.0574,-211.4367 678.2096,-206.387"/>
</g>
<!-- 6&#45;&gt;7 -->
<g id="edge11" class="edge">
<title>6&#45;&gt;7</title>
<path fill="none" stroke="#000000" d="M626.9947,-252.1686C613.182,-261.2926 596.2744,-272.461 581.4471,-282.2551"/>
<polygon fill="none" stroke="#000000" points="579.4114,-279.4051 572.9965,-287.8372 583.2696,-285.2459 579.4114,-279.4051"/>
</g>
<!-- 3 -->
<g id="node11" class="node">
<title>3</title>
<polygon fill="#d3d3d3" stroke="#000000" points="1172,-180 885,-180 885,-144 1172,-144 1172,-180"/>
<text text-anchor="middle" x="1028.5" y="-159.5" font-family="Fira Mono" font-size="10.00" fill="#000000">CL&#45;DATA&#45;STRUCTURES.COMMON.HAMT:HAMT&#45;CONTAINER</text>
</g>
<!-- 2&#45;&gt;3 -->
<g id="edge12" class="edge">
<title>2&#45;&gt;3</title>
<path fill="none" stroke="#000000" d="M1007.5656,-108.1686C1010.626,-116.0383 1014.2779,-125.4288 1017.6682,-134.1467"/>
<polygon fill="none" stroke="#000000" points="1014.4527,-135.5353 1021.3393,-143.5867 1020.9768,-132.9981 1014.4527,-135.5353"/>
</g>
</g>
</svg>
