<?xml version="1.0" encoding="UTF-8" standalone="no"?>
<!DOCTYPE svg PUBLIC "-//W3C//DTD SVG 1.1//EN"
 "http://www.w3.org/Graphics/SVG/1.1/DTD/svg11.dtd">
<!-- Generated by graphviz version 2.44.1 (0)
 -->
<!-- Pages: 1 -->
<svg width="806pt" height="188pt"
 viewBox="0.00 0.00 806.00 188.00" xmlns="http://www.w3.org/2000/svg" xmlns:xlink="http://www.w3.org/1999/xlink">
<g id="graph0" class="graph" transform="scale(1 1) rotate(0) translate(4 184)">
<polygon fill="transparent" stroke="transparent" points="-4,4 -4,-184 802,-184 802,4 -4,4"/>
<!-- 1 -->
<g id="node1" class="node">
<title>1</title>
<polygon fill="lightgrey" stroke="black" points="532,-36 281,-36 281,0 532,0 532,-36"/>
<text text-anchor="middle" x="406.5" y="-15.5" font-family="Fira Mono" font-size="10.00">CL&#45;DATA&#45;STRUCTURES.META:ERASE!&#45;FUNCTION</text>
</g>
<!-- 4 -->
<g id="node2" class="node">
<title>4</title>
<polygon fill="lightgrey" stroke="black" points="248,-108 3,-108 3,-72 248,-72 248,-108"/>
<text text-anchor="middle" x="125.5" y="-87.5" font-family="Fira Mono" font-size="10.00">CL&#45;DATA&#45;STRUCTURES.META:ERASE&#45;FUNCTION</text>
</g>
<!-- 1&#45;&gt;4 -->
<g id="edge1" class="edge">
<title>1&#45;&gt;4</title>
<path fill="none" stroke="black" d="M338.12,-36.03C297.66,-46.11 246.26,-58.92 204.13,-69.41"/>
<polygon fill="none" stroke="black" points="203.05,-66.08 194.19,-71.89 204.74,-72.87 203.05,-66.08"/>
</g>
<!-- 3 -->
<g id="node4" class="node">
<title>3</title>
<polygon fill="lightgrey" stroke="black" points="547,-108 266,-108 266,-72 547,-72 547,-108"/>
<text text-anchor="middle" x="406.5" y="-87.5" font-family="Fira Mono" font-size="10.00">CL&#45;DATA&#45;STRUCTURES.META:DESTRUCTIVE&#45;FUNCTION</text>
</g>
<!-- 1&#45;&gt;3 -->
<g id="edge2" class="edge">
<title>1&#45;&gt;3</title>
<path fill="none" stroke="black" d="M406.5,-36.3C406.5,-44.02 406.5,-53.29 406.5,-61.89"/>
<polygon fill="none" stroke="black" points="403,-61.9 406.5,-71.9 410,-61.9 403,-61.9"/>
</g>
<!-- 2 -->
<g id="node5" class="node">
<title>2</title>
<polygon fill="lightgrey" stroke="black" points="798,-108 565,-108 565,-72 798,-72 798,-108"/>
<text text-anchor="middle" x="681.5" y="-87.5" font-family="Fira Mono" font-size="10.00">CLOSER&#45;MOP:STANDARD&#45;GENERIC&#45;FUNCTION</text>
</g>
<!-- 1&#45;&gt;2 -->
<g id="edge3" class="edge">
<title>1&#45;&gt;2</title>
<path fill="none" stroke="black" d="M473.42,-36.03C513.01,-46.11 563.32,-58.92 604.55,-69.41"/>
<polygon fill="none" stroke="black" points="603.72,-72.81 614.28,-71.89 605.45,-66.03 603.72,-72.81"/>
</g>
<!-- 5 -->
<g id="node3" class="node">
<title>5</title>
<polygon fill="lightgrey" stroke="black" points="251,-180 0,-180 0,-144 251,-144 251,-180"/>
<text text-anchor="middle" x="125.5" y="-159.5" font-family="Fira Mono" font-size="10.00">CL&#45;DATA&#45;STRUCTURES.META:SHRINK&#45;FUNCTION</text>
</g>
<!-- 4&#45;&gt;5 -->
<g id="edge4" class="edge">
<title>4&#45;&gt;5</title>
<path fill="none" stroke="black" d="M125.5,-108.3C125.5,-116.02 125.5,-125.29 125.5,-133.89"/>
<polygon fill="none" stroke="black" points="122,-133.9 125.5,-143.9 129,-133.9 122,-133.9"/>
</g>
</g>
</svg>
