<?xml version="1.0" encoding="UTF-8" standalone="no"?>
<!DOCTYPE svg PUBLIC "-//W3C//DTD SVG 1.1//EN"
 "http://www.w3.org/Graphics/SVG/1.1/DTD/svg11.dtd">
<!-- Generated by graphviz version 2.50.0 (0)
 -->
<!-- Pages: 1 -->
<svg width="645pt" height="404pt"
 viewBox="0.00 0.00 645.00 404.00" xmlns="http://www.w3.org/2000/svg" xmlns:xlink="http://www.w3.org/1999/xlink">
<g id="graph0" class="graph" transform="scale(1 1) rotate(0) translate(4 400)">
<polygon fill="transparent" stroke="transparent" points="-4,4 -4,-400 641,-400 641,4 -4,4"/>
<!-- 1 -->
<g id="node1" class="node">
<title>1</title>
<polygon fill="lightgrey" stroke="black" points="540,-36 211,-36 211,0 540,0 540,-36"/>
<text text-anchor="middle" x="375.5" y="-15.5" font-family="Fira Mono" font-size="10.00">CL&#45;DATA&#45;STRUCTURES.META:FUNCTIONAL&#45;ERASE&#45;IF&#45;FUNCTION</text>
</g>
<!-- 7 -->
<g id="node2" class="node">
<title>7</title>
<polygon fill="lightgrey" stroke="black" points="317,-108 54,-108 54,-72 317,-72 317,-108"/>
<text text-anchor="middle" x="185.5" y="-87.5" font-family="Fira Mono" font-size="10.00">CL&#45;DATA&#45;STRUCTURES.META:ERASE&#45;IF&#45;FUNCTION</text>
</g>
<!-- 1&#45;&gt;7 -->
<g id="edge1" class="edge">
<title>1&#45;&gt;7</title>
<path fill="none" stroke="black" d="M329.02,-36.12C302.58,-45.86 269.3,-58.13 241.44,-68.39"/>
<polygon fill="none" stroke="black" points="240,-65.19 231.83,-71.93 242.42,-71.76 240,-65.19"/>
</g>
<!-- 3 -->
<g id="node4" class="node">
<title>3</title>
<polygon fill="lightgrey" stroke="black" points="544,-180 269,-180 269,-144 544,-144 544,-180"/>
<text text-anchor="middle" x="406.5" y="-159.5" font-family="Fira Mono" font-size="10.00">CL&#45;DATA&#45;STRUCTURES.META:FUNCTIONAL&#45;FUNCTION</text>
</g>
<!-- 1&#45;&gt;3 -->
<g id="edge2" class="edge">
<title>1&#45;&gt;3</title>
<path fill="none" stroke="black" d="M379.24,-36.13C384.55,-60.44 394.31,-105.18 400.6,-133.99"/>
<polygon fill="none" stroke="black" points="397.2,-134.79 402.75,-143.81 404.03,-133.29 397.2,-134.79"/>
</g>
<!-- 2 -->
<g id="node8" class="node">
<title>2</title>
<polygon fill="lightgrey" stroke="black" points="637,-108 404,-108 404,-72 637,-72 637,-108"/>
<text text-anchor="middle" x="520.5" y="-87.5" font-family="Fira Mono" font-size="10.00">CLOSER&#45;MOP:STANDARD&#45;GENERIC&#45;FUNCTION</text>
</g>
<!-- 1&#45;&gt;2 -->
<g id="edge3" class="edge">
<title>1&#45;&gt;2</title>
<path fill="none" stroke="black" d="M410.97,-36.12C430.62,-45.61 455.22,-57.49 476.13,-67.58"/>
<polygon fill="none" stroke="black" points="474.62,-70.74 485.14,-71.93 477.66,-64.43 474.62,-70.74"/>
</g>
<!-- 8 -->
<g id="node3" class="node">
<title>8</title>
<polygon fill="lightgrey" stroke="black" points="251,-180 0,-180 0,-144 251,-144 251,-180"/>
<text text-anchor="middle" x="125.5" y="-159.5" font-family="Fira Mono" font-size="10.00">CL&#45;DATA&#45;STRUCTURES.META:SHRINK&#45;FUNCTION</text>
</g>
<!-- 7&#45;&gt;8 -->
<g id="edge4" class="edge">
<title>7&#45;&gt;8</title>
<path fill="none" stroke="black" d="M170.67,-108.3C163.48,-116.7 154.7,-126.93 146.81,-136.14"/>
<polygon fill="none" stroke="black" points="144.01,-134.03 140.16,-143.9 149.33,-138.58 144.01,-134.03"/>
</g>
<!-- 4 -->
<g id="node5" class="node">
<title>4</title>
<polygon fill="lightgrey" stroke="black" points="376,-252 155,-252 155,-216 376,-216 376,-252"/>
<text text-anchor="middle" x="265.5" y="-231.5" font-family="Fira Mono" font-size="10.00">SB&#45;MOP:FUNCALLABLE&#45;STANDARD&#45;OBJECT</text>
</g>
<!-- 8&#45;&gt;4 -->
<g id="edge5" class="edge">
<title>8&#45;&gt;4</title>
<path fill="none" stroke="black" d="M159.75,-180.12C178.56,-189.53 202.08,-201.29 222.17,-211.33"/>
<polygon fill="none" stroke="black" points="220.61,-214.47 231.12,-215.81 223.74,-208.21 220.61,-214.47"/>
</g>
<!-- 3&#45;&gt;4 -->
<g id="edge6" class="edge">
<title>3&#45;&gt;4</title>
<path fill="none" stroke="black" d="M372.01,-180.12C353.06,-189.53 329.37,-201.29 309.14,-211.33"/>
<polygon fill="none" stroke="black" points="307.53,-208.23 300.13,-215.81 310.64,-214.5 307.53,-208.23"/>
</g>
<!-- 5 -->
<g id="node6" class="node">
<title>5</title>
<polygon fill="lightgrey" stroke="black" points="334,-324 197,-324 197,-288 334,-288 334,-324"/>
<text text-anchor="middle" x="265.5" y="-303.5" font-family="Fira Mono" font-size="10.00">COMMON&#45;LISP:FUNCTION</text>
</g>
<!-- 4&#45;&gt;5 -->
<g id="edge7" class="edge">
<title>4&#45;&gt;5</title>
<path fill="none" stroke="black" d="M265.5,-252.3C265.5,-260.02 265.5,-269.29 265.5,-277.89"/>
<polygon fill="none" stroke="black" points="262,-277.9 265.5,-287.9 269,-277.9 262,-277.9"/>
</g>
<!-- 6 -->
<g id="node7" class="node">
<title>6</title>
<polygon fill="lightgrey" stroke="black" points="313,-396 218,-396 218,-360 313,-360 313,-396"/>
<text text-anchor="middle" x="265.5" y="-375.5" font-family="Fira Mono" font-size="10.00">COMMON&#45;LISP:T</text>
</g>
<!-- 5&#45;&gt;6 -->
<g id="edge8" class="edge">
<title>5&#45;&gt;6</title>
<path fill="none" stroke="black" d="M265.5,-324.3C265.5,-332.02 265.5,-341.29 265.5,-349.89"/>
<polygon fill="none" stroke="black" points="262,-349.9 265.5,-359.9 269,-349.9 262,-349.9"/>
</g>
</g>
</svg>
