<?xml version="1.0" encoding="UTF-8" standalone="no"?>
<!DOCTYPE svg PUBLIC "-//W3C//DTD SVG 1.1//EN"
 "http://www.w3.org/Graphics/SVG/1.1/DTD/svg11.dtd">
<!-- Generated by graphviz version 2.40.1 (20161225.0304)
 -->
<!-- Title: %3 Pages: 1 -->
<svg width="666pt" height="332pt"
 viewBox="0.00 0.00 666.00 332.00" xmlns="http://www.w3.org/2000/svg" xmlns:xlink="http://www.w3.org/1999/xlink">
<g id="graph0" class="graph" transform="scale(1 1) rotate(0) translate(4 328)">
<title>%3</title>
<polygon fill="transparent" stroke="transparent" points="-4,4 -4,-328 662,-328 662,4 -4,4"/>
<!-- 1 -->
<g id="node1" class="node">
<title>1</title>
<polygon fill="#d3d3d3" stroke="#000000" points="486,-36 145,-36 145,0 486,0 486,-36"/>
<text text-anchor="middle" x="315.5" y="-15.5" font-family="Fira Mono" font-size="10.00" fill="#000000">CL&#45;DATA&#45;STRUCTURES.DICTS:FUNCTIONAL&#45;HASHING&#45;DICTIONARY</text>
</g>
<!-- 6 -->
<g id="node2" class="node">
<title>6</title>
<polygon fill="#d3d3d3" stroke="#000000" points="293,-108 0,-108 0,-72 293,-72 293,-108"/>
<text text-anchor="middle" x="146.5" y="-87.5" font-family="Fira Mono" font-size="10.00" fill="#000000">CL&#45;DATA&#45;STRUCTURES.DICTS:FUNCTIONAL&#45;DICTIONARY</text>
</g>
<!-- 1&#45;&gt;6 -->
<g id="edge1" class="edge">
<title>1&#45;&gt;6</title>
<path fill="none" stroke="#000000" d="M272.8542,-36.1686C250.151,-45.841 222.0549,-57.8109 198.1258,-68.0056"/>
<polygon fill="none" stroke="#000000" points="196.6672,-64.8225 188.8392,-71.962 199.4109,-71.2624 196.6672,-64.8225"/>
</g>
<!-- 2 -->
<g id="node4" class="node">
<title>2</title>
<polygon fill="#d3d3d3" stroke="#000000" points="658,-108 311,-108 311,-72 658,-72 658,-108"/>
<text text-anchor="middle" x="484.5" y="-87.5" font-family="Fira Mono" font-size="10.00" fill="#000000">CL&#45;DATA&#45;STRUCTURES.DICTS:FUNDAMENTAL&#45;HASHING&#45;DICTIONARY</text>
</g>
<!-- 1&#45;&gt;2 -->
<g id="edge2" class="edge">
<title>1&#45;&gt;2</title>
<path fill="none" stroke="#000000" d="M358.1458,-36.1686C380.849,-45.841 408.9451,-57.8109 432.8742,-68.0056"/>
<polygon fill="none" stroke="#000000" points="431.5891,-71.2624 442.1608,-71.962 434.3328,-64.8225 431.5891,-71.2624"/>
</g>
<!-- 7 -->
<g id="node3" class="node">
<title>7</title>
<polygon fill="#d3d3d3" stroke="#000000" points="242,-180 51,-180 51,-144 242,-144 242,-180"/>
<text text-anchor="middle" x="146.5" y="-159.5" font-family="Fira Mono" font-size="10.00" fill="#000000">CL&#45;DATA&#45;STRUCTURES:FUNCTIONAL</text>
</g>
<!-- 6&#45;&gt;7 -->
<g id="edge3" class="edge">
<title>6&#45;&gt;7</title>
<path fill="none" stroke="#000000" d="M146.5,-108.1686C146.5,-115.869 146.5,-125.0257 146.5,-133.5834"/>
<polygon fill="none" stroke="#000000" points="143.0001,-133.5867 146.5,-143.5867 150.0001,-133.5868 143.0001,-133.5867"/>
</g>
<!-- 3 -->
<g id="node5" class="node">
<title>3</title>
<polygon fill="#d3d3d3" stroke="#000000" points="559,-180 260,-180 260,-144 559,-144 559,-180"/>
<text text-anchor="middle" x="409.5" y="-159.5" font-family="Fira Mono" font-size="10.00" fill="#000000">CL&#45;DATA&#45;STRUCTURES.DICTS:FUNDAMENTAL&#45;DICTIONARY</text>
</g>
<!-- 6&#45;&gt;3 -->
<g id="edge4" class="edge">
<title>6&#45;&gt;3</title>
<path fill="none" stroke="#000000" d="M212.5265,-108.0757C249.2618,-118.1325 295.1492,-130.6948 333.3898,-141.1637"/>
<polygon fill="none" stroke="#000000" points="332.877,-144.6521 343.4463,-143.9169 334.7254,-137.9005 332.877,-144.6521"/>
</g>
<!-- 4 -->
<g id="node6" class="node">
<title>4</title>
<polygon fill="#d3d3d3" stroke="#000000" points="406,-252 149,-252 149,-216 406,-216 406,-252"/>
<text text-anchor="middle" x="277.5" y="-231.5" font-family="Fira Mono" font-size="10.00" fill="#000000">CL&#45;DATA&#45;STRUCTURES:FUNDAMENTAL&#45;CONTAINER</text>
</g>
<!-- 7&#45;&gt;4 -->
<g id="edge5" class="edge">
<title>7&#45;&gt;4</title>
<path fill="none" stroke="#000000" d="M179.5568,-180.1686C196.4677,-189.4632 217.2385,-200.8792 235.2941,-210.8029"/>
<polygon fill="none" stroke="#000000" points="234.0043,-214.0878 244.4537,-215.8372 237.376,-207.9532 234.0043,-214.0878"/>
</g>
<!-- 2&#45;&gt;3 -->
<g id="edge6" class="edge">
<title>2&#45;&gt;3</title>
<path fill="none" stroke="#000000" d="M465.5743,-108.1686C456.5143,-116.8663 445.5191,-127.4217 435.6735,-136.8735"/>
<polygon fill="none" stroke="#000000" points="433.2096,-134.387 428.4196,-143.8372 438.0574,-139.4367 433.2096,-134.387"/>
</g>
<!-- 3&#45;&gt;4 -->
<g id="edge7" class="edge">
<title>3&#45;&gt;4</title>
<path fill="none" stroke="#000000" d="M376.1908,-180.1686C359.0727,-189.5058 338.0294,-200.984 319.7778,-210.9394"/>
<polygon fill="none" stroke="#000000" points="317.9015,-207.976 310.7985,-215.8372 321.2535,-214.1212 317.9015,-207.976"/>
</g>
<!-- 5 -->
<g id="node7" class="node">
<title>5</title>
<polygon fill="#d3d3d3" stroke="#000000" points="376,-324 179,-324 179,-288 376,-288 376,-324"/>
<text text-anchor="middle" x="277.5" y="-303.5" font-family="Fira Mono" font-size="10.00" fill="#000000">CL&#45;DATA&#45;STRUCTURES:TRAVERSABLE</text>
</g>
<!-- 4&#45;&gt;5 -->
<g id="edge8" class="edge">
<title>4&#45;&gt;5</title>
<path fill="none" stroke="#000000" d="M277.5,-252.1686C277.5,-259.869 277.5,-269.0257 277.5,-277.5834"/>
<polygon fill="none" stroke="#000000" points="274.0001,-277.5867 277.5,-287.5867 281.0001,-277.5868 274.0001,-277.5867"/>
</g>
</g>
</svg>
