<?xml version="1.0" encoding="UTF-8" standalone="no"?>
<!DOCTYPE svg PUBLIC "-//W3C//DTD SVG 1.1//EN"
 "http://www.w3.org/Graphics/SVG/1.1/DTD/svg11.dtd">
<!-- Generated by graphviz version 2.46.1 (0)
 -->
<!-- Pages: 1 -->
<svg width="516pt" height="260pt"
 viewBox="0.00 0.00 516.00 260.00" xmlns="http://www.w3.org/2000/svg" xmlns:xlink="http://www.w3.org/1999/xlink">
<g id="graph0" class="graph" transform="scale(1 1) rotate(0) translate(4 256)">
<polygon fill="transparent" stroke="transparent" points="-4,4 -4,-256 512,-256 512,4 -4,4"/>
<!-- 1 -->
<g id="node1" class="node">
<title>1</title>
<polygon fill="lightgrey" stroke="black" points="373,-36 80,-36 80,0 373,0 373,-36"/>
<text text-anchor="middle" x="226.5" y="-15.5" font-family="Fira Mono" font-size="10.00">CL&#45;DATA&#45;STRUCTURES.DICTS:FUNCTIONAL&#45;DICTIONARY</text>
</g>
<!-- 5 -->
<g id="node2" class="node">
<title>5</title>
<polygon fill="lightgrey" stroke="black" points="191,-108 0,-108 0,-72 191,-72 191,-108"/>
<text text-anchor="middle" x="95.5" y="-87.5" font-family="Fira Mono" font-size="10.00">CL&#45;DATA&#45;STRUCTURES:FUNCTIONAL</text>
</g>
<!-- 1&#45;&gt;5 -->
<g id="edge1" class="edge">
<title>1&#45;&gt;5</title>
<path fill="none" stroke="black" d="M194.45,-36.12C177.01,-45.45 155.23,-57.08 136.56,-67.06"/>
<polygon fill="none" stroke="black" points="134.84,-64.01 127.67,-71.81 138.14,-70.18 134.84,-64.01"/>
</g>
<!-- 2 -->
<g id="node3" class="node">
<title>2</title>
<polygon fill="lightgrey" stroke="black" points="508,-108 209,-108 209,-72 508,-72 508,-108"/>
<text text-anchor="middle" x="358.5" y="-87.5" font-family="Fira Mono" font-size="10.00">CL&#45;DATA&#45;STRUCTURES.DICTS:FUNDAMENTAL&#45;DICTIONARY</text>
</g>
<!-- 1&#45;&gt;2 -->
<g id="edge2" class="edge">
<title>1&#45;&gt;2</title>
<path fill="none" stroke="black" d="M258.79,-36.12C276.37,-45.45 298.31,-57.08 317.13,-67.06"/>
<polygon fill="none" stroke="black" points="315.61,-70.22 326.09,-71.81 318.89,-64.03 315.61,-70.22"/>
</g>
<!-- 3 -->
<g id="node4" class="node">
<title>3</title>
<polygon fill="lightgrey" stroke="black" points="355,-180 98,-180 98,-144 355,-144 355,-180"/>
<text text-anchor="middle" x="226.5" y="-159.5" font-family="Fira Mono" font-size="10.00">CL&#45;DATA&#45;STRUCTURES:FUNDAMENTAL&#45;CONTAINER</text>
</g>
<!-- 5&#45;&gt;3 -->
<g id="edge3" class="edge">
<title>5&#45;&gt;3</title>
<path fill="none" stroke="black" d="M127.55,-108.12C144.99,-117.45 166.77,-129.08 185.44,-139.06"/>
<polygon fill="none" stroke="black" points="183.86,-142.18 194.33,-143.81 187.16,-136.01 183.86,-142.18"/>
</g>
<!-- 2&#45;&gt;3 -->
<g id="edge4" class="edge">
<title>2&#45;&gt;3</title>
<path fill="none" stroke="black" d="M326.21,-108.12C308.63,-117.45 286.69,-129.08 267.87,-139.06"/>
<polygon fill="none" stroke="black" points="266.11,-136.03 258.91,-143.81 269.39,-142.22 266.11,-136.03"/>
</g>
<!-- 4 -->
<g id="node5" class="node">
<title>4</title>
<polygon fill="lightgrey" stroke="black" points="325,-252 128,-252 128,-216 325,-216 325,-252"/>
<text text-anchor="middle" x="226.5" y="-231.5" font-family="Fira Mono" font-size="10.00">CL&#45;DATA&#45;STRUCTURES:TRAVERSABLE</text>
</g>
<!-- 3&#45;&gt;4 -->
<g id="edge5" class="edge">
<title>3&#45;&gt;4</title>
<path fill="none" stroke="black" d="M226.5,-180.3C226.5,-188.02 226.5,-197.29 226.5,-205.89"/>
<polygon fill="none" stroke="black" points="223,-205.9 226.5,-215.9 230,-205.9 223,-205.9"/>
</g>
</g>
</svg>
