<?xml version="1.0" encoding="UTF-8" standalone="no"?>
<!DOCTYPE svg PUBLIC "-//W3C//DTD SVG 1.1//EN"
 "http://www.w3.org/Graphics/SVG/1.1/DTD/svg11.dtd">
<!-- Generated by graphviz version 2.44.1 (0)
 -->
<!-- Pages: 1 -->
<svg width="809pt" height="188pt"
 viewBox="0.00 0.00 809.00 188.00" xmlns="http://www.w3.org/2000/svg" xmlns:xlink="http://www.w3.org/1999/xlink">
<g id="graph0" class="graph" transform="scale(1 1) rotate(0) translate(4 184)">
<polygon fill="transparent" stroke="transparent" points="-4,4 -4,-184 805,-184 805,4 -4,4"/>
<!-- 1 -->
<g id="node1" class="node">
<title>1</title>
<polygon fill="lightgrey" stroke="black" points="538,-36 281,-36 281,0 538,0 538,-36"/>
<text text-anchor="middle" x="409.5" y="-15.5" font-family="Fira Mono" font-size="10.00">CL&#45;DATA&#45;STRUCTURES.META:INSERT!&#45;FUNCTION</text>
</g>
<!-- 4 -->
<g id="node2" class="node">
<title>4</title>
<polygon fill="lightgrey" stroke="black" points="251,-108 0,-108 0,-72 251,-72 251,-108"/>
<text text-anchor="middle" x="125.5" y="-87.5" font-family="Fira Mono" font-size="10.00">CL&#45;DATA&#45;STRUCTURES.META:INSERT&#45;FUNCTION</text>
</g>
<!-- 1&#45;&gt;4 -->
<g id="edge1" class="edge">
<title>1&#45;&gt;4</title>
<path fill="none" stroke="black" d="M340.39,-36.03C299.41,-46.13 247.33,-58.97 204.7,-69.48"/>
<polygon fill="none" stroke="black" points="203.79,-66.1 194.92,-71.89 205.47,-72.89 203.79,-66.1"/>
</g>
<!-- 3 -->
<g id="node4" class="node">
<title>3</title>
<polygon fill="lightgrey" stroke="black" points="550,-108 269,-108 269,-72 550,-72 550,-108"/>
<text text-anchor="middle" x="409.5" y="-87.5" font-family="Fira Mono" font-size="10.00">CL&#45;DATA&#45;STRUCTURES.META:DESTRUCTIVE&#45;FUNCTION</text>
</g>
<!-- 1&#45;&gt;3 -->
<g id="edge2" class="edge">
<title>1&#45;&gt;3</title>
<path fill="none" stroke="black" d="M409.5,-36.3C409.5,-44.02 409.5,-53.29 409.5,-61.89"/>
<polygon fill="none" stroke="black" points="406,-61.9 409.5,-71.9 413,-61.9 406,-61.9"/>
</g>
<!-- 2 -->
<g id="node5" class="node">
<title>2</title>
<polygon fill="lightgrey" stroke="black" points="801,-108 568,-108 568,-72 801,-72 801,-108"/>
<text text-anchor="middle" x="684.5" y="-87.5" font-family="Fira Mono" font-size="10.00">CLOSER&#45;MOP:STANDARD&#45;GENERIC&#45;FUNCTION</text>
</g>
<!-- 1&#45;&gt;2 -->
<g id="edge3" class="edge">
<title>1&#45;&gt;2</title>
<path fill="none" stroke="black" d="M476.42,-36.03C516.01,-46.11 566.32,-58.92 607.55,-69.41"/>
<polygon fill="none" stroke="black" points="606.72,-72.81 617.28,-71.89 608.45,-66.03 606.72,-72.81"/>
</g>
<!-- 5 -->
<g id="node3" class="node">
<title>5</title>
<polygon fill="lightgrey" stroke="black" points="245,-180 6,-180 6,-144 245,-144 245,-180"/>
<text text-anchor="middle" x="125.5" y="-159.5" font-family="Fira Mono" font-size="10.00">CL&#45;DATA&#45;STRUCTURES.META:GROW&#45;FUNCTION</text>
</g>
<!-- 4&#45;&gt;5 -->
<g id="edge4" class="edge">
<title>4&#45;&gt;5</title>
<path fill="none" stroke="black" d="M125.5,-108.3C125.5,-116.02 125.5,-125.29 125.5,-133.89"/>
<polygon fill="none" stroke="black" points="122,-133.9 125.5,-143.9 129,-133.9 122,-133.9"/>
</g>
</g>
</svg>
