<?xml version="1.0" encoding="UTF-8" standalone="no"?>
<!DOCTYPE svg PUBLIC "-//W3C//DTD SVG 1.1//EN"
 "http://www.w3.org/Graphics/SVG/1.1/DTD/svg11.dtd">
<!-- Generated by graphviz version 3.0.0 (0)
 -->
<!-- Pages: 1 -->
<svg width="229pt" height="188pt"
 viewBox="0.00 0.00 229.00 188.00" xmlns="http://www.w3.org/2000/svg" xmlns:xlink="http://www.w3.org/1999/xlink">
<g id="graph0" class="graph" transform="scale(1 1) rotate(0) translate(4 184)">
<polygon fill="transparent" stroke="transparent" points="-4,4 -4,-184 225,-184 225,4 -4,4"/>
<!-- 1 -->
<g id="node1" class="node">
<title>1</title>
<polygon fill="lightgrey" stroke="black" points="221,-36 0,-36 0,0 221,0 221,-36"/>
<text text-anchor="middle" x="110.5" y="-15.5" font-family="Fira Mono" font-size="10.00">CL&#45;DATA&#45;STRUCTURES:NOT&#45;IMPLEMENTED</text>
</g>
<!-- 2 -->
<g id="node2" class="node">
<title>2</title>
<polygon fill="lightgrey" stroke="black" points="191,-108 30,-108 30,-72 191,-72 191,-108"/>
<text text-anchor="middle" x="110.5" y="-87.5" font-family="Fira Mono" font-size="10.00">COMMON&#45;LISP:SIMPLE&#45;ERROR</text>
</g>
<!-- 1&#45;&gt;2 -->
<g id="edge1" class="edge">
<title>1&#45;&gt;2</title>
<path fill="none" stroke="black" d="M110.5,-36.3C110.5,-44.02 110.5,-53.29 110.5,-61.89"/>
<polygon fill="none" stroke="black" points="107,-61.9 110.5,-71.9 114,-61.9 107,-61.9"/>
</g>
<!-- 3 -->
<g id="node3" class="node">
<title>3</title>
<polygon fill="lightgrey" stroke="black" points="203,-180 18,-180 18,-144 203,-144 203,-180"/>
<text text-anchor="middle" x="110.5" y="-159.5" font-family="Fira Mono" font-size="10.00">COMMON&#45;LISP:SIMPLE&#45;CONDITION</text>
</g>
<!-- 2&#45;&gt;3 -->
<g id="edge2" class="edge">
<title>2&#45;&gt;3</title>
<path fill="none" stroke="black" d="M110.5,-108.3C110.5,-116.02 110.5,-125.29 110.5,-133.89"/>
<polygon fill="none" stroke="black" points="107,-133.9 110.5,-143.9 114,-133.9 107,-133.9"/>
</g>
</g>
</svg>
