<?xml version="1.0" encoding="UTF-8" standalone="no"?>
<!DOCTYPE svg PUBLIC "-//W3C//DTD SVG 1.1//EN"
 "http://www.w3.org/Graphics/SVG/1.1/DTD/svg11.dtd">
<!-- Generated by graphviz version 2.40.1 (20161225.0304)
 -->
<!-- Title: %3 Pages: 1 -->
<svg width="1297pt" height="404pt"
 viewBox="0.00 0.00 1297.00 404.00" xmlns="http://www.w3.org/2000/svg" xmlns:xlink="http://www.w3.org/1999/xlink">
<g id="graph0" class="graph" transform="scale(1 1) rotate(0) translate(4 400)">
<title>%3</title>
<polygon fill="transparent" stroke="transparent" points="-4,4 -4,-400 1293,-400 1293,4 -4,4"/>
<!-- 1 -->
<g id="node1" class="node">
<title>1</title>
<polygon fill="#d3d3d3" stroke="#000000" points="864,-36 529,-36 529,0 864,0 864,-36"/>
<text text-anchor="middle" x="696.5" y="-15.5" font-family="Fira Mono" font-size="10.00" fill="#000000">CL&#45;DATA&#45;STRUCTURES.DICTS.HAMT:MUTABLE&#45;HAMT&#45;DICTIONARY</text>
</g>
<!-- 9 -->
<g id="node2" class="node">
<title>9</title>
<polygon fill="#d3d3d3" stroke="#000000" points="679,-108 392,-108 392,-72 679,-72 679,-108"/>
<text text-anchor="middle" x="535.5" y="-87.5" font-family="Fira Mono" font-size="10.00" fill="#000000">CL&#45;DATA&#45;STRUCTURES.DICTS.HAMT:HAMT&#45;DICTIONARY</text>
</g>
<!-- 1&#45;&gt;9 -->
<g id="edge1" class="edge">
<title>1&#45;&gt;9</title>
<path fill="none" stroke="#000000" d="M655.8729,-36.1686C634.3401,-45.7982 607.7151,-57.705 584.9848,-67.8701"/>
<polygon fill="none" stroke="#000000" points="583.5348,-64.6845 575.835,-71.962 586.3926,-71.0746 583.5348,-64.6845"/>
</g>
<!-- 2 -->
<g id="node7" class="node">
<title>2</title>
<polygon fill="#d3d3d3" stroke="#000000" points="1020,-108 697,-108 697,-72 1020,-72 1020,-108"/>
<text text-anchor="middle" x="858.5" y="-87.5" font-family="Fira Mono" font-size="10.00" fill="#000000">CL&#45;DATA&#45;STRUCTURES.DICTS:MUTABLE&#45;HASHING&#45;DICTIONARY</text>
</g>
<!-- 1&#45;&gt;2 -->
<g id="edge2" class="edge">
<title>1&#45;&gt;2</title>
<path fill="none" stroke="#000000" d="M737.3794,-36.1686C759.046,-45.7982 785.8363,-57.705 808.7078,-67.8701"/>
<polygon fill="none" stroke="#000000" points="807.3549,-71.0989 817.9145,-71.962 810.1979,-64.7022 807.3549,-71.0989"/>
</g>
<!-- 12 -->
<g id="node3" class="node">
<title>12</title>
<polygon fill="#d3d3d3" stroke="#000000" points="349,-180 2,-180 2,-144 349,-144 349,-180"/>
<text text-anchor="middle" x="175.5" y="-159.5" font-family="Fira Mono" font-size="10.00" fill="#000000">CL&#45;DATA&#45;STRUCTURES.DICTS:FUNDAMENTAL&#45;HASHING&#45;DICTIONARY</text>
</g>
<!-- 9&#45;&gt;12 -->
<g id="edge3" class="edge">
<title>9&#45;&gt;12</title>
<path fill="none" stroke="#000000" d="M445.1215,-108.0757C393.5628,-118.3874 328.8332,-131.3334 275.7211,-141.9558"/>
<polygon fill="none" stroke="#000000" points="274.7228,-138.586 265.6034,-143.9793 276.0957,-145.4501 274.7228,-138.586"/>
</g>
<!-- 10 -->
<g id="node5" class="node">
<title>10</title>
<polygon fill="#d3d3d3" stroke="#000000" points="679,-180 392,-180 392,-144 679,-144 679,-180"/>
<text text-anchor="middle" x="535.5" y="-159.5" font-family="Fira Mono" font-size="10.00" fill="#000000">CL&#45;DATA&#45;STRUCTURES.COMMON.HAMT:HAMT&#45;CONTAINER</text>
</g>
<!-- 9&#45;&gt;10 -->
<g id="edge4" class="edge">
<title>9&#45;&gt;10</title>
<path fill="none" stroke="#000000" d="M535.5,-108.1686C535.5,-115.869 535.5,-125.0257 535.5,-133.5834"/>
<polygon fill="none" stroke="#000000" points="532.0001,-133.5867 535.5,-143.5867 539.0001,-133.5868 532.0001,-133.5867"/>
</g>
<!-- 13 -->
<g id="node4" class="node">
<title>13</title>
<polygon fill="#d3d3d3" stroke="#000000" points="299,-252 0,-252 0,-216 299,-216 299,-252"/>
<text text-anchor="middle" x="149.5" y="-231.5" font-family="Fira Mono" font-size="10.00" fill="#000000">CL&#45;DATA&#45;STRUCTURES.DICTS:FUNDAMENTAL&#45;DICTIONARY</text>
</g>
<!-- 12&#45;&gt;13 -->
<g id="edge5" class="edge">
<title>12&#45;&gt;13</title>
<path fill="none" stroke="#000000" d="M168.9391,-180.1686C166.0973,-188.0383 162.7063,-197.4288 159.5581,-206.1467"/>
<polygon fill="none" stroke="#000000" points="156.2538,-204.9924 156.1492,-215.5867 162.8377,-207.37 156.2538,-204.9924"/>
</g>
<!-- 11 -->
<g id="node6" class="node">
<title>11</title>
<polygon fill="#d3d3d3" stroke="#000000" points="754,-252 317,-252 317,-216 754,-216 754,-252"/>
<text text-anchor="middle" x="535.5" y="-231.5" font-family="Fira Mono" font-size="10.00" fill="#000000">CL&#45;DATA&#45;STRUCTURES.COMMON.ABSTRACT:FUNDAMENTAL&#45;OWNERSHIP&#45;TAGGED&#45;OBJECT</text>
</g>
<!-- 10&#45;&gt;11 -->
<g id="edge6" class="edge">
<title>10&#45;&gt;11</title>
<path fill="none" stroke="#000000" d="M535.5,-180.1686C535.5,-187.869 535.5,-197.0257 535.5,-205.5834"/>
<polygon fill="none" stroke="#000000" points="532.0001,-205.5867 535.5,-215.5867 539.0001,-205.5868 532.0001,-205.5867"/>
</g>
<!-- 7 -->
<g id="node8" class="node">
<title>7</title>
<polygon fill="#d3d3d3" stroke="#000000" points="996,-180 721,-180 721,-144 996,-144 996,-180"/>
<text text-anchor="middle" x="858.5" y="-159.5" font-family="Fira Mono" font-size="10.00" fill="#000000">CL&#45;DATA&#45;STRUCTURES.DICTS:MUTABLE&#45;DICTIONARY</text>
</g>
<!-- 2&#45;&gt;7 -->
<g id="edge7" class="edge">
<title>2&#45;&gt;7</title>
<path fill="none" stroke="#000000" d="M858.5,-108.1686C858.5,-115.869 858.5,-125.0257 858.5,-133.5834"/>
<polygon fill="none" stroke="#000000" points="855.0001,-133.5867 858.5,-143.5867 862.0001,-133.5868 855.0001,-133.5867"/>
</g>
<!-- 3 -->
<g id="node10" class="node">
<title>3</title>
<polygon fill="#d3d3d3" stroke="#000000" points="1289,-180 1014,-180 1014,-144 1289,-144 1289,-180"/>
<text text-anchor="middle" x="1151.5" y="-159.5" font-family="Fira Mono" font-size="10.00" fill="#000000">CL&#45;DATA&#45;STRUCTURES.DICTS:HASHING&#45;DICTIONARY</text>
</g>
<!-- 2&#45;&gt;3 -->
<g id="edge8" class="edge">
<title>2&#45;&gt;3</title>
<path fill="none" stroke="#000000" d="M932.0581,-108.0757C973.4977,-118.2588 1025.3911,-131.0108 1068.3091,-141.5572"/>
<polygon fill="none" stroke="#000000" points="1067.6195,-144.9918 1078.1658,-143.9793 1069.29,-138.194 1067.6195,-144.9918"/>
</g>
<!-- 8 -->
<g id="node9" class="node">
<title>8</title>
<polygon fill="#d3d3d3" stroke="#000000" points="945,-252 772,-252 772,-216 945,-216 945,-252"/>
<text text-anchor="middle" x="858.5" y="-231.5" font-family="Fira Mono" font-size="10.00" fill="#000000">CL&#45;DATA&#45;STRUCTURES:MUTABLE</text>
</g>
<!-- 7&#45;&gt;8 -->
<g id="edge9" class="edge">
<title>7&#45;&gt;8</title>
<path fill="none" stroke="#000000" d="M858.5,-180.1686C858.5,-187.869 858.5,-197.0257 858.5,-205.5834"/>
<polygon fill="none" stroke="#000000" points="855.0001,-205.5867 858.5,-215.5867 862.0001,-205.5868 855.0001,-205.5867"/>
</g>
<!-- 4 -->
<g id="node11" class="node">
<title>4</title>
<polygon fill="#d3d3d3" stroke="#000000" points="1190,-252 963,-252 963,-216 1190,-216 1190,-252"/>
<text text-anchor="middle" x="1076.5" y="-231.5" font-family="Fira Mono" font-size="10.00" fill="#000000">CL&#45;DATA&#45;STRUCTURES.DICTS:DICTIONARY</text>
</g>
<!-- 7&#45;&gt;4 -->
<g id="edge10" class="edge">
<title>7&#45;&gt;4</title>
<path fill="none" stroke="#000000" d="M913.2292,-180.0757C943.2902,-190.0041 980.745,-202.3745 1012.1954,-212.7618"/>
<polygon fill="none" stroke="#000000" points="1011.1551,-216.1041 1021.7483,-215.9169 1013.3504,-209.4572 1011.1551,-216.1041"/>
</g>
<!-- 5 -->
<g id="node12" class="node">
<title>5</title>
<polygon fill="#d3d3d3" stroke="#000000" points="1096,-324 839,-324 839,-288 1096,-288 1096,-324"/>
<text text-anchor="middle" x="967.5" y="-303.5" font-family="Fira Mono" font-size="10.00" fill="#000000">CL&#45;DATA&#45;STRUCTURES:FUNDAMENTAL&#45;CONTAINER</text>
</g>
<!-- 8&#45;&gt;5 -->
<g id="edge11" class="edge">
<title>8&#45;&gt;5</title>
<path fill="none" stroke="#000000" d="M886.0053,-252.1686C899.818,-261.2926 916.7256,-272.461 931.5529,-282.2551"/>
<polygon fill="none" stroke="#000000" points="929.7304,-285.2459 940.0035,-287.8372 933.5886,-279.4051 929.7304,-285.2459"/>
</g>
<!-- 3&#45;&gt;4 -->
<g id="edge12" class="edge">
<title>3&#45;&gt;4</title>
<path fill="none" stroke="#000000" d="M1132.5743,-180.1686C1123.5143,-188.8663 1112.5191,-199.4217 1102.6735,-208.8735"/>
<polygon fill="none" stroke="#000000" points="1100.2096,-206.387 1095.4196,-215.8372 1105.0574,-211.4367 1100.2096,-206.387"/>
</g>
<!-- 4&#45;&gt;5 -->
<g id="edge13" class="edge">
<title>4&#45;&gt;5</title>
<path fill="none" stroke="#000000" d="M1048.9947,-252.1686C1035.182,-261.2926 1018.2744,-272.461 1003.4471,-282.2551"/>
<polygon fill="none" stroke="#000000" points="1001.4114,-279.4051 994.9965,-287.8372 1005.2696,-285.2459 1001.4114,-279.4051"/>
</g>
<!-- 6 -->
<g id="node13" class="node">
<title>6</title>
<polygon fill="#d3d3d3" stroke="#000000" points="1066,-396 869,-396 869,-360 1066,-360 1066,-396"/>
<text text-anchor="middle" x="967.5" y="-375.5" font-family="Fira Mono" font-size="10.00" fill="#000000">CL&#45;DATA&#45;STRUCTURES:TRAVERSABLE</text>
</g>
<!-- 5&#45;&gt;6 -->
<g id="edge14" class="edge">
<title>5&#45;&gt;6</title>
<path fill="none" stroke="#000000" d="M967.5,-324.1686C967.5,-331.869 967.5,-341.0257 967.5,-349.5834"/>
<polygon fill="none" stroke="#000000" points="964.0001,-349.5867 967.5,-359.5867 971.0001,-349.5868 964.0001,-349.5867"/>
</g>
</g>
</svg>
