<?xml version="1.0" encoding="UTF-8" standalone="no"?>
<!DOCTYPE svg PUBLIC "-//W3C//DTD SVG 1.1//EN"
 "http://www.w3.org/Graphics/SVG/1.1/DTD/svg11.dtd">
<!-- Generated by graphviz version 2.44.1 (0)
 -->
<!-- Pages: 1 -->
<svg width="805pt" height="404pt"
 viewBox="0.00 0.00 805.00 404.00" xmlns="http://www.w3.org/2000/svg" xmlns:xlink="http://www.w3.org/1999/xlink">
<g id="graph0" class="graph" transform="scale(1 1) rotate(0) translate(4 400)">
<polygon fill="transparent" stroke="transparent" points="-4,4 -4,-400 801,-400 801,4 -4,4"/>
<!-- 1 -->
<g id="node1" class="node">
<title>1</title>
<polygon fill="lightgrey" stroke="black" points="709,-36 362,-36 362,0 709,0 709,-36"/>
<text text-anchor="middle" x="535.5" y="-15.5" font-family="Fira Mono" font-size="10.00">CL&#45;DATA&#45;STRUCTURES.DICTS.SRRB:MUTABLE&#45;SPARSE&#45;RRB&#45;VECTOR</text>
</g>
<!-- 8 -->
<g id="node2" class="node">
<title>8</title>
<polygon fill="lightgrey" stroke="black" points="371,-108 0,-108 0,-72 371,-72 371,-108"/>
<text text-anchor="middle" x="185.5" y="-87.5" font-family="Fira Mono" font-size="10.00">CL&#45;DATA&#45;STRUCTURES.DICTS.SRRB:FUNDAMENTAL&#45;SPARSE&#45;RRB&#45;VECTOR</text>
</g>
<!-- 1&#45;&gt;8 -->
<g id="edge1" class="edge">
<title>1&#45;&gt;8</title>
<path fill="none" stroke="black" d="M450.33,-36.03C399.1,-46.28 333.78,-59.34 280.83,-69.93"/>
<polygon fill="none" stroke="black" points="279.87,-66.56 270.75,-71.95 281.24,-73.42 279.87,-66.56"/>
</g>
<!-- 5 -->
<g id="node3" class="node">
<title>5</title>
<polygon fill="lightgrey" stroke="black" points="682,-108 389,-108 389,-72 682,-72 682,-108"/>
<text text-anchor="middle" x="535.5" y="-87.5" font-family="Fira Mono" font-size="10.00">CL&#45;DATA&#45;STRUCTURES.DICTS:MUTABLE&#45;SPARSE&#45;VECTOR</text>
</g>
<!-- 1&#45;&gt;5 -->
<g id="edge2" class="edge">
<title>1&#45;&gt;5</title>
<path fill="none" stroke="black" d="M535.5,-36.3C535.5,-44.02 535.5,-53.29 535.5,-61.89"/>
<polygon fill="none" stroke="black" points="532,-61.9 535.5,-71.9 539,-61.9 532,-61.9"/>
</g>
<!-- 2 -->
<g id="node6" class="node">
<title>2</title>
<polygon fill="lightgrey" stroke="black" points="797,-180 624,-180 624,-144 797,-144 797,-180"/>
<text text-anchor="middle" x="710.5" y="-159.5" font-family="Fira Mono" font-size="10.00">CL&#45;DATA&#45;STRUCTURES:MUTABLE</text>
</g>
<!-- 1&#45;&gt;2 -->
<g id="edge3" class="edge">
<title>1&#45;&gt;2</title>
<path fill="none" stroke="black" d="M634.21,-36.14C655.25,-43.97 675.59,-55.38 690.5,-72 705.49,-88.71 710.01,-114.2 711.06,-133.63"/>
<polygon fill="none" stroke="black" points="707.57,-133.8 711.33,-143.7 714.56,-133.61 707.57,-133.8"/>
</g>
<!-- 6 -->
<g id="node4" class="node">
<title>6</title>
<polygon fill="lightgrey" stroke="black" points="606,-180 289,-180 289,-144 606,-144 606,-180"/>
<text text-anchor="middle" x="447.5" y="-159.5" font-family="Fira Mono" font-size="10.00">CL&#45;DATA&#45;STRUCTURES.DICTS:FUNDAMENTAL&#45;SPARSE&#45;VECTOR</text>
</g>
<!-- 8&#45;&gt;6 -->
<g id="edge4" class="edge">
<title>8&#45;&gt;6</title>
<path fill="none" stroke="black" d="M249.26,-108.03C286.82,-118.07 334.5,-130.81 373.69,-141.28"/>
<polygon fill="none" stroke="black" points="372.89,-144.69 383.46,-143.89 374.7,-137.93 372.89,-144.69"/>
</g>
<!-- 5&#45;&gt;6 -->
<g id="edge5" class="edge">
<title>5&#45;&gt;6</title>
<path fill="none" stroke="black" d="M513.75,-108.3C502.66,-117.12 489.03,-127.97 477.01,-137.53"/>
<polygon fill="none" stroke="black" points="474.65,-134.93 469,-143.9 479.01,-140.41 474.65,-134.93"/>
</g>
<!-- 7 -->
<g id="node5" class="node">
<title>7</title>
<polygon fill="lightgrey" stroke="black" points="639,-252 340,-252 340,-216 639,-216 639,-252"/>
<text text-anchor="middle" x="489.5" y="-231.5" font-family="Fira Mono" font-size="10.00">CL&#45;DATA&#45;STRUCTURES.DICTS:FUNDAMENTAL&#45;DICTIONARY</text>
</g>
<!-- 6&#45;&gt;7 -->
<g id="edge6" class="edge">
<title>6&#45;&gt;7</title>
<path fill="none" stroke="black" d="M457.88,-180.3C462.76,-188.44 468.69,-198.31 474.08,-207.3"/>
<polygon fill="none" stroke="black" points="471.09,-209.12 479.24,-215.9 477.09,-205.52 471.09,-209.12"/>
</g>
<!-- 3 -->
<g id="node7" class="node">
<title>3</title>
<polygon fill="lightgrey" stroke="black" points="707,-324 450,-324 450,-288 707,-288 707,-324"/>
<text text-anchor="middle" x="578.5" y="-303.5" font-family="Fira Mono" font-size="10.00">CL&#45;DATA&#45;STRUCTURES:FUNDAMENTAL&#45;CONTAINER</text>
</g>
<!-- 7&#45;&gt;3 -->
<g id="edge7" class="edge">
<title>7&#45;&gt;3</title>
<path fill="none" stroke="black" d="M511.5,-252.3C522.71,-261.12 536.5,-271.97 548.65,-281.53"/>
<polygon fill="none" stroke="black" points="546.73,-284.46 556.75,-287.9 551.06,-278.96 546.73,-284.46"/>
</g>
<!-- 2&#45;&gt;3 -->
<g id="edge8" class="edge">
<title>2&#45;&gt;3</title>
<path fill="none" stroke="black" d="M700.49,-180.21C689.06,-199.02 669.15,-229.49 647.5,-252 637.14,-262.78 624.47,-273.14 612.84,-281.8"/>
<polygon fill="none" stroke="black" points="610.63,-279.08 604.59,-287.79 614.74,-284.75 610.63,-279.08"/>
</g>
<!-- 4 -->
<g id="node8" class="node">
<title>4</title>
<polygon fill="lightgrey" stroke="black" points="677,-396 480,-396 480,-360 677,-360 677,-396"/>
<text text-anchor="middle" x="578.5" y="-375.5" font-family="Fira Mono" font-size="10.00">CL&#45;DATA&#45;STRUCTURES:TRAVERSABLE</text>
</g>
<!-- 3&#45;&gt;4 -->
<g id="edge9" class="edge">
<title>3&#45;&gt;4</title>
<path fill="none" stroke="black" d="M578.5,-324.3C578.5,-332.02 578.5,-341.29 578.5,-349.89"/>
<polygon fill="none" stroke="black" points="575,-349.9 578.5,-359.9 582,-349.9 575,-349.9"/>
</g>
</g>
</svg>
