<?xml version="1.0" encoding="UTF-8" standalone="no"?>
<!DOCTYPE svg PUBLIC "-//W3C//DTD SVG 1.1//EN"
 "http://www.w3.org/Graphics/SVG/1.1/DTD/svg11.dtd">
<!-- Generated by graphviz version 3.0.0 (0)
 -->
<!-- Pages: 1 -->
<svg width="636pt" height="404pt"
 viewBox="0.00 0.00 636.00 404.00" xmlns="http://www.w3.org/2000/svg" xmlns:xlink="http://www.w3.org/1999/xlink">
<g id="graph0" class="graph" transform="scale(1 1) rotate(0) translate(4 400)">
<polygon fill="transparent" stroke="transparent" points="-4,4 -4,-400 632,-400 632,4 -4,4"/>
<!-- 1 -->
<g id="node1" class="node">
<title>1</title>
<polygon fill="lightgrey" stroke="black" points="495,-36 238,-36 238,0 495,0 495,-36"/>
<text text-anchor="middle" x="366.5" y="-15.5" font-family="Fira Mono" font-size="10.00">CL&#45;DATA&#45;STRUCTURES.META:INSERT!&#45;FUNCTION</text>
</g>
<!-- 7 -->
<g id="node2" class="node">
<title>7</title>
<polygon fill="lightgrey" stroke="black" points="307,-108 56,-108 56,-72 307,-72 307,-108"/>
<text text-anchor="middle" x="181.5" y="-87.5" font-family="Fira Mono" font-size="10.00">CL&#45;DATA&#45;STRUCTURES.META:INSERT&#45;FUNCTION</text>
</g>
<!-- 1&#45;&gt;7 -->
<g id="edge1" class="edge">
<title>1&#45;&gt;7</title>
<path fill="none" stroke="black" d="M321.24,-36.12C295.5,-45.86 263.09,-58.13 235.96,-68.39"/>
<polygon fill="none" stroke="black" points="234.72,-65.12 226.61,-71.93 237.2,-71.67 234.72,-65.12"/>
</g>
<!-- 3 -->
<g id="node4" class="node">
<title>3</title>
<polygon fill="lightgrey" stroke="black" points="538,-180 257,-180 257,-144 538,-144 538,-180"/>
<text text-anchor="middle" x="397.5" y="-159.5" font-family="Fira Mono" font-size="10.00">CL&#45;DATA&#45;STRUCTURES.META:DESTRUCTIVE&#45;FUNCTION</text>
</g>
<!-- 1&#45;&gt;3 -->
<g id="edge2" class="edge">
<title>1&#45;&gt;3</title>
<path fill="none" stroke="black" d="M370.24,-36.13C375.55,-60.44 385.31,-105.18 391.6,-133.99"/>
<polygon fill="none" stroke="black" points="388.2,-134.79 393.75,-143.81 395.03,-133.29 388.2,-134.79"/>
</g>
<!-- 2 -->
<g id="node8" class="node">
<title>2</title>
<polygon fill="lightgrey" stroke="black" points="628,-108 395,-108 395,-72 628,-72 628,-108"/>
<text text-anchor="middle" x="511.5" y="-87.5" font-family="Fira Mono" font-size="10.00">CLOSER&#45;MOP:STANDARD&#45;GENERIC&#45;FUNCTION</text>
</g>
<!-- 1&#45;&gt;2 -->
<g id="edge3" class="edge">
<title>1&#45;&gt;2</title>
<path fill="none" stroke="black" d="M401.97,-36.12C421.62,-45.61 446.22,-57.49 467.13,-67.58"/>
<polygon fill="none" stroke="black" points="465.62,-70.74 476.14,-71.93 468.66,-64.43 465.62,-70.74"/>
</g>
<!-- 8 -->
<g id="node3" class="node">
<title>8</title>
<polygon fill="lightgrey" stroke="black" points="239,-180 0,-180 0,-144 239,-144 239,-180"/>
<text text-anchor="middle" x="119.5" y="-159.5" font-family="Fira Mono" font-size="10.00">CL&#45;DATA&#45;STRUCTURES.META:GROW&#45;FUNCTION</text>
</g>
<!-- 7&#45;&gt;8 -->
<g id="edge4" class="edge">
<title>7&#45;&gt;8</title>
<path fill="none" stroke="black" d="M166.17,-108.3C158.74,-116.7 149.68,-126.93 141.52,-136.14"/>
<polygon fill="none" stroke="black" points="138.66,-134.09 134.65,-143.9 143.9,-138.73 138.66,-134.09"/>
</g>
<!-- 4 -->
<g id="node5" class="node">
<title>4</title>
<polygon fill="lightgrey" stroke="black" points="369,-252 148,-252 148,-216 369,-216 369,-252"/>
<text text-anchor="middle" x="258.5" y="-231.5" font-family="Fira Mono" font-size="10.00">SB&#45;MOP:FUNCALLABLE&#45;STANDARD&#45;OBJECT</text>
</g>
<!-- 8&#45;&gt;4 -->
<g id="edge5" class="edge">
<title>8&#45;&gt;4</title>
<path fill="none" stroke="black" d="M153.5,-180.12C172.1,-189.49 195.33,-201.19 215.21,-211.2"/>
<polygon fill="none" stroke="black" points="213.86,-214.44 224.37,-215.81 217.01,-208.19 213.86,-214.44"/>
</g>
<!-- 3&#45;&gt;4 -->
<g id="edge6" class="edge">
<title>3&#45;&gt;4</title>
<path fill="none" stroke="black" d="M363.5,-180.12C344.9,-189.49 321.67,-201.19 301.79,-211.2"/>
<polygon fill="none" stroke="black" points="299.99,-208.19 292.63,-215.81 303.14,-214.44 299.99,-208.19"/>
</g>
<!-- 5 -->
<g id="node6" class="node">
<title>5</title>
<polygon fill="lightgrey" stroke="black" points="327,-324 190,-324 190,-288 327,-288 327,-324"/>
<text text-anchor="middle" x="258.5" y="-303.5" font-family="Fira Mono" font-size="10.00">COMMON&#45;LISP:FUNCTION</text>
</g>
<!-- 4&#45;&gt;5 -->
<g id="edge7" class="edge">
<title>4&#45;&gt;5</title>
<path fill="none" stroke="black" d="M258.5,-252.3C258.5,-260.02 258.5,-269.29 258.5,-277.89"/>
<polygon fill="none" stroke="black" points="255,-277.9 258.5,-287.9 262,-277.9 255,-277.9"/>
</g>
<!-- 6 -->
<g id="node7" class="node">
<title>6</title>
<polygon fill="lightgrey" stroke="black" points="306,-396 211,-396 211,-360 306,-360 306,-396"/>
<text text-anchor="middle" x="258.5" y="-375.5" font-family="Fira Mono" font-size="10.00">COMMON&#45;LISP:T</text>
</g>
<!-- 5&#45;&gt;6 -->
<g id="edge8" class="edge">
<title>5&#45;&gt;6</title>
<path fill="none" stroke="black" d="M258.5,-324.3C258.5,-332.02 258.5,-341.29 258.5,-349.89"/>
<polygon fill="none" stroke="black" points="255,-349.9 258.5,-359.9 262,-349.9 255,-349.9"/>
</g>
</g>
</svg>
