<?xml version="1.0" encoding="UTF-8" standalone="no"?>
<!DOCTYPE svg PUBLIC "-//W3C//DTD SVG 1.1//EN"
 "http://www.w3.org/Graphics/SVG/1.1/DTD/svg11.dtd">
<!-- Generated by graphviz version 2.40.1 (20161225.0304)
 -->
<!-- Title: %3 Pages: 1 -->
<svg width="758pt" height="332pt"
 viewBox="0.00 0.00 758.00 332.00" xmlns="http://www.w3.org/2000/svg" xmlns:xlink="http://www.w3.org/1999/xlink">
<g id="graph0" class="graph" transform="scale(1 1) rotate(0) translate(4 328)">
<title>%3</title>
<polygon fill="transparent" stroke="transparent" points="-4,4 -4,-328 754,-328 754,4 -4,4"/>
<!-- 1 -->
<g id="node1" class="node">
<title>1</title>
<polygon fill="#d3d3d3" stroke="#000000" points="612,-36 277,-36 277,0 612,0 612,-36"/>
<text text-anchor="middle" x="444.5" y="-15.5" font-family="Fira Mono" font-size="10.00" fill="#000000">CL&#45;DATA&#45;STRUCTURES.DICTS.HAMT:MUTABLE&#45;HAMT&#45;DICTIONARY</text>
</g>
<!-- 3 -->
<g id="node2" class="node">
<title>3</title>
<polygon fill="#d3d3d3" stroke="#000000" points="445,-108 122,-108 122,-72 445,-72 445,-108"/>
<text text-anchor="middle" x="283.5" y="-87.5" font-family="Fira Mono" font-size="10.00" fill="#000000">CL&#45;DATA&#45;STRUCTURES.DICTS:MUTABLE&#45;HASHING&#45;DICTIONARY</text>
</g>
<!-- 1&#45;&gt;3 -->
<g id="edge1" class="edge">
<title>1&#45;&gt;3</title>
<path fill="none" stroke="#000000" d="M403.8729,-36.1686C382.3401,-45.7982 355.7151,-57.705 332.9848,-67.8701"/>
<polygon fill="none" stroke="#000000" points="331.5348,-64.6845 323.835,-71.962 334.3926,-71.0746 331.5348,-64.6845"/>
</g>
<!-- 2 -->
<g id="node8" class="node">
<title>2</title>
<polygon fill="#d3d3d3" stroke="#000000" points="750,-108 463,-108 463,-72 750,-72 750,-108"/>
<text text-anchor="middle" x="606.5" y="-87.5" font-family="Fira Mono" font-size="10.00" fill="#000000">CL&#45;DATA&#45;STRUCTURES.DICTS.HAMT:HAMT&#45;DICTIONARY</text>
</g>
<!-- 1&#45;&gt;2 -->
<g id="edge2" class="edge">
<title>1&#45;&gt;2</title>
<path fill="none" stroke="#000000" d="M485.3794,-36.1686C507.046,-45.7982 533.8363,-57.705 556.7078,-67.8701"/>
<polygon fill="none" stroke="#000000" points="555.3549,-71.0989 565.9145,-71.962 558.1979,-64.7022 555.3549,-71.0989"/>
</g>
<!-- 7 -->
<g id="node3" class="node">
<title>7</title>
<polygon fill="#d3d3d3" stroke="#000000" points="275,-180 0,-180 0,-144 275,-144 275,-180"/>
<text text-anchor="middle" x="137.5" y="-159.5" font-family="Fira Mono" font-size="10.00" fill="#000000">CL&#45;DATA&#45;STRUCTURES.DICTS:MUTABLE&#45;DICTIONARY</text>
</g>
<!-- 3&#45;&gt;7 -->
<g id="edge3" class="edge">
<title>3&#45;&gt;7</title>
<path fill="none" stroke="#000000" d="M246.658,-108.1686C227.3918,-117.6698 203.6301,-129.3879 183.2008,-139.4626"/>
<polygon fill="none" stroke="#000000" points="181.4977,-136.4 174.077,-143.962 184.5938,-142.6781 181.4977,-136.4"/>
</g>
<!-- 4 -->
<g id="node5" class="node">
<title>4</title>
<polygon fill="#d3d3d3" stroke="#000000" points="568,-180 293,-180 293,-144 568,-144 568,-180"/>
<text text-anchor="middle" x="430.5" y="-159.5" font-family="Fira Mono" font-size="10.00" fill="#000000">CL&#45;DATA&#45;STRUCTURES.DICTS:HASHING&#45;DICTIONARY</text>
</g>
<!-- 3&#45;&gt;4 -->
<g id="edge4" class="edge">
<title>3&#45;&gt;4</title>
<path fill="none" stroke="#000000" d="M320.5943,-108.1686C339.9926,-117.6698 363.917,-129.3879 384.4862,-139.4626"/>
<polygon fill="none" stroke="#000000" points="383.1522,-142.7065 393.6724,-143.962 386.2314,-136.4201 383.1522,-142.7065"/>
</g>
<!-- 8 -->
<g id="node4" class="node">
<title>8</title>
<polygon fill="#d3d3d3" stroke="#000000" points="224,-252 51,-252 51,-216 224,-216 224,-252"/>
<text text-anchor="middle" x="137.5" y="-231.5" font-family="Fira Mono" font-size="10.00" fill="#000000">CL&#45;DATA&#45;STRUCTURES:MUTABLE</text>
</g>
<!-- 7&#45;&gt;8 -->
<g id="edge5" class="edge">
<title>7&#45;&gt;8</title>
<path fill="none" stroke="#000000" d="M137.5,-180.1686C137.5,-187.869 137.5,-197.0257 137.5,-205.5834"/>
<polygon fill="none" stroke="#000000" points="134.0001,-205.5867 137.5,-215.5867 141.0001,-205.5868 134.0001,-205.5867"/>
</g>
<!-- 5 -->
<g id="node6" class="node">
<title>5</title>
<polygon fill="#d3d3d3" stroke="#000000" points="469,-252 242,-252 242,-216 469,-216 469,-252"/>
<text text-anchor="middle" x="355.5" y="-231.5" font-family="Fira Mono" font-size="10.00" fill="#000000">CL&#45;DATA&#45;STRUCTURES.DICTS:DICTIONARY</text>
</g>
<!-- 7&#45;&gt;5 -->
<g id="edge6" class="edge">
<title>7&#45;&gt;5</title>
<path fill="none" stroke="#000000" d="M192.2292,-180.0757C222.2902,-190.0041 259.745,-202.3745 291.1954,-212.7618"/>
<polygon fill="none" stroke="#000000" points="290.1551,-216.1041 300.7483,-215.9169 292.3504,-209.4572 290.1551,-216.1041"/>
</g>
<!-- 6 -->
<g id="node7" class="node">
<title>6</title>
<polygon fill="#d3d3d3" stroke="#000000" points="375,-324 118,-324 118,-288 375,-288 375,-324"/>
<text text-anchor="middle" x="246.5" y="-303.5" font-family="Fira Mono" font-size="10.00" fill="#000000">CL&#45;DATA&#45;STRUCTURES:FUNDAMENTAL&#45;CONTAINER</text>
</g>
<!-- 8&#45;&gt;6 -->
<g id="edge7" class="edge">
<title>8&#45;&gt;6</title>
<path fill="none" stroke="#000000" d="M165.0053,-252.1686C178.818,-261.2926 195.7256,-272.461 210.5529,-282.2551"/>
<polygon fill="none" stroke="#000000" points="208.7304,-285.2459 219.0035,-287.8372 212.5886,-279.4051 208.7304,-285.2459"/>
</g>
<!-- 4&#45;&gt;5 -->
<g id="edge8" class="edge">
<title>4&#45;&gt;5</title>
<path fill="none" stroke="#000000" d="M411.5743,-180.1686C402.5143,-188.8663 391.5191,-199.4217 381.6735,-208.8735"/>
<polygon fill="none" stroke="#000000" points="379.2096,-206.387 374.4196,-215.8372 384.0574,-211.4367 379.2096,-206.387"/>
</g>
<!-- 5&#45;&gt;6 -->
<g id="edge9" class="edge">
<title>5&#45;&gt;6</title>
<path fill="none" stroke="#000000" d="M327.9947,-252.1686C314.182,-261.2926 297.2744,-272.461 282.4471,-282.2551"/>
<polygon fill="none" stroke="#000000" points="280.4114,-279.4051 273.9965,-287.8372 284.2696,-285.2459 280.4114,-279.4051"/>
</g>
</g>
</svg>
