<?xml version="1.0" encoding="UTF-8" standalone="no"?>
<!DOCTYPE svg PUBLIC "-//W3C//DTD SVG 1.1//EN"
 "http://www.w3.org/Graphics/SVG/1.1/DTD/svg11.dtd">
<!-- Generated by graphviz version 2.40.1 (20161225.0304)
 -->
<!-- Title: %3 Pages: 1 -->
<svg width="623pt" height="116pt"
 viewBox="0.00 0.00 623.00 116.00" xmlns="http://www.w3.org/2000/svg" xmlns:xlink="http://www.w3.org/1999/xlink">
<g id="graph0" class="graph" transform="scale(1 1) rotate(0) translate(4 112)">
<title>%3</title>
<polygon fill="transparent" stroke="transparent" points="-4,4 -4,-112 619,-112 619,4 -4,4"/>
<!-- 1 -->
<g id="node1" class="node">
<title>1</title>
<polygon fill="#d3d3d3" stroke="#000000" points="442,-36 233,-36 233,0 442,0 442,-36"/>
<text text-anchor="middle" x="337.5" y="-15.5" font-family="Fira Mono" font-size="10.00" fill="#000000">CL&#45;DATA&#45;STRUCTURES:TEXTUAL&#45;ERROR</text>
</g>
<!-- 4 -->
<g id="node2" class="node">
<title>4</title>
<polygon fill="#d3d3d3" stroke="#000000" points="227,-108 0,-108 0,-72 227,-72 227,-108"/>
<text text-anchor="middle" x="113.5" y="-87.5" font-family="Fira Mono" font-size="10.00" fill="#000000">MORE&#45;CONDITIONS:CHAINABLE&#45;CONDITION</text>
</g>
<!-- 1&#45;&gt;4 -->
<g id="edge1" class="edge">
<title>1&#45;&gt;4</title>
<path fill="none" stroke="#000000" d="M281.2645,-36.0757C250.3761,-46.0041 211.8904,-58.3745 179.5744,-68.7618"/>
<polygon fill="none" stroke="#000000" points="178.2079,-65.5246 169.7587,-71.9169 180.35,-72.1888 178.2079,-65.5246"/>
</g>
<!-- 3 -->
<g id="node3" class="node">
<title>3</title>
<polygon fill="#d3d3d3" stroke="#000000" points="430,-108 245,-108 245,-72 430,-72 430,-108"/>
<text text-anchor="middle" x="337.5" y="-87.5" font-family="Fira Mono" font-size="10.00" fill="#000000">COMMON&#45;LISP:SIMPLE&#45;CONDITION</text>
</g>
<!-- 1&#45;&gt;3 -->
<g id="edge2" class="edge">
<title>1&#45;&gt;3</title>
<path fill="none" stroke="#000000" d="M337.5,-36.1686C337.5,-43.869 337.5,-53.0257 337.5,-61.5834"/>
<polygon fill="none" stroke="#000000" points="334.0001,-61.5867 337.5,-71.5867 341.0001,-61.5868 334.0001,-61.5867"/>
</g>
<!-- 2 -->
<g id="node4" class="node">
<title>2</title>
<polygon fill="#d3d3d3" stroke="#000000" points="615,-108 448,-108 448,-72 615,-72 615,-108"/>
<text text-anchor="middle" x="531.5" y="-87.5" font-family="Fira Mono" font-size="10.00" fill="#000000">COMMON&#45;LISP:PROGRAM&#45;ERROR</text>
</g>
<!-- 1&#45;&gt;2 -->
<g id="edge3" class="edge">
<title>1&#45;&gt;2</title>
<path fill="none" stroke="#000000" d="M386.4544,-36.1686C412.862,-45.9694 445.6256,-58.1291 473.3286,-68.4106"/>
<polygon fill="none" stroke="#000000" points="472.3047,-71.7638 482.8976,-71.962 474.7403,-65.2012 472.3047,-71.7638"/>
</g>
</g>
</svg>
