<?xml version="1.0" encoding="UTF-8" standalone="no"?>
<!DOCTYPE svg PUBLIC "-//W3C//DTD SVG 1.1//EN"
 "http://www.w3.org/Graphics/SVG/1.1/DTD/svg11.dtd">
<!-- Generated by graphviz version 2.40.1 (20161225.0304)
 -->
<!-- Title: %3 Pages: 1 -->
<svg width="606pt" height="260pt"
 viewBox="0.00 0.00 606.00 260.00" xmlns="http://www.w3.org/2000/svg" xmlns:xlink="http://www.w3.org/1999/xlink">
<g id="graph0" class="graph" transform="scale(1 1) rotate(0) translate(4 256)">
<title>%3</title>
<polygon fill="transparent" stroke="transparent" points="-4,4 -4,-256 602,-256 602,4 -4,4"/>
<!-- 1 -->
<g id="node1" class="node">
<title>1</title>
<polygon fill="#d3d3d3" stroke="#000000" points="411,-36 124,-36 124,0 411,0 411,-36"/>
<text text-anchor="middle" x="267.5" y="-15.5" font-family="Fira Mono" font-size="10.00" fill="#000000">CL&#45;DATA&#45;STRUCTURES.DICTS.HAMT:HAMT&#45;DICTIONARY</text>
</g>
<!-- 4 -->
<g id="node2" class="node">
<title>4</title>
<polygon fill="#d3d3d3" stroke="#000000" points="322,-108 47,-108 47,-72 322,-72 322,-108"/>
<text text-anchor="middle" x="184.5" y="-87.5" font-family="Fira Mono" font-size="10.00" fill="#000000">CL&#45;DATA&#45;STRUCTURES.DICTS:HASHING&#45;DICTIONARY</text>
</g>
<!-- 1&#45;&gt;4 -->
<g id="edge1" class="edge">
<title>1&#45;&gt;4</title>
<path fill="none" stroke="#000000" d="M246.5556,-36.1686C236.4309,-44.9515 224.1223,-55.6288 213.1452,-65.1511"/>
<polygon fill="none" stroke="#000000" points="210.6981,-62.6405 205.4377,-71.8372 215.2851,-67.9282 210.6981,-62.6405"/>
</g>
<!-- 2 -->
<g id="node4" class="node">
<title>2</title>
<polygon fill="#d3d3d3" stroke="#000000" points="598,-180 245,-180 245,-144 598,-144 598,-180"/>
<text text-anchor="middle" x="421.5" y="-159.5" font-family="Fira Mono" font-size="10.00" fill="#000000">CL&#45;DATA&#45;STRUCTURES.DICTS.HAMT:FUNDAMENTAL&#45;HAMT&#45;CONTAINER</text>
</g>
<!-- 1&#45;&gt;2 -->
<g id="edge2" class="edge">
<title>1&#45;&gt;2</title>
<path fill="none" stroke="#000000" d="M289.8151,-36.0448C302.297,-46.3314 318.0117,-59.6064 331.5,-72 354.4223,-93.0619 379.3706,-118.1973 397.1738,-136.5451"/>
<polygon fill="none" stroke="#000000" points="394.8739,-139.2018 404.3395,-143.9611 399.9079,-134.3377 394.8739,-139.2018"/>
</g>
<!-- 5 -->
<g id="node3" class="node">
<title>5</title>
<polygon fill="#d3d3d3" stroke="#000000" points="227,-180 0,-180 0,-144 227,-144 227,-180"/>
<text text-anchor="middle" x="113.5" y="-159.5" font-family="Fira Mono" font-size="10.00" fill="#000000">CL&#45;DATA&#45;STRUCTURES.DICTS:DICTIONARY</text>
</g>
<!-- 4&#45;&gt;5 -->
<g id="edge3" class="edge">
<title>4&#45;&gt;5</title>
<path fill="none" stroke="#000000" d="M166.5837,-108.1686C158.1558,-116.7152 147.959,-127.0557 138.764,-136.3802"/>
<polygon fill="none" stroke="#000000" points="136.1869,-134.0088 131.6575,-143.5867 141.1711,-138.9239 136.1869,-134.0088"/>
</g>
<!-- 3 -->
<g id="node5" class="node">
<title>3</title>
<polygon fill="#d3d3d3" stroke="#000000" points="396,-252 139,-252 139,-216 396,-216 396,-252"/>
<text text-anchor="middle" x="267.5" y="-231.5" font-family="Fira Mono" font-size="10.00" fill="#000000">CL&#45;DATA&#45;STRUCTURES:FUNDAMENTAL&#45;CONTAINER</text>
</g>
<!-- 5&#45;&gt;3 -->
<g id="edge4" class="edge">
<title>5&#45;&gt;3</title>
<path fill="none" stroke="#000000" d="M152.3607,-180.1686C172.7742,-189.7126 197.9723,-201.4935 219.586,-211.5987"/>
<polygon fill="none" stroke="#000000" points="218.3775,-214.8973 228.9187,-215.962 221.3423,-208.5561 218.3775,-214.8973"/>
</g>
<!-- 2&#45;&gt;3 -->
<g id="edge5" class="edge">
<title>2&#45;&gt;3</title>
<path fill="none" stroke="#000000" d="M382.6393,-180.1686C362.2258,-189.7126 337.0277,-201.4935 315.414,-211.5987"/>
<polygon fill="none" stroke="#000000" points="313.6577,-208.5561 306.0813,-215.962 316.6225,-214.8973 313.6577,-208.5561"/>
</g>
</g>
</svg>
