<?xml version="1.0" encoding="UTF-8" standalone="no"?>
<!DOCTYPE svg PUBLIC "-//W3C//DTD SVG 1.1//EN"
 "http://www.w3.org/Graphics/SVG/1.1/DTD/svg11.dtd">
<!-- Generated by graphviz version 2.40.1 (20161225.0304)
 -->
<!-- Title: %3 Pages: 1 -->
<svg width="803pt" height="188pt"
 viewBox="0.00 0.00 803.00 188.00" xmlns="http://www.w3.org/2000/svg" xmlns:xlink="http://www.w3.org/1999/xlink">
<g id="graph0" class="graph" transform="scale(1 1) rotate(0) translate(4 184)">
<title>%3</title>
<polygon fill="transparent" stroke="transparent" points="-4,4 -4,-184 799,-184 799,4 -4,4"/>
<!-- 1 -->
<g id="node1" class="node">
<title>1</title>
<polygon fill="#d3d3d3" stroke="#000000" points="565,-36 248,-36 248,0 565,0 565,-36"/>
<text text-anchor="middle" x="406.5" y="-15.5" font-family="Fira Mono" font-size="10.00" fill="#000000">CL&#45;DATA&#45;STRUCTURES.META:FUNCTIONAL&#45;INSERT&#45;FUNCTION</text>
</g>
<!-- 4 -->
<g id="node2" class="node">
<title>4</title>
<polygon fill="#d3d3d3" stroke="#000000" points="251,-108 0,-108 0,-72 251,-72 251,-108"/>
<text text-anchor="middle" x="125.5" y="-87.5" font-family="Fira Mono" font-size="10.00" fill="#000000">CL&#45;DATA&#45;STRUCTURES.META:INSERT&#45;FUNCTION</text>
</g>
<!-- 1&#45;&gt;4 -->
<g id="edge1" class="edge">
<title>1&#45;&gt;4</title>
<path fill="none" stroke="#000000" d="M335.9545,-36.0757C296.3711,-46.2181 246.8419,-58.9088 205.7779,-69.4306"/>
<polygon fill="none" stroke="#000000" points="204.8928,-66.0442 196.0745,-71.9169 206.6303,-72.8252 204.8928,-66.0442"/>
</g>
<!-- 3 -->
<g id="node4" class="node">
<title>3</title>
<polygon fill="#d3d3d3" stroke="#000000" points="544,-108 269,-108 269,-72 544,-72 544,-108"/>
<text text-anchor="middle" x="406.5" y="-87.5" font-family="Fira Mono" font-size="10.00" fill="#000000">CL&#45;DATA&#45;STRUCTURES.META:FUNCTIONAL&#45;FUNCTION</text>
</g>
<!-- 1&#45;&gt;3 -->
<g id="edge2" class="edge">
<title>1&#45;&gt;3</title>
<path fill="none" stroke="#000000" d="M406.5,-36.1686C406.5,-43.869 406.5,-53.0257 406.5,-61.5834"/>
<polygon fill="none" stroke="#000000" points="403.0001,-61.5867 406.5,-71.5867 410.0001,-61.5868 403.0001,-61.5867"/>
</g>
<!-- 2 -->
<g id="node5" class="node">
<title>2</title>
<polygon fill="#d3d3d3" stroke="#000000" points="795,-108 562,-108 562,-72 795,-72 795,-108"/>
<text text-anchor="middle" x="678.5" y="-87.5" font-family="Fira Mono" font-size="10.00" fill="#000000">CLOSER&#45;MOP:STANDARD&#45;GENERIC&#45;FUNCTION</text>
</g>
<!-- 1&#45;&gt;2 -->
<g id="edge3" class="edge">
<title>1&#45;&gt;2</title>
<path fill="none" stroke="#000000" d="M474.786,-36.0757C512.94,-46.1753 560.6401,-58.8018 600.2897,-69.2973"/>
<polygon fill="none" stroke="#000000" points="599.6232,-72.7413 610.1859,-71.9169 601.4145,-65.9744 599.6232,-72.7413"/>
</g>
<!-- 5 -->
<g id="node3" class="node">
<title>5</title>
<polygon fill="#d3d3d3" stroke="#000000" points="245,-180 6,-180 6,-144 245,-144 245,-180"/>
<text text-anchor="middle" x="125.5" y="-159.5" font-family="Fira Mono" font-size="10.00" fill="#000000">CL&#45;DATA&#45;STRUCTURES.META:GROW&#45;FUNCTION</text>
</g>
<!-- 4&#45;&gt;5 -->
<g id="edge4" class="edge">
<title>4&#45;&gt;5</title>
<path fill="none" stroke="#000000" d="M125.5,-108.1686C125.5,-115.869 125.5,-125.0257 125.5,-133.5834"/>
<polygon fill="none" stroke="#000000" points="122.0001,-133.5867 125.5,-143.5867 129.0001,-133.5868 122.0001,-133.5867"/>
</g>
</g>
</svg>
