<?xml version="1.0" encoding="UTF-8" standalone="no"?>
<!DOCTYPE svg PUBLIC "-//W3C//DTD SVG 1.1//EN"
 "http://www.w3.org/Graphics/SVG/1.1/DTD/svg11.dtd">
<!-- Generated by graphviz version 2.40.1 (20161225.0304)
 -->
<!-- Title: %3 Pages: 1 -->
<svg width="695pt" height="260pt"
 viewBox="0.00 0.00 695.00 260.00" xmlns="http://www.w3.org/2000/svg" xmlns:xlink="http://www.w3.org/1999/xlink">
<g id="graph0" class="graph" transform="scale(1 1) rotate(0) translate(4 256)">
<title>%3</title>
<polygon fill="transparent" stroke="transparent" points="-4,4 -4,-256 691,-256 691,4 -4,4"/>
<!-- 1 -->
<g id="node1" class="node">
<title>1</title>
<polygon fill="#d3d3d3" stroke="#000000" points="560,-36 351,-36 351,0 560,0 560,-36"/>
<text text-anchor="middle" x="455.5" y="-15.5" font-family="Fira Mono" font-size="10.00" fill="#000000">CL&#45;DATA&#45;STRUCTURES:OUT&#45;OF&#45;BOUNDS</text>
</g>
<!-- 2 -->
<g id="node2" class="node">
<title>2</title>
<polygon fill="#d3d3d3" stroke="#000000" points="560,-108 351,-108 351,-72 560,-72 560,-108"/>
<text text-anchor="middle" x="455.5" y="-87.5" font-family="Fira Mono" font-size="10.00" fill="#000000">CL&#45;DATA&#45;STRUCTURES:INVALID&#45;VALUE</text>
</g>
<!-- 1&#45;&gt;2 -->
<g id="edge1" class="edge">
<title>1&#45;&gt;2</title>
<path fill="none" stroke="#000000" d="M455.5,-36.1686C455.5,-43.869 455.5,-53.0257 455.5,-61.5834"/>
<polygon fill="none" stroke="#000000" points="452.0001,-61.5867 455.5,-71.5867 459.0001,-61.5868 452.0001,-61.5867"/>
</g>
<!-- 4 -->
<g id="node3" class="node">
<title>4</title>
<polygon fill="#d3d3d3" stroke="#000000" points="442,-180 233,-180 233,-144 442,-144 442,-180"/>
<text text-anchor="middle" x="337.5" y="-159.5" font-family="Fira Mono" font-size="10.00" fill="#000000">CL&#45;DATA&#45;STRUCTURES:TEXTUAL&#45;ERROR</text>
</g>
<!-- 2&#45;&gt;4 -->
<g id="edge2" class="edge">
<title>2&#45;&gt;4</title>
<path fill="none" stroke="#000000" d="M425.7236,-108.1686C410.6307,-117.3779 392.1243,-128.6699 375.9657,-138.5294"/>
<polygon fill="none" stroke="#000000" points="373.9802,-135.6407 367.2669,-143.8372 377.6263,-141.6162 373.9802,-135.6407"/>
</g>
<!-- 3 -->
<g id="node7" class="node">
<title>3</title>
<polygon fill="#d3d3d3" stroke="#000000" points="687,-180 460,-180 460,-144 687,-144 687,-180"/>
<text text-anchor="middle" x="573.5" y="-159.5" font-family="Fira Mono" font-size="10.00" fill="#000000">MORE&#45;CONDITIONS:REFERENCE&#45;CONDITION</text>
</g>
<!-- 2&#45;&gt;3 -->
<g id="edge3" class="edge">
<title>2&#45;&gt;3</title>
<path fill="none" stroke="#000000" d="M485.2764,-108.1686C500.3693,-117.3779 518.8757,-128.6699 535.0343,-138.5294"/>
<polygon fill="none" stroke="#000000" points="533.3737,-141.6162 543.7331,-143.8372 537.0198,-135.6407 533.3737,-141.6162"/>
</g>
<!-- 7 -->
<g id="node4" class="node">
<title>7</title>
<polygon fill="#d3d3d3" stroke="#000000" points="227,-252 0,-252 0,-216 227,-216 227,-252"/>
<text text-anchor="middle" x="113.5" y="-231.5" font-family="Fira Mono" font-size="10.00" fill="#000000">MORE&#45;CONDITIONS:CHAINABLE&#45;CONDITION</text>
</g>
<!-- 4&#45;&gt;7 -->
<g id="edge4" class="edge">
<title>4&#45;&gt;7</title>
<path fill="none" stroke="#000000" d="M281.2645,-180.0757C250.3761,-190.0041 211.8904,-202.3745 179.5744,-212.7618"/>
<polygon fill="none" stroke="#000000" points="178.2079,-209.5246 169.7587,-215.9169 180.35,-216.1888 178.2079,-209.5246"/>
</g>
<!-- 6 -->
<g id="node5" class="node">
<title>6</title>
<polygon fill="#d3d3d3" stroke="#000000" points="430,-252 245,-252 245,-216 430,-216 430,-252"/>
<text text-anchor="middle" x="337.5" y="-231.5" font-family="Fira Mono" font-size="10.00" fill="#000000">COMMON&#45;LISP:SIMPLE&#45;CONDITION</text>
</g>
<!-- 4&#45;&gt;6 -->
<g id="edge5" class="edge">
<title>4&#45;&gt;6</title>
<path fill="none" stroke="#000000" d="M337.5,-180.1686C337.5,-187.869 337.5,-197.0257 337.5,-205.5834"/>
<polygon fill="none" stroke="#000000" points="334.0001,-205.5867 337.5,-215.5867 341.0001,-205.5868 334.0001,-205.5867"/>
</g>
<!-- 5 -->
<g id="node6" class="node">
<title>5</title>
<polygon fill="#d3d3d3" stroke="#000000" points="615,-252 448,-252 448,-216 615,-216 615,-252"/>
<text text-anchor="middle" x="531.5" y="-231.5" font-family="Fira Mono" font-size="10.00" fill="#000000">COMMON&#45;LISP:PROGRAM&#45;ERROR</text>
</g>
<!-- 4&#45;&gt;5 -->
<g id="edge6" class="edge">
<title>4&#45;&gt;5</title>
<path fill="none" stroke="#000000" d="M386.4544,-180.1686C412.862,-189.9694 445.6256,-202.1291 473.3286,-212.4106"/>
<polygon fill="none" stroke="#000000" points="472.3047,-215.7638 482.8976,-215.962 474.7403,-209.2012 472.3047,-215.7638"/>
</g>
</g>
</svg>
