<?xml version="1.0" encoding="UTF-8" standalone="no"?>
<!DOCTYPE svg PUBLIC "-//W3C//DTD SVG 1.1//EN"
 "http://www.w3.org/Graphics/SVG/1.1/DTD/svg11.dtd">
<!-- Generated by graphviz version 2.40.1 (20161225.0304)
 -->
<!-- Title: %3 Pages: 1 -->
<svg width="426pt" height="188pt"
 viewBox="0.00 0.00 426.00 188.00" xmlns="http://www.w3.org/2000/svg" xmlns:xlink="http://www.w3.org/1999/xlink">
<g id="graph0" class="graph" transform="scale(1 1) rotate(0) translate(4 184)">
<title>%3</title>
<polygon fill="transparent" stroke="transparent" points="-4,4 -4,-184 422,-184 422,4 -4,4"/>
<!-- 1 -->
<g id="node1" class="node">
<title>1</title>
<polygon fill="#d3d3d3" stroke="#000000" points="333,-36 58,-36 58,0 333,0 333,-36"/>
<text text-anchor="middle" x="195.5" y="-15.5" font-family="Fira Mono" font-size="10.00" fill="#000000">CL&#45;DATA&#45;STRUCTURES.DICTS:MUTABLE&#45;DICTIONARY</text>
</g>
<!-- 4 -->
<g id="node2" class="node">
<title>4</title>
<polygon fill="#d3d3d3" stroke="#000000" points="173,-108 0,-108 0,-72 173,-72 173,-108"/>
<text text-anchor="middle" x="86.5" y="-87.5" font-family="Fira Mono" font-size="10.00" fill="#000000">CL&#45;DATA&#45;STRUCTURES:MUTABLE</text>
</g>
<!-- 1&#45;&gt;4 -->
<g id="edge1" class="edge">
<title>1&#45;&gt;4</title>
<path fill="none" stroke="#000000" d="M167.9947,-36.1686C154.182,-45.2926 137.2744,-56.461 122.4471,-66.2551"/>
<polygon fill="none" stroke="#000000" points="120.4114,-63.4051 113.9965,-71.8372 124.2696,-69.2459 120.4114,-63.4051"/>
</g>
<!-- 2 -->
<g id="node3" class="node">
<title>2</title>
<polygon fill="#d3d3d3" stroke="#000000" points="418,-108 191,-108 191,-72 418,-72 418,-108"/>
<text text-anchor="middle" x="304.5" y="-87.5" font-family="Fira Mono" font-size="10.00" fill="#000000">CL&#45;DATA&#45;STRUCTURES.DICTS:DICTIONARY</text>
</g>
<!-- 1&#45;&gt;2 -->
<g id="edge2" class="edge">
<title>1&#45;&gt;2</title>
<path fill="none" stroke="#000000" d="M223.0053,-36.1686C236.818,-45.2926 253.7256,-56.461 268.5529,-66.2551"/>
<polygon fill="none" stroke="#000000" points="266.7304,-69.2459 277.0035,-71.8372 270.5886,-63.4051 266.7304,-69.2459"/>
</g>
<!-- 3 -->
<g id="node4" class="node">
<title>3</title>
<polygon fill="#d3d3d3" stroke="#000000" points="324,-180 67,-180 67,-144 324,-144 324,-180"/>
<text text-anchor="middle" x="195.5" y="-159.5" font-family="Fira Mono" font-size="10.00" fill="#000000">CL&#45;DATA&#45;STRUCTURES:FUNDAMENTAL&#45;CONTAINER</text>
</g>
<!-- 4&#45;&gt;3 -->
<g id="edge3" class="edge">
<title>4&#45;&gt;3</title>
<path fill="none" stroke="#000000" d="M114.0053,-108.1686C127.818,-117.2926 144.7256,-128.461 159.5529,-138.2551"/>
<polygon fill="none" stroke="#000000" points="157.7304,-141.2459 168.0035,-143.8372 161.5886,-135.4051 157.7304,-141.2459"/>
</g>
<!-- 2&#45;&gt;3 -->
<g id="edge4" class="edge">
<title>2&#45;&gt;3</title>
<path fill="none" stroke="#000000" d="M276.9947,-108.1686C263.182,-117.2926 246.2744,-128.461 231.4471,-138.2551"/>
<polygon fill="none" stroke="#000000" points="229.4114,-135.4051 222.9965,-143.8372 233.2696,-141.2459 229.4114,-135.4051"/>
</g>
</g>
</svg>
