<?xml version="1.0" encoding="UTF-8" standalone="no"?>
<!DOCTYPE svg PUBLIC "-//W3C//DTD SVG 1.1//EN"
 "http://www.w3.org/Graphics/SVG/1.1/DTD/svg11.dtd">
<!-- Generated by graphviz version 2.40.1 (20161225.0304)
 -->
<!-- Title: %3 Pages: 1 -->
<svg width="772pt" height="332pt"
 viewBox="0.00 0.00 772.00 332.00" xmlns="http://www.w3.org/2000/svg" xmlns:xlink="http://www.w3.org/1999/xlink">
<g id="graph0" class="graph" transform="scale(1 1) rotate(0) translate(4 328)">
<title>%3</title>
<polygon fill="transparent" stroke="transparent" points="-4,4 -4,-328 768,-328 768,4 -4,4"/>
<!-- 1 -->
<g id="node1" class="node">
<title>1</title>
<polygon fill="#d3d3d3" stroke="#000000" points="340,-36 5,-36 5,0 340,0 340,-36"/>
<text text-anchor="middle" x="172.5" y="-15.5" font-family="Fira Mono" font-size="10.00" fill="#000000">CL&#45;DATA&#45;STRUCTURES.DICTS.HAMT:MUTABLE&#45;HAMT&#45;DICTIONARY</text>
</g>
<!-- 7 -->
<g id="node2" class="node">
<title>7</title>
<polygon fill="#d3d3d3" stroke="#000000" points="173,-252 0,-252 0,-216 173,-216 173,-252"/>
<text text-anchor="middle" x="86.5" y="-231.5" font-family="Fira Mono" font-size="10.00" fill="#000000">CL&#45;DATA&#45;STRUCTURES:MUTABLE</text>
</g>
<!-- 1&#45;&gt;7 -->
<g id="edge1" class="edge">
<title>1&#45;&gt;7</title>
<path fill="none" stroke="#000000" d="M140.4299,-36.1328C127.4246,-45.1861 113.5892,-57.3529 105.5,-72 82.276,-114.0516 81.4879,-171.5084 83.5991,-205.488"/>
<polygon fill="none" stroke="#000000" points="80.1228,-205.9362 84.3617,-215.6461 87.1032,-205.4122 80.1228,-205.9362"/>
</g>
<!-- 2 -->
<g id="node3" class="node">
<title>2</title>
<polygon fill="#d3d3d3" stroke="#000000" points="402,-108 115,-108 115,-72 402,-72 402,-108"/>
<text text-anchor="middle" x="258.5" y="-87.5" font-family="Fira Mono" font-size="10.00" fill="#000000">CL&#45;DATA&#45;STRUCTURES.DICTS.HAMT:HAMT&#45;DICTIONARY</text>
</g>
<!-- 1&#45;&gt;2 -->
<g id="edge2" class="edge">
<title>1&#45;&gt;2</title>
<path fill="none" stroke="#000000" d="M194.2014,-36.1686C204.6921,-44.9515 217.4455,-55.6288 228.8194,-65.1511"/>
<polygon fill="none" stroke="#000000" points="226.8911,-68.1014 236.8055,-71.8372 231.3847,-62.7341 226.8911,-68.1014"/>
</g>
<!-- 4 -->
<g id="node7" class="node">
<title>4</title>
<polygon fill="#d3d3d3" stroke="#000000" points="433,-324 176,-324 176,-288 433,-288 433,-324"/>
<text text-anchor="middle" x="304.5" y="-303.5" font-family="Fira Mono" font-size="10.00" fill="#000000">CL&#45;DATA&#45;STRUCTURES:FUNDAMENTAL&#45;CONTAINER</text>
</g>
<!-- 7&#45;&gt;4 -->
<g id="edge3" class="edge">
<title>7&#45;&gt;4</title>
<path fill="none" stroke="#000000" d="M141.2292,-252.0757C171.2902,-262.0041 208.745,-274.3745 240.1954,-284.7618"/>
<polygon fill="none" stroke="#000000" points="239.1551,-288.1041 249.7483,-287.9169 241.3504,-281.4572 239.1551,-288.1041"/>
</g>
<!-- 5 -->
<g id="node4" class="node">
<title>5</title>
<polygon fill="#d3d3d3" stroke="#000000" points="393,-180 118,-180 118,-144 393,-144 393,-180"/>
<text text-anchor="middle" x="255.5" y="-159.5" font-family="Fira Mono" font-size="10.00" fill="#000000">CL&#45;DATA&#45;STRUCTURES.DICTS:HASHING&#45;DICTIONARY</text>
</g>
<!-- 2&#45;&gt;5 -->
<g id="edge4" class="edge">
<title>2&#45;&gt;5</title>
<path fill="none" stroke="#000000" d="M257.743,-108.1686C257.4221,-115.869 257.0406,-125.0257 256.684,-133.5834"/>
<polygon fill="none" stroke="#000000" points="253.1867,-133.4497 256.2672,-143.5867 260.1806,-133.7411 253.1867,-133.4497"/>
</g>
<!-- 3 -->
<g id="node6" class="node">
<title>3</title>
<polygon fill="#d3d3d3" stroke="#000000" points="764,-180 411,-180 411,-144 764,-144 764,-180"/>
<text text-anchor="middle" x="587.5" y="-159.5" font-family="Fira Mono" font-size="10.00" fill="#000000">CL&#45;DATA&#45;STRUCTURES.DICTS.HAMT:FUNDAMENTAL&#45;HAMT&#45;CONTAINER</text>
</g>
<!-- 2&#45;&gt;3 -->
<g id="edge5" class="edge">
<title>2&#45;&gt;3</title>
<path fill="none" stroke="#000000" d="M341.0959,-108.0757C388.0189,-118.3446 446.8787,-131.2257 495.303,-141.8232"/>
<polygon fill="none" stroke="#000000" points="494.6384,-145.2605 505.1555,-143.9793 496.135,-138.4223 494.6384,-145.2605"/>
</g>
<!-- 6 -->
<g id="node5" class="node">
<title>6</title>
<polygon fill="#d3d3d3" stroke="#000000" points="418,-252 191,-252 191,-216 418,-216 418,-252"/>
<text text-anchor="middle" x="304.5" y="-231.5" font-family="Fira Mono" font-size="10.00" fill="#000000">CL&#45;DATA&#45;STRUCTURES.DICTS:DICTIONARY</text>
</g>
<!-- 5&#45;&gt;6 -->
<g id="edge6" class="edge">
<title>5&#45;&gt;6</title>
<path fill="none" stroke="#000000" d="M267.8648,-180.1686C273.4509,-188.3768 280.163,-198.2394 286.3072,-207.2677"/>
<polygon fill="none" stroke="#000000" points="283.449,-209.2888 291.9687,-215.5867 289.236,-205.3504 283.449,-209.2888"/>
</g>
<!-- 6&#45;&gt;4 -->
<g id="edge7" class="edge">
<title>6&#45;&gt;4</title>
<path fill="none" stroke="#000000" d="M304.5,-252.1686C304.5,-259.869 304.5,-269.0257 304.5,-277.5834"/>
<polygon fill="none" stroke="#000000" points="301.0001,-277.5867 304.5,-287.5867 308.0001,-277.5868 301.0001,-277.5867"/>
</g>
<!-- 3&#45;&gt;4 -->
<g id="edge8" class="edge">
<title>3&#45;&gt;4</title>
<path fill="none" stroke="#000000" d="M557.0915,-180.1163C525.0545,-198.9368 472.9092,-228.8204 426.5,-252 404.1173,-263.1793 378.9031,-274.5383 357.2316,-283.9352"/>
<polygon fill="none" stroke="#000000" points="355.663,-280.7998 347.864,-287.971 358.4328,-287.2286 355.663,-280.7998"/>
</g>
</g>
</svg>
