<?xml version="1.0" encoding="UTF-8" standalone="no"?>
<!DOCTYPE svg PUBLIC "-//W3C//DTD SVG 1.1//EN"
 "http://www.w3.org/Graphics/SVG/1.1/DTD/svg11.dtd">
<!-- Generated by graphviz version 2.40.1 (20161225.0304)
 -->
<!-- Title: %3 Pages: 1 -->
<svg width="821pt" height="188pt"
 viewBox="0.00 0.00 821.00 188.00" xmlns="http://www.w3.org/2000/svg" xmlns:xlink="http://www.w3.org/1999/xlink">
<g id="graph0" class="graph" transform="scale(1 1) rotate(0) translate(4 184)">
<title>%3</title>
<polygon fill="transparent" stroke="transparent" points="-4,4 -4,-184 817,-184 817,4 -4,4"/>
<!-- 1 -->
<g id="node1" class="node">
<title>1</title>
<polygon fill="#d3d3d3" stroke="#000000" points="592,-36 257,-36 257,0 592,0 592,-36"/>
<text text-anchor="middle" x="424.5" y="-15.5" font-family="Fira Mono" font-size="10.00" fill="#000000">CL&#45;DATA&#45;STRUCTURES.META:FUNCTIONAL&#45;UPDATE&#45;IF&#45;FUNCTION</text>
</g>
<!-- 4 -->
<g id="node2" class="node">
<title>4</title>
<polygon fill="#d3d3d3" stroke="#000000" points="269,-108 0,-108 0,-72 269,-72 269,-108"/>
<text text-anchor="middle" x="134.5" y="-87.5" font-family="Fira Mono" font-size="10.00" fill="#000000">CL&#45;DATA&#45;STRUCTURES.META:UPDATE&#45;IF&#45;FUNCTION</text>
</g>
<!-- 1&#45;&gt;4 -->
<g id="edge1" class="edge">
<title>1&#45;&gt;4</title>
<path fill="none" stroke="#000000" d="M351.6951,-36.0757C310.6798,-46.2588 259.3177,-59.0108 216.8391,-69.5572"/>
<polygon fill="none" stroke="#000000" points="215.9453,-66.1728 207.0833,-71.9793 217.632,-72.9665 215.9453,-66.1728"/>
</g>
<!-- 3 -->
<g id="node4" class="node">
<title>3</title>
<polygon fill="#d3d3d3" stroke="#000000" points="562,-108 287,-108 287,-72 562,-72 562,-108"/>
<text text-anchor="middle" x="424.5" y="-87.5" font-family="Fira Mono" font-size="10.00" fill="#000000">CL&#45;DATA&#45;STRUCTURES.META:FUNCTIONAL&#45;FUNCTION</text>
</g>
<!-- 1&#45;&gt;3 -->
<g id="edge2" class="edge">
<title>1&#45;&gt;3</title>
<path fill="none" stroke="#000000" d="M424.5,-36.1686C424.5,-43.869 424.5,-53.0257 424.5,-61.5834"/>
<polygon fill="none" stroke="#000000" points="421.0001,-61.5867 424.5,-71.5867 428.0001,-61.5868 421.0001,-61.5867"/>
</g>
<!-- 2 -->
<g id="node5" class="node">
<title>2</title>
<polygon fill="#d3d3d3" stroke="#000000" points="813,-108 580,-108 580,-72 813,-72 813,-108"/>
<text text-anchor="middle" x="696.5" y="-87.5" font-family="Fira Mono" font-size="10.00" fill="#000000">CLOSER&#45;MOP:STANDARD&#45;GENERIC&#45;FUNCTION</text>
</g>
<!-- 1&#45;&gt;2 -->
<g id="edge3" class="edge">
<title>1&#45;&gt;2</title>
<path fill="none" stroke="#000000" d="M492.786,-36.0757C530.94,-46.1753 578.6401,-58.8018 618.2897,-69.2973"/>
<polygon fill="none" stroke="#000000" points="617.6232,-72.7413 628.1859,-71.9169 619.4145,-65.9744 617.6232,-72.7413"/>
</g>
<!-- 5 -->
<g id="node3" class="node">
<title>5</title>
<polygon fill="#d3d3d3" stroke="#000000" points="254,-180 15,-180 15,-144 254,-144 254,-180"/>
<text text-anchor="middle" x="134.5" y="-159.5" font-family="Fira Mono" font-size="10.00" fill="#000000">CL&#45;DATA&#45;STRUCTURES.META:GROW&#45;FUNCTION</text>
</g>
<!-- 4&#45;&gt;5 -->
<g id="edge4" class="edge">
<title>4&#45;&gt;5</title>
<path fill="none" stroke="#000000" d="M134.5,-108.1686C134.5,-115.869 134.5,-125.0257 134.5,-133.5834"/>
<polygon fill="none" stroke="#000000" points="131.0001,-133.5867 134.5,-143.5867 138.0001,-133.5868 131.0001,-133.5867"/>
</g>
</g>
</svg>
