<?xml version="1.0" encoding="UTF-8" standalone="no"?>
<!DOCTYPE svg PUBLIC "-//W3C//DTD SVG 1.1//EN"
 "http://www.w3.org/Graphics/SVG/1.1/DTD/svg11.dtd">
<!-- Generated by graphviz version 2.40.1 (20161225.0304)
 -->
<!-- Title: %3 Pages: 1 -->
<svg width="743pt" height="188pt"
 viewBox="0.00 0.00 743.00 188.00" xmlns="http://www.w3.org/2000/svg" xmlns:xlink="http://www.w3.org/1999/xlink">
<g id="graph0" class="graph" transform="scale(1 1) rotate(0) translate(4 184)">
<title>%3</title>
<polygon fill="transparent" stroke="transparent" points="-4,4 -4,-184 739,-184 739,4 -4,4"/>
<!-- 1 -->
<g id="node1" class="node">
<title>1</title>
<polygon fill="#d3d3d3" stroke="#000000" points="505,-36 218,-36 218,0 505,0 505,-36"/>
<text text-anchor="middle" x="361.5" y="-15.5" font-family="Fira Mono" font-size="10.00" fill="#000000">CL&#45;DATA&#45;STRUCTURES:FUNCTIONAL&#45;INSERT&#45;FUNCTION</text>
</g>
<!-- 4 -->
<g id="node2" class="node">
<title>4</title>
<polygon fill="#d3d3d3" stroke="#000000" points="221,-108 0,-108 0,-72 221,-72 221,-108"/>
<text text-anchor="middle" x="110.5" y="-87.5" font-family="Fira Mono" font-size="10.00" fill="#000000">CL&#45;DATA&#45;STRUCTURES:INSERT&#45;FUNCTION</text>
</g>
<!-- 1&#45;&gt;4 -->
<g id="edge1" class="edge">
<title>1&#45;&gt;4</title>
<path fill="none" stroke="#000000" d="M298.4861,-36.0757C263.5762,-46.0897 220.0058,-58.588 183.6038,-69.03"/>
<polygon fill="none" stroke="#000000" points="182.1871,-65.7951 173.5398,-71.9169 184.1173,-72.5238 182.1871,-65.7951"/>
</g>
<!-- 3 -->
<g id="node4" class="node">
<title>3</title>
<polygon fill="#d3d3d3" stroke="#000000" points="484,-108 239,-108 239,-72 484,-72 484,-108"/>
<text text-anchor="middle" x="361.5" y="-87.5" font-family="Fira Mono" font-size="10.00" fill="#000000">CL&#45;DATA&#45;STRUCTURES:FUNCTIONAL&#45;FUNCTION</text>
</g>
<!-- 1&#45;&gt;3 -->
<g id="edge2" class="edge">
<title>1&#45;&gt;3</title>
<path fill="none" stroke="#000000" d="M361.5,-36.1686C361.5,-43.869 361.5,-53.0257 361.5,-61.5834"/>
<polygon fill="none" stroke="#000000" points="358.0001,-61.5867 361.5,-71.5867 365.0001,-61.5868 358.0001,-61.5867"/>
</g>
<!-- 2 -->
<g id="node5" class="node">
<title>2</title>
<polygon fill="#d3d3d3" stroke="#000000" points="735,-108 502,-108 502,-72 735,-72 735,-108"/>
<text text-anchor="middle" x="618.5" y="-87.5" font-family="Fira Mono" font-size="10.00" fill="#000000">CLOSER&#45;MOP:STANDARD&#45;GENERIC&#45;FUNCTION</text>
</g>
<!-- 1&#45;&gt;2 -->
<g id="edge3" class="edge">
<title>1&#45;&gt;2</title>
<path fill="none" stroke="#000000" d="M426.0202,-36.0757C461.9174,-46.1325 506.758,-58.6948 544.1261,-69.1637"/>
<polygon fill="none" stroke="#000000" points="543.3798,-72.5893 553.9532,-71.9169 545.2682,-65.8489 543.3798,-72.5893"/>
</g>
<!-- 5 -->
<g id="node3" class="node">
<title>5</title>
<polygon fill="#d3d3d3" stroke="#000000" points="215,-180 6,-180 6,-144 215,-144 215,-180"/>
<text text-anchor="middle" x="110.5" y="-159.5" font-family="Fira Mono" font-size="10.00" fill="#000000">CL&#45;DATA&#45;STRUCTURES:GROW&#45;FUNCTION</text>
</g>
<!-- 4&#45;&gt;5 -->
<g id="edge4" class="edge">
<title>4&#45;&gt;5</title>
<path fill="none" stroke="#000000" d="M110.5,-108.1686C110.5,-115.869 110.5,-125.0257 110.5,-133.5834"/>
<polygon fill="none" stroke="#000000" points="107.0001,-133.5867 110.5,-143.5867 114.0001,-133.5868 107.0001,-133.5867"/>
</g>
</g>
</svg>
