<?xml version="1.0" encoding="UTF-8" standalone="no"?>
<!DOCTYPE svg PUBLIC "-//W3C//DTD SVG 1.1//EN"
 "http://www.w3.org/Graphics/SVG/1.1/DTD/svg11.dtd">
<!-- Generated by graphviz version 2.44.1 (0)
 -->
<!-- Pages: 1 -->
<svg width="773pt" height="332pt"
 viewBox="0.00 0.00 773.00 332.00" xmlns="http://www.w3.org/2000/svg" xmlns:xlink="http://www.w3.org/1999/xlink">
<g id="graph0" class="graph" transform="scale(1 1) rotate(0) translate(4 328)">
<polygon fill="transparent" stroke="transparent" points="-4,4 -4,-328 769,-328 769,4 -4,4"/>
<!-- 1 -->
<g id="node1" class="node">
<title>1</title>
<polygon fill="lightgrey" stroke="black" points="497,-36 210,-36 210,0 497,0 497,-36"/>
<text text-anchor="middle" x="353.5" y="-15.5" font-family="Fira Mono" font-size="10.00">CL&#45;DATA&#45;STRUCTURES.DICTS.HAMT:HAMT&#45;DICTIONARY</text>
</g>
<!-- 4 -->
<g id="node2" class="node">
<title>4</title>
<polygon fill="lightgrey" stroke="black" points="347,-108 0,-108 0,-72 347,-72 347,-108"/>
<text text-anchor="middle" x="173.5" y="-87.5" font-family="Fira Mono" font-size="10.00">CL&#45;DATA&#45;STRUCTURES.DICTS:FUNDAMENTAL&#45;HASHING&#45;DICTIONARY</text>
</g>
<!-- 1&#45;&gt;4 -->
<g id="edge1" class="edge">
<title>1&#45;&gt;4</title>
<path fill="none" stroke="black" d="M309.47,-36.12C284.53,-45.82 253.16,-58.02 226.84,-68.26"/>
<polygon fill="none" stroke="black" points="225.44,-65.05 217.39,-71.93 227.98,-71.57 225.44,-65.05"/>
</g>
<!-- 2 -->
<g id="node6" class="node">
<title>2</title>
<polygon fill="lightgrey" stroke="black" points="677,-108 390,-108 390,-72 677,-72 677,-108"/>
<text text-anchor="middle" x="533.5" y="-87.5" font-family="Fira Mono" font-size="10.00">CL&#45;DATA&#45;STRUCTURES.COMMON.HAMT:HAMT&#45;CONTAINER</text>
</g>
<!-- 1&#45;&gt;2 -->
<g id="edge2" class="edge">
<title>1&#45;&gt;2</title>
<path fill="none" stroke="black" d="M397.53,-36.12C422.47,-45.82 453.84,-58.02 480.16,-68.26"/>
<polygon fill="none" stroke="black" points="479.02,-71.57 489.61,-71.93 481.56,-65.05 479.02,-71.57"/>
</g>
<!-- 5 -->
<g id="node3" class="node">
<title>5</title>
<polygon fill="lightgrey" stroke="black" points="310,-180 11,-180 11,-144 310,-144 310,-180"/>
<text text-anchor="middle" x="160.5" y="-159.5" font-family="Fira Mono" font-size="10.00">CL&#45;DATA&#45;STRUCTURES.DICTS:FUNDAMENTAL&#45;DICTIONARY</text>
</g>
<!-- 4&#45;&gt;5 -->
<g id="edge3" class="edge">
<title>4&#45;&gt;5</title>
<path fill="none" stroke="black" d="M170.29,-108.3C168.85,-116.02 167.13,-125.29 165.54,-133.89"/>
<polygon fill="none" stroke="black" points="162.06,-133.42 163.68,-143.9 168.94,-134.7 162.06,-133.42"/>
</g>
<!-- 6 -->
<g id="node4" class="node">
<title>6</title>
<polygon fill="lightgrey" stroke="black" points="289,-252 32,-252 32,-216 289,-216 289,-252"/>
<text text-anchor="middle" x="160.5" y="-231.5" font-family="Fira Mono" font-size="10.00">CL&#45;DATA&#45;STRUCTURES:FUNDAMENTAL&#45;CONTAINER</text>
</g>
<!-- 5&#45;&gt;6 -->
<g id="edge4" class="edge">
<title>5&#45;&gt;6</title>
<path fill="none" stroke="black" d="M160.5,-180.3C160.5,-188.02 160.5,-197.29 160.5,-205.89"/>
<polygon fill="none" stroke="black" points="157,-205.9 160.5,-215.9 164,-205.9 157,-205.9"/>
</g>
<!-- 7 -->
<g id="node5" class="node">
<title>7</title>
<polygon fill="lightgrey" stroke="black" points="259,-324 62,-324 62,-288 259,-288 259,-324"/>
<text text-anchor="middle" x="160.5" y="-303.5" font-family="Fira Mono" font-size="10.00">CL&#45;DATA&#45;STRUCTURES:TRAVERSABLE</text>
</g>
<!-- 6&#45;&gt;7 -->
<g id="edge5" class="edge">
<title>6&#45;&gt;7</title>
<path fill="none" stroke="black" d="M160.5,-252.3C160.5,-260.02 160.5,-269.29 160.5,-277.89"/>
<polygon fill="none" stroke="black" points="157,-277.9 160.5,-287.9 164,-277.9 157,-277.9"/>
</g>
<!-- 3 -->
<g id="node7" class="node">
<title>3</title>
<polygon fill="lightgrey" stroke="black" points="765,-180 328,-180 328,-144 765,-144 765,-180"/>
<text text-anchor="middle" x="546.5" y="-159.5" font-family="Fira Mono" font-size="10.00">CL&#45;DATA&#45;STRUCTURES.COMMON.ABSTRACT:FUNDAMENTAL&#45;OWNERSHIP&#45;TAGGED&#45;OBJECT</text>
</g>
<!-- 2&#45;&gt;3 -->
<g id="edge6" class="edge">
<title>2&#45;&gt;3</title>
<path fill="none" stroke="black" d="M536.71,-108.3C538.15,-116.02 539.87,-125.29 541.46,-133.89"/>
<polygon fill="none" stroke="black" points="538.06,-134.7 543.32,-143.9 544.94,-133.42 538.06,-134.7"/>
</g>
</g>
</svg>
