<?xml version="1.0" encoding="UTF-8" standalone="no"?>
<!DOCTYPE svg PUBLIC "-//W3C//DTD SVG 1.1//EN"
 "http://www.w3.org/Graphics/SVG/1.1/DTD/svg11.dtd">
<!-- Generated by graphviz version 2.40.1 (20161225.0304)
 -->
<!-- Title: %3 Pages: 1 -->
<svg width="676pt" height="332pt"
 viewBox="0.00 0.00 676.00 332.00" xmlns="http://www.w3.org/2000/svg" xmlns:xlink="http://www.w3.org/1999/xlink">
<g id="graph0" class="graph" transform="scale(1 1) rotate(0) translate(4 328)">
<title>%3</title>
<polygon fill="transparent" stroke="transparent" points="-4,4 -4,-328 672,-328 672,4 -4,4"/>
<!-- 1 -->
<g id="node1" class="node">
<title>1</title>
<polygon fill="#d3d3d3" stroke="#000000" points="554,-36 195,-36 195,0 554,0 554,-36"/>
<text text-anchor="middle" x="374.5" y="-15.5" font-family="Fira Mono" font-size="10.00" fill="#000000">CL&#45;DATA&#45;STRUCTURES.DICTS:TRANSACTIONAL&#45;HASHING&#45;DICTIONARY</text>
</g>
<!-- 5 -->
<g id="node2" class="node">
<title>5</title>
<polygon fill="#d3d3d3" stroke="#000000" points="375,-108 64,-108 64,-72 375,-72 375,-108"/>
<text text-anchor="middle" x="219.5" y="-87.5" font-family="Fira Mono" font-size="10.00" fill="#000000">CL&#45;DATA&#45;STRUCTURES.DICTS:TRANSACTIONAL&#45;DICTIONARY</text>
</g>
<!-- 1&#45;&gt;5 -->
<g id="edge1" class="edge">
<title>1&#45;&gt;5</title>
<path fill="none" stroke="#000000" d="M335.387,-36.1686C314.7488,-45.7554 289.2516,-57.5992 267.4327,-67.7345"/>
<polygon fill="none" stroke="#000000" points="265.9266,-64.5749 258.3318,-71.962 268.8756,-70.9234 265.9266,-64.5749"/>
</g>
<!-- 2 -->
<g id="node6" class="node">
<title>2</title>
<polygon fill="#d3d3d3" stroke="#000000" points="668,-108 393,-108 393,-72 668,-72 668,-108"/>
<text text-anchor="middle" x="530.5" y="-87.5" font-family="Fira Mono" font-size="10.00" fill="#000000">CL&#45;DATA&#45;STRUCTURES.DICTS:HASHING&#45;DICTIONARY</text>
</g>
<!-- 1&#45;&gt;2 -->
<g id="edge2" class="edge">
<title>1&#45;&gt;2</title>
<path fill="none" stroke="#000000" d="M413.8654,-36.1686C434.6367,-45.7554 460.2983,-57.5992 482.2581,-67.7345"/>
<polygon fill="none" stroke="#000000" points="480.8714,-70.9492 491.4177,-71.962 483.8048,-64.5935 480.8714,-70.9492"/>
</g>
<!-- 8 -->
<g id="node3" class="node">
<title>8</title>
<polygon fill="#d3d3d3" stroke="#000000" points="209,-180 0,-180 0,-144 209,-144 209,-180"/>
<text text-anchor="middle" x="104.5" y="-159.5" font-family="Fira Mono" font-size="10.00" fill="#000000">CL&#45;DATA&#45;STRUCTURES:TRANSACTIONAL</text>
</g>
<!-- 5&#45;&gt;8 -->
<g id="edge3" class="edge">
<title>5&#45;&gt;8</title>
<path fill="none" stroke="#000000" d="M190.4806,-108.1686C175.7714,-117.3779 157.7356,-128.6699 141.9878,-138.5294"/>
<polygon fill="none" stroke="#000000" points="140.1286,-135.564 133.5101,-143.8372 143.8433,-141.4971 140.1286,-135.564"/>
</g>
<!-- 6 -->
<g id="node4" class="node">
<title>6</title>
<polygon fill="#d3d3d3" stroke="#000000" points="502,-180 227,-180 227,-144 502,-144 502,-180"/>
<text text-anchor="middle" x="364.5" y="-159.5" font-family="Fira Mono" font-size="10.00" fill="#000000">CL&#45;DATA&#45;STRUCTURES.DICTS:MUTABLE&#45;DICTIONARY</text>
</g>
<!-- 5&#45;&gt;6 -->
<g id="edge4" class="edge">
<title>5&#45;&gt;6</title>
<path fill="none" stroke="#000000" d="M256.0896,-108.1686C275.2239,-117.6698 298.8229,-129.3879 319.1122,-139.4626"/>
<polygon fill="none" stroke="#000000" points="317.6603,-142.6494 328.1735,-143.962 320.7735,-136.3797 317.6603,-142.6494"/>
</g>
<!-- 7 -->
<g id="node5" class="node">
<title>7</title>
<polygon fill="#d3d3d3" stroke="#000000" points="316,-252 143,-252 143,-216 316,-216 316,-252"/>
<text text-anchor="middle" x="229.5" y="-231.5" font-family="Fira Mono" font-size="10.00" fill="#000000">CL&#45;DATA&#45;STRUCTURES:MUTABLE</text>
</g>
<!-- 8&#45;&gt;7 -->
<g id="edge5" class="edge">
<title>8&#45;&gt;7</title>
<path fill="none" stroke="#000000" d="M136.0428,-180.1686C152.1791,-189.4632 171.9986,-200.8792 189.2272,-210.8029"/>
<polygon fill="none" stroke="#000000" points="187.555,-213.8788 197.9673,-215.8372 191.0489,-207.813 187.555,-213.8788"/>
</g>
<!-- 6&#45;&gt;7 -->
<g id="edge6" class="edge">
<title>6&#45;&gt;7</title>
<path fill="none" stroke="#000000" d="M330.4338,-180.1686C312.8467,-189.5484 291.2084,-201.0888 272.4832,-211.0756"/>
<polygon fill="none" stroke="#000000" points="270.7318,-208.043 263.5553,-215.8372 274.0259,-214.2195 270.7318,-208.043"/>
</g>
<!-- 3 -->
<g id="node7" class="node">
<title>3</title>
<polygon fill="#d3d3d3" stroke="#000000" points="561,-252 334,-252 334,-216 561,-216 561,-252"/>
<text text-anchor="middle" x="447.5" y="-231.5" font-family="Fira Mono" font-size="10.00" fill="#000000">CL&#45;DATA&#45;STRUCTURES.DICTS:DICTIONARY</text>
</g>
<!-- 6&#45;&gt;3 -->
<g id="edge7" class="edge">
<title>6&#45;&gt;3</title>
<path fill="none" stroke="#000000" d="M385.4444,-180.1686C395.5691,-188.9515 407.8777,-199.6288 418.8548,-209.1511"/>
<polygon fill="none" stroke="#000000" points="416.7149,-211.9282 426.5623,-215.8372 421.3019,-206.6405 416.7149,-211.9282"/>
</g>
<!-- 4 -->
<g id="node8" class="node">
<title>4</title>
<polygon fill="#d3d3d3" stroke="#000000" points="467,-324 210,-324 210,-288 467,-288 467,-324"/>
<text text-anchor="middle" x="338.5" y="-303.5" font-family="Fira Mono" font-size="10.00" fill="#000000">CL&#45;DATA&#45;STRUCTURES:FUNDAMENTAL&#45;CONTAINER</text>
</g>
<!-- 7&#45;&gt;4 -->
<g id="edge8" class="edge">
<title>7&#45;&gt;4</title>
<path fill="none" stroke="#000000" d="M257.0053,-252.1686C270.818,-261.2926 287.7256,-272.461 302.5529,-282.2551"/>
<polygon fill="none" stroke="#000000" points="300.7304,-285.2459 311.0035,-287.8372 304.5886,-279.4051 300.7304,-285.2459"/>
</g>
<!-- 2&#45;&gt;3 -->
<g id="edge9" class="edge">
<title>2&#45;&gt;3</title>
<path fill="none" stroke="#000000" d="M530.0891,-108.1583C528.9102,-127.2819 524.8607,-157.6604 511.5,-180 504.7289,-191.3216 494.7168,-201.4018 484.6121,-209.6981"/>
<polygon fill="none" stroke="#000000" points="482.3009,-207.0615 476.5487,-215.9588 486.5938,-212.5906 482.3009,-207.0615"/>
</g>
<!-- 3&#45;&gt;4 -->
<g id="edge10" class="edge">
<title>3&#45;&gt;4</title>
<path fill="none" stroke="#000000" d="M419.9947,-252.1686C406.182,-261.2926 389.2744,-272.461 374.4471,-282.2551"/>
<polygon fill="none" stroke="#000000" points="372.4114,-279.4051 365.9965,-287.8372 376.2696,-285.2459 372.4114,-279.4051"/>
</g>
</g>
</svg>
