<?xml version="1.0" encoding="UTF-8" standalone="no"?>
<!DOCTYPE svg PUBLIC "-//W3C//DTD SVG 1.1//EN"
 "http://www.w3.org/Graphics/SVG/1.1/DTD/svg11.dtd">
<!-- Generated by graphviz version 2.40.1 (20161225.0304)
 -->
<!-- Title: %3 Pages: 1 -->
<svg width="283pt" height="188pt"
 viewBox="0.00 0.00 283.00 188.00" xmlns="http://www.w3.org/2000/svg" xmlns:xlink="http://www.w3.org/1999/xlink">
<g id="graph0" class="graph" transform="scale(1 1) rotate(0) translate(4 184)">
<title>%3</title>
<polygon fill="transparent" stroke="transparent" points="-4,4 -4,-184 279,-184 279,4 -4,4"/>
<!-- 1 -->
<g id="node1" class="node">
<title>1</title>
<polygon fill="#d3d3d3" stroke="#000000" points="275,-36 0,-36 0,0 275,0 275,-36"/>
<text text-anchor="middle" x="137.5" y="-15.5" font-family="Fira Mono" font-size="10.00" fill="#000000">CL&#45;DATA&#45;STRUCTURES.DICTS:HASHING&#45;DICTIONARY</text>
</g>
<!-- 2 -->
<g id="node2" class="node">
<title>2</title>
<polygon fill="#d3d3d3" stroke="#000000" points="251,-108 24,-108 24,-72 251,-72 251,-108"/>
<text text-anchor="middle" x="137.5" y="-87.5" font-family="Fira Mono" font-size="10.00" fill="#000000">CL&#45;DATA&#45;STRUCTURES.DICTS:DICTIONARY</text>
</g>
<!-- 1&#45;&gt;2 -->
<g id="edge1" class="edge">
<title>1&#45;&gt;2</title>
<path fill="none" stroke="#000000" d="M137.5,-36.1686C137.5,-43.869 137.5,-53.0257 137.5,-61.5834"/>
<polygon fill="none" stroke="#000000" points="134.0001,-61.5867 137.5,-71.5867 141.0001,-61.5868 134.0001,-61.5867"/>
</g>
<!-- 3 -->
<g id="node3" class="node">
<title>3</title>
<polygon fill="#d3d3d3" stroke="#000000" points="266,-180 9,-180 9,-144 266,-144 266,-180"/>
<text text-anchor="middle" x="137.5" y="-159.5" font-family="Fira Mono" font-size="10.00" fill="#000000">CL&#45;DATA&#45;STRUCTURES:FUNDAMENTAL&#45;CONTAINER</text>
</g>
<!-- 2&#45;&gt;3 -->
<g id="edge2" class="edge">
<title>2&#45;&gt;3</title>
<path fill="none" stroke="#000000" d="M137.5,-108.1686C137.5,-115.869 137.5,-125.0257 137.5,-133.5834"/>
<polygon fill="none" stroke="#000000" points="134.0001,-133.5867 137.5,-143.5867 141.0001,-133.5868 134.0001,-133.5867"/>
</g>
</g>
</svg>
