<?xml version="1.0" encoding="UTF-8" standalone="no"?>
<!DOCTYPE svg PUBLIC "-//W3C//DTD SVG 1.1//EN"
 "http://www.w3.org/Graphics/SVG/1.1/DTD/svg11.dtd">
<!-- Generated by graphviz version 2.40.1 (20161225.0304)
 -->
<!-- Title: %3 Pages: 1 -->
<svg width="265pt" height="188pt"
 viewBox="0.00 0.00 265.00 188.00" xmlns="http://www.w3.org/2000/svg" xmlns:xlink="http://www.w3.org/1999/xlink">
<g id="graph0" class="graph" transform="scale(1 1) rotate(0) translate(4 184)">
<title>%3</title>
<polygon fill="transparent" stroke="transparent" points="-4,4 -4,-184 261,-184 261,4 -4,4"/>
<!-- 1 -->
<g id="node1" class="node">
<title>1</title>
<polygon fill="#d3d3d3" stroke="#000000" points="206,-36 51,-36 51,0 206,0 206,-36"/>
<text text-anchor="middle" x="128.5" y="-15.5" font-family="Fira Mono" font-size="10.00" fill="#000000">CL&#45;DATA&#45;STRUCTURES:LAZY</text>
</g>
<!-- 2 -->
<g id="node2" class="node">
<title>2</title>
<polygon fill="#d3d3d3" stroke="#000000" points="224,-108 33,-108 33,-72 224,-72 224,-108"/>
<text text-anchor="middle" x="128.5" y="-87.5" font-family="Fira Mono" font-size="10.00" fill="#000000">CL&#45;DATA&#45;STRUCTURES:FUNCTIONAL</text>
</g>
<!-- 1&#45;&gt;2 -->
<g id="edge1" class="edge">
<title>1&#45;&gt;2</title>
<path fill="none" stroke="#000000" d="M128.5,-36.1686C128.5,-43.869 128.5,-53.0257 128.5,-61.5834"/>
<polygon fill="none" stroke="#000000" points="125.0001,-61.5867 128.5,-71.5867 132.0001,-61.5868 125.0001,-61.5867"/>
</g>
<!-- 3 -->
<g id="node3" class="node">
<title>3</title>
<polygon fill="#d3d3d3" stroke="#000000" points="257,-180 0,-180 0,-144 257,-144 257,-180"/>
<text text-anchor="middle" x="128.5" y="-159.5" font-family="Fira Mono" font-size="10.00" fill="#000000">CL&#45;DATA&#45;STRUCTURES:FUNDAMENTAL&#45;CONTAINER</text>
</g>
<!-- 2&#45;&gt;3 -->
<g id="edge2" class="edge">
<title>2&#45;&gt;3</title>
<path fill="none" stroke="#000000" d="M128.5,-108.1686C128.5,-115.869 128.5,-125.0257 128.5,-133.5834"/>
<polygon fill="none" stroke="#000000" points="125.0001,-133.5867 128.5,-143.5867 132.0001,-133.5868 125.0001,-133.5867"/>
</g>
</g>
</svg>
