<?xml version="1.0" encoding="UTF-8" standalone="no"?>
<!DOCTYPE svg PUBLIC "-//W3C//DTD SVG 1.1//EN"
 "http://www.w3.org/Graphics/SVG/1.1/DTD/svg11.dtd">
<!-- Generated by graphviz version 3.0.0 (0)
 -->
<!-- Pages: 1 -->
<svg width="265pt" height="260pt"
 viewBox="0.00 0.00 265.00 260.00" xmlns="http://www.w3.org/2000/svg" xmlns:xlink="http://www.w3.org/1999/xlink">
<g id="graph0" class="graph" transform="scale(1 1) rotate(0) translate(4 256)">
<polygon fill="transparent" stroke="transparent" points="-4,4 -4,-256 261,-256 261,4 -4,4"/>
<!-- 1 -->
<g id="node1" class="node">
<title>1</title>
<polygon fill="lightgrey" stroke="black" points="233,-36 24,-36 24,0 233,0 233,-36"/>
<text text-anchor="middle" x="128.5" y="-15.5" font-family="Fira Mono" font-size="10.00">CL&#45;DATA&#45;STRUCTURES:TRANSACTIONAL</text>
</g>
<!-- 2 -->
<g id="node2" class="node">
<title>2</title>
<polygon fill="lightgrey" stroke="black" points="215,-108 42,-108 42,-72 215,-72 215,-108"/>
<text text-anchor="middle" x="128.5" y="-87.5" font-family="Fira Mono" font-size="10.00">CL&#45;DATA&#45;STRUCTURES:MUTABLE</text>
</g>
<!-- 1&#45;&gt;2 -->
<g id="edge1" class="edge">
<title>1&#45;&gt;2</title>
<path fill="none" stroke="black" d="M128.5,-36.3C128.5,-44.02 128.5,-53.29 128.5,-61.89"/>
<polygon fill="none" stroke="black" points="125,-61.9 128.5,-71.9 132,-61.9 125,-61.9"/>
</g>
<!-- 3 -->
<g id="node3" class="node">
<title>3</title>
<polygon fill="lightgrey" stroke="black" points="257,-180 0,-180 0,-144 257,-144 257,-180"/>
<text text-anchor="middle" x="128.5" y="-159.5" font-family="Fira Mono" font-size="10.00">CL&#45;DATA&#45;STRUCTURES:FUNDAMENTAL&#45;CONTAINER</text>
</g>
<!-- 2&#45;&gt;3 -->
<g id="edge2" class="edge">
<title>2&#45;&gt;3</title>
<path fill="none" stroke="black" d="M128.5,-108.3C128.5,-116.02 128.5,-125.29 128.5,-133.89"/>
<polygon fill="none" stroke="black" points="125,-133.9 128.5,-143.9 132,-133.9 125,-133.9"/>
</g>
<!-- 4 -->
<g id="node4" class="node">
<title>4</title>
<polygon fill="lightgrey" stroke="black" points="227,-252 30,-252 30,-216 227,-216 227,-252"/>
<text text-anchor="middle" x="128.5" y="-231.5" font-family="Fira Mono" font-size="10.00">CL&#45;DATA&#45;STRUCTURES:TRAVERSABLE</text>
</g>
<!-- 3&#45;&gt;4 -->
<g id="edge3" class="edge">
<title>3&#45;&gt;4</title>
<path fill="none" stroke="black" d="M128.5,-180.3C128.5,-188.02 128.5,-197.29 128.5,-205.89"/>
<polygon fill="none" stroke="black" points="125,-205.9 128.5,-215.9 132,-205.9 125,-205.9"/>
</g>
</g>
</svg>
