<?xml version="1.0" encoding="UTF-8" standalone="no"?>
<!DOCTYPE svg PUBLIC "-//W3C//DTD SVG 1.1//EN"
 "http://www.w3.org/Graphics/SVG/1.1/DTD/svg11.dtd">
<!-- Generated by graphviz version 2.40.1 (20161225.0304)
 -->
<!-- Title: %3 Pages: 1 -->
<svg width="800pt" height="188pt"
 viewBox="0.00 0.00 800.00 188.00" xmlns="http://www.w3.org/2000/svg" xmlns:xlink="http://www.w3.org/1999/xlink">
<g id="graph0" class="graph" transform="scale(1 1) rotate(0) translate(4 184)">
<title>%3</title>
<polygon fill="transparent" stroke="transparent" points="-4,4 -4,-184 796,-184 796,4 -4,4"/>
<!-- 1 -->
<g id="node1" class="node">
<title>1</title>
<polygon fill="#d3d3d3" stroke="#000000" points="559,-36 248,-36 248,0 559,0 559,-36"/>
<text text-anchor="middle" x="403.5" y="-15.5" font-family="Fira Mono" font-size="10.00" fill="#000000">CL&#45;DATA&#45;STRUCTURES.META:FUNCTIONAL&#45;ERASE&#45;FUNCTION</text>
</g>
<!-- 4 -->
<g id="node2" class="node">
<title>4</title>
<polygon fill="#d3d3d3" stroke="#000000" points="248,-108 3,-108 3,-72 248,-72 248,-108"/>
<text text-anchor="middle" x="125.5" y="-87.5" font-family="Fira Mono" font-size="10.00" fill="#000000">CL&#45;DATA&#45;STRUCTURES.META:ERASE&#45;FUNCTION</text>
</g>
<!-- 1&#45;&gt;4 -->
<g id="edge1" class="edge">
<title>1&#45;&gt;4</title>
<path fill="none" stroke="#000000" d="M333.7077,-36.0757C294.6294,-46.1967 245.7531,-58.8553 205.1781,-69.3639"/>
<polygon fill="none" stroke="#000000" points="204.1241,-66.0214 195.321,-71.9169 205.8792,-72.7978 204.1241,-66.0214"/>
</g>
<!-- 3 -->
<g id="node4" class="node">
<title>3</title>
<polygon fill="#d3d3d3" stroke="#000000" points="541,-108 266,-108 266,-72 541,-72 541,-108"/>
<text text-anchor="middle" x="403.5" y="-87.5" font-family="Fira Mono" font-size="10.00" fill="#000000">CL&#45;DATA&#45;STRUCTURES.META:FUNCTIONAL&#45;FUNCTION</text>
</g>
<!-- 1&#45;&gt;3 -->
<g id="edge2" class="edge">
<title>1&#45;&gt;3</title>
<path fill="none" stroke="#000000" d="M403.5,-36.1686C403.5,-43.869 403.5,-53.0257 403.5,-61.5834"/>
<polygon fill="none" stroke="#000000" points="400.0001,-61.5867 403.5,-71.5867 407.0001,-61.5868 400.0001,-61.5867"/>
</g>
<!-- 2 -->
<g id="node5" class="node">
<title>2</title>
<polygon fill="#d3d3d3" stroke="#000000" points="792,-108 559,-108 559,-72 792,-72 792,-108"/>
<text text-anchor="middle" x="675.5" y="-87.5" font-family="Fira Mono" font-size="10.00" fill="#000000">CLOSER&#45;MOP:STANDARD&#45;GENERIC&#45;FUNCTION</text>
</g>
<!-- 1&#45;&gt;2 -->
<g id="edge3" class="edge">
<title>1&#45;&gt;2</title>
<path fill="none" stroke="#000000" d="M471.786,-36.0757C509.94,-46.1753 557.6401,-58.8018 597.2897,-69.2973"/>
<polygon fill="none" stroke="#000000" points="596.6232,-72.7413 607.1859,-71.9169 598.4145,-65.9744 596.6232,-72.7413"/>
</g>
<!-- 5 -->
<g id="node3" class="node">
<title>5</title>
<polygon fill="#d3d3d3" stroke="#000000" points="251,-180 0,-180 0,-144 251,-144 251,-180"/>
<text text-anchor="middle" x="125.5" y="-159.5" font-family="Fira Mono" font-size="10.00" fill="#000000">CL&#45;DATA&#45;STRUCTURES.META:SHRINK&#45;FUNCTION</text>
</g>
<!-- 4&#45;&gt;5 -->
<g id="edge4" class="edge">
<title>4&#45;&gt;5</title>
<path fill="none" stroke="#000000" d="M125.5,-108.1686C125.5,-115.869 125.5,-125.0257 125.5,-133.5834"/>
<polygon fill="none" stroke="#000000" points="122.0001,-133.5867 125.5,-143.5867 129.0001,-133.5868 122.0001,-133.5867"/>
</g>
</g>
</svg>
