<?xml version="1.0" encoding="UTF-8" standalone="no"?>
<!DOCTYPE svg PUBLIC "-//W3C//DTD SVG 1.1//EN"
 "http://www.w3.org/Graphics/SVG/1.1/DTD/svg11.dtd">
<!-- Generated by graphviz version 2.50.0 (0)
 -->
<!-- Pages: 1 -->
<svg width="271pt" height="332pt"
 viewBox="0.00 0.00 271.00 332.00" xmlns="http://www.w3.org/2000/svg" xmlns:xlink="http://www.w3.org/1999/xlink">
<g id="graph0" class="graph" transform="scale(1 1) rotate(0) translate(4 328)">
<polygon fill="transparent" stroke="transparent" points="-4,4 -4,-328 267,-328 267,4 -4,4"/>
<!-- 1 -->
<g id="node1" class="node">
<title>1</title>
<polygon fill="lightgrey" stroke="black" points="263,-36 0,-36 0,0 263,0 263,-36"/>
<text text-anchor="middle" x="131.5" y="-15.5" font-family="Fira Mono" font-size="10.00">CL&#45;DATA&#45;STRUCTURES.META:ERASE&#45;IF&#45;FUNCTION</text>
</g>
<!-- 2 -->
<g id="node2" class="node">
<title>2</title>
<polygon fill="lightgrey" stroke="black" points="257,-108 6,-108 6,-72 257,-72 257,-108"/>
<text text-anchor="middle" x="131.5" y="-87.5" font-family="Fira Mono" font-size="10.00">CL&#45;DATA&#45;STRUCTURES.META:SHRINK&#45;FUNCTION</text>
</g>
<!-- 1&#45;&gt;2 -->
<g id="edge1" class="edge">
<title>1&#45;&gt;2</title>
<path fill="none" stroke="black" d="M131.5,-36.3C131.5,-44.02 131.5,-53.29 131.5,-61.89"/>
<polygon fill="none" stroke="black" points="128,-61.9 131.5,-71.9 135,-61.9 128,-61.9"/>
</g>
<!-- 3 -->
<g id="node3" class="node">
<title>3</title>
<polygon fill="lightgrey" stroke="black" points="242,-180 21,-180 21,-144 242,-144 242,-180"/>
<text text-anchor="middle" x="131.5" y="-159.5" font-family="Fira Mono" font-size="10.00">SB&#45;MOP:FUNCALLABLE&#45;STANDARD&#45;OBJECT</text>
</g>
<!-- 2&#45;&gt;3 -->
<g id="edge2" class="edge">
<title>2&#45;&gt;3</title>
<path fill="none" stroke="black" d="M131.5,-108.3C131.5,-116.02 131.5,-125.29 131.5,-133.89"/>
<polygon fill="none" stroke="black" points="128,-133.9 131.5,-143.9 135,-133.9 128,-133.9"/>
</g>
<!-- 4 -->
<g id="node4" class="node">
<title>4</title>
<polygon fill="lightgrey" stroke="black" points="200,-252 63,-252 63,-216 200,-216 200,-252"/>
<text text-anchor="middle" x="131.5" y="-231.5" font-family="Fira Mono" font-size="10.00">COMMON&#45;LISP:FUNCTION</text>
</g>
<!-- 3&#45;&gt;4 -->
<g id="edge3" class="edge">
<title>3&#45;&gt;4</title>
<path fill="none" stroke="black" d="M131.5,-180.3C131.5,-188.02 131.5,-197.29 131.5,-205.89"/>
<polygon fill="none" stroke="black" points="128,-205.9 131.5,-215.9 135,-205.9 128,-205.9"/>
</g>
<!-- 5 -->
<g id="node5" class="node">
<title>5</title>
<polygon fill="lightgrey" stroke="black" points="179,-324 84,-324 84,-288 179,-288 179,-324"/>
<text text-anchor="middle" x="131.5" y="-303.5" font-family="Fira Mono" font-size="10.00">COMMON&#45;LISP:T</text>
</g>
<!-- 4&#45;&gt;5 -->
<g id="edge4" class="edge">
<title>4&#45;&gt;5</title>
<path fill="none" stroke="black" d="M131.5,-252.3C131.5,-260.02 131.5,-269.29 131.5,-277.89"/>
<polygon fill="none" stroke="black" points="128,-277.9 131.5,-287.9 135,-277.9 128,-277.9"/>
</g>
</g>
</svg>
