<?xml version="1.0" encoding="UTF-8" standalone="no"?>
<!DOCTYPE svg PUBLIC "-//W3C//DTD SVG 1.1//EN"
 "http://www.w3.org/Graphics/SVG/1.1/DTD/svg11.dtd">
<!-- Generated by graphviz version 2.40.1 (20161225.0304)
 -->
<!-- Title: %3 Pages: 1 -->
<svg width="477pt" height="260pt"
 viewBox="0.00 0.00 477.00 260.00" xmlns="http://www.w3.org/2000/svg" xmlns:xlink="http://www.w3.org/1999/xlink">
<g id="graph0" class="graph" transform="scale(1 1) rotate(0) translate(4 256)">
<title>%3</title>
<polygon fill="transparent" stroke="transparent" points="-4,4 -4,-256 473,-256 473,4 -4,4"/>
<!-- 1 -->
<g id="node1" class="node">
<title>1</title>
<polygon fill="#d3d3d3" stroke="#000000" points="396,-36 139,-36 139,0 396,0 396,-36"/>
<text text-anchor="middle" x="267.5" y="-15.5" font-family="Fira Mono" font-size="10.00" fill="#000000">CL&#45;DATA&#45;STRUCTURES.DICTS:LAZY&#45;DICTIONARY</text>
</g>
<!-- 5 -->
<g id="node2" class="node">
<title>5</title>
<polygon fill="#d3d3d3" stroke="#000000" points="293,-108 0,-108 0,-72 293,-72 293,-108"/>
<text text-anchor="middle" x="146.5" y="-87.5" font-family="Fira Mono" font-size="10.00" fill="#000000">CL&#45;DATA&#45;STRUCTURES.DICTS:FUNCTIONAL&#45;DICTIONARY</text>
</g>
<!-- 1&#45;&gt;5 -->
<g id="edge1" class="edge">
<title>1&#45;&gt;5</title>
<path fill="none" stroke="#000000" d="M236.9666,-36.1686C221.4899,-45.3779 202.5131,-56.6699 185.9437,-66.5294"/>
<polygon fill="none" stroke="#000000" points="183.8276,-63.7157 177.0236,-71.8372 187.4071,-69.7313 183.8276,-63.7157"/>
</g>
<!-- 2 -->
<g id="node4" class="node">
<title>2</title>
<polygon fill="#d3d3d3" stroke="#000000" points="466,-108 311,-108 311,-72 466,-72 466,-108"/>
<text text-anchor="middle" x="388.5" y="-87.5" font-family="Fira Mono" font-size="10.00" fill="#000000">CL&#45;DATA&#45;STRUCTURES:LAZY</text>
</g>
<!-- 1&#45;&gt;2 -->
<g id="edge2" class="edge">
<title>1&#45;&gt;2</title>
<path fill="none" stroke="#000000" d="M298.0334,-36.1686C313.5101,-45.3779 332.4869,-56.6699 349.0563,-66.5294"/>
<polygon fill="none" stroke="#000000" points="347.5929,-69.7313 357.9764,-71.8372 351.1724,-63.7157 347.5929,-69.7313"/>
</g>
<!-- 6 -->
<g id="node3" class="node">
<title>6</title>
<polygon fill="#d3d3d3" stroke="#000000" points="260,-180 33,-180 33,-144 260,-144 260,-180"/>
<text text-anchor="middle" x="146.5" y="-159.5" font-family="Fira Mono" font-size="10.00" fill="#000000">CL&#45;DATA&#45;STRUCTURES.DICTS:DICTIONARY</text>
</g>
<!-- 5&#45;&gt;6 -->
<g id="edge4" class="edge">
<title>5&#45;&gt;6</title>
<path fill="none" stroke="#000000" d="M146.5,-108.1686C146.5,-115.869 146.5,-125.0257 146.5,-133.5834"/>
<polygon fill="none" stroke="#000000" points="143.0001,-133.5867 146.5,-143.5867 150.0001,-133.5868 143.0001,-133.5867"/>
</g>
<!-- 3 -->
<g id="node5" class="node">
<title>3</title>
<polygon fill="#d3d3d3" stroke="#000000" points="469,-180 278,-180 278,-144 469,-144 469,-180"/>
<text text-anchor="middle" x="373.5" y="-159.5" font-family="Fira Mono" font-size="10.00" fill="#000000">CL&#45;DATA&#45;STRUCTURES:FUNCTIONAL</text>
</g>
<!-- 5&#45;&gt;3 -->
<g id="edge3" class="edge">
<title>5&#45;&gt;3</title>
<path fill="none" stroke="#000000" d="M203.4887,-108.0757C234.7907,-118.0041 273.7918,-130.3745 306.5406,-140.7618"/>
<polygon fill="none" stroke="#000000" points="305.8977,-144.2296 316.4879,-143.9169 308.0141,-137.5572 305.8977,-144.2296"/>
</g>
<!-- 4 -->
<g id="node6" class="node">
<title>4</title>
<polygon fill="#d3d3d3" stroke="#000000" points="388,-252 131,-252 131,-216 388,-216 388,-252"/>
<text text-anchor="middle" x="259.5" y="-231.5" font-family="Fira Mono" font-size="10.00" fill="#000000">CL&#45;DATA&#45;STRUCTURES:FUNDAMENTAL&#45;CONTAINER</text>
</g>
<!-- 6&#45;&gt;4 -->
<g id="edge5" class="edge">
<title>6&#45;&gt;4</title>
<path fill="none" stroke="#000000" d="M175.0147,-180.1686C189.3342,-189.2926 206.8624,-200.461 222.2338,-210.2551"/>
<polygon fill="none" stroke="#000000" points="220.6801,-213.4153 230.9945,-215.8372 224.4417,-207.5118 220.6801,-213.4153"/>
</g>
<!-- 2&#45;&gt;3 -->
<g id="edge6" class="edge">
<title>2&#45;&gt;3</title>
<path fill="none" stroke="#000000" d="M384.7149,-108.1686C383.1106,-115.869 381.203,-125.0257 379.4201,-133.5834"/>
<polygon fill="none" stroke="#000000" points="375.9493,-133.0831 377.3361,-143.5867 382.8021,-134.5108 375.9493,-133.0831"/>
</g>
<!-- 3&#45;&gt;4 -->
<g id="edge7" class="edge">
<title>3&#45;&gt;4</title>
<path fill="none" stroke="#000000" d="M344.733,-180.1686C330.2867,-189.2926 312.6035,-200.461 297.096,-210.2551"/>
<polygon fill="none" stroke="#000000" points="294.8437,-207.538 288.2578,-215.8372 298.5817,-213.4564 294.8437,-207.538"/>
</g>
</g>
</svg>
