<?xml version="1.0" encoding="UTF-8" standalone="no"?>
<!DOCTYPE svg PUBLIC "-//W3C//DTD SVG 1.1//EN"
 "http://www.w3.org/Graphics/SVG/1.1/DTD/svg11.dtd">
<!-- Generated by graphviz version 2.40.1 (20161225.0304)
 -->
<!-- Title: %3 Pages: 1 -->
<svg width="516pt" height="332pt"
 viewBox="0.00 0.00 516.00 332.00" xmlns="http://www.w3.org/2000/svg" xmlns:xlink="http://www.w3.org/1999/xlink">
<g id="graph0" class="graph" transform="scale(1 1) rotate(0) translate(4 328)">
<title>%3</title>
<polygon fill="transparent" stroke="transparent" points="-4,4 -4,-328 512,-328 512,4 -4,4"/>
<!-- 1 -->
<g id="node1" class="node">
<title>1</title>
<polygon fill="#d3d3d3" stroke="#000000" points="420,-36 163,-36 163,0 420,0 420,-36"/>
<text text-anchor="middle" x="291.5" y="-15.5" font-family="Fira Mono" font-size="10.00" fill="#000000">CL&#45;DATA&#45;STRUCTURES.DICTS:LAZY&#45;DICTIONARY</text>
</g>
<!-- 6 -->
<g id="node2" class="node">
<title>6</title>
<polygon fill="#d3d3d3" stroke="#000000" points="317,-108 24,-108 24,-72 317,-72 317,-108"/>
<text text-anchor="middle" x="170.5" y="-87.5" font-family="Fira Mono" font-size="10.00" fill="#000000">CL&#45;DATA&#45;STRUCTURES.DICTS:FUNCTIONAL&#45;DICTIONARY</text>
</g>
<!-- 1&#45;&gt;6 -->
<g id="edge1" class="edge">
<title>1&#45;&gt;6</title>
<path fill="none" stroke="#000000" d="M260.9666,-36.1686C245.4899,-45.3779 226.5131,-56.6699 209.9437,-66.5294"/>
<polygon fill="none" stroke="#000000" points="207.8276,-63.7157 201.0236,-71.8372 211.4071,-69.7313 207.8276,-63.7157"/>
</g>
<!-- 2 -->
<g id="node4" class="node">
<title>2</title>
<polygon fill="#d3d3d3" stroke="#000000" points="490,-108 335,-108 335,-72 490,-72 490,-108"/>
<text text-anchor="middle" x="412.5" y="-87.5" font-family="Fira Mono" font-size="10.00" fill="#000000">CL&#45;DATA&#45;STRUCTURES:LAZY</text>
</g>
<!-- 1&#45;&gt;2 -->
<g id="edge2" class="edge">
<title>1&#45;&gt;2</title>
<path fill="none" stroke="#000000" d="M322.0334,-36.1686C337.5101,-45.3779 356.4869,-56.6699 373.0563,-66.5294"/>
<polygon fill="none" stroke="#000000" points="371.5929,-69.7313 381.9764,-71.8372 375.1724,-63.7157 371.5929,-69.7313"/>
</g>
<!-- 7 -->
<g id="node3" class="node">
<title>7</title>
<polygon fill="#d3d3d3" stroke="#000000" points="299,-180 0,-180 0,-144 299,-144 299,-180"/>
<text text-anchor="middle" x="149.5" y="-159.5" font-family="Fira Mono" font-size="10.00" fill="#000000">CL&#45;DATA&#45;STRUCTURES.DICTS:FUNDAMENTAL&#45;DICTIONARY</text>
</g>
<!-- 6&#45;&gt;7 -->
<g id="edge4" class="edge">
<title>6&#45;&gt;7</title>
<path fill="none" stroke="#000000" d="M165.2008,-108.1686C162.9302,-115.9537 160.2254,-125.2271 157.706,-133.8653"/>
<polygon fill="none" stroke="#000000" points="154.3106,-133.0067 154.8705,-143.5867 161.0306,-134.9668 154.3106,-133.0067"/>
</g>
<!-- 3 -->
<g id="node5" class="node">
<title>3</title>
<polygon fill="#d3d3d3" stroke="#000000" points="508,-180 317,-180 317,-144 508,-144 508,-180"/>
<text text-anchor="middle" x="412.5" y="-159.5" font-family="Fira Mono" font-size="10.00" fill="#000000">CL&#45;DATA&#45;STRUCTURES:FUNCTIONAL</text>
</g>
<!-- 6&#45;&gt;3 -->
<g id="edge3" class="edge">
<title>6&#45;&gt;3</title>
<path fill="none" stroke="#000000" d="M231.2545,-108.0757C264.9126,-118.0897 306.9207,-130.588 342.0174,-141.03"/>
<polygon fill="none" stroke="#000000" points="341.1377,-144.4198 351.7206,-143.9169 343.1339,-137.7104 341.1377,-144.4198"/>
</g>
<!-- 4 -->
<g id="node6" class="node">
<title>4</title>
<polygon fill="#d3d3d3" stroke="#000000" points="409,-252 152,-252 152,-216 409,-216 409,-252"/>
<text text-anchor="middle" x="280.5" y="-231.5" font-family="Fira Mono" font-size="10.00" fill="#000000">CL&#45;DATA&#45;STRUCTURES:FUNDAMENTAL&#45;CONTAINER</text>
</g>
<!-- 7&#45;&gt;4 -->
<g id="edge5" class="edge">
<title>7&#45;&gt;4</title>
<path fill="none" stroke="#000000" d="M182.5568,-180.1686C199.4677,-189.4632 220.2385,-200.8792 238.2941,-210.8029"/>
<polygon fill="none" stroke="#000000" points="237.0043,-214.0878 247.4537,-215.8372 240.376,-207.9532 237.0043,-214.0878"/>
</g>
<!-- 2&#45;&gt;3 -->
<g id="edge6" class="edge">
<title>2&#45;&gt;3</title>
<path fill="none" stroke="#000000" d="M412.5,-108.1686C412.5,-115.869 412.5,-125.0257 412.5,-133.5834"/>
<polygon fill="none" stroke="#000000" points="409.0001,-133.5867 412.5,-143.5867 416.0001,-133.5868 409.0001,-133.5867"/>
</g>
<!-- 3&#45;&gt;4 -->
<g id="edge7" class="edge">
<title>3&#45;&gt;4</title>
<path fill="none" stroke="#000000" d="M379.1908,-180.1686C362.0727,-189.5058 341.0294,-200.984 322.7778,-210.9394"/>
<polygon fill="none" stroke="#000000" points="320.9015,-207.976 313.7985,-215.8372 324.2535,-214.1212 320.9015,-207.976"/>
</g>
<!-- 5 -->
<g id="node7" class="node">
<title>5</title>
<polygon fill="#d3d3d3" stroke="#000000" points="379,-324 182,-324 182,-288 379,-288 379,-324"/>
<text text-anchor="middle" x="280.5" y="-303.5" font-family="Fira Mono" font-size="10.00" fill="#000000">CL&#45;DATA&#45;STRUCTURES:TRAVERSABLE</text>
</g>
<!-- 4&#45;&gt;5 -->
<g id="edge8" class="edge">
<title>4&#45;&gt;5</title>
<path fill="none" stroke="#000000" d="M280.5,-252.1686C280.5,-259.869 280.5,-269.0257 280.5,-277.5834"/>
<polygon fill="none" stroke="#000000" points="277.0001,-277.5867 280.5,-287.5867 284.0001,-277.5868 277.0001,-277.5867"/>
</g>
</g>
</svg>
