<?xml version="1.0" encoding="UTF-8" standalone="no"?>
<!DOCTYPE svg PUBLIC "-//W3C//DTD SVG 1.1//EN"
 "http://www.w3.org/Graphics/SVG/1.1/DTD/svg11.dtd">
<!-- Generated by graphviz version 2.46.1 (0)
 -->
<!-- Pages: 1 -->
<svg width="641pt" height="332pt"
 viewBox="0.00 0.00 641.00 332.00" xmlns="http://www.w3.org/2000/svg" xmlns:xlink="http://www.w3.org/1999/xlink">
<g id="graph0" class="graph" transform="scale(1 1) rotate(0) translate(4 328)">
<polygon fill="transparent" stroke="transparent" points="-4,4 -4,-328 637,-328 637,4 -4,4"/>
<!-- 1 -->
<g id="node1" class="node">
<title>1</title>
<polygon fill="lightgrey" stroke="black" points="508,-36 161,-36 161,0 508,0 508,-36"/>
<text text-anchor="middle" x="334.5" y="-15.5" font-family="Fira Mono" font-size="10.00">CL&#45;DATA&#45;STRUCTURES.SETS.SKIP&#45;LIST:MUTABLE&#45;SKIP&#45;LIST&#45;SET</text>
</g>
<!-- 7 -->
<g id="node2" class="node">
<title>7</title>
<polygon fill="lightgrey" stroke="black" points="359,-108 0,-108 0,-72 359,-72 359,-108"/>
<text text-anchor="middle" x="179.5" y="-87.5" font-family="Fira Mono" font-size="10.00">CL&#45;DATA&#45;STRUCTURES.COMMON.SKIP&#45;LIST:FUNDAMENTAL&#45;SKIP&#45;LIST</text>
</g>
<!-- 1&#45;&gt;7 -->
<g id="edge1" class="edge">
<title>1&#45;&gt;7</title>
<path fill="none" stroke="black" d="M296.58,-36.12C275.49,-45.65 249.04,-57.59 226.63,-67.72"/>
<polygon fill="none" stroke="black" points="224.97,-64.63 217.29,-71.93 227.85,-71.01 224.97,-64.63"/>
</g>
<!-- 2 -->
<g id="node3" class="node">
<title>2</title>
<polygon fill="lightgrey" stroke="black" points="604,-108 377,-108 377,-72 604,-72 604,-108"/>
<text text-anchor="middle" x="490.5" y="-87.5" font-family="Fira Mono" font-size="10.00">CL&#45;DATA&#45;STRUCTURES.SETS:MUTABLE&#45;SET</text>
</g>
<!-- 1&#45;&gt;2 -->
<g id="edge2" class="edge">
<title>1&#45;&gt;2</title>
<path fill="none" stroke="black" d="M372.66,-36.12C393.89,-45.65 420.51,-57.59 443.07,-67.72"/>
<polygon fill="none" stroke="black" points="441.91,-71.03 452.46,-71.93 444.77,-64.64 441.91,-71.03"/>
</g>
<!-- 4 -->
<g id="node4" class="node">
<title>4</title>
<polygon fill="lightgrey" stroke="black" points="364,-180 191,-180 191,-144 364,-144 364,-180"/>
<text text-anchor="middle" x="277.5" y="-159.5" font-family="Fira Mono" font-size="10.00">CL&#45;DATA&#45;STRUCTURES:MUTABLE</text>
</g>
<!-- 7&#45;&gt;4 -->
<g id="edge4" class="edge">
<title>7&#45;&gt;4</title>
<path fill="none" stroke="black" d="M203.47,-108.12C216.05,-117.11 231.63,-128.24 245.25,-137.97"/>
<polygon fill="none" stroke="black" points="243.26,-140.85 253.43,-143.81 247.33,-135.15 243.26,-140.85"/>
</g>
<!-- 5 -->
<g id="node5" class="node">
<title>5</title>
<polygon fill="lightgrey" stroke="black" points="348,-252 91,-252 91,-216 348,-216 348,-252"/>
<text text-anchor="middle" x="219.5" y="-231.5" font-family="Fira Mono" font-size="10.00">CL&#45;DATA&#45;STRUCTURES:FUNDAMENTAL&#45;CONTAINER</text>
</g>
<!-- 7&#45;&gt;5 -->
<g id="edge3" class="edge">
<title>7&#45;&gt;5</title>
<path fill="none" stroke="black" d="M176.94,-108.24C174.89,-126.56 173.52,-156.1 181.5,-180 184.8,-189.88 190.64,-199.51 196.76,-207.79"/>
<polygon fill="none" stroke="black" points="194.21,-210.2 203.16,-215.88 199.7,-205.86 194.21,-210.2"/>
</g>
<!-- 2&#45;&gt;4 -->
<g id="edge5" class="edge">
<title>2&#45;&gt;4</title>
<path fill="none" stroke="black" d="M438.67,-108.03C408.65,-117.9 370.68,-130.38 339.13,-140.75"/>
<polygon fill="none" stroke="black" points="337.97,-137.44 329.57,-143.89 340.16,-144.09 337.97,-137.44"/>
</g>
<!-- 3 -->
<g id="node7" class="node">
<title>3</title>
<polygon fill="lightgrey" stroke="black" points="633,-180 382,-180 382,-144 633,-144 633,-180"/>
<text text-anchor="middle" x="507.5" y="-159.5" font-family="Fira Mono" font-size="10.00">CL&#45;DATA&#45;STRUCTURES.SETS:FUNDAMENTAL&#45;SET</text>
</g>
<!-- 2&#45;&gt;3 -->
<g id="edge6" class="edge">
<title>2&#45;&gt;3</title>
<path fill="none" stroke="black" d="M494.7,-108.3C496.6,-116.1 498.88,-125.49 500.98,-134.17"/>
<polygon fill="none" stroke="black" points="497.58,-135 503.35,-143.9 504.39,-133.35 497.58,-135"/>
</g>
<!-- 4&#45;&gt;5 -->
<g id="edge7" class="edge">
<title>4&#45;&gt;5</title>
<path fill="none" stroke="black" d="M263.16,-180.3C256.21,-188.7 247.73,-198.93 240.1,-208.14"/>
<polygon fill="none" stroke="black" points="237.36,-205.96 233.67,-215.9 242.75,-210.43 237.36,-205.96"/>
</g>
<!-- 6 -->
<g id="node6" class="node">
<title>6</title>
<polygon fill="lightgrey" stroke="black" points="318,-324 121,-324 121,-288 318,-288 318,-324"/>
<text text-anchor="middle" x="219.5" y="-303.5" font-family="Fira Mono" font-size="10.00">CL&#45;DATA&#45;STRUCTURES:TRAVERSABLE</text>
</g>
<!-- 5&#45;&gt;6 -->
<g id="edge8" class="edge">
<title>5&#45;&gt;6</title>
<path fill="none" stroke="black" d="M219.5,-252.3C219.5,-260.02 219.5,-269.29 219.5,-277.89"/>
<polygon fill="none" stroke="black" points="216,-277.9 219.5,-287.9 223,-277.9 216,-277.9"/>
</g>
</g>
</svg>
