<?xml version="1.0" encoding="UTF-8" standalone="no"?>
<!DOCTYPE svg PUBLIC "-//W3C//DTD SVG 1.1//EN"
 "http://www.w3.org/Graphics/SVG/1.1/DTD/svg11.dtd">
<!-- Generated by graphviz version 2.50.0 (0)
 -->
<!-- Pages: 1 -->
<svg width="645pt" height="404pt"
 viewBox="0.00 0.00 645.00 404.00" xmlns="http://www.w3.org/2000/svg" xmlns:xlink="http://www.w3.org/1999/xlink">
<g id="graph0" class="graph" transform="scale(1 1) rotate(0) translate(4 400)">
<polygon fill="transparent" stroke="transparent" points="-4,4 -4,-400 641,-400 641,4 -4,4"/>
<!-- 1 -->
<g id="node1" class="node">
<title>1</title>
<polygon fill="lightgrey" stroke="black" points="501,-36 250,-36 250,0 501,0 501,-36"/>
<text text-anchor="middle" x="375.5" y="-15.5" font-family="Fira Mono" font-size="10.00">CL&#45;DATA&#45;STRUCTURES.META:ERASE!&#45;FUNCTION</text>
</g>
<!-- 7 -->
<g id="node2" class="node">
<title>7</title>
<polygon fill="lightgrey" stroke="black" points="314,-108 69,-108 69,-72 314,-72 314,-108"/>
<text text-anchor="middle" x="191.5" y="-87.5" font-family="Fira Mono" font-size="10.00">CL&#45;DATA&#45;STRUCTURES.META:ERASE&#45;FUNCTION</text>
</g>
<!-- 1&#45;&gt;7 -->
<g id="edge1" class="edge">
<title>1&#45;&gt;7</title>
<path fill="none" stroke="black" d="M330.49,-36.12C305,-45.82 272.93,-58.02 246.02,-68.26"/>
<polygon fill="none" stroke="black" points="244.47,-65.1 236.37,-71.93 246.96,-71.65 244.47,-65.1"/>
</g>
<!-- 3 -->
<g id="node4" class="node">
<title>3</title>
<polygon fill="lightgrey" stroke="black" points="550,-180 269,-180 269,-144 550,-144 550,-180"/>
<text text-anchor="middle" x="409.5" y="-159.5" font-family="Fira Mono" font-size="10.00">CL&#45;DATA&#45;STRUCTURES.META:DESTRUCTIVE&#45;FUNCTION</text>
</g>
<!-- 1&#45;&gt;3 -->
<g id="edge2" class="edge">
<title>1&#45;&gt;3</title>
<path fill="none" stroke="black" d="M379.15,-36.11C383.02,-54.06 389.41,-83.08 395.5,-108 397.56,-116.45 399.94,-125.62 402.14,-133.93"/>
<polygon fill="none" stroke="black" points="398.83,-135.1 404.8,-143.86 405.59,-133.29 398.83,-135.1"/>
</g>
<!-- 2 -->
<g id="node8" class="node">
<title>2</title>
<polygon fill="lightgrey" stroke="black" points="637,-108 404,-108 404,-72 637,-72 637,-108"/>
<text text-anchor="middle" x="520.5" y="-87.5" font-family="Fira Mono" font-size="10.00">CLOSER&#45;MOP:STANDARD&#45;GENERIC&#45;FUNCTION</text>
</g>
<!-- 1&#45;&gt;2 -->
<g id="edge3" class="edge">
<title>1&#45;&gt;2</title>
<path fill="none" stroke="black" d="M410.97,-36.12C430.62,-45.61 455.22,-57.49 476.13,-67.58"/>
<polygon fill="none" stroke="black" points="474.62,-70.74 485.14,-71.93 477.66,-64.43 474.62,-70.74"/>
</g>
<!-- 8 -->
<g id="node3" class="node">
<title>8</title>
<polygon fill="lightgrey" stroke="black" points="251,-180 0,-180 0,-144 251,-144 251,-180"/>
<text text-anchor="middle" x="125.5" y="-159.5" font-family="Fira Mono" font-size="10.00">CL&#45;DATA&#45;STRUCTURES.META:SHRINK&#45;FUNCTION</text>
</g>
<!-- 7&#45;&gt;8 -->
<g id="edge4" class="edge">
<title>7&#45;&gt;8</title>
<path fill="none" stroke="black" d="M175.19,-108.3C167.19,-116.78 157.43,-127.14 148.68,-136.42"/>
<polygon fill="none" stroke="black" points="145.94,-134.22 141.63,-143.9 151.03,-139.02 145.94,-134.22"/>
</g>
<!-- 4 -->
<g id="node5" class="node">
<title>4</title>
<polygon fill="lightgrey" stroke="black" points="378,-252 157,-252 157,-216 378,-216 378,-252"/>
<text text-anchor="middle" x="267.5" y="-231.5" font-family="Fira Mono" font-size="10.00">SB&#45;MOP:FUNCALLABLE&#45;STANDARD&#45;OBJECT</text>
</g>
<!-- 8&#45;&gt;4 -->
<g id="edge5" class="edge">
<title>8&#45;&gt;4</title>
<path fill="none" stroke="black" d="M160.24,-180.12C179.32,-189.53 203.18,-201.29 223.55,-211.33"/>
<polygon fill="none" stroke="black" points="222.11,-214.53 232.63,-215.81 225.21,-208.25 222.11,-214.53"/>
</g>
<!-- 3&#45;&gt;4 -->
<g id="edge6" class="edge">
<title>3&#45;&gt;4</title>
<path fill="none" stroke="black" d="M374.76,-180.12C355.68,-189.53 331.82,-201.29 311.45,-211.33"/>
<polygon fill="none" stroke="black" points="309.79,-208.25 302.37,-215.81 312.89,-214.53 309.79,-208.25"/>
</g>
<!-- 5 -->
<g id="node6" class="node">
<title>5</title>
<polygon fill="lightgrey" stroke="black" points="336,-324 199,-324 199,-288 336,-288 336,-324"/>
<text text-anchor="middle" x="267.5" y="-303.5" font-family="Fira Mono" font-size="10.00">COMMON&#45;LISP:FUNCTION</text>
</g>
<!-- 4&#45;&gt;5 -->
<g id="edge7" class="edge">
<title>4&#45;&gt;5</title>
<path fill="none" stroke="black" d="M267.5,-252.3C267.5,-260.02 267.5,-269.29 267.5,-277.89"/>
<polygon fill="none" stroke="black" points="264,-277.9 267.5,-287.9 271,-277.9 264,-277.9"/>
</g>
<!-- 6 -->
<g id="node7" class="node">
<title>6</title>
<polygon fill="lightgrey" stroke="black" points="315,-396 220,-396 220,-360 315,-360 315,-396"/>
<text text-anchor="middle" x="267.5" y="-375.5" font-family="Fira Mono" font-size="10.00">COMMON&#45;LISP:T</text>
</g>
<!-- 5&#45;&gt;6 -->
<g id="edge8" class="edge">
<title>5&#45;&gt;6</title>
<path fill="none" stroke="black" d="M267.5,-324.3C267.5,-332.02 267.5,-341.29 267.5,-349.89"/>
<polygon fill="none" stroke="black" points="264,-349.9 267.5,-359.9 271,-349.9 264,-349.9"/>
</g>
</g>
</svg>
