<?xml version="1.0" encoding="UTF-8" standalone="no"?>
<!DOCTYPE svg PUBLIC "-//W3C//DTD SVG 1.1//EN"
 "http://www.w3.org/Graphics/SVG/1.1/DTD/svg11.dtd">
<!-- Generated by graphviz version 2.44.1 (0)
 -->
<!-- Pages: 1 -->
<svg width="720pt" height="476pt"
 viewBox="0.00 0.00 720.00 476.00" xmlns="http://www.w3.org/2000/svg" xmlns:xlink="http://www.w3.org/1999/xlink">
<g id="graph0" class="graph" transform="scale(1 1) rotate(0) translate(4 472)">
<polygon fill="transparent" stroke="transparent" points="-4,4 -4,-472 716,-472 716,4 -4,4"/>
<!-- 1 -->
<g id="node1" class="node">
<title>1</title>
<polygon fill="lightgrey" stroke="black" points="624,-36 325,-36 325,0 624,0 624,-36"/>
<text text-anchor="middle" x="474.5" y="-15.5" font-family="Fira Mono" font-size="10.00">CL&#45;DATA&#45;STRUCTURES:INITIALIZATION&#45;OUT&#45;OF&#45;BOUNDS</text>
</g>
<!-- 8 -->
<g id="node2" class="node">
<title>8</title>
<polygon fill="lightgrey" stroke="black" points="535,-108 236,-108 236,-72 535,-72 535,-108"/>
<text text-anchor="middle" x="385.5" y="-87.5" font-family="Fira Mono" font-size="10.00">CL&#45;DATA&#45;STRUCTURES:ARGUMENT&#45;VALUE&#45;OUT&#45;OF&#45;BOUNDS</text>
</g>
<!-- 1&#45;&gt;8 -->
<g id="edge1" class="edge">
<title>1&#45;&gt;8</title>
<path fill="none" stroke="black" d="M452.5,-36.3C441.29,-45.12 427.5,-55.97 415.35,-65.53"/>
<polygon fill="none" stroke="black" points="412.94,-62.96 407.25,-71.9 417.27,-68.46 412.94,-62.96"/>
</g>
<!-- 2 -->
<g id="node7" class="node">
<title>2</title>
<polygon fill="lightgrey" stroke="black" points="712,-252 461,-252 461,-216 712,-216 712,-252"/>
<text text-anchor="middle" x="586.5" y="-231.5" font-family="Fira Mono" font-size="10.00">CL&#45;DATA&#45;STRUCTURES:INITIALIZATION&#45;ERROR</text>
</g>
<!-- 1&#45;&gt;2 -->
<g id="edge2" class="edge">
<title>1&#45;&gt;2</title>
<path fill="none" stroke="black" d="M505.11,-36.14C518.7,-45.18 533.77,-57.42 543.5,-72 571.03,-113.26 580.97,-171.47 584.54,-205.41"/>
<polygon fill="none" stroke="black" points="581.07,-205.9 585.48,-215.53 588.04,-205.25 581.07,-205.9"/>
</g>
<!-- 12 -->
<g id="node3" class="node">
<title>12</title>
<polygon fill="lightgrey" stroke="black" points="490,-180 281,-180 281,-144 490,-144 490,-180"/>
<text text-anchor="middle" x="385.5" y="-159.5" font-family="Fira Mono" font-size="10.00">CL&#45;DATA&#45;STRUCTURES:OUT&#45;OF&#45;BOUNDS</text>
</g>
<!-- 8&#45;&gt;12 -->
<g id="edge3" class="edge">
<title>8&#45;&gt;12</title>
<path fill="none" stroke="black" d="M385.5,-108.3C385.5,-116.02 385.5,-125.29 385.5,-133.89"/>
<polygon fill="none" stroke="black" points="382,-133.9 385.5,-143.9 389,-133.9 382,-133.9"/>
</g>
<!-- 9 -->
<g id="node4" class="node">
<title>9</title>
<polygon fill="lightgrey" stroke="black" points="263,-180 0,-180 0,-144 263,-144 263,-180"/>
<text text-anchor="middle" x="131.5" y="-159.5" font-family="Fira Mono" font-size="10.00">CL&#45;DATA&#45;STRUCTURES:INVALID&#45;ARGUMENT&#45;VALUE</text>
</g>
<!-- 8&#45;&gt;9 -->
<g id="edge4" class="edge">
<title>8&#45;&gt;9</title>
<path fill="none" stroke="black" d="M323.69,-108.03C287.43,-118.03 241.44,-130.7 203.54,-141.15"/>
<polygon fill="none" stroke="black" points="202.3,-137.86 193.59,-143.89 204.16,-144.61 202.3,-137.86"/>
</g>
<!-- 10 -->
<g id="node6" class="node">
<title>10</title>
<polygon fill="lightgrey" stroke="black" points="443,-252 234,-252 234,-216 443,-216 443,-252"/>
<text text-anchor="middle" x="338.5" y="-231.5" font-family="Fira Mono" font-size="10.00">CL&#45;DATA&#45;STRUCTURES:INVALID&#45;VALUE</text>
</g>
<!-- 12&#45;&gt;10 -->
<g id="edge5" class="edge">
<title>12&#45;&gt;10</title>
<path fill="none" stroke="black" d="M373.88,-180.3C368.36,-188.53 361.65,-198.52 355.57,-207.58"/>
<polygon fill="none" stroke="black" points="352.65,-205.64 349.98,-215.9 358.46,-209.54 352.65,-205.64"/>
</g>
<!-- 11 -->
<g id="node5" class="node">
<title>11</title>
<polygon fill="lightgrey" stroke="black" points="216,-252 1,-252 1,-216 216,-216 216,-252"/>
<text text-anchor="middle" x="108.5" y="-231.5" font-family="Fira Mono" font-size="10.00">CL&#45;DATA&#45;STRUCTURES:ARGUMENT&#45;ERROR</text>
</g>
<!-- 9&#45;&gt;11 -->
<g id="edge6" class="edge">
<title>9&#45;&gt;11</title>
<path fill="none" stroke="black" d="M125.81,-180.3C123.25,-188.1 120.17,-197.49 117.32,-206.17"/>
<polygon fill="none" stroke="black" points="113.92,-205.3 114.12,-215.9 120.57,-207.49 113.92,-205.3"/>
</g>
<!-- 9&#45;&gt;10 -->
<g id="edge7" class="edge">
<title>9&#45;&gt;10</title>
<path fill="none" stroke="black" d="M181.87,-180.03C210.92,-189.86 247.63,-202.27 278.21,-212.61"/>
<polygon fill="none" stroke="black" points="277.31,-216 287.9,-215.89 279.55,-209.37 277.31,-216"/>
</g>
<!-- 4 -->
<g id="node8" class="node">
<title>4</title>
<polygon fill="lightgrey" stroke="black" points="443,-324 234,-324 234,-288 443,-288 443,-324"/>
<text text-anchor="middle" x="338.5" y="-303.5" font-family="Fira Mono" font-size="10.00">CL&#45;DATA&#45;STRUCTURES:TEXTUAL&#45;ERROR</text>
</g>
<!-- 11&#45;&gt;4 -->
<g id="edge8" class="edge">
<title>11&#45;&gt;4</title>
<path fill="none" stroke="black" d="M164.47,-252.03C197.03,-261.94 238.24,-274.49 272.39,-284.88"/>
<polygon fill="none" stroke="black" points="271.69,-288.33 282.28,-287.89 273.73,-281.63 271.69,-288.33"/>
</g>
<!-- 10&#45;&gt;4 -->
<g id="edge9" class="edge">
<title>10&#45;&gt;4</title>
<path fill="none" stroke="black" d="M338.5,-252.3C338.5,-260.02 338.5,-269.29 338.5,-277.89"/>
<polygon fill="none" stroke="black" points="335,-277.9 338.5,-287.9 342,-277.9 335,-277.9"/>
</g>
<!-- 3 -->
<g id="node12" class="node">
<title>3</title>
<polygon fill="lightgrey" stroke="black" points="694,-324 467,-324 467,-288 694,-288 694,-324"/>
<text text-anchor="middle" x="580.5" y="-303.5" font-family="Fira Mono" font-size="10.00">MORE&#45;CONDITIONS:REFERENCE&#45;CONDITION</text>
</g>
<!-- 10&#45;&gt;3 -->
<g id="edge10" class="edge">
<title>10&#45;&gt;3</title>
<path fill="none" stroke="black" d="M397.39,-252.03C431.79,-261.99 475.38,-274.59 511.4,-285.01"/>
<polygon fill="none" stroke="black" points="510.77,-288.47 521.35,-287.89 512.71,-281.75 510.77,-288.47"/>
</g>
<!-- 2&#45;&gt;4 -->
<g id="edge11" class="edge">
<title>2&#45;&gt;4</title>
<path fill="none" stroke="black" d="M526.15,-252.03C490.75,-262.03 445.84,-274.7 408.84,-285.15"/>
<polygon fill="none" stroke="black" points="407.79,-281.8 399.12,-287.89 409.7,-288.54 407.79,-281.8"/>
</g>
<!-- 2&#45;&gt;3 -->
<g id="edge12" class="edge">
<title>2&#45;&gt;3</title>
<path fill="none" stroke="black" d="M585.02,-252.3C584.36,-260.02 583.56,-269.29 582.82,-277.89"/>
<polygon fill="none" stroke="black" points="579.33,-277.63 581.97,-287.9 586.31,-278.23 579.33,-277.63"/>
</g>
<!-- 7 -->
<g id="node9" class="node">
<title>7</title>
<polygon fill="lightgrey" stroke="black" points="346,-396 119,-396 119,-360 346,-360 346,-396"/>
<text text-anchor="middle" x="232.5" y="-375.5" font-family="Fira Mono" font-size="10.00">MORE&#45;CONDITIONS:CHAINABLE&#45;CONDITION</text>
</g>
<!-- 4&#45;&gt;7 -->
<g id="edge13" class="edge">
<title>4&#45;&gt;7</title>
<path fill="none" stroke="black" d="M312.57,-324.12C298.84,-333.19 281.79,-344.45 266.96,-354.24"/>
<polygon fill="none" stroke="black" points="264.95,-351.38 258.53,-359.81 268.8,-357.22 264.95,-351.38"/>
</g>
<!-- 5 -->
<g id="node10" class="node">
<title>5</title>
<polygon fill="lightgrey" stroke="black" points="525,-396 364,-396 364,-360 525,-360 525,-396"/>
<text text-anchor="middle" x="444.5" y="-375.5" font-family="Fira Mono" font-size="10.00">COMMON&#45;LISP:SIMPLE&#45;ERROR</text>
</g>
<!-- 4&#45;&gt;5 -->
<g id="edge14" class="edge">
<title>4&#45;&gt;5</title>
<path fill="none" stroke="black" d="M364.43,-324.12C378.16,-333.19 395.21,-344.45 410.04,-354.24"/>
<polygon fill="none" stroke="black" points="408.2,-357.22 418.47,-359.81 412.05,-351.38 408.2,-357.22"/>
</g>
<!-- 6 -->
<g id="node11" class="node">
<title>6</title>
<polygon fill="lightgrey" stroke="black" points="537,-468 352,-468 352,-432 537,-432 537,-468"/>
<text text-anchor="middle" x="444.5" y="-447.5" font-family="Fira Mono" font-size="10.00">COMMON&#45;LISP:SIMPLE&#45;CONDITION</text>
</g>
<!-- 5&#45;&gt;6 -->
<g id="edge15" class="edge">
<title>5&#45;&gt;6</title>
<path fill="none" stroke="black" d="M444.5,-396.3C444.5,-404.02 444.5,-413.29 444.5,-421.89"/>
<polygon fill="none" stroke="black" points="441,-421.9 444.5,-431.9 448,-421.9 441,-421.9"/>
</g>
</g>
</svg>
