<?xml version="1.0" encoding="UTF-8" standalone="no"?>
<!DOCTYPE svg PUBLIC "-//W3C//DTD SVG 1.1//EN"
 "http://www.w3.org/Graphics/SVG/1.1/DTD/svg11.dtd">
<!-- Generated by graphviz version 2.50.0 (0)
 -->
<!-- Pages: 1 -->
<svg width="1027pt" height="404pt"
 viewBox="0.00 0.00 1027.00 404.00" xmlns="http://www.w3.org/2000/svg" xmlns:xlink="http://www.w3.org/1999/xlink">
<g id="graph0" class="graph" transform="scale(1 1) rotate(0) translate(4 400)">
<polygon fill="transparent" stroke="transparent" points="-4,4 -4,-400 1023,-400 1023,4 -4,4"/>
<!-- 1 -->
<g id="node1" class="node">
<title>1</title>
<polygon fill="lightgrey" stroke="black" points="720,-36 319,-36 319,0 720,0 720,-36"/>
<text text-anchor="middle" x="519.5" y="-15.5" font-family="Fira Mono" font-size="10.00">CL&#45;DATA&#45;STRUCTURES.SEQUENCES.RRB&#45;VECTOR:TRANSACTIONAL&#45;RRB&#45;VECTOR</text>
</g>
<!-- 6 -->
<g id="node2" class="node">
<title>6</title>
<polygon fill="lightgrey" stroke="black" points="512,-108 189,-108 189,-72 512,-72 512,-108"/>
<text text-anchor="middle" x="350.5" y="-87.5" font-family="Fira Mono" font-size="10.00">CL&#45;DATA&#45;STRUCTURES.SEQUENCES:TRANSACTIONAL&#45;SEQUENCE</text>
</g>
<!-- 1&#45;&gt;6 -->
<g id="edge1" class="edge">
<title>1&#45;&gt;6</title>
<path fill="none" stroke="black" d="M478.16,-36.12C454.95,-45.74 425.81,-57.81 401.23,-67.99"/>
<polygon fill="none" stroke="black" points="399.61,-64.87 391.71,-71.93 402.29,-71.34 399.61,-64.87"/>
</g>
<!-- 2 -->
<g id="node8" class="node">
<title>2</title>
<polygon fill="lightgrey" stroke="black" points="847,-108 530,-108 530,-72 847,-72 847,-108"/>
<text text-anchor="middle" x="688.5" y="-87.5" font-family="Fira Mono" font-size="10.00">CL&#45;DATA&#45;STRUCTURES.SEQUENCES.RRB&#45;VECTOR:RRB&#45;VECTOR</text>
</g>
<!-- 1&#45;&gt;2 -->
<g id="edge2" class="edge">
<title>1&#45;&gt;2</title>
<path fill="none" stroke="black" d="M560.84,-36.12C584.05,-45.74 613.19,-57.81 637.77,-67.99"/>
<polygon fill="none" stroke="black" points="636.71,-71.34 647.29,-71.93 639.39,-64.87 636.71,-71.34"/>
</g>
<!-- 11 -->
<g id="node3" class="node">
<title>11</title>
<polygon fill="lightgrey" stroke="black" points="209,-180 0,-180 0,-144 209,-144 209,-180"/>
<text text-anchor="middle" x="104.5" y="-159.5" font-family="Fira Mono" font-size="10.00">CL&#45;DATA&#45;STRUCTURES:TRANSACTIONAL</text>
</g>
<!-- 6&#45;&gt;11 -->
<g id="edge3" class="edge">
<title>6&#45;&gt;11</title>
<path fill="none" stroke="black" d="M290.64,-108.03C255.52,-118.03 210.98,-130.7 174.27,-141.15"/>
<polygon fill="none" stroke="black" points="173.29,-137.79 164.63,-143.89 175.21,-144.52 173.29,-137.79"/>
</g>
<!-- 7 -->
<g id="node4" class="node">
<title>7</title>
<polygon fill="lightgrey" stroke="black" points="514,-180 227,-180 227,-144 514,-144 514,-180"/>
<text text-anchor="middle" x="370.5" y="-159.5" font-family="Fira Mono" font-size="10.00">CL&#45;DATA&#45;STRUCTURES.SEQUENCES:MUTABLE&#45;SEQUENCE</text>
</g>
<!-- 6&#45;&gt;7 -->
<g id="edge4" class="edge">
<title>6&#45;&gt;7</title>
<path fill="none" stroke="black" d="M355.44,-108.3C357.67,-116.1 360.35,-125.49 362.83,-134.17"/>
<polygon fill="none" stroke="black" points="359.5,-135.24 365.61,-143.9 366.23,-133.32 359.5,-135.24"/>
</g>
<!-- 9 -->
<g id="node5" class="node">
<title>9</title>
<polygon fill="lightgrey" stroke="black" points="197,-252 24,-252 24,-216 197,-216 197,-252"/>
<text text-anchor="middle" x="110.5" y="-231.5" font-family="Fira Mono" font-size="10.00">CL&#45;DATA&#45;STRUCTURES:MUTABLE</text>
</g>
<!-- 11&#45;&gt;9 -->
<g id="edge5" class="edge">
<title>11&#45;&gt;9</title>
<path fill="none" stroke="black" d="M105.98,-180.3C106.64,-188.02 107.44,-197.29 108.18,-205.89"/>
<polygon fill="none" stroke="black" points="104.69,-206.23 109.03,-215.9 111.67,-205.63 104.69,-206.23"/>
</g>
<!-- 7&#45;&gt;9 -->
<g id="edge6" class="edge">
<title>7&#45;&gt;9</title>
<path fill="none" stroke="black" d="M307.23,-180.03C269.95,-190.07 222.64,-202.81 183.75,-213.28"/>
<polygon fill="none" stroke="black" points="182.8,-209.91 174.05,-215.89 184.62,-216.67 182.8,-209.91"/>
</g>
<!-- 8 -->
<g id="node7" class="node">
<title>8</title>
<polygon fill="lightgrey" stroke="black" points="526,-252 215,-252 215,-216 526,-216 526,-252"/>
<text text-anchor="middle" x="370.5" y="-231.5" font-family="Fira Mono" font-size="10.00">CL&#45;DATA&#45;STRUCTURES.SEQUENCES:FUNDAMENTAL&#45;SEQUENCE</text>
</g>
<!-- 7&#45;&gt;8 -->
<g id="edge7" class="edge">
<title>7&#45;&gt;8</title>
<path fill="none" stroke="black" d="M370.5,-180.3C370.5,-188.02 370.5,-197.29 370.5,-205.89"/>
<polygon fill="none" stroke="black" points="367,-205.9 370.5,-215.9 374,-205.9 367,-205.9"/>
</g>
<!-- 10 -->
<g id="node6" class="node">
<title>10</title>
<polygon fill="lightgrey" stroke="black" points="383,-324 126,-324 126,-288 383,-288 383,-324"/>
<text text-anchor="middle" x="254.5" y="-303.5" font-family="Fira Mono" font-size="10.00">CL&#45;DATA&#45;STRUCTURES:FUNDAMENTAL&#45;CONTAINER</text>
</g>
<!-- 9&#45;&gt;10 -->
<g id="edge8" class="edge">
<title>9&#45;&gt;10</title>
<path fill="none" stroke="black" d="M145.73,-252.12C165.08,-261.53 189.27,-273.29 209.93,-283.33"/>
<polygon fill="none" stroke="black" points="208.61,-286.59 219.14,-287.81 211.67,-280.29 208.61,-286.59"/>
</g>
<!-- 5 -->
<g id="node10" class="node">
<title>5</title>
<polygon fill="lightgrey" stroke="black" points="431,-396 234,-396 234,-360 431,-360 431,-396"/>
<text text-anchor="middle" x="332.5" y="-375.5" font-family="Fira Mono" font-size="10.00">CL&#45;DATA&#45;STRUCTURES:TRAVERSABLE</text>
</g>
<!-- 10&#45;&gt;5 -->
<g id="edge9" class="edge">
<title>10&#45;&gt;5</title>
<path fill="none" stroke="black" d="M273.78,-324.3C283.42,-332.95 295.23,-343.55 305.73,-352.97"/>
<polygon fill="none" stroke="black" points="303.66,-355.82 313.44,-359.9 308.34,-350.61 303.66,-355.82"/>
</g>
<!-- 3 -->
<g id="node9" class="node">
<title>3</title>
<polygon fill="lightgrey" stroke="black" points="826,-180 551,-180 551,-144 826,-144 826,-180"/>
<text text-anchor="middle" x="688.5" y="-159.5" font-family="Fira Mono" font-size="10.00">CL&#45;DATA&#45;STRUCTURES.COMMON.RRB:RRB&#45;CONTAINER</text>
</g>
<!-- 2&#45;&gt;3 -->
<g id="edge10" class="edge">
<title>2&#45;&gt;3</title>
<path fill="none" stroke="black" d="M688.5,-108.3C688.5,-116.02 688.5,-125.29 688.5,-133.89"/>
<polygon fill="none" stroke="black" points="685,-133.9 688.5,-143.9 692,-133.9 685,-133.9"/>
</g>
<!-- 3&#45;&gt;5 -->
<g id="edge11" class="edge">
<title>3&#45;&gt;5</title>
<path fill="none" stroke="black" d="M642.72,-180.04C620.87,-189.17 594.89,-201.52 573.5,-216 554.24,-229.04 553.95,-237.83 535.5,-252 482.6,-292.64 415.85,-331.66 373.65,-354.98"/>
<polygon fill="none" stroke="black" points="371.85,-351.98 364.77,-359.86 375.22,-358.11 371.85,-351.98"/>
</g>
<!-- 4 -->
<g id="node11" class="node">
<title>4</title>
<polygon fill="lightgrey" stroke="black" points="1019,-252 582,-252 582,-216 1019,-216 1019,-252"/>
<text text-anchor="middle" x="800.5" y="-231.5" font-family="Fira Mono" font-size="10.00">CL&#45;DATA&#45;STRUCTURES.COMMON.ABSTRACT:FUNDAMENTAL&#45;OWNERSHIP&#45;TAGGED&#45;OBJECT</text>
</g>
<!-- 3&#45;&gt;4 -->
<g id="edge12" class="edge">
<title>3&#45;&gt;4</title>
<path fill="none" stroke="black" d="M715.9,-180.12C730.41,-189.19 748.42,-200.45 764.09,-210.24"/>
<polygon fill="none" stroke="black" points="762.66,-213.48 773,-215.81 766.37,-207.54 762.66,-213.48"/>
</g>
</g>
</svg>
