<?xml version="1.0" encoding="UTF-8" standalone="no"?>
<!DOCTYPE svg PUBLIC "-//W3C//DTD SVG 1.1//EN"
 "http://www.w3.org/Graphics/SVG/1.1/DTD/svg11.dtd">
<!-- Generated by graphviz version 2.44.1 (0)
 -->
<!-- Pages: 1 -->
<svg width="839pt" height="404pt"
 viewBox="0.00 0.00 839.00 404.00" xmlns="http://www.w3.org/2000/svg" xmlns:xlink="http://www.w3.org/1999/xlink">
<g id="graph0" class="graph" transform="scale(1 1) rotate(0) translate(4 400)">
<polygon fill="transparent" stroke="transparent" points="-4,4 -4,-400 835,-400 835,4 -4,4"/>
<!-- 1 -->
<g id="node1" class="node">
<title>1</title>
<polygon fill="lightgrey" stroke="black" points="509,-36 204,-36 204,0 509,0 509,-36"/>
<text text-anchor="middle" x="356.5" y="-15.5" font-family="Fira Mono" font-size="10.00">CL&#45;DATA&#45;STRUCTURES.DICTS:LAZY&#45;HASHING&#45;DICTIONARY</text>
</g>
<!-- 9 -->
<g id="node2" class="node">
<title>9</title>
<polygon fill="lightgrey" stroke="black" points="327,-108 70,-108 70,-72 327,-72 327,-108"/>
<text text-anchor="middle" x="198.5" y="-87.5" font-family="Fira Mono" font-size="10.00">CL&#45;DATA&#45;STRUCTURES.DICTS:LAZY&#45;DICTIONARY</text>
</g>
<!-- 1&#45;&gt;9 -->
<g id="edge1" class="edge">
<title>1&#45;&gt;9</title>
<path fill="none" stroke="black" d="M317.85,-36.12C296.25,-45.69 269.15,-57.7 246.23,-67.85"/>
<polygon fill="none" stroke="black" points="244.75,-64.68 237.03,-71.93 247.59,-71.08 244.75,-64.68"/>
</g>
<!-- 2 -->
<g id="node4" class="node">
<title>2</title>
<polygon fill="lightgrey" stroke="black" points="686,-108 345,-108 345,-72 686,-72 686,-108"/>
<text text-anchor="middle" x="515.5" y="-87.5" font-family="Fira Mono" font-size="10.00">CL&#45;DATA&#45;STRUCTURES.DICTS:FUNCTIONAL&#45;HASHING&#45;DICTIONARY</text>
</g>
<!-- 1&#45;&gt;2 -->
<g id="edge2" class="edge">
<title>1&#45;&gt;2</title>
<path fill="none" stroke="black" d="M395.4,-36.12C417.13,-45.69 444.4,-57.7 467.46,-67.85"/>
<polygon fill="none" stroke="black" points="466.17,-71.11 476.73,-71.93 468.99,-64.7 466.17,-71.11"/>
</g>
<!-- 10 -->
<g id="node3" class="node">
<title>10</title>
<polygon fill="lightgrey" stroke="black" points="155,-180 0,-180 0,-144 155,-144 155,-180"/>
<text text-anchor="middle" x="77.5" y="-159.5" font-family="Fira Mono" font-size="10.00">CL&#45;DATA&#45;STRUCTURES:LAZY</text>
</g>
<!-- 9&#45;&gt;10 -->
<g id="edge4" class="edge">
<title>9&#45;&gt;10</title>
<path fill="none" stroke="black" d="M168.9,-108.12C152.93,-117.36 133.04,-128.87 115.89,-138.79"/>
<polygon fill="none" stroke="black" points="114.12,-135.77 107.21,-143.81 117.62,-141.83 114.12,-135.77"/>
</g>
<!-- 7 -->
<g id="node5" class="node">
<title>7</title>
<polygon fill="lightgrey" stroke="black" points="466,-180 173,-180 173,-144 466,-144 466,-180"/>
<text text-anchor="middle" x="319.5" y="-159.5" font-family="Fira Mono" font-size="10.00">CL&#45;DATA&#45;STRUCTURES.DICTS:FUNCTIONAL&#45;DICTIONARY</text>
</g>
<!-- 9&#45;&gt;7 -->
<g id="edge3" class="edge">
<title>9&#45;&gt;7</title>
<path fill="none" stroke="black" d="M228.1,-108.12C244.07,-117.36 263.96,-128.87 281.11,-138.79"/>
<polygon fill="none" stroke="black" points="279.38,-141.83 289.79,-143.81 282.88,-135.77 279.38,-141.83"/>
</g>
<!-- 8 -->
<g id="node6" class="node">
<title>8</title>
<polygon fill="lightgrey" stroke="black" points="294,-252 103,-252 103,-216 294,-216 294,-252"/>
<text text-anchor="middle" x="198.5" y="-231.5" font-family="Fira Mono" font-size="10.00">CL&#45;DATA&#45;STRUCTURES:FUNCTIONAL</text>
</g>
<!-- 10&#45;&gt;8 -->
<g id="edge5" class="edge">
<title>10&#45;&gt;8</title>
<path fill="none" stroke="black" d="M107.1,-180.12C123.07,-189.36 142.96,-200.87 160.11,-210.79"/>
<polygon fill="none" stroke="black" points="158.38,-213.83 168.79,-215.81 161.88,-207.77 158.38,-213.83"/>
</g>
<!-- 2&#45;&gt;7 -->
<g id="edge6" class="edge">
<title>2&#45;&gt;7</title>
<path fill="none" stroke="black" d="M467.8,-108.03C440.42,-117.81 405.84,-130.16 376.97,-140.48"/>
<polygon fill="none" stroke="black" points="375.65,-137.23 367.41,-143.89 378,-143.82 375.65,-137.23"/>
</g>
<!-- 3 -->
<g id="node7" class="node">
<title>3</title>
<polygon fill="lightgrey" stroke="black" points="831,-180 484,-180 484,-144 831,-144 831,-180"/>
<text text-anchor="middle" x="657.5" y="-159.5" font-family="Fira Mono" font-size="10.00">CL&#45;DATA&#45;STRUCTURES.DICTS:FUNDAMENTAL&#45;HASHING&#45;DICTIONARY</text>
</g>
<!-- 2&#45;&gt;3 -->
<g id="edge7" class="edge">
<title>2&#45;&gt;3</title>
<path fill="none" stroke="black" d="M550.24,-108.12C569.32,-117.53 593.18,-129.29 613.55,-139.33"/>
<polygon fill="none" stroke="black" points="612.11,-142.53 622.63,-143.81 615.21,-136.25 612.11,-142.53"/>
</g>
<!-- 7&#45;&gt;8 -->
<g id="edge8" class="edge">
<title>7&#45;&gt;8</title>
<path fill="none" stroke="black" d="M289.9,-180.12C273.93,-189.36 254.04,-200.87 236.89,-210.79"/>
<polygon fill="none" stroke="black" points="235.12,-207.77 228.21,-215.81 238.62,-213.83 235.12,-207.77"/>
</g>
<!-- 4 -->
<g id="node8" class="node">
<title>4</title>
<polygon fill="lightgrey" stroke="black" points="611,-252 312,-252 312,-216 611,-216 611,-252"/>
<text text-anchor="middle" x="461.5" y="-231.5" font-family="Fira Mono" font-size="10.00">CL&#45;DATA&#45;STRUCTURES.DICTS:FUNDAMENTAL&#45;DICTIONARY</text>
</g>
<!-- 7&#45;&gt;4 -->
<g id="edge9" class="edge">
<title>7&#45;&gt;4</title>
<path fill="none" stroke="black" d="M354.24,-180.12C373.32,-189.53 397.18,-201.29 417.55,-211.33"/>
<polygon fill="none" stroke="black" points="416.11,-214.53 426.63,-215.81 419.21,-208.25 416.11,-214.53"/>
</g>
<!-- 5 -->
<g id="node9" class="node">
<title>5</title>
<polygon fill="lightgrey" stroke="black" points="458,-324 201,-324 201,-288 458,-288 458,-324"/>
<text text-anchor="middle" x="329.5" y="-303.5" font-family="Fira Mono" font-size="10.00">CL&#45;DATA&#45;STRUCTURES:FUNDAMENTAL&#45;CONTAINER</text>
</g>
<!-- 8&#45;&gt;5 -->
<g id="edge10" class="edge">
<title>8&#45;&gt;5</title>
<path fill="none" stroke="black" d="M230.55,-252.12C247.99,-261.45 269.77,-273.08 288.44,-283.06"/>
<polygon fill="none" stroke="black" points="286.86,-286.18 297.33,-287.81 290.16,-280.01 286.86,-286.18"/>
</g>
<!-- 3&#45;&gt;4 -->
<g id="edge11" class="edge">
<title>3&#45;&gt;4</title>
<path fill="none" stroke="black" d="M609.8,-180.03C582.42,-189.81 547.84,-202.16 518.97,-212.48"/>
<polygon fill="none" stroke="black" points="517.65,-209.23 509.41,-215.89 520,-215.82 517.65,-209.23"/>
</g>
<!-- 4&#45;&gt;5 -->
<g id="edge12" class="edge">
<title>4&#45;&gt;5</title>
<path fill="none" stroke="black" d="M429.21,-252.12C411.63,-261.45 389.69,-273.08 370.87,-283.06"/>
<polygon fill="none" stroke="black" points="369.11,-280.03 361.91,-287.81 372.39,-286.22 369.11,-280.03"/>
</g>
<!-- 6 -->
<g id="node10" class="node">
<title>6</title>
<polygon fill="lightgrey" stroke="black" points="428,-396 231,-396 231,-360 428,-360 428,-396"/>
<text text-anchor="middle" x="329.5" y="-375.5" font-family="Fira Mono" font-size="10.00">CL&#45;DATA&#45;STRUCTURES:TRAVERSABLE</text>
</g>
<!-- 5&#45;&gt;6 -->
<g id="edge13" class="edge">
<title>5&#45;&gt;6</title>
<path fill="none" stroke="black" d="M329.5,-324.3C329.5,-332.02 329.5,-341.29 329.5,-349.89"/>
<polygon fill="none" stroke="black" points="326,-349.9 329.5,-359.9 333,-349.9 326,-349.9"/>
</g>
</g>
</svg>
