<?xml version="1.0" encoding="UTF-8" standalone="no"?>
<!DOCTYPE svg PUBLIC "-//W3C//DTD SVG 1.1//EN"
 "http://www.w3.org/Graphics/SVG/1.1/DTD/svg11.dtd">
<!-- Generated by graphviz version 2.40.1 (20161225.0304)
 -->
<!-- Title: %3 Pages: 1 -->
<svg width="695pt" height="188pt"
 viewBox="0.00 0.00 695.00 188.00" xmlns="http://www.w3.org/2000/svg" xmlns:xlink="http://www.w3.org/1999/xlink">
<g id="graph0" class="graph" transform="scale(1 1) rotate(0) translate(4 184)">
<title>%3</title>
<polygon fill="transparent" stroke="transparent" points="-4,4 -4,-184 691,-184 691,4 -4,4"/>
<!-- 1 -->
<g id="node1" class="node">
<title>1</title>
<polygon fill="#d3d3d3" stroke="#000000" points="581,-36 330,-36 330,0 581,0 581,-36"/>
<text text-anchor="middle" x="455.5" y="-15.5" font-family="Fira Mono" font-size="10.00" fill="#000000">CL&#45;DATA&#45;STRUCTURES:INITIALIZATION&#45;ERROR</text>
</g>
<!-- 3 -->
<g id="node2" class="node">
<title>3</title>
<polygon fill="#d3d3d3" stroke="#000000" points="442,-108 233,-108 233,-72 442,-72 442,-108"/>
<text text-anchor="middle" x="337.5" y="-87.5" font-family="Fira Mono" font-size="10.00" fill="#000000">CL&#45;DATA&#45;STRUCTURES:TEXTUAL&#45;ERROR</text>
</g>
<!-- 1&#45;&gt;3 -->
<g id="edge1" class="edge">
<title>1&#45;&gt;3</title>
<path fill="none" stroke="#000000" d="M425.7236,-36.1686C410.6307,-45.3779 392.1243,-56.6699 375.9657,-66.5294"/>
<polygon fill="none" stroke="#000000" points="373.9802,-63.6407 367.2669,-71.8372 377.6263,-69.6162 373.9802,-63.6407"/>
</g>
<!-- 2 -->
<g id="node6" class="node">
<title>2</title>
<polygon fill="#d3d3d3" stroke="#000000" points="687,-108 460,-108 460,-72 687,-72 687,-108"/>
<text text-anchor="middle" x="573.5" y="-87.5" font-family="Fira Mono" font-size="10.00" fill="#000000">MORE&#45;CONDITIONS:REFERENCE&#45;CONDITION</text>
</g>
<!-- 1&#45;&gt;2 -->
<g id="edge2" class="edge">
<title>1&#45;&gt;2</title>
<path fill="none" stroke="#000000" d="M485.2764,-36.1686C500.3693,-45.3779 518.8757,-56.6699 535.0343,-66.5294"/>
<polygon fill="none" stroke="#000000" points="533.3737,-69.6162 543.7331,-71.8372 537.0198,-63.6407 533.3737,-69.6162"/>
</g>
<!-- 6 -->
<g id="node3" class="node">
<title>6</title>
<polygon fill="#d3d3d3" stroke="#000000" points="227,-180 0,-180 0,-144 227,-144 227,-180"/>
<text text-anchor="middle" x="113.5" y="-159.5" font-family="Fira Mono" font-size="10.00" fill="#000000">MORE&#45;CONDITIONS:CHAINABLE&#45;CONDITION</text>
</g>
<!-- 3&#45;&gt;6 -->
<g id="edge3" class="edge">
<title>3&#45;&gt;6</title>
<path fill="none" stroke="#000000" d="M281.2645,-108.0757C250.3761,-118.0041 211.8904,-130.3745 179.5744,-140.7618"/>
<polygon fill="none" stroke="#000000" points="178.2079,-137.5246 169.7587,-143.9169 180.35,-144.1888 178.2079,-137.5246"/>
</g>
<!-- 5 -->
<g id="node4" class="node">
<title>5</title>
<polygon fill="#d3d3d3" stroke="#000000" points="430,-180 245,-180 245,-144 430,-144 430,-180"/>
<text text-anchor="middle" x="337.5" y="-159.5" font-family="Fira Mono" font-size="10.00" fill="#000000">COMMON&#45;LISP:SIMPLE&#45;CONDITION</text>
</g>
<!-- 3&#45;&gt;5 -->
<g id="edge4" class="edge">
<title>3&#45;&gt;5</title>
<path fill="none" stroke="#000000" d="M337.5,-108.1686C337.5,-115.869 337.5,-125.0257 337.5,-133.5834"/>
<polygon fill="none" stroke="#000000" points="334.0001,-133.5867 337.5,-143.5867 341.0001,-133.5868 334.0001,-133.5867"/>
</g>
<!-- 4 -->
<g id="node5" class="node">
<title>4</title>
<polygon fill="#d3d3d3" stroke="#000000" points="615,-180 448,-180 448,-144 615,-144 615,-180"/>
<text text-anchor="middle" x="531.5" y="-159.5" font-family="Fira Mono" font-size="10.00" fill="#000000">COMMON&#45;LISP:PROGRAM&#45;ERROR</text>
</g>
<!-- 3&#45;&gt;4 -->
<g id="edge5" class="edge">
<title>3&#45;&gt;4</title>
<path fill="none" stroke="#000000" d="M386.4544,-108.1686C412.862,-117.9694 445.6256,-130.1291 473.3286,-140.4106"/>
<polygon fill="none" stroke="#000000" points="472.3047,-143.7638 482.8976,-143.962 474.7403,-137.2012 472.3047,-143.7638"/>
</g>
</g>
</svg>
