<?xml version="1.0" encoding="UTF-8" standalone="no"?>
<!DOCTYPE svg PUBLIC "-//W3C//DTD SVG 1.1//EN"
 "http://www.w3.org/Graphics/SVG/1.1/DTD/svg11.dtd">
<!-- Generated by graphviz version 2.44.1 (0)
 -->
<!-- Pages: 1 -->
<svg width="902pt" height="332pt"
 viewBox="0.00 0.00 902.00 332.00" xmlns="http://www.w3.org/2000/svg" xmlns:xlink="http://www.w3.org/1999/xlink">
<g id="graph0" class="graph" transform="scale(1 1) rotate(0) translate(4 328)">
<polygon fill="transparent" stroke="transparent" points="-4,4 -4,-328 898,-328 898,4 -4,4"/>
<!-- 1 -->
<g id="node1" class="node">
<title>1</title>
<polygon fill="lightgrey" stroke="black" points="702,-36 319,-36 319,0 702,0 702,-36"/>
<text text-anchor="middle" x="510.5" y="-15.5" font-family="Fira Mono" font-size="10.00">CL&#45;DATA&#45;STRUCTURES.SEQUENCES.RRB&#45;VECTOR:FUNCTIONAL&#45;RRB&#45;VECTOR</text>
</g>
<!-- 6 -->
<g id="node2" class="node">
<title>6</title>
<polygon fill="lightgrey" stroke="black" points="499,-108 194,-108 194,-72 499,-72 499,-108"/>
<text text-anchor="middle" x="346.5" y="-87.5" font-family="Fira Mono" font-size="10.00">CL&#45;DATA&#45;STRUCTURES.SEQUENCES:FUNCTIONAL&#45;SEQUENCE</text>
</g>
<!-- 1&#45;&gt;6 -->
<g id="edge1" class="edge">
<title>1&#45;&gt;6</title>
<path fill="none" stroke="black" d="M470.38,-36.12C447.86,-45.74 419.58,-57.81 395.73,-67.99"/>
<polygon fill="none" stroke="black" points="394.31,-64.79 386.49,-71.93 397.06,-71.23 394.31,-64.79"/>
</g>
<!-- 2 -->
<g id="node6" class="node">
<title>2</title>
<polygon fill="lightgrey" stroke="black" points="834,-108 517,-108 517,-72 834,-72 834,-108"/>
<text text-anchor="middle" x="675.5" y="-87.5" font-family="Fira Mono" font-size="10.00">CL&#45;DATA&#45;STRUCTURES.SEQUENCES.RRB&#45;VECTOR:RRB&#45;VECTOR</text>
</g>
<!-- 1&#45;&gt;2 -->
<g id="edge2" class="edge">
<title>1&#45;&gt;2</title>
<path fill="none" stroke="black" d="M550.86,-36.12C573.52,-45.74 601.97,-57.81 625.97,-67.99"/>
<polygon fill="none" stroke="black" points="624.69,-71.25 635.27,-71.93 627.43,-64.8 624.69,-71.25"/>
</g>
<!-- 8 -->
<g id="node3" class="node">
<title>8</title>
<polygon fill="lightgrey" stroke="black" points="191,-180 0,-180 0,-144 191,-144 191,-180"/>
<text text-anchor="middle" x="95.5" y="-159.5" font-family="Fira Mono" font-size="10.00">CL&#45;DATA&#45;STRUCTURES:FUNCTIONAL</text>
</g>
<!-- 6&#45;&gt;8 -->
<g id="edge3" class="edge">
<title>6&#45;&gt;8</title>
<path fill="none" stroke="black" d="M285.42,-108.03C249.59,-118.03 204.14,-130.7 166.69,-141.15"/>
<polygon fill="none" stroke="black" points="165.55,-137.83 156.85,-143.89 167.43,-144.57 165.55,-137.83"/>
</g>
<!-- 7 -->
<g id="node5" class="node">
<title>7</title>
<polygon fill="lightgrey" stroke="black" points="520,-180 209,-180 209,-144 520,-144 520,-180"/>
<text text-anchor="middle" x="364.5" y="-159.5" font-family="Fira Mono" font-size="10.00">CL&#45;DATA&#45;STRUCTURES.SEQUENCES:FUNDAMENTAL&#45;SEQUENCE</text>
</g>
<!-- 6&#45;&gt;7 -->
<g id="edge4" class="edge">
<title>6&#45;&gt;7</title>
<path fill="none" stroke="black" d="M350.95,-108.3C352.95,-116.1 355.37,-125.49 357.6,-134.17"/>
<polygon fill="none" stroke="black" points="354.22,-135.08 360.1,-143.9 361,-133.34 354.22,-135.08"/>
</g>
<!-- 9 -->
<g id="node4" class="node">
<title>9</title>
<polygon fill="lightgrey" stroke="black" points="269,-252 12,-252 12,-216 269,-216 269,-252"/>
<text text-anchor="middle" x="140.5" y="-231.5" font-family="Fira Mono" font-size="10.00">CL&#45;DATA&#45;STRUCTURES:FUNDAMENTAL&#45;CONTAINER</text>
</g>
<!-- 8&#45;&gt;9 -->
<g id="edge5" class="edge">
<title>8&#45;&gt;9</title>
<path fill="none" stroke="black" d="M106.62,-180.3C111.86,-188.44 118.2,-198.31 123.98,-207.3"/>
<polygon fill="none" stroke="black" points="121.15,-209.38 129.5,-215.9 127.04,-205.59 121.15,-209.38"/>
</g>
<!-- 5 -->
<g id="node8" class="node">
<title>5</title>
<polygon fill="lightgrey" stroke="black" points="317,-324 120,-324 120,-288 317,-288 317,-324"/>
<text text-anchor="middle" x="218.5" y="-303.5" font-family="Fira Mono" font-size="10.00">CL&#45;DATA&#45;STRUCTURES:TRAVERSABLE</text>
</g>
<!-- 9&#45;&gt;5 -->
<g id="edge6" class="edge">
<title>9&#45;&gt;5</title>
<path fill="none" stroke="black" d="M159.78,-252.3C169.42,-260.95 181.23,-271.55 191.73,-280.97"/>
<polygon fill="none" stroke="black" points="189.66,-283.82 199.44,-287.9 194.34,-278.61 189.66,-283.82"/>
</g>
<!-- 3 -->
<g id="node7" class="node">
<title>3</title>
<polygon fill="lightgrey" stroke="black" points="813,-180 538,-180 538,-144 813,-144 813,-180"/>
<text text-anchor="middle" x="675.5" y="-159.5" font-family="Fira Mono" font-size="10.00">CL&#45;DATA&#45;STRUCTURES.COMMON.RRB:RRB&#45;CONTAINER</text>
</g>
<!-- 2&#45;&gt;3 -->
<g id="edge7" class="edge">
<title>2&#45;&gt;3</title>
<path fill="none" stroke="black" d="M675.5,-108.3C675.5,-116.02 675.5,-125.29 675.5,-133.89"/>
<polygon fill="none" stroke="black" points="672,-133.9 675.5,-143.9 679,-133.9 672,-133.9"/>
</g>
<!-- 3&#45;&gt;5 -->
<g id="edge8" class="edge">
<title>3&#45;&gt;5</title>
<path fill="none" stroke="black" d="M589.2,-180.03C546.22,-189.27 493.71,-201.73 447.5,-216 383.96,-235.62 312.88,-264.36 267,-283.82"/>
<polygon fill="none" stroke="black" points="265.44,-280.69 257.61,-287.83 268.18,-287.13 265.44,-280.69"/>
</g>
<!-- 4 -->
<g id="node9" class="node">
<title>4</title>
<polygon fill="lightgrey" stroke="black" points="894,-252 457,-252 457,-216 894,-216 894,-252"/>
<text text-anchor="middle" x="675.5" y="-231.5" font-family="Fira Mono" font-size="10.00">CL&#45;DATA&#45;STRUCTURES.COMMON.ABSTRACT:FUNDAMENTAL&#45;OWNERSHIP&#45;TAGGED&#45;OBJECT</text>
</g>
<!-- 3&#45;&gt;4 -->
<g id="edge9" class="edge">
<title>3&#45;&gt;4</title>
<path fill="none" stroke="black" d="M675.5,-180.3C675.5,-188.02 675.5,-197.29 675.5,-205.89"/>
<polygon fill="none" stroke="black" points="672,-205.9 675.5,-215.9 679,-205.9 672,-205.9"/>
</g>
</g>
</svg>
