<?xml version="1.0" encoding="UTF-8" standalone="no"?>
<!DOCTYPE svg PUBLIC "-//W3C//DTD SVG 1.1//EN"
 "http://www.w3.org/Graphics/SVG/1.1/DTD/svg11.dtd">
<!-- Generated by graphviz version 2.50.0 (0)
 -->
<!-- Pages: 1 -->
<svg width="712pt" height="404pt"
 viewBox="0.00 0.00 712.00 404.00" xmlns="http://www.w3.org/2000/svg" xmlns:xlink="http://www.w3.org/1999/xlink">
<g id="graph0" class="graph" transform="scale(1 1) rotate(0) translate(4 400)">
<polygon fill="transparent" stroke="transparent" points="-4,4 -4,-400 708,-400 708,4 -4,4"/>
<!-- 1 -->
<g id="node1" class="node">
<title>1</title>
<polygon fill="lightgrey" stroke="black" points="536,-36 177,-36 177,0 536,0 536,-36"/>
<text text-anchor="middle" x="356.5" y="-15.5" font-family="Fira Mono" font-size="10.00">CL&#45;DATA&#45;STRUCTURES.DICTS:TRANSACTIONAL&#45;HASHING&#45;DICTIONARY</text>
</g>
<!-- 6 -->
<g id="node2" class="node">
<title>6</title>
<polygon fill="lightgrey" stroke="black" points="339,-108 28,-108 28,-72 339,-72 339,-108"/>
<text text-anchor="middle" x="183.5" y="-87.5" font-family="Fira Mono" font-size="10.00">CL&#45;DATA&#45;STRUCTURES.DICTS:TRANSACTIONAL&#45;DICTIONARY</text>
</g>
<!-- 1&#45;&gt;6 -->
<g id="edge1" class="edge">
<title>1&#45;&gt;6</title>
<path fill="none" stroke="black" d="M314.18,-36.12C290.32,-45.78 260.33,-57.91 235.1,-68.12"/>
<polygon fill="none" stroke="black" points="233.64,-64.94 225.68,-71.93 236.27,-71.43 233.64,-64.94"/>
</g>
<!-- 2 -->
<g id="node6" class="node">
<title>2</title>
<polygon fill="lightgrey" stroke="black" points="704,-108 357,-108 357,-72 704,-72 704,-108"/>
<text text-anchor="middle" x="530.5" y="-87.5" font-family="Fira Mono" font-size="10.00">CL&#45;DATA&#45;STRUCTURES.DICTS:FUNDAMENTAL&#45;HASHING&#45;DICTIONARY</text>
</g>
<!-- 1&#45;&gt;2 -->
<g id="edge2" class="edge">
<title>1&#45;&gt;2</title>
<path fill="none" stroke="black" d="M399.07,-36.12C423.06,-45.78 453.23,-57.91 478.6,-68.12"/>
<polygon fill="none" stroke="black" points="477.49,-71.45 488.07,-71.93 480.1,-64.95 477.49,-71.45"/>
</g>
<!-- 9 -->
<g id="node3" class="node">
<title>9</title>
<polygon fill="lightgrey" stroke="black" points="209,-180 0,-180 0,-144 209,-144 209,-180"/>
<text text-anchor="middle" x="104.5" y="-159.5" font-family="Fira Mono" font-size="10.00">CL&#45;DATA&#45;STRUCTURES:TRANSACTIONAL</text>
</g>
<!-- 6&#45;&gt;9 -->
<g id="edge3" class="edge">
<title>6&#45;&gt;9</title>
<path fill="none" stroke="black" d="M163.97,-108.3C154.12,-117.03 142.01,-127.76 131.3,-137.25"/>
<polygon fill="none" stroke="black" points="128.97,-134.64 123.8,-143.9 133.61,-139.88 128.97,-134.64"/>
</g>
<!-- 7 -->
<g id="node4" class="node">
<title>7</title>
<polygon fill="lightgrey" stroke="black" points="502,-180 227,-180 227,-144 502,-144 502,-180"/>
<text text-anchor="middle" x="364.5" y="-159.5" font-family="Fira Mono" font-size="10.00">CL&#45;DATA&#45;STRUCTURES.DICTS:MUTABLE&#45;DICTIONARY</text>
</g>
<!-- 6&#45;&gt;7 -->
<g id="edge4" class="edge">
<title>6&#45;&gt;7</title>
<path fill="none" stroke="black" d="M227.78,-108.12C252.85,-117.82 284.4,-130.02 310.87,-140.26"/>
<polygon fill="none" stroke="black" points="309.78,-143.59 320.37,-143.93 312.3,-137.06 309.78,-143.59"/>
</g>
<!-- 8 -->
<g id="node5" class="node">
<title>8</title>
<polygon fill="lightgrey" stroke="black" points="280,-252 107,-252 107,-216 280,-216 280,-252"/>
<text text-anchor="middle" x="193.5" y="-231.5" font-family="Fira Mono" font-size="10.00">CL&#45;DATA&#45;STRUCTURES:MUTABLE</text>
</g>
<!-- 9&#45;&gt;8 -->
<g id="edge5" class="edge">
<title>9&#45;&gt;8</title>
<path fill="none" stroke="black" d="M126.5,-180.3C137.71,-189.12 151.5,-199.97 163.65,-209.53"/>
<polygon fill="none" stroke="black" points="161.73,-212.46 171.75,-215.9 166.06,-206.96 161.73,-212.46"/>
</g>
<!-- 7&#45;&gt;8 -->
<g id="edge6" class="edge">
<title>7&#45;&gt;8</title>
<path fill="none" stroke="black" d="M322.67,-180.12C299.08,-189.78 269.44,-201.91 244.5,-212.12"/>
<polygon fill="none" stroke="black" points="243.12,-208.9 235.2,-215.93 245.78,-215.38 243.12,-208.9"/>
</g>
<!-- 3 -->
<g id="node7" class="node">
<title>3</title>
<polygon fill="lightgrey" stroke="black" points="597,-252 298,-252 298,-216 597,-216 597,-252"/>
<text text-anchor="middle" x="447.5" y="-231.5" font-family="Fira Mono" font-size="10.00">CL&#45;DATA&#45;STRUCTURES.DICTS:FUNDAMENTAL&#45;DICTIONARY</text>
</g>
<!-- 7&#45;&gt;3 -->
<g id="edge7" class="edge">
<title>7&#45;&gt;3</title>
<path fill="none" stroke="black" d="M385.02,-180.3C395.37,-189.03 408.09,-199.76 419.34,-209.25"/>
<polygon fill="none" stroke="black" points="417.32,-212.12 427.22,-215.9 421.83,-206.77 417.32,-212.12"/>
</g>
<!-- 4 -->
<g id="node8" class="node">
<title>4</title>
<polygon fill="lightgrey" stroke="black" points="449,-324 192,-324 192,-288 449,-288 449,-324"/>
<text text-anchor="middle" x="320.5" y="-303.5" font-family="Fira Mono" font-size="10.00">CL&#45;DATA&#45;STRUCTURES:FUNDAMENTAL&#45;CONTAINER</text>
</g>
<!-- 8&#45;&gt;4 -->
<g id="edge8" class="edge">
<title>8&#45;&gt;4</title>
<path fill="none" stroke="black" d="M224.57,-252.12C241.33,-261.36 262.21,-272.87 280.2,-282.79"/>
<polygon fill="none" stroke="black" points="278.87,-286.05 289.31,-287.81 282.24,-279.92 278.87,-286.05"/>
</g>
<!-- 2&#45;&gt;3 -->
<g id="edge9" class="edge">
<title>2&#45;&gt;3</title>
<path fill="none" stroke="black" d="M530.13,-108.29C529,-127.18 525.01,-157.7 511.5,-180 504.6,-191.39 494.35,-201.46 484.07,-209.68"/>
<polygon fill="none" stroke="black" points="481.75,-207.04 475.88,-215.86 485.97,-212.63 481.75,-207.04"/>
</g>
<!-- 3&#45;&gt;4 -->
<g id="edge10" class="edge">
<title>3&#45;&gt;4</title>
<path fill="none" stroke="black" d="M416.43,-252.12C399.67,-261.36 378.79,-272.87 360.8,-282.79"/>
<polygon fill="none" stroke="black" points="358.76,-279.92 351.69,-287.81 362.13,-286.05 358.76,-279.92"/>
</g>
<!-- 5 -->
<g id="node9" class="node">
<title>5</title>
<polygon fill="lightgrey" stroke="black" points="419,-396 222,-396 222,-360 419,-360 419,-396"/>
<text text-anchor="middle" x="320.5" y="-375.5" font-family="Fira Mono" font-size="10.00">CL&#45;DATA&#45;STRUCTURES:TRAVERSABLE</text>
</g>
<!-- 4&#45;&gt;5 -->
<g id="edge11" class="edge">
<title>4&#45;&gt;5</title>
<path fill="none" stroke="black" d="M320.5,-324.3C320.5,-332.02 320.5,-341.29 320.5,-349.89"/>
<polygon fill="none" stroke="black" points="317,-349.9 320.5,-359.9 324,-349.9 317,-349.9"/>
</g>
</g>
</svg>
