<?xml version="1.0" encoding="UTF-8" standalone="no"?>
<!DOCTYPE svg PUBLIC "-//W3C//DTD SVG 1.1//EN"
 "http://www.w3.org/Graphics/SVG/1.1/DTD/svg11.dtd">
<!-- Generated by graphviz version 2.40.1 (20161225.0304)
 -->
<!-- Title: %3 Pages: 1 -->
<svg width="749pt" height="188pt"
 viewBox="0.00 0.00 749.00 188.00" xmlns="http://www.w3.org/2000/svg" xmlns:xlink="http://www.w3.org/1999/xlink">
<g id="graph0" class="graph" transform="scale(1 1) rotate(0) translate(4 184)">
<title>%3</title>
<polygon fill="transparent" stroke="transparent" points="-4,4 -4,-184 745,-184 745,4 -4,4"/>
<!-- 1 -->
<g id="node1" class="node">
<title>1</title>
<polygon fill="#d3d3d3" stroke="#000000" points="478,-36 251,-36 251,0 478,0 478,-36"/>
<text text-anchor="middle" x="364.5" y="-15.5" font-family="Fira Mono" font-size="10.00" fill="#000000">CL&#45;DATA&#45;STRUCTURES:UPDATE!&#45;FUNCTION</text>
</g>
<!-- 4 -->
<g id="node2" class="node">
<title>4</title>
<polygon fill="#d3d3d3" stroke="#000000" points="221,-108 0,-108 0,-72 221,-72 221,-108"/>
<text text-anchor="middle" x="110.5" y="-87.5" font-family="Fira Mono" font-size="10.00" fill="#000000">CL&#45;DATA&#45;STRUCTURES:UPDATE&#45;FUNCTION</text>
</g>
<!-- 1&#45;&gt;4 -->
<g id="edge1" class="edge">
<title>1&#45;&gt;4</title>
<path fill="none" stroke="#000000" d="M300.7329,-36.0757C265.2548,-46.1325 220.9377,-58.6948 184.0057,-69.1637"/>
<polygon fill="none" stroke="#000000" points="182.9597,-65.8223 174.2933,-71.9169 184.8688,-72.5569 182.9597,-65.8223"/>
</g>
<!-- 3 -->
<g id="node4" class="node">
<title>3</title>
<polygon fill="#d3d3d3" stroke="#000000" points="490,-108 239,-108 239,-72 490,-72 490,-108"/>
<text text-anchor="middle" x="364.5" y="-87.5" font-family="Fira Mono" font-size="10.00" fill="#000000">CL&#45;DATA&#45;STRUCTURES:DESTRUCTIVE&#45;FUNCTION</text>
</g>
<!-- 1&#45;&gt;3 -->
<g id="edge2" class="edge">
<title>1&#45;&gt;3</title>
<path fill="none" stroke="#000000" d="M364.5,-36.1686C364.5,-43.869 364.5,-53.0257 364.5,-61.5834"/>
<polygon fill="none" stroke="#000000" points="361.0001,-61.5867 364.5,-71.5867 368.0001,-61.5868 361.0001,-61.5867"/>
</g>
<!-- 2 -->
<g id="node5" class="node">
<title>2</title>
<polygon fill="#d3d3d3" stroke="#000000" points="741,-108 508,-108 508,-72 741,-72 741,-108"/>
<text text-anchor="middle" x="624.5" y="-87.5" font-family="Fira Mono" font-size="10.00" fill="#000000">CLOSER&#45;MOP:STANDARD&#45;GENERIC&#45;FUNCTION</text>
</g>
<!-- 1&#45;&gt;2 -->
<g id="edge3" class="edge">
<title>1&#45;&gt;2</title>
<path fill="none" stroke="#000000" d="M429.7734,-36.0757C466.0896,-46.1325 511.4536,-58.6948 549.2579,-69.1637"/>
<polygon fill="none" stroke="#000000" points="548.6284,-72.6211 559.1998,-71.9169 550.4966,-65.8749 548.6284,-72.6211"/>
</g>
<!-- 5 -->
<g id="node3" class="node">
<title>5</title>
<polygon fill="#d3d3d3" stroke="#000000" points="215,-180 6,-180 6,-144 215,-144 215,-180"/>
<text text-anchor="middle" x="110.5" y="-159.5" font-family="Fira Mono" font-size="10.00" fill="#000000">CL&#45;DATA&#45;STRUCTURES:GROW&#45;FUNCTION</text>
</g>
<!-- 4&#45;&gt;5 -->
<g id="edge4" class="edge">
<title>4&#45;&gt;5</title>
<path fill="none" stroke="#000000" d="M110.5,-108.1686C110.5,-115.869 110.5,-125.0257 110.5,-133.5834"/>
<polygon fill="none" stroke="#000000" points="107.0001,-133.5867 110.5,-143.5867 114.0001,-133.5868 107.0001,-133.5867"/>
</g>
</g>
</svg>
