<?xml version="1.0" encoding="UTF-8" standalone="no"?>
<!DOCTYPE svg PUBLIC "-//W3C//DTD SVG 1.1//EN"
 "http://www.w3.org/Graphics/SVG/1.1/DTD/svg11.dtd">
<!-- Generated by graphviz version 2.40.1 (20161225.0304)
 -->
<!-- Title: %3 Pages: 1 -->
<svg width="698pt" height="332pt"
 viewBox="0.00 0.00 698.00 332.00" xmlns="http://www.w3.org/2000/svg" xmlns:xlink="http://www.w3.org/1999/xlink">
<g id="graph0" class="graph" transform="scale(1 1) rotate(0) translate(4 328)">
<title>%3</title>
<polygon fill="transparent" stroke="transparent" points="-4,4 -4,-328 694,-328 694,4 -4,4"/>
<!-- 1 -->
<g id="node1" class="node">
<title>1</title>
<polygon fill="#d3d3d3" stroke="#000000" points="579,-36 334,-36 334,0 579,0 579,-36"/>
<text text-anchor="middle" x="456.5" y="-15.5" font-family="Fira Mono" font-size="10.00" fill="#000000">CL&#45;DATA&#45;STRUCTURES:UNEXPECTED&#45;ARGUMENT</text>
</g>
<!-- 2 -->
<g id="node2" class="node">
<title>2</title>
<polygon fill="#d3d3d3" stroke="#000000" points="570,-108 343,-108 343,-72 570,-72 570,-108"/>
<text text-anchor="middle" x="456.5" y="-87.5" font-family="Fira Mono" font-size="10.00" fill="#000000">CL&#45;DATA&#45;STRUCTURES:INVALID&#45;ARGUMENT</text>
</g>
<!-- 1&#45;&gt;2 -->
<g id="edge1" class="edge">
<title>1&#45;&gt;2</title>
<path fill="none" stroke="#000000" d="M456.5,-36.1686C456.5,-43.869 456.5,-53.0257 456.5,-61.5834"/>
<polygon fill="none" stroke="#000000" points="453.0001,-61.5867 456.5,-71.5867 460.0001,-61.5868 453.0001,-61.5867"/>
</g>
<!-- 4 -->
<g id="node3" class="node">
<title>4</title>
<polygon fill="#d3d3d3" stroke="#000000" points="445,-180 230,-180 230,-144 445,-144 445,-180"/>
<text text-anchor="middle" x="337.5" y="-159.5" font-family="Fira Mono" font-size="10.00" fill="#000000">CL&#45;DATA&#45;STRUCTURES:ARGUMENT&#45;ERROR</text>
</g>
<!-- 2&#45;&gt;4 -->
<g id="edge2" class="edge">
<title>2&#45;&gt;4</title>
<path fill="none" stroke="#000000" d="M426.4713,-108.1686C411.2504,-117.3779 392.5872,-128.6699 376.2917,-138.5294"/>
<polygon fill="none" stroke="#000000" points="374.2631,-135.6659 367.5191,-143.8372 377.8868,-141.655 374.2631,-135.6659"/>
</g>
<!-- 3 -->
<g id="node8" class="node">
<title>3</title>
<polygon fill="#d3d3d3" stroke="#000000" points="690,-180 463,-180 463,-144 690,-144 690,-180"/>
<text text-anchor="middle" x="576.5" y="-159.5" font-family="Fira Mono" font-size="10.00" fill="#000000">MORE&#45;CONDITIONS:REFERENCE&#45;CONDITION</text>
</g>
<!-- 2&#45;&gt;3 -->
<g id="edge3" class="edge">
<title>2&#45;&gt;3</title>
<path fill="none" stroke="#000000" d="M486.7811,-108.1686C502.1298,-117.3779 520.9498,-128.6699 537.3823,-138.5294"/>
<polygon fill="none" stroke="#000000" points="535.8529,-141.6934 546.2286,-143.8372 539.4544,-135.6909 535.8529,-141.6934"/>
</g>
<!-- 5 -->
<g id="node4" class="node">
<title>5</title>
<polygon fill="#d3d3d3" stroke="#000000" points="442,-252 233,-252 233,-216 442,-216 442,-252"/>
<text text-anchor="middle" x="337.5" y="-231.5" font-family="Fira Mono" font-size="10.00" fill="#000000">CL&#45;DATA&#45;STRUCTURES:TEXTUAL&#45;ERROR</text>
</g>
<!-- 4&#45;&gt;5 -->
<g id="edge4" class="edge">
<title>4&#45;&gt;5</title>
<path fill="none" stroke="#000000" d="M337.5,-180.1686C337.5,-187.869 337.5,-197.0257 337.5,-205.5834"/>
<polygon fill="none" stroke="#000000" points="334.0001,-205.5867 337.5,-215.5867 341.0001,-205.5868 334.0001,-205.5867"/>
</g>
<!-- 8 -->
<g id="node5" class="node">
<title>8</title>
<polygon fill="#d3d3d3" stroke="#000000" points="227,-324 0,-324 0,-288 227,-288 227,-324"/>
<text text-anchor="middle" x="113.5" y="-303.5" font-family="Fira Mono" font-size="10.00" fill="#000000">MORE&#45;CONDITIONS:CHAINABLE&#45;CONDITION</text>
</g>
<!-- 5&#45;&gt;8 -->
<g id="edge5" class="edge">
<title>5&#45;&gt;8</title>
<path fill="none" stroke="#000000" d="M281.2645,-252.0757C250.3761,-262.0041 211.8904,-274.3745 179.5744,-284.7618"/>
<polygon fill="none" stroke="#000000" points="178.2079,-281.5246 169.7587,-287.9169 180.35,-288.1888 178.2079,-281.5246"/>
</g>
<!-- 7 -->
<g id="node6" class="node">
<title>7</title>
<polygon fill="#d3d3d3" stroke="#000000" points="430,-324 245,-324 245,-288 430,-288 430,-324"/>
<text text-anchor="middle" x="337.5" y="-303.5" font-family="Fira Mono" font-size="10.00" fill="#000000">COMMON&#45;LISP:SIMPLE&#45;CONDITION</text>
</g>
<!-- 5&#45;&gt;7 -->
<g id="edge6" class="edge">
<title>5&#45;&gt;7</title>
<path fill="none" stroke="#000000" d="M337.5,-252.1686C337.5,-259.869 337.5,-269.0257 337.5,-277.5834"/>
<polygon fill="none" stroke="#000000" points="334.0001,-277.5867 337.5,-287.5867 341.0001,-277.5868 334.0001,-277.5867"/>
</g>
<!-- 6 -->
<g id="node7" class="node">
<title>6</title>
<polygon fill="#d3d3d3" stroke="#000000" points="615,-324 448,-324 448,-288 615,-288 615,-324"/>
<text text-anchor="middle" x="531.5" y="-303.5" font-family="Fira Mono" font-size="10.00" fill="#000000">COMMON&#45;LISP:PROGRAM&#45;ERROR</text>
</g>
<!-- 5&#45;&gt;6 -->
<g id="edge7" class="edge">
<title>5&#45;&gt;6</title>
<path fill="none" stroke="#000000" d="M386.4544,-252.1686C412.862,-261.9694 445.6256,-274.1291 473.3286,-284.4106"/>
<polygon fill="none" stroke="#000000" points="472.3047,-287.7638 482.8976,-287.962 474.7403,-281.2012 472.3047,-287.7638"/>
</g>
</g>
</svg>
