<?xml version="1.0" encoding="UTF-8" standalone="no"?>
<!DOCTYPE svg PUBLIC "-//W3C//DTD SVG 1.1//EN"
 "http://www.w3.org/Graphics/SVG/1.1/DTD/svg11.dtd">
<!-- Generated by graphviz version 2.40.1 (20161225.0304)
 -->
<!-- Title: %3 Pages: 1 -->
<svg width="719pt" height="404pt"
 viewBox="0.00 0.00 719.00 404.00" xmlns="http://www.w3.org/2000/svg" xmlns:xlink="http://www.w3.org/1999/xlink">
<g id="graph0" class="graph" transform="scale(1 1) rotate(0) translate(4 400)">
<title>%3</title>
<polygon fill="transparent" stroke="transparent" points="-4,4 -4,-400 715,-400 715,4 -4,4"/>
<!-- 1 -->
<g id="node1" class="node">
<title>1</title>
<polygon fill="#d3d3d3" stroke="#000000" points="655,-36 356,-36 356,0 655,0 655,-36"/>
<text text-anchor="middle" x="505.5" y="-15.5" font-family="Fira Mono" font-size="10.00" fill="#000000">CL&#45;DATA&#45;STRUCTURES:INITIALIZATION&#45;OUT&#45;OF&#45;BOUNDS</text>
</g>
<!-- 8 -->
<g id="node2" class="node">
<title>8</title>
<polygon fill="#d3d3d3" stroke="#000000" points="557,-108 294,-108 294,-72 557,-72 557,-108"/>
<text text-anchor="middle" x="425.5" y="-87.5" font-family="Fira Mono" font-size="10.00" fill="#000000">CL&#45;DATA&#45;STRUCTURES:ARGUMENT&#45;OUT&#45;OF&#45;BOUNDS</text>
</g>
<!-- 1&#45;&gt;8 -->
<g id="edge1" class="edge">
<title>1&#45;&gt;8</title>
<path fill="none" stroke="#000000" d="M485.3126,-36.1686C475.6486,-44.8663 463.9204,-55.4217 453.4184,-64.8735"/>
<polygon fill="none" stroke="#000000" points="450.7725,-62.546 445.6809,-71.8372 455.4553,-67.749 450.7725,-62.546"/>
</g>
<!-- 2 -->
<g id="node6" class="node">
<title>2</title>
<polygon fill="#d3d3d3" stroke="#000000" points="711,-252 460,-252 460,-216 711,-216 711,-252"/>
<text text-anchor="middle" x="585.5" y="-231.5" font-family="Fira Mono" font-size="10.00" fill="#000000">CL&#45;DATA&#45;STRUCTURES:INITIALIZATION&#45;ERROR</text>
</g>
<!-- 1&#45;&gt;2 -->
<g id="edge2" class="edge">
<title>1&#45;&gt;2</title>
<path fill="none" stroke="#000000" d="M533.2763,-36.0922C545.1877,-45.3593 558.052,-57.7079 565.5,-72 587.7168,-114.632 589.2716,-171.9 587.7924,-205.6862"/>
<polygon fill="none" stroke="#000000" points="584.2917,-205.6024 587.2278,-215.7823 591.2808,-205.9933 584.2917,-205.6024"/>
</g>
<!-- 10 -->
<g id="node3" class="node">
<title>10</title>
<polygon fill="#d3d3d3" stroke="#000000" points="533,-180 324,-180 324,-144 533,-144 533,-180"/>
<text text-anchor="middle" x="428.5" y="-159.5" font-family="Fira Mono" font-size="10.00" fill="#000000">CL&#45;DATA&#45;STRUCTURES:OUT&#45;OF&#45;BOUNDS</text>
</g>
<!-- 8&#45;&gt;10 -->
<g id="edge3" class="edge">
<title>8&#45;&gt;10</title>
<path fill="none" stroke="#000000" d="M426.257,-108.1686C426.5779,-115.869 426.9594,-125.0257 427.316,-133.5834"/>
<polygon fill="none" stroke="#000000" points="423.8194,-133.7411 427.7328,-143.5867 430.8133,-133.4497 423.8194,-133.7411"/>
</g>
<!-- 9 -->
<g id="node5" class="node">
<title>9</title>
<polygon fill="#d3d3d3" stroke="#000000" points="306,-180 91,-180 91,-144 306,-144 306,-180"/>
<text text-anchor="middle" x="198.5" y="-159.5" font-family="Fira Mono" font-size="10.00" fill="#000000">CL&#45;DATA&#45;STRUCTURES:ARGUMENT&#45;ERROR</text>
</g>
<!-- 8&#45;&gt;9 -->
<g id="edge4" class="edge">
<title>8&#45;&gt;9</title>
<path fill="none" stroke="#000000" d="M368.5113,-108.0757C337.2093,-118.0041 298.2082,-130.3745 265.4594,-140.7618"/>
<polygon fill="none" stroke="#000000" points="263.9859,-137.5572 255.5121,-143.9169 266.1023,-144.2296 263.9859,-137.5572"/>
</g>
<!-- 11 -->
<g id="node4" class="node">
<title>11</title>
<polygon fill="#d3d3d3" stroke="#000000" points="442,-252 233,-252 233,-216 442,-216 442,-252"/>
<text text-anchor="middle" x="337.5" y="-231.5" font-family="Fira Mono" font-size="10.00" fill="#000000">CL&#45;DATA&#45;STRUCTURES:INVALID&#45;VALUE</text>
</g>
<!-- 10&#45;&gt;11 -->
<g id="edge5" class="edge">
<title>10&#45;&gt;11</title>
<path fill="none" stroke="#000000" d="M405.5369,-180.1686C394.3285,-189.0368 380.6791,-199.8363 368.5561,-209.4282"/>
<polygon fill="none" stroke="#000000" points="366.1263,-206.8875 360.4558,-215.8372 370.4697,-212.3771 366.1263,-206.8875"/>
</g>
<!-- 4 -->
<g id="node7" class="node">
<title>4</title>
<polygon fill="#d3d3d3" stroke="#000000" points="442,-324 233,-324 233,-288 442,-288 442,-324"/>
<text text-anchor="middle" x="337.5" y="-303.5" font-family="Fira Mono" font-size="10.00" fill="#000000">CL&#45;DATA&#45;STRUCTURES:TEXTUAL&#45;ERROR</text>
</g>
<!-- 11&#45;&gt;4 -->
<g id="edge6" class="edge">
<title>11&#45;&gt;4</title>
<path fill="none" stroke="#000000" d="M337.5,-252.1686C337.5,-259.869 337.5,-269.0257 337.5,-277.5834"/>
<polygon fill="none" stroke="#000000" points="334.0001,-277.5867 337.5,-287.5867 341.0001,-277.5868 334.0001,-277.5867"/>
</g>
<!-- 3 -->
<g id="node11" class="node">
<title>3</title>
<polygon fill="#d3d3d3" stroke="#000000" points="693,-324 466,-324 466,-288 693,-288 693,-324"/>
<text text-anchor="middle" x="579.5" y="-303.5" font-family="Fira Mono" font-size="10.00" fill="#000000">MORE&#45;CONDITIONS:REFERENCE&#45;CONDITION</text>
</g>
<!-- 11&#45;&gt;3 -->
<g id="edge7" class="edge">
<title>11&#45;&gt;3</title>
<path fill="none" stroke="#000000" d="M398.2545,-252.0757C431.9126,-262.0897 473.9207,-274.588 509.0174,-285.03"/>
<polygon fill="none" stroke="#000000" points="508.1377,-288.4198 518.7206,-287.9169 510.1339,-281.7104 508.1377,-288.4198"/>
</g>
<!-- 9&#45;&gt;4 -->
<g id="edge8" class="edge">
<title>9&#45;&gt;4</title>
<path fill="none" stroke="#000000" d="M199.1992,-180.2718C200.8642,-200.0588 206.2689,-231.5294 223.5,-252 234.8176,-265.4454 250.2421,-275.7675 266.0865,-283.6034"/>
<polygon fill="none" stroke="#000000" points="264.8912,-286.907 275.4361,-287.9346 267.8336,-280.5554 264.8912,-286.907"/>
</g>
<!-- 2&#45;&gt;4 -->
<g id="edge9" class="edge">
<title>2&#45;&gt;4</title>
<path fill="none" stroke="#000000" d="M523.2392,-252.0757C488.7466,-262.0897 445.697,-274.588 409.7301,-285.03"/>
<polygon fill="none" stroke="#000000" points="408.414,-281.7675 399.7864,-287.9169 410.3657,-288.4899 408.414,-281.7675"/>
</g>
<!-- 2&#45;&gt;3 -->
<g id="edge10" class="edge">
<title>2&#45;&gt;3</title>
<path fill="none" stroke="#000000" d="M583.9859,-252.1686C583.3442,-259.869 582.5812,-269.0257 581.8681,-277.5834"/>
<polygon fill="none" stroke="#000000" points="578.3771,-277.3306 581.0344,-287.5867 585.3529,-277.912 578.3771,-277.3306"/>
</g>
<!-- 7 -->
<g id="node8" class="node">
<title>7</title>
<polygon fill="#d3d3d3" stroke="#000000" points="227,-396 0,-396 0,-360 227,-360 227,-396"/>
<text text-anchor="middle" x="113.5" y="-375.5" font-family="Fira Mono" font-size="10.00" fill="#000000">MORE&#45;CONDITIONS:CHAINABLE&#45;CONDITION</text>
</g>
<!-- 4&#45;&gt;7 -->
<g id="edge11" class="edge">
<title>4&#45;&gt;7</title>
<path fill="none" stroke="#000000" d="M281.2645,-324.0757C250.3761,-334.0041 211.8904,-346.3745 179.5744,-356.7618"/>
<polygon fill="none" stroke="#000000" points="178.2079,-353.5246 169.7587,-359.9169 180.35,-360.1888 178.2079,-353.5246"/>
</g>
<!-- 6 -->
<g id="node9" class="node">
<title>6</title>
<polygon fill="#d3d3d3" stroke="#000000" points="430,-396 245,-396 245,-360 430,-360 430,-396"/>
<text text-anchor="middle" x="337.5" y="-375.5" font-family="Fira Mono" font-size="10.00" fill="#000000">COMMON&#45;LISP:SIMPLE&#45;CONDITION</text>
</g>
<!-- 4&#45;&gt;6 -->
<g id="edge12" class="edge">
<title>4&#45;&gt;6</title>
<path fill="none" stroke="#000000" d="M337.5,-324.1686C337.5,-331.869 337.5,-341.0257 337.5,-349.5834"/>
<polygon fill="none" stroke="#000000" points="334.0001,-349.5867 337.5,-359.5867 341.0001,-349.5868 334.0001,-349.5867"/>
</g>
<!-- 5 -->
<g id="node10" class="node">
<title>5</title>
<polygon fill="#d3d3d3" stroke="#000000" points="615,-396 448,-396 448,-360 615,-360 615,-396"/>
<text text-anchor="middle" x="531.5" y="-375.5" font-family="Fira Mono" font-size="10.00" fill="#000000">COMMON&#45;LISP:PROGRAM&#45;ERROR</text>
</g>
<!-- 4&#45;&gt;5 -->
<g id="edge13" class="edge">
<title>4&#45;&gt;5</title>
<path fill="none" stroke="#000000" d="M386.4544,-324.1686C412.862,-333.9694 445.6256,-346.1291 473.3286,-356.4106"/>
<polygon fill="none" stroke="#000000" points="472.3047,-359.7638 482.8976,-359.962 474.7403,-353.2012 472.3047,-359.7638"/>
</g>
</g>
</svg>
